<svg width="50" height="50" viewBox="0 0 50 50" fill="none" xmlns="http://www.w3.org/2000/svg">
<path d="M4.31055 15.9941H16.3505L20.4317 21.8525L16.3505 34.1502L4.31055 15.9941Z" fill="#C9E265"/>
<path d="M46.6636 34.1036H34.6247L30.6973 28.3247L34.6859 15.9941L46.6636 34.1036Z" fill="#008037"/>
<path d="M28.8182 34.1502H16.3477L22.3729 15.9941H34.6876L28.8182 34.1502Z" fill="#7ED957"/>
<path d="M7.99219 26.0508L17.5121 9.90234L17.5323 9.94474L25.2354 26.0985H25.1983L7.99219 26.0508ZM17.5079 10.0083L8.08234 25.9968L25.158 26.0529L17.5079 10.0083Z" fill="#09C75B"/>
<path fill-rule="evenodd" clip-rule="evenodd" d="M17.5215 9.74771C17.5787 9.75026 17.6299 9.78417 17.6545 9.83588L17.6745 9.8781L17.6746 9.87828L25.3777 26.0319C25.4005 26.0798 25.3972 26.1361 25.3688 26.1809C25.3405 26.2258 25.291 26.253 25.2379 26.253H25.2004L7.99423 26.2053C7.93876 26.2052 7.88761 26.1754 7.86015 26.1272C7.83268 26.0791 7.83311 26.02 7.86126 25.9722L17.3812 9.82373C17.4103 9.77441 17.4643 9.74517 17.5215 9.74771ZM17.4959 10.3375L8.35512 25.8429L24.9149 25.8973L17.4959 10.3375Z" fill="#09C75B"/>
<path d="M25.1889 26.1251L25.1698 26.087L17.4688 9.92896H17.5133L34.0311 11.7701L34.0078 11.804L25.1889 26.1251ZM17.5525 9.98831L25.2005 26.0266L33.9431 11.8104L17.5525 9.98831Z" fill="#09C75B"/>
<path fill-rule="evenodd" clip-rule="evenodd" d="M17.3403 9.84552C17.3687 9.80065 17.4181 9.77344 17.4712 9.77344H17.5158C17.5215 9.77344 17.5272 9.77376 17.5329 9.77439L34.0507 11.6155C34.1048 11.6216 34.1517 11.6555 34.1744 11.7049C34.197 11.7544 34.192 11.812 34.1612 11.8568L34.14 11.8875L25.3232 26.2053C25.2938 26.2531 25.2407 26.2812 25.1845 26.2788C25.1284 26.2763 25.078 26.2436 25.0529 26.1934L25.0338 26.1552L25.0325 26.1526L17.3314 9.99456C17.3086 9.94665 17.312 9.89039 17.3403 9.84552ZM33.6859 11.9363L17.8144 10.1719L25.2202 25.7022L33.6859 11.9363Z" fill="#09C75B"/>
<path d="M34.0262 11.8236H33.9848L17.4395 9.98035L17.4957 9.94219L29.9991 0.762939L30.0108 0.791558L34.0262 11.8236ZM17.5805 9.94007L33.9488 11.7643L29.9758 0.838197L17.5805 9.94007Z" fill="#09C75B"/>
<path fill-rule="evenodd" clip-rule="evenodd" d="M30.0456 0.614462C30.0915 0.627417 30.1289 0.660814 30.1469 0.704974L30.1586 0.733593C30.1593 0.735405 30.16 0.73723 30.1607 0.739068L34.1761 11.7711C34.1934 11.8185 34.1864 11.8714 34.1574 11.9127C34.1285 11.954 34.0811 11.9786 34.0306 11.9786H33.9893C33.9835 11.9786 33.9778 11.9783 33.9721 11.9777L17.4267 10.1344C17.3623 10.1272 17.3092 10.0807 17.2936 10.0179C17.278 9.95506 17.3033 9.88918 17.3569 9.85279L17.4107 9.81623L29.9118 0.638678C29.9503 0.610442 29.9997 0.601507 30.0456 0.614462ZM17.9959 9.83061L33.7226 11.5833L29.9053 1.0855L17.9959 9.83061Z" fill="#09C75B"/>
<path d="M17.4982 9.99411L17.4855 9.96867L13.959 2.88391H13.9961L30.0759 0.769287L17.4982 9.99411ZM14.0364 2.92842L17.5173 9.92415L29.8945 0.835004L14.0364 2.92842Z" fill="#09C75B"/>
<path fill-rule="evenodd" clip-rule="evenodd" d="M30.22 0.711738C30.2464 0.77725 30.225 0.852275 30.168 0.89406L17.5904 10.1189C17.5536 10.1459 17.5067 10.1553 17.4624 10.1446C17.418 10.1339 17.3806 10.1041 17.3602 10.0634L17.3475 10.0379L13.8209 2.95288C13.797 2.90494 13.7997 2.84808 13.8279 2.80257C13.8561 2.75706 13.9059 2.72937 13.9595 2.72937H13.9865L30.0562 0.616077C30.1263 0.606862 30.1937 0.646226 30.22 0.711738ZM29.3174 1.06737L14.272 3.0535L17.5745 9.69071L29.3174 1.06737Z" fill="#09C75B"/>
<path d="M14.0025 2.93179L13.9961 2.88197L24.8142 0.416504L30.1862 0.809749L14.0025 2.93179ZM24.8089 0.468442L14.4267 2.85017L29.7906 0.822468L24.8089 0.468442Z" fill="#09C75B"/>
<path fill-rule="evenodd" clip-rule="evenodd" d="M24.7823 0.265349C24.7973 0.261932 24.8127 0.260765 24.828 0.261888L30.2 0.655133C30.2792 0.660931 30.3411 0.725643 30.3434 0.804933C30.3457 0.884224 30.2875 0.952379 30.2088 0.962702L14.0251 3.08474C13.9843 3.09009 13.943 3.07899 13.9104 3.05389C13.8778 3.02879 13.8566 2.99176 13.8514 2.95098L13.845 2.90116C13.8349 2.82222 13.8865 2.74852 13.9641 2.73081L24.7823 0.265349ZM24.8235 0.623961L17.659 2.26753L28.2612 0.868266L24.8235 0.623961Z" fill="#09C75B"/>
<path d="M42.0987 12.3399L33.9692 11.8099L33.9639 11.7951L29.9336 0.708984L42.0987 12.3399ZM34.0042 11.7665L41.9587 12.2806L30.0513 0.892357L34.0042 11.7665Z" fill="#09C75B"/>
<path fill-rule="evenodd" clip-rule="evenodd" d="M29.8476 0.579308C29.9079 0.540059 29.9873 0.547442 30.0392 0.597128L42.2043 12.2281C42.2513 12.273 42.2652 12.3425 42.239 12.402C42.2128 12.4615 42.1521 12.4983 42.0872 12.4941L33.9577 11.9641C33.8961 11.9601 33.8427 11.9199 33.822 11.8618L33.8169 11.8478L33.8167 11.847L29.7867 0.761639C29.7621 0.694096 29.7874 0.618557 29.8476 0.579308ZM30.4217 1.46191L34.1137 11.6185L41.5434 12.0987L30.4217 1.46191Z" fill="#09C75B"/>
<path d="M42.083 12.4198L29.8691 0.729492L38.3041 4.27188V4.28036L42.083 12.4198ZM30.1067 0.872587L41.9112 12.2025L38.2691 4.31216L30.1067 0.872587Z" fill="#09C75B"/>
<path fill-rule="evenodd" clip-rule="evenodd" d="M29.7403 0.644003C29.7812 0.581682 29.8609 0.557428 29.9297 0.586322L38.3646 4.12871C38.4115 4.14839 38.445 4.18943 38.4558 4.23769L42.224 12.3541C42.2553 12.4216 42.2341 12.5018 42.1736 12.545C42.113 12.5882 42.0302 12.5823 41.9764 12.5308L29.7626 0.840549C29.7087 0.788969 29.6993 0.706324 29.7403 0.644003ZM41.4279 11.523L38.1542 4.43074L30.8173 1.33905L41.4279 11.523Z" fill="#09C75B"/>
<path d="M42.0133 12.3394L38.1855 4.15649L45.2799 10.971L42.0133 12.3394ZM38.3849 4.42572L42.0366 12.279L45.1898 10.9519L38.3849 4.42572Z" fill="#09C75B"/>
<path fill-rule="evenodd" clip-rule="evenodd" d="M38.096 4.03157C38.1566 3.98821 38.2396 3.99422 38.2934 4.04586L45.3877 10.8603C45.4253 10.8964 45.4422 10.949 45.4326 11.0002C45.4231 11.0513 45.3884 11.0943 45.3403 11.1144L42.0737 12.4828C41.997 12.5149 41.9087 12.4809 41.8735 12.4057L38.0458 4.2228C38.0142 4.15531 38.0353 4.07492 38.096 4.03157ZM38.8735 5.10898L42.1146 12.0794L44.9133 10.9015L38.8735 5.10898Z" fill="#09C75B"/>
<path d="M47.3357 14.5411L41.9648 12.3067L45.2463 10.9287L47.3357 14.5411ZM42.0879 12.3151L47.1989 14.4149L45.2251 10.9923L42.0879 12.3151Z" fill="#09C75B"/>
<path fill-rule="evenodd" clip-rule="evenodd" d="M45.1869 10.7868C45.2588 10.7566 45.3419 10.7845 45.3809 10.852L47.4703 14.4643C47.5035 14.5217 47.4964 14.5939 47.4526 14.6437C47.4087 14.6936 47.338 14.7099 47.2767 14.6844L41.9058 12.45C41.8482 12.4261 41.8107 12.3699 41.8105 12.3075C41.8104 12.2452 41.8478 12.1889 41.9054 12.1647L45.1869 10.7868ZM42.4909 12.3139L46.8389 14.1002L45.1598 11.1886L42.4909 12.3139Z" fill="#09C75B"/>
<path d="M43.2556 26.331H43.2068L25.1543 26.0967L25.1787 26.0607L33.9912 11.7512L34.0114 11.7841L43.2556 26.331ZM25.2444 26.0533L43.1622 26.278L33.9944 11.8392L25.2444 26.0533Z" fill="#09C75B"/>
<path fill-rule="evenodd" clip-rule="evenodd" d="M33.9899 11.5972C34.0438 11.5972 34.0937 11.6252 34.1218 11.671L34.1413 11.7028L43.3848 26.2487C43.4151 26.2963 43.417 26.3566 43.3898 26.4061C43.3626 26.4555 43.3106 26.4862 43.2541 26.4862H43.2033L25.1509 26.2519C25.0939 26.2512 25.042 26.2193 25.0157 26.1689C24.9893 26.1186 24.9927 26.0578 25.0246 26.0107L25.0471 25.9774L33.8579 11.6708C33.8861 11.625 33.9361 11.5971 33.9899 11.5972ZM25.5178 25.9026L42.877 26.1203L33.995 12.1317L25.5178 25.9026Z" fill="#09C75B"/>
<path d="M32.6579 42.1966L32.6399 42.1563L25.1562 26.0449L43.2501 26.2866L43.2268 26.3216L32.6579 42.1966ZM25.2337 26.1032L32.6653 42.0948L43.161 26.3311L25.2337 26.1032Z" fill="#09C75B"/>
<path fill-rule="evenodd" clip-rule="evenodd" d="M25.0268 25.9612C25.0558 25.9166 25.1056 25.8899 25.1588 25.8906L43.2527 26.1323C43.3094 26.1331 43.3612 26.1647 43.3876 26.2149C43.414 26.265 43.4109 26.3255 43.3795 26.3727L43.3562 26.4076L43.3561 26.4077L32.7873 42.2826C32.7561 42.3295 32.7017 42.3557 32.6455 42.3511C32.5893 42.3464 32.5401 42.3115 32.5171 42.2601L32.4999 42.2217L32.499 42.2198L25.0163 26.1104C24.9939 26.0621 24.9979 26.0058 25.0268 25.9612ZM32.6899 41.7797L42.875 26.4825L25.4782 26.2613L32.6899 41.7797Z" fill="#09C75B"/>
<path d="M17.0529 39.8988L17.0296 39.8638L7.99219 25.9995H8.03567L25.2397 26.0674L25.2185 26.1066L17.0529 39.8988ZM8.08128 26.0462L17.0487 39.8023L25.1538 26.1193L8.08128 26.0462Z" fill="#09C75B"/>
<path fill-rule="evenodd" clip-rule="evenodd" d="M7.85856 25.9259C7.88563 25.876 7.93786 25.845 7.99466 25.845H8.03875L25.2428 25.9128C25.2972 25.913 25.3475 25.9418 25.3753 25.9885C25.4031 26.0353 25.4042 26.0931 25.3784 26.141L25.3571 26.1802C25.3562 26.1819 25.3552 26.1837 25.3542 26.1854L17.1886 39.9776C17.1615 40.0234 17.1128 40.052 17.0595 40.0535C17.0063 40.0549 16.9561 40.0289 16.9265 39.9846L16.9023 39.9483L7.86492 26.084C7.83393 26.0365 7.83149 25.9758 7.85856 25.9259ZM8.37011 26.2021L17.0448 39.5094L24.8854 26.2729L8.37011 26.2021Z" fill="#09C75B"/>
<path d="M6.21289 40.9927V40.964L8.01591 25.9497L8.05515 26.0101L17.0925 39.8733H17.0491L6.21289 40.9927ZM8.05622 26.097L6.26804 40.9365L17.0066 39.8256L8.05622 26.097Z" fill="#09C75B"/>
<path fill-rule="evenodd" clip-rule="evenodd" d="M7.97947 25.7992C8.04296 25.7845 8.10888 25.811 8.14435 25.8657L17.2208 39.7891C17.2518 39.8366 17.2543 39.8973 17.2272 39.9472C17.2001 39.997 17.1479 40.0281 17.0911 40.0281H17.0556L6.22738 41.1466C6.18378 41.1511 6.14032 41.1369 6.10777 41.1076C6.07522 41.0783 6.05664 41.0365 6.05664 40.9928V40.9641C6.05664 40.958 6.05701 40.9518 6.05774 40.9457L7.86076 25.9314C7.86853 25.8668 7.91599 25.8139 7.97947 25.7992ZM16.7372 39.698L8.15757 26.5382L6.44348 40.7628L16.7372 39.698Z" fill="#09C75B"/>
<path d="M20.6547 49.3218L6.15625 40.9482H6.2358L17.0656 39.832L17.072 39.8479L20.6547 49.3218ZM6.31958 40.9874L20.5518 49.2021L17.0327 39.8744L6.31958 40.9874Z" fill="#09C75B"/>
<path fill-rule="evenodd" clip-rule="evenodd" d="M17.0522 39.6786C17.121 39.6715 17.1861 39.7108 17.2118 39.775L17.2182 39.7909L17.2193 39.7936L20.802 49.2676C20.8251 49.3287 20.8072 49.3978 20.7573 49.4401C20.7075 49.4824 20.6363 49.4888 20.5797 49.4561L6.08124 41.0824C6.0206 41.0474 5.99106 40.976 6.00921 40.9085C6.02736 40.8409 6.08868 40.7939 6.15874 40.7939H6.23031L17.0522 39.6786ZM6.8126 41.0923L20.2566 48.852L16.9324 40.0409L6.8126 41.0923Z" fill="#09C75B"/>
<path d="M20.7944 49.3476L13.0128 46.4709L6.06055 40.8308L20.7944 49.3476ZM13.0425 46.4274L20.4147 49.1769L6.41479 41.1032L13.0425 46.4274Z" fill="#09C75B"/>
<path fill-rule="evenodd" clip-rule="evenodd" d="M5.93359 40.7432C5.97942 40.6767 6.0687 40.6567 6.13861 40.6971L20.8725 49.2139C20.9421 49.2541 20.9693 49.3408 20.935 49.4135C20.9008 49.4862 20.8166 49.5206 20.7412 49.4927L12.9596 46.616C12.9437 46.6101 12.9289 46.6017 12.9157 46.591L5.96347 40.951C5.90077 40.9001 5.88776 40.8096 5.93359 40.7432ZM8.07895 42.2413L13.1206 46.2914L18.7285 48.3829L8.07895 42.2413Z" fill="#09C75B"/>
<path d="M6.34287 41.1314L3.39334 37.0611L0.265625 26.0312L0.312291 26.0132L6.34287 41.1314ZM3.43894 37.0368L6.13923 40.7975L0.460776 26.4679L3.43894 37.0368Z" fill="#09C75B"/>
<path fill-rule="evenodd" clip-rule="evenodd" d="M0.257016 25.8693C0.336186 25.8388 0.425237 25.8776 0.456656 25.9563L6.48723 41.0745C6.51615 41.147 6.48647 41.2297 6.41803 41.2673C6.34958 41.3049 6.26381 41.2857 6.21801 41.2225L3.26848 37.1522C3.25784 37.1375 3.24987 37.1211 3.24493 37.1037L0.117217 26.0737C0.09543 25.9969 0.135786 25.9161 0.21035 25.8874L0.257016 25.8693ZM1.42782 29.3274L3.58114 36.9691L5.53355 39.6882L1.42782 29.3274Z" fill="#09C75B"/>
<path d="M24.8066 49.6992L20.3828 49.2561L35.2217 47.4626L35.228 47.5125L24.8066 49.6992ZM20.8304 49.2688L24.8055 49.6504L34.6267 47.5591L20.8304 49.2688Z" fill="#09C75B"/>
<path fill-rule="evenodd" clip-rule="evenodd" d="M35.2056 47.3092C35.29 47.299 35.3669 47.3589 35.3777 47.4432L35.3841 47.493C35.3943 47.573 35.3413 47.6474 35.2623 47.6639L24.8409 49.8506C24.8253 49.8539 24.8094 49.8547 24.7936 49.8532L20.3698 49.4101C20.2913 49.4022 20.2313 49.3366 20.2305 49.2578C20.2297 49.179 20.2883 49.1122 20.3667 49.1027L35.2056 47.3092ZM22.2479 49.2494L24.799 49.4943L31.102 48.1522L22.2479 49.2494Z" fill="#09C75B"/>
<path d="M20.5953 49.2974L17.0137 39.8203L17.0561 39.8267L32.7413 42.1321L32.6777 42.1681L20.5953 49.2974ZM17.0953 39.8818L20.6197 49.2264L32.5907 42.1596L17.0953 39.8818Z" fill="#09C75B"/>
<path fill-rule="evenodd" clip-rule="evenodd" d="M16.8918 39.723C16.9263 39.6803 16.9809 39.6591 17.0352 39.6672L17.0776 39.6736L32.7624 41.9789C32.8278 41.9886 32.8799 42.0386 32.8921 42.1035C32.9042 42.1684 32.8738 42.2339 32.8162 42.2665L32.7538 42.3018L20.6726 49.4304C20.6333 49.4537 20.5857 49.4583 20.5425 49.4432C20.4994 49.428 20.4652 49.3946 20.4491 49.3519L16.8674 39.8748C16.848 39.8235 16.8573 39.7657 16.8918 39.723ZM32.1337 42.2488L17.3315 40.0729L20.6982 48.9995L32.1337 42.2488Z" fill="#09C75B"/>
<path d="M20.4961 49.2967L20.5937 49.2405L32.6739 42.1123L32.6856 42.1346L35.265 47.5086H35.2268L20.4961 49.2967ZM32.6538 42.1812L20.7167 49.2268L35.1812 47.464L32.6538 42.1812Z" fill="#09C75B"/>
<path fill-rule="evenodd" clip-rule="evenodd" d="M32.7149 41.9634C32.7557 41.975 32.79 42.0029 32.8097 42.0404L32.8213 42.0627C32.8222 42.0643 32.823 42.0659 32.8238 42.0676L35.4031 47.4416C35.4261 47.4895 35.4229 47.5458 35.3946 47.5908C35.3662 47.6358 35.3167 47.6631 35.2635 47.6631H35.2347L20.5134 49.4501C20.4403 49.459 20.3711 49.4152 20.3478 49.3455C20.3245 49.2758 20.3536 49.1993 20.4174 49.1626L20.5135 49.1072L20.5149 49.1064L32.5938 41.979C32.6303 41.9575 32.6741 41.9518 32.7149 41.9634ZM21.4314 48.9835L34.9472 47.3364L32.5856 42.4001L21.4314 48.9835Z" fill="#09C75B"/>
<path d="M35.2148 47.5308L35.1989 47.5011L32.627 42.1621L32.6566 42.1536L45.368 39.1741L45.2969 39.243L35.2148 47.5308ZM32.7001 42.1939L35.2275 47.4492L45.1972 39.2748L32.7001 42.1939Z" fill="#09C75B"/>
<path fill-rule="evenodd" clip-rule="evenodd" d="M45.5063 39.0997C45.5396 39.1607 45.5282 39.2365 45.4782 39.2849L45.4072 39.3538C45.4042 39.3568 45.401 39.3596 45.3977 39.3623L35.3157 47.6501C35.2799 47.6795 35.2327 47.6914 35.1872 47.6824C35.1418 47.6734 35.1027 47.6445 35.0808 47.6037L35.0649 47.574C35.0639 47.572 35.0628 47.57 35.0619 47.568L32.4899 42.229C32.4701 42.188 32.4695 42.1402 32.4882 42.0986C32.5069 42.0571 32.543 42.0258 32.5869 42.0133L32.6166 42.0048C32.6189 42.0041 32.6213 42.0035 32.6238 42.0029L45.3351 39.0234C45.4028 39.0075 45.4729 39.0387 45.5063 39.0997ZM32.9257 42.3005L35.2842 47.2046L44.5876 39.5764L32.9257 42.3005Z" fill="#09C75B"/>
<path d="M6.25244 41.0648L0.244141 25.9985H8.06077V26.0261L6.25244 41.0648ZM0.321564 26.0484L6.21957 40.8698L8.0035 26.0484H0.321564Z" fill="#09C75B"/>
<path fill-rule="evenodd" clip-rule="evenodd" d="M0.116524 25.9119C0.145332 25.8694 0.193327 25.844 0.24466 25.844H8.06129C8.14679 25.844 8.2161 25.9132 8.2161 25.9986V26.0262C8.2161 26.0324 8.21573 26.0385 8.215 26.0446L6.40667 41.0833C6.39823 41.1536 6.34319 41.2091 6.273 41.2183C6.20281 41.2274 6.13534 41.1878 6.10914 41.1221L0.100836 26.0559C0.0818392 26.0082 0.087715 25.9543 0.116524 25.9119ZM0.550222 26.2031L6.13905 40.2476L7.82947 26.2031H0.550222Z" fill="#09C75B"/>
<path d="M4.59375 13.5613L4.64678 13.4998L14.0023 2.86206L14.0193 2.89598L17.5426 9.97439L4.59375 13.5613ZM13.9907 2.9511L4.73799 13.4701L17.4705 9.94259L13.9907 2.9511Z" fill="#09C75B"/>
<path fill-rule="evenodd" clip-rule="evenodd" d="M14.0247 2.70807C14.0758 2.71467 14.1203 2.74625 14.1433 2.7923L14.1604 2.8265L17.6837 9.90491C17.7043 9.94624 17.7053 9.99459 17.6865 10.0367C17.6677 10.0789 17.631 10.1105 17.5865 10.1228L4.63759 13.7097C4.57188 13.7279 4.50198 13.701 4.46547 13.6435C4.42896 13.5859 4.43443 13.5113 4.47894 13.4597L4.53294 13.3971L13.8885 2.75937C13.9225 2.72069 13.9736 2.70146 14.0247 2.70807ZM5.19961 13.1818L17.2508 9.84302L13.9572 3.22563L5.19961 13.1818Z" fill="#09C75B"/>
<path d="M8.06964 26.0487H0.251953L0.26468 26.0137L4.67254 13.4309L8.06964 26.0487ZM0.321953 25.9988H8.00707L4.6683 13.5973L0.321953 25.9988Z" fill="#09C75B"/>
<path fill-rule="evenodd" clip-rule="evenodd" d="M4.68073 13.2757C4.74858 13.2782 4.80688 13.3246 4.82451 13.3901L8.22162 26.0079C8.23413 26.0543 8.22428 26.104 8.19498 26.1421C8.16568 26.1803 8.12027 26.2027 8.07212 26.2027H0.254425C0.203926 26.2027 0.156601 26.1781 0.127627 26.1368C0.0986535 26.0955 0.0916728 26.0426 0.108924 25.9952L0.121026 25.962L0.121651 25.9602L4.52888 13.3792C4.55131 13.3152 4.61288 13.2732 4.68073 13.2757ZM0.542653 25.8436H7.80759L4.65136 14.1201L0.542653 25.8436Z" fill="#09C75B"/>
<path d="M0.311231 26.0314L0.265625 26.0134L2.36243 15.2972L4.73076 13.4094L0.311231 26.0314ZM2.40592 15.3258L0.434261 25.5301L4.60667 13.6204L2.40592 15.3258Z" fill="#09C75B"/>
<path fill-rule="evenodd" clip-rule="evenodd" d="M4.82085 13.2834C4.87713 13.3233 4.9002 13.3955 4.87742 13.4606L0.457899 26.0826C0.443986 26.1223 0.414461 26.1547 0.376137 26.1722C0.337814 26.1897 0.294004 26.1908 0.254819 26.1753L0.209213 26.1573C0.139845 26.1299 0.099909 26.057 0.114219 25.9838L2.21103 15.2677C2.21807 15.2316 2.2377 15.1993 2.26641 15.1764L4.63473 13.2887C4.68866 13.2457 4.76457 13.2435 4.82085 13.2834ZM2.54741 15.4124L0.98808 23.4827L4.28792 14.0636L2.54741 15.4124Z" fill="#09C75B"/>
<path d="M2.28711 15.4519L3.77937 12.5402L13.9802 2.89453L14.0163 2.92739L4.68301 13.5365L2.28711 15.4519ZM3.81862 12.572L2.47377 15.1763L4.64907 13.4984L13.4637 3.48811L3.81862 12.572Z" fill="#09C75B"/>
<path fill-rule="evenodd" clip-rule="evenodd" d="M13.8763 2.78257C13.9352 2.72688 14.0271 2.72603 14.0871 2.78063L14.1231 2.81349C14.1855 2.8703 14.1908 2.96651 14.1351 3.02983L4.80178 13.639C4.79582 13.6457 4.78927 13.652 4.78222 13.6576L2.38632 15.573C2.32934 15.6185 2.24824 15.6181 2.1917 15.572C2.13516 15.5259 2.11852 15.4466 2.15178 15.3817L3.64405 12.47C3.65206 12.4544 3.66267 12.4403 3.67543 12.4282L13.8763 2.78257ZM11.1616 5.87151L3.94655 12.6667L2.93347 14.6286L4.54514 13.3854L11.1616 5.87151Z" fill="#09C75B"/>
<path d="M8.02835 26.0877L8.0135 26.0304L4.63867 13.4985L4.66307 13.4911L17.5632 9.91797L17.5313 9.97097L8.02835 26.0877ZM4.70019 13.5324L8.04638 25.9594L17.4571 9.99853L4.70019 13.5324Z" fill="#09C75B"/>
<path d="M32.7063 42.1776L32.6607 42.1702L17.0137 39.8711L17.0296 39.8393L25.2036 26.0376L25.2248 26.0832L32.7063 42.1776ZM17.09 39.8319L32.6225 42.1151L25.1983 26.15L17.09 39.8319Z" fill="#09C75B"/>
<path fill-rule="evenodd" clip-rule="evenodd" d="M25.2099 25.8832C25.2673 25.8861 25.3184 25.9205 25.3426 25.9725L25.3638 26.0181L32.8453 42.1126C32.8694 42.1645 32.8629 42.2255 32.8282 42.2711C32.7936 42.3168 32.7366 42.3396 32.68 42.3303L32.6344 42.3229L16.9897 40.0242C16.9406 40.017 16.8979 39.9867 16.875 39.9427C16.852 39.8988 16.8516 39.8465 16.8738 39.8021L16.8897 39.7703C16.8913 39.767 16.893 39.7638 16.8949 39.7607L25.069 25.959C25.0982 25.9096 25.1525 25.8804 25.2099 25.8832ZM32.3598 41.9205L25.1803 26.4816L17.3393 39.7126L32.3598 41.9205Z" fill="#09C75B"/>
<path d="M32.6055 42.1882L32.6436 42.132L43.22 26.2983L43.2274 26.3641L45.304 39.2394L45.2828 39.2457L32.6055 42.1882ZM43.1903 26.4372L32.72 42.1045L45.25 39.2033L43.1903 26.4372Z" fill="#09C75B"/>
<path fill-rule="evenodd" clip-rule="evenodd" d="M43.257 26.1484C43.3202 26.1637 43.367 26.2168 43.3743 26.2814L43.3813 26.3434L45.4574 39.2151C45.4698 39.2917 45.4234 39.3656 45.3491 39.3879L45.3279 39.3942C45.3247 39.3952 45.3216 39.396 45.3184 39.3967L32.641 42.3392C32.579 42.3536 32.5144 42.3285 32.4783 42.276C32.4423 42.2235 32.4421 42.1544 32.4779 42.1017L32.5154 42.0465L32.5161 42.0455L43.0917 26.2129C43.1278 26.1588 43.1938 26.1331 43.257 26.1484ZM33.0663 41.866L45.0746 39.0857L43.1007 26.8509L33.0663 41.866Z" fill="#09C75B"/>
<path d="M45.27 39.3197L43.1816 26.2822L49.6789 26.4571L49.6874 26.491L45.27 39.3197ZM43.2379 26.331L45.2965 39.1215L49.6269 26.508L43.2379 26.331Z" fill="#09C75B"/>
<path fill-rule="evenodd" clip-rule="evenodd" d="M43.0638 26.1807C43.0941 26.1461 43.1383 26.1267 43.1844 26.128L49.6816 26.3029C49.7511 26.3047 49.8108 26.3526 49.8276 26.42L49.8361 26.4539C49.8434 26.4829 49.8421 26.5134 49.8323 26.5417L45.4149 39.3704C45.3918 39.4375 45.326 39.4803 45.2552 39.4742C45.1844 39.468 45.1269 39.4146 45.1157 39.3445L43.0273 26.307C43.0201 26.2616 43.0334 26.2153 43.0638 26.1807ZM43.4189 26.4911L45.3496 38.4864L49.4107 26.6571L43.4189 26.4911Z" fill="#09C75B"/>
<path d="M43.2377 26.4678L43.1837 26.3808L33.9395 11.7661L42.0509 12.2866V12.3078L43.2377 26.4678ZM34.0328 11.8212L43.172 26.2674L42 12.3332L34.0328 11.8212Z" fill="#09C75B"/>
<path fill-rule="evenodd" clip-rule="evenodd" d="M33.8108 11.6873C33.8405 11.6373 33.8957 11.6082 33.9538 11.6119L42.0653 12.1323C42.1468 12.1376 42.2102 12.2051 42.2102 12.2867V12.3014L43.3964 26.455C43.4024 26.5262 43.3588 26.5922 43.2908 26.6147C43.2229 26.6371 43.1485 26.6102 43.1107 26.5495L43.0572 26.4635L43.0566 26.4626L33.813 11.8488C33.7819 11.7997 33.781 11.7373 33.8108 11.6873ZM42.9691 25.6504L41.8613 12.4791L34.3303 11.9951L42.9691 25.6504Z" fill="#09C75B"/>
<path d="M49.6626 26.5071L43.1823 26.3311L41.9902 12.1934L49.6626 26.5071ZM43.229 26.2823L49.6181 26.4572L42.0592 12.4266L43.229 26.2823Z" fill="#09C75B"/>
<path fill-rule="evenodd" clip-rule="evenodd" d="M41.9488 12.0454C42.0192 12.0246 42.0945 12.0561 42.1292 12.1207L49.8016 26.4344C49.8276 26.483 49.8258 26.5418 49.7968 26.5887C49.7678 26.6356 49.716 26.6635 49.6609 26.662L43.1806 26.4861C43.1018 26.4839 43.0372 26.4229 43.0306 26.3444L41.8384 12.2067C41.8323 12.1336 41.8784 12.0663 41.9488 12.0454ZM42.2786 13.1559L43.3741 26.1319L49.3575 26.2957L42.2786 13.1559Z" fill="#09C75B"/>
<path d="M49.6892 26.4913H49.6436L41.9648 12.2507L47.288 14.4597V14.4713L49.6892 26.4913ZM42.0858 12.3694L49.5906 26.2984L47.2498 14.4947L42.0858 12.3694Z" fill="#09C75B"/>
<path fill-rule="evenodd" clip-rule="evenodd" d="M41.8505 12.1466C41.8945 12.0981 41.9643 12.0824 42.0248 12.1075L47.3479 14.3165C47.4045 14.34 47.4418 14.3945 47.4433 14.4555L49.8415 26.4606C49.8506 26.5061 49.8388 26.5532 49.8094 26.589C49.78 26.6248 49.7361 26.6456 49.6897 26.6456H49.6441C49.5872 26.6456 49.5348 26.6143 49.5078 26.5642L41.8291 12.3237C41.798 12.2661 41.8066 12.1952 41.8505 12.1466ZM49.2389 25.3181L47.1146 14.6057L42.428 12.677L49.2389 25.3181Z" fill="#09C75B"/>
<path d="M49.921 26.4946C49.921 26.5596 49.9017 26.6231 49.8656 26.6772C49.8295 26.7312 49.7781 26.7733 49.7181 26.7982C49.658 26.823 49.592 26.8296 49.5282 26.8169C49.4645 26.8042 49.4059 26.7729 49.3599 26.727C49.314 26.681 49.2827 26.6224 49.27 26.5587C49.2573 26.495 49.2638 26.4289 49.2887 26.3689C49.3136 26.3088 49.3557 26.2575 49.4097 26.2214C49.4638 26.1853 49.5273 26.166 49.5923 26.166C49.6355 26.1659 49.6783 26.1743 49.7183 26.1907C49.7582 26.2072 49.7945 26.2314 49.825 26.2619C49.8556 26.2925 49.8798 26.3288 49.8962 26.3687C49.9127 26.4086 49.9211 26.4514 49.921 26.4946Z" fill="#09C75B"/>
<path fill-rule="evenodd" clip-rule="evenodd" d="M49.69 26.2624C49.6595 26.2498 49.6268 26.2434 49.5938 26.2435L49.5935 26.2435C49.5438 26.2435 49.4953 26.2582 49.4539 26.2859C49.4126 26.3135 49.3804 26.3527 49.3614 26.3986C49.3424 26.4445 49.3374 26.4951 49.3471 26.5438C49.3568 26.5926 49.3807 26.6373 49.4159 26.6725C49.451 26.7076 49.4958 26.7315 49.5445 26.7412C49.5932 26.7509 49.6438 26.7459 49.6897 26.7269C49.7356 26.7079 49.7748 26.6757 49.8024 26.6344C49.8301 26.5931 49.8448 26.5445 49.8448 26.4948V26.4945H49.8448C49.8449 26.4615 49.8385 26.4288 49.8259 26.3983C49.8133 26.3678 49.7948 26.3401 49.7715 26.3168C49.7482 26.2935 49.7205 26.275 49.69 26.2624ZM49.5933 26.0889C49.6467 26.0887 49.6996 26.0991 49.749 26.1194C49.7983 26.1398 49.8432 26.1697 49.881 26.2075C49.9187 26.2452 49.9486 26.2901 49.969 26.3394C49.9893 26.3887 49.9997 26.4416 49.9996 26.4949C49.9995 26.5751 49.9757 26.6536 49.9311 26.7203C49.8865 26.787 49.8231 26.8391 49.7489 26.8698C49.6747 26.9005 49.5931 26.9086 49.5143 26.8929C49.4355 26.8772 49.3632 26.8386 49.3064 26.7818C49.2496 26.725 49.211 26.6527 49.1953 26.574C49.1796 26.4952 49.1877 26.4136 49.2184 26.3395C49.2491 26.2653 49.3012 26.2019 49.3679 26.1573C49.4347 26.1127 49.5132 26.0889 49.5935 26.0889V26.1662L49.5933 26.0889ZM49.9996 26.4949C49.9996 26.4949 49.9996 26.495 49.9996 26.495L49.9222 26.4948H49.9996C49.9996 26.4948 49.9996 26.4949 49.9996 26.4949Z" fill="#09C75B"/>
<path d="M43.5831 26.2823C43.5829 26.3619 43.5591 26.4396 43.5147 26.5057C43.4703 26.5718 43.4073 26.6233 43.3336 26.6536C43.26 26.684 43.179 26.6918 43.101 26.6761C43.0229 26.6605 42.9512 26.622 42.895 26.5656C42.8387 26.5093 42.8005 26.4375 42.785 26.3594C42.7695 26.2813 42.7776 26.2004 42.8081 26.1268C42.8386 26.0533 42.8903 25.9904 42.9565 25.9462C43.0227 25.902 43.1006 25.8784 43.1802 25.8784C43.2871 25.8787 43.3896 25.9214 43.4651 25.9971C43.5407 26.0728 43.5831 26.1753 43.5831 26.2823Z" fill="#09C75B"/>
<path fill-rule="evenodd" clip-rule="evenodd" d="M43.1774 25.9562C43.1131 25.9562 43.0503 25.9752 42.9968 26.0109C42.9433 26.0467 42.9015 26.0974 42.8769 26.1569C42.8522 26.2163 42.8457 26.2817 42.8582 26.3448C42.8707 26.4079 42.9016 26.4659 42.9471 26.5115C42.9925 26.557 43.0504 26.5881 43.1135 26.6007C43.1766 26.6134 43.242 26.6071 43.3015 26.5826C43.3609 26.5581 43.4118 26.5165 43.4477 26.4631C43.4836 26.4097 43.5028 26.3469 43.503 26.2826C43.503 26.1962 43.4687 26.1133 43.4076 26.0521C43.3466 25.9909 43.2638 25.9564 43.1774 25.9562ZM42.9108 25.8823C42.9898 25.8296 43.0826 25.8015 43.1775 25.8015H43.1777C43.3051 25.8018 43.4272 25.8527 43.5172 25.9429C43.6072 26.0331 43.6577 26.1553 43.6577 26.2827L43.6577 26.2829C43.6575 26.3778 43.6291 26.4705 43.5762 26.5493C43.5233 26.628 43.4482 26.6894 43.3604 26.7255C43.2726 26.7617 43.1761 26.771 43.083 26.7524C42.99 26.7337 42.9045 26.6878 42.8375 26.6207C42.7704 26.5535 42.7248 26.4679 42.7064 26.3748C42.688 26.2817 42.6976 26.1853 42.7339 26.0976C42.7703 26.01 42.8319 25.9351 42.9108 25.8823Z" fill="#09C75B"/>
<path d="M33.0089 42.1967C33.0089 42.2764 32.9852 42.3543 32.941 42.4205C32.8967 42.4867 32.8338 42.5384 32.7602 42.5689C32.6865 42.5993 32.6055 42.6073 32.5274 42.5918C32.4492 42.5762 32.3775 42.5379 32.3211 42.4815C32.2648 42.4252 32.2264 42.3534 32.2109 42.2753C32.1953 42.1972 32.2033 42.1162 32.2338 42.0426C32.2643 41.969 32.3159 41.9061 32.3822 41.8618C32.4484 41.8176 32.5263 41.7939 32.606 41.7939C32.7128 41.7939 32.8153 41.8364 32.8909 41.9119C32.9664 41.9875 33.0089 42.0899 33.0089 42.1967Z" fill="#09C75B"/>
<path fill-rule="evenodd" clip-rule="evenodd" d="M32.6013 41.8712C32.537 41.8712 32.474 41.8903 32.4205 41.926C32.367 41.9618 32.3253 42.0126 32.3006 42.0721C32.276 42.1316 32.2695 42.197 32.2821 42.2602C32.2947 42.3233 32.3257 42.3813 32.3712 42.4268C32.4167 42.4723 32.4747 42.5033 32.5378 42.5159C32.601 42.5284 32.6664 42.522 32.7259 42.4974C32.7854 42.4727 32.8362 42.431 32.872 42.3775C32.9077 42.324 32.9268 42.261 32.9268 42.1967C32.9268 42.1103 32.8925 42.0275 32.8315 41.9665C32.7704 41.9055 32.6876 41.8712 32.6013 41.8712ZM32.3345 41.7975C32.4135 41.7447 32.5063 41.7166 32.6013 41.7166C32.7287 41.7166 32.8509 41.7671 32.9409 41.8572C33.031 41.9472 33.0816 42.0693 33.0816 42.1967C33.0816 42.2916 33.0534 42.3844 33.0006 42.4634C32.9479 42.5423 32.8729 42.6039 32.7851 42.6402C32.6974 42.6766 32.6008 42.6861 32.5076 42.6675C32.4145 42.649 32.3289 42.6033 32.2617 42.5361C32.1946 42.469 32.1488 42.3834 32.1303 42.2903C32.1118 42.1972 32.1213 42.1007 32.1576 42.0129C32.194 41.9252 32.2555 41.8502 32.3345 41.7975Z" fill="#09C75B"/>
<path d="M45.6238 38.8508C45.6881 38.9301 45.7208 39.0305 45.7155 39.1325C45.7102 39.2344 45.6674 39.3309 45.5952 39.4032C45.5231 39.4754 45.4267 39.5185 45.3247 39.5239C45.2227 39.5294 45.1223 39.4969 45.0428 39.4327C45.0227 39.4189 45.0051 39.4017 44.9908 39.3818C44.9282 39.3021 44.897 39.2022 44.9031 39.1011C44.9092 38.9999 44.9521 38.9045 45.0238 38.8328C45.0954 38.7612 45.1909 38.7182 45.2921 38.7122C45.3933 38.7061 45.4932 38.7373 45.5729 38.7999C45.5934 38.813 45.6107 38.8303 45.6238 38.8508Z" fill="#09C75B"/>
<path fill-rule="evenodd" clip-rule="evenodd" d="M45.5224 38.8602C45.4575 38.8093 45.3763 38.7839 45.294 38.7888C45.2117 38.7937 45.1341 38.8286 45.0758 38.8869C45.0175 38.9452 44.9826 39.0228 44.9776 39.1051C44.9727 39.1874 44.9981 39.2687 45.049 39.3335L45.05 39.3348L45.051 39.3361C45.06 39.3487 45.0712 39.3597 45.084 39.3685L45.0864 39.3701L45.0887 39.372C45.1533 39.4242 45.2349 39.4506 45.3178 39.4461C45.4007 39.4417 45.4791 39.4067 45.5377 39.348C45.5964 39.2892 45.6312 39.2108 45.6355 39.1279C45.6398 39.045 45.6132 38.9634 45.561 38.8989L45.5582 38.8955L45.5558 38.8918C45.5488 38.8808 45.5395 38.8715 45.5286 38.8646L45.5254 38.8625L45.5224 38.8602ZM45.6151 38.7363C45.521 38.6635 45.4036 38.6273 45.2847 38.6344C45.1647 38.6416 45.0514 38.6926 44.9663 38.7776C44.8813 38.8626 44.8303 38.9759 44.8231 39.0959C44.816 39.2154 44.8527 39.3334 44.9263 39.4278C44.945 39.4534 44.9677 39.4758 44.9937 39.4941C45.0877 39.5691 45.206 39.607 45.3261 39.6006C45.4472 39.5941 45.5616 39.543 45.6473 39.4572C45.733 39.3714 45.7838 39.2569 45.7901 39.1359C45.7963 39.0162 45.7584 38.8985 45.6838 38.8048C45.6657 38.7776 45.6424 38.7543 45.6151 38.7363Z" fill="#09C75B"/>
<path d="M35.517 47.5307C35.517 47.5887 35.4998 47.6455 35.4675 47.6938C35.4353 47.7421 35.3894 47.7797 35.3357 47.8019C35.2821 47.8241 35.223 47.83 35.1661 47.8186C35.1091 47.8073 35.0568 47.7793 35.0157 47.7383C34.9746 47.6972 34.9467 47.6449 34.9353 47.5879C34.924 47.531 34.9298 47.472 34.952 47.4183C34.9743 47.3647 35.0119 47.3188 35.0602 47.2865C35.1085 47.2543 35.1653 47.2371 35.2234 47.2371C35.3012 47.2371 35.3759 47.268 35.431 47.3231C35.4861 47.3781 35.517 47.4528 35.517 47.5307Z" fill="#09C75B"/>
<path fill-rule="evenodd" clip-rule="evenodd" d="M35.2246 47.3146C35.1818 47.3146 35.14 47.3272 35.1044 47.351C35.0688 47.3748 35.0411 47.4085 35.0247 47.4481C35.0084 47.4876 35.0041 47.5311 35.0124 47.573C35.0208 47.615 35.0414 47.6535 35.0716 47.6838C35.1019 47.714 35.1404 47.7346 35.1824 47.743C35.2243 47.7513 35.2678 47.747 35.3073 47.7307C35.3468 47.7143 35.3806 47.6866 35.4044 47.651C35.4282 47.6155 35.4408 47.5736 35.4408 47.5308C35.4408 47.4735 35.4181 47.4185 35.3775 47.3779C35.3369 47.3373 35.2819 47.3146 35.2246 47.3146ZM35.0184 47.2224C35.0794 47.1817 35.1512 47.1599 35.2246 47.1599C35.323 47.1599 35.4174 47.199 35.4869 47.2686C35.5565 47.3381 35.5956 47.4325 35.5956 47.5308C35.5956 47.6042 35.5738 47.6759 35.5331 47.7369C35.4923 47.7979 35.4344 47.8455 35.3666 47.8735C35.2988 47.9016 35.2241 47.909 35.1522 47.8946C35.0802 47.8803 35.0141 47.845 34.9622 47.7931C34.9103 47.7412 34.875 47.6752 34.8606 47.6032C34.8463 47.5313 34.8537 47.4567 34.8818 47.3889C34.9098 47.3211 34.9574 47.2632 35.0184 47.2224Z" fill="#09C75B"/>
<path d="M24.7549 49.9234C24.8785 49.9234 24.9786 49.8232 24.9786 49.6997C24.9786 49.5762 24.8785 49.4761 24.7549 49.4761C24.6314 49.4761 24.5312 49.5762 24.5312 49.6997C24.5312 49.8232 24.6314 49.9234 24.7549 49.9234Z" fill="#09C75B"/>
<path fill-rule="evenodd" clip-rule="evenodd" d="M24.7522 49.5528C24.6715 49.5528 24.6059 49.6183 24.6059 49.6992C24.6059 49.78 24.6715 49.8455 24.7522 49.8455C24.833 49.8455 24.8986 49.78 24.8986 49.6992C24.8986 49.6183 24.833 49.5528 24.7522 49.5528ZM24.4512 49.6992C24.4512 49.533 24.5859 49.3982 24.7522 49.3982C24.9186 49.3982 25.0533 49.533 25.0533 49.6992C25.0533 49.8654 24.9186 50.0001 24.7522 50.0001C24.5859 50.0001 24.4512 49.8654 24.4512 49.6992Z" fill="#09C75B"/>
<path d="M20.9405 49.2963C20.9405 49.376 20.9169 49.4539 20.8726 49.5201C20.8283 49.5864 20.7654 49.638 20.6918 49.6685C20.6182 49.699 20.5372 49.7069 20.459 49.6914C20.3809 49.6758 20.3091 49.6375 20.2528 49.5812C20.1964 49.5248 20.1581 49.4531 20.1425 49.3749C20.127 49.2968 20.1349 49.2158 20.1654 49.1422C20.1959 49.0686 20.2476 49.0057 20.3138 48.9614C20.3801 48.9172 20.458 48.8936 20.5376 48.8936C20.6445 48.8936 20.7469 48.936 20.8225 49.0115C20.898 49.0871 20.9405 49.1895 20.9405 49.2963Z" fill="#09C75B"/>
<path fill-rule="evenodd" clip-rule="evenodd" d="M20.533 48.9708C20.4686 48.9708 20.4057 48.9899 20.3522 49.0257C20.2986 49.0614 20.2569 49.1122 20.2323 49.1717C20.2076 49.2312 20.2012 49.2966 20.2137 49.3598C20.2263 49.4229 20.2573 49.4809 20.3028 49.5264C20.3484 49.5719 20.4064 49.6029 20.4695 49.6155C20.5326 49.628 20.5981 49.6216 20.6575 49.597C20.717 49.5723 20.7678 49.5306 20.8036 49.4771C20.8394 49.4236 20.8585 49.3607 20.8585 49.2963C20.8585 49.2099 20.8242 49.1272 20.7631 49.0661C20.7021 49.0051 20.6193 48.9708 20.533 48.9708ZM20.2662 48.8971C20.3451 48.8443 20.438 48.8162 20.533 48.8162C20.6604 48.8162 20.7825 48.8668 20.8726 48.9568C20.9626 49.0468 21.0132 49.169 21.0132 49.2963C21.0132 49.3912 20.9851 49.484 20.9323 49.563C20.8795 49.6419 20.8045 49.7035 20.7168 49.7398C20.629 49.7762 20.5324 49.7857 20.4393 49.7672C20.3461 49.7486 20.2605 49.7029 20.1934 49.6357C20.1262 49.5686 20.0805 49.4831 20.062 49.3899C20.0434 49.2968 20.0529 49.2003 20.0893 49.1126C20.1256 49.0248 20.1872 48.9498 20.2662 48.8971Z" fill="#09C75B"/>
<path d="M13.1907 46.4703C13.1907 46.5208 13.1757 46.5702 13.1476 46.6122C13.1196 46.6542 13.0797 46.687 13.033 46.7063C12.9863 46.7256 12.9349 46.7307 12.8853 46.7208C12.8358 46.711 12.7903 46.6867 12.7545 46.6509C12.7188 46.6152 12.6945 46.5697 12.6846 46.5201C12.6747 46.4706 12.6798 46.4192 12.6991 46.3725C12.7185 46.3259 12.7512 46.286 12.7932 46.2579C12.8353 46.2298 12.8847 46.2148 12.9352 46.2148C13.003 46.2148 13.0679 46.2418 13.1159 46.2897C13.1638 46.3376 13.1907 46.4025 13.1907 46.4703Z" fill="#09C75B"/>
<path fill-rule="evenodd" clip-rule="evenodd" d="M12.9364 46.2921C12.9012 46.2921 12.8667 46.3025 12.8374 46.3221C12.8082 46.3417 12.7853 46.3695 12.7718 46.402C12.7583 46.4346 12.7548 46.4704 12.7617 46.505C12.7686 46.5395 12.7855 46.5713 12.8105 46.5962C12.8354 46.6211 12.8671 46.6381 12.9016 46.6449C12.9362 46.6518 12.972 46.6483 13.0045 46.6348C13.0371 46.6213 13.0649 46.5985 13.0845 46.5692C13.1041 46.5399 13.1145 46.5055 13.1145 46.4702C13.1145 46.423 13.0957 46.3777 13.0623 46.3443C13.0289 46.3109 12.9836 46.2921 12.9364 46.2921ZM12.7514 46.1935C12.8062 46.157 12.8705 46.1375 12.9364 46.1375C13.0247 46.1375 13.1094 46.1725 13.1718 46.2349C13.2342 46.2973 13.2693 46.382 13.2693 46.4702C13.2693 46.536 13.2498 46.6004 13.2132 46.6551C13.1766 46.7098 13.1246 46.7525 13.0638 46.7777C13.003 46.8029 12.936 46.8094 12.8714 46.7966C12.8069 46.7838 12.7476 46.7521 12.701 46.7055C12.6545 46.659 12.6228 46.5997 12.6099 46.5351C12.5971 46.4706 12.6037 46.4037 12.6288 46.3429C12.654 46.2821 12.6967 46.2301 12.7514 46.1935Z" fill="#09C75B"/>
<path d="M17.4132 39.8986C17.4132 39.9783 17.3895 40.0562 17.3453 40.1224C17.301 40.1886 17.2381 40.2403 17.1645 40.2708C17.0908 40.3012 17.0098 40.3092 16.9317 40.2937C16.8535 40.2781 16.7818 40.2398 16.7254 40.1834C16.6691 40.1271 16.6307 40.0553 16.6152 39.9772C16.5996 39.8991 16.6076 39.8181 16.6381 39.7445C16.6686 39.6709 16.7202 39.608 16.7865 39.5637C16.8527 39.5195 16.9306 39.4958 17.0103 39.4958C17.117 39.4961 17.2194 39.5387 17.2948 39.6141C17.3703 39.6896 17.4129 39.7919 17.4132 39.8986Z" fill="#09C75B"/>
<path fill-rule="evenodd" clip-rule="evenodd" d="M17.0094 39.5736C16.9451 39.5736 16.8822 39.5927 16.8287 39.6284C16.7752 39.6642 16.7335 39.715 16.7088 39.7745C16.6842 39.834 16.6777 39.8994 16.6903 39.9626C16.7029 40.0257 16.7339 40.0837 16.7794 40.1292C16.8249 40.1747 16.8829 40.2057 16.946 40.2183C17.0092 40.2308 17.0746 40.2244 17.1341 40.1997C17.1936 40.1751 17.2444 40.1334 17.2802 40.0799C17.3159 40.0264 17.335 39.9635 17.335 39.8991C17.3348 39.8129 17.3004 39.7302 17.2394 39.6692C17.1784 39.6082 17.0957 39.5738 17.0094 39.5736ZM16.7427 39.4999C16.8217 39.4471 16.9145 39.4189 17.0095 39.4189H17.0097C17.137 39.4193 17.2589 39.47 17.3488 39.5599C17.4388 39.6498 17.4894 39.7717 17.4898 39.8989L17.4898 39.8991C17.4898 39.994 17.4616 40.0868 17.4089 40.1658C17.3561 40.2447 17.2811 40.3063 17.1933 40.3426C17.1056 40.379 17.009 40.3885 16.9158 40.3699C16.8227 40.3514 16.7371 40.3057 16.6699 40.2385C16.6028 40.1714 16.5571 40.0858 16.5385 39.9927C16.52 39.8996 16.5295 39.8031 16.5658 39.7153C16.6022 39.6276 16.6637 39.5526 16.7427 39.4999Z" fill="#09C75B"/>
<path d="M6.59674 40.9931C6.59674 41.0728 6.57312 41.1507 6.52885 41.2169C6.48458 41.2831 6.42166 41.3348 6.34805 41.3652C6.27444 41.3957 6.19343 41.4037 6.11528 41.3882C6.03714 41.3726 5.96535 41.3343 5.90901 41.2779C5.85267 41.2216 5.8143 41.1498 5.79876 41.0717C5.78321 40.9936 5.79119 40.9126 5.82168 40.839C5.85217 40.7654 5.90381 40.7025 5.97006 40.6582C6.03631 40.614 6.1142 40.5903 6.19388 40.5903C6.30064 40.5906 6.40295 40.6331 6.47844 40.7086C6.55393 40.7841 6.59646 40.8864 6.59674 40.9931Z" fill="#09C75B"/>
<path fill-rule="evenodd" clip-rule="evenodd" d="M6.19108 40.6673C6.12674 40.6674 6.06386 40.6864 6.01036 40.7222C5.95684 40.7579 5.91511 40.8088 5.89047 40.8682C5.86583 40.9277 5.85938 40.9932 5.87195 41.0563C5.88451 41.1194 5.91551 41.1774 5.96104 41.223C6.00656 41.2685 6.06455 41.2995 6.12768 41.312C6.19082 41.3246 6.25625 41.3181 6.31572 41.2935C6.37519 41.2689 6.42603 41.2272 6.4618 41.1736C6.49755 41.1201 6.51665 41.0572 6.51667 40.9929C6.51641 40.9066 6.48202 40.824 6.42101 40.763C6.36 40.702 6.27734 40.6676 6.19108 40.6673ZM5.92436 40.5936C6.00333 40.5409 6.09619 40.5127 6.19118 40.5127H6.19138C6.31861 40.513 6.44051 40.5637 6.53046 40.6536C6.62041 40.7436 6.67108 40.8654 6.67142 40.9926L6.67142 40.9928C6.67142 41.0878 6.64326 41.1806 6.59049 41.2595C6.53773 41.3385 6.46273 41.4 6.37497 41.4364C6.28721 41.4727 6.19065 41.4822 6.09748 41.4637C6.00432 41.4452 5.91874 41.3994 5.85158 41.3323C5.78442 41.2651 5.73869 41.1796 5.72016 41.0865C5.70164 40.9933 5.71115 40.8968 5.74749 40.8091C5.78383 40.7214 5.84538 40.6464 5.92436 40.5936Z" fill="#09C75B"/>
<path d="M3.72205 37.1249C3.72205 37.1731 3.70775 37.2202 3.68096 37.2603C3.65417 37.3004 3.61608 37.3317 3.57153 37.3501C3.52697 37.3686 3.47794 37.3734 3.43064 37.364C3.38334 37.3546 3.3399 37.3314 3.30579 37.2973C3.27169 37.2632 3.24847 37.2197 3.23906 37.1725C3.22965 37.1252 3.23448 37.0761 3.25294 37.0316C3.27139 36.9871 3.30265 36.949 3.34274 36.9222C3.38284 36.8954 3.42999 36.8811 3.47821 36.8811C3.54288 36.8811 3.60491 36.9068 3.65063 36.9525C3.69636 36.9982 3.72205 37.0602 3.72205 37.1249Z" fill="#09C75B"/>
<path fill-rule="evenodd" clip-rule="evenodd" d="M3.47356 36.9584C3.44065 36.9584 3.40847 36.9681 3.38109 36.9864C3.35372 37.0047 3.33238 37.0307 3.31977 37.0611C3.30717 37.0915 3.30387 37.125 3.3103 37.1573C3.31672 37.1896 3.33258 37.2193 3.35586 37.2425C3.37915 37.2658 3.40881 37.2817 3.44109 37.2881C3.47337 37.2945 3.50684 37.2912 3.53725 37.2786C3.56766 37.266 3.59366 37.2447 3.61196 37.2173C3.63025 37.1899 3.64002 37.1578 3.64002 37.1248C3.64002 37.0807 3.62248 37.0383 3.59125 37.0071C3.56003 36.9759 3.5177 36.9584 3.47356 36.9584ZM3.29509 36.8578C3.34791 36.8226 3.41002 36.8037 3.47356 36.8037C3.55876 36.8037 3.64047 36.8375 3.70071 36.8978C3.76094 36.958 3.79477 37.0397 3.79477 37.1248C3.79477 37.1883 3.77594 37.2504 3.74065 37.3032C3.70536 37.356 3.65519 37.3972 3.59649 37.4215C3.5378 37.4458 3.4732 37.4522 3.41089 37.4398C3.34857 37.4274 3.29133 37.3968 3.24641 37.3519C3.20149 37.307 3.17091 37.2497 3.15851 37.1875C3.14612 37.1252 3.15248 37.0606 3.17679 37.002C3.2011 36.9433 3.24226 36.8931 3.29509 36.8578Z" fill="#09C75B"/>
<path d="M25.6397 26.0485C25.6397 26.1282 25.6161 26.2061 25.5718 26.2723C25.5276 26.3385 25.4646 26.3902 25.391 26.4207C25.3174 26.4511 25.2364 26.4591 25.1583 26.4436C25.0801 26.428 25.0083 26.3897 24.952 26.3333C24.8956 26.277 24.8573 26.2052 24.8417 26.1271C24.8262 26.049 24.8342 25.968 24.8647 25.8944C24.8951 25.8208 24.9468 25.7579 25.013 25.7136C25.0793 25.6694 25.1572 25.6458 25.2368 25.6458C25.3437 25.6458 25.4462 25.6882 25.5217 25.7637C25.5973 25.8393 25.6397 25.9417 25.6397 26.0485Z" fill="#09C75B"/>
<path fill-rule="evenodd" clip-rule="evenodd" d="M25.2341 25.7228C25.1698 25.7228 25.1069 25.7418 25.0533 25.7776C24.9998 25.8134 24.9581 25.8642 24.9334 25.9237C24.9088 25.9831 24.9024 26.0486 24.9149 26.1117C24.9275 26.1749 24.9585 26.2329 25.004 26.2784C25.0495 26.3239 25.1075 26.3549 25.1707 26.3674C25.2338 26.38 25.2992 26.3735 25.3587 26.3489C25.4182 26.3243 25.469 26.2826 25.5048 26.2291C25.5405 26.1755 25.5596 26.1126 25.5596 26.0482C25.5596 25.9619 25.5253 25.8791 25.4643 25.8181C25.4032 25.757 25.3205 25.7228 25.2341 25.7228ZM24.9673 25.649C25.0463 25.5963 25.1392 25.5681 25.2341 25.5681C25.3615 25.5681 25.4837 25.6187 25.5737 25.7088C25.6638 25.7988 25.7144 25.9209 25.7144 26.0482C25.7144 26.1432 25.6862 26.236 25.6335 26.3149C25.5807 26.3939 25.5057 26.4554 25.4179 26.4918C25.3302 26.5281 25.2336 26.5376 25.1405 26.5191C25.0473 26.5006 24.9617 26.4548 24.8946 26.3877C24.8274 26.3206 24.7817 26.235 24.7631 26.1419C24.7446 26.0488 24.7541 25.9522 24.7905 25.8645C24.8268 25.7768 24.8883 25.7018 24.9673 25.649Z" fill="#09C75B"/>
<path d="M8.4737 26.0974C8.4737 26.177 8.45007 26.2549 8.4058 26.3211C8.36154 26.3874 8.29862 26.439 8.225 26.4695C8.15139 26.5 8.07039 26.508 7.99224 26.4924C7.91409 26.4769 7.84231 26.4385 7.78597 26.3822C7.72962 26.3258 7.69125 26.2541 7.67571 26.1759C7.66017 26.0978 7.66814 26.0168 7.69864 25.9432C7.72913 25.8696 7.78076 25.8067 7.84701 25.7625C7.91327 25.7182 7.99115 25.6946 8.07083 25.6946C8.17768 25.6946 8.28015 25.737 8.3557 25.8126C8.43125 25.8881 8.4737 25.9905 8.4737 26.0974Z" fill="#09C75B"/>
<path fill-rule="evenodd" clip-rule="evenodd" d="M8.07204 25.7716C8.00767 25.7716 7.94475 25.7907 7.89122 25.8264C7.8377 25.8622 7.79597 25.913 7.77133 25.9725C7.74669 26.032 7.74024 26.0974 7.7528 26.1606C7.76537 26.2237 7.79637 26.2817 7.8419 26.3272C7.88742 26.3727 7.94541 26.4037 8.00854 26.4163C8.07168 26.4288 8.13711 26.4224 8.19658 26.3977C8.25605 26.3731 8.30689 26.3314 8.34266 26.2779C8.37843 26.2244 8.39753 26.1614 8.39753 26.0971C8.39753 26.0107 8.36322 25.9279 8.30218 25.8669C8.24114 25.8059 8.15835 25.7716 8.07204 25.7716ZM7.80522 25.6979C7.88419 25.6451 7.97705 25.6169 8.07204 25.6169C8.19942 25.6169 8.32157 25.6675 8.41163 25.7576C8.50169 25.8476 8.55228 25.9697 8.55228 26.0971C8.55228 26.192 8.52412 26.2848 8.47135 26.3638C8.41859 26.4427 8.34359 26.5043 8.25583 26.5406C8.16807 26.577 8.07151 26.5865 7.97834 26.5679C7.88518 26.5494 7.7996 26.5037 7.73244 26.4365C7.66528 26.3694 7.61955 26.2838 7.60102 26.1907C7.5825 26.0976 7.592 26.0011 7.62835 25.9133C7.66469 25.8256 7.72624 25.7506 7.80522 25.6979Z" fill="#09C75B"/>
<path d="M0.559609 26.0132C0.559609 26.061 0.545433 26.1077 0.518872 26.1474C0.492312 26.1872 0.454561 26.2181 0.410392 26.2364C0.366224 26.2547 0.317622 26.2595 0.270734 26.2502C0.223845 26.2409 0.180775 26.2178 0.14697 26.184C0.113165 26.1502 0.0901433 26.1072 0.0808165 26.0603C0.0714898 26.0134 0.0762766 25.9648 0.0945717 25.9207C0.112867 25.8765 0.143848 25.8388 0.183599 25.8122C0.223349 25.7857 0.270083 25.7715 0.317891 25.7715C0.349673 25.7713 0.381168 25.7775 0.410558 25.7896C0.439948 25.8017 0.466651 25.8195 0.489124 25.842C0.511598 25.8644 0.529397 25.8911 0.541495 25.9205C0.553593 25.9499 0.55975 25.9814 0.559609 26.0132Z" fill="#09C75B"/>
<path fill-rule="evenodd" clip-rule="evenodd" d="M0.382298 25.8615C0.362358 25.8533 0.340994 25.8491 0.319437 25.8492L0.319095 25.8492C0.286599 25.8492 0.25483 25.8589 0.227805 25.8769C0.200779 25.895 0.17971 25.9206 0.167267 25.9507C0.154824 25.9807 0.151567 26.0138 0.157911 26.0456C0.164256 26.0775 0.179914 26.1068 0.2029 26.1298C0.225884 26.1528 0.255165 26.1684 0.28704 26.1748C0.318914 26.1811 0.351951 26.1779 0.381974 26.1654C0.411999 26.153 0.437668 26.1319 0.455731 26.1049C0.473794 26.0779 0.483437 26.0461 0.483437 26.0136V26.0132H0.483438C0.483533 25.9917 0.479354 25.9703 0.471143 25.9503C0.462933 25.9304 0.450853 25.9123 0.435603 25.897C0.420353 25.8818 0.402236 25.8697 0.382298 25.8615ZM0.318923 25.6946C0.360873 25.6944 0.402438 25.7026 0.441227 25.7185C0.480069 25.7345 0.515357 25.758 0.545054 25.7877C0.574751 25.8174 0.598271 25.8527 0.614256 25.8915C0.630218 25.9303 0.638352 25.9718 0.638189 26.0137C0.638156 26.0768 0.619448 26.1384 0.584421 26.1908C0.549364 26.2432 0.499531 26.2841 0.441219 26.3083C0.382906 26.3324 0.318739 26.3388 0.256836 26.3264C0.194933 26.3141 0.138074 26.2837 0.093448 26.2391C0.0488237 26.1945 0.0184394 26.1377 0.0061301 26.0758C-0.00617944 26.0139 0.000138011 25.9498 0.0242849 25.8915C0.0484322 25.8332 0.0893265 25.7834 0.141801 25.7484C0.19423 25.7133 0.255864 25.6946 0.318923 25.6946ZM0.318923 25.6946C0.31898 25.6946 0.319038 25.6946 0.319095 25.6946V25.7719L0.318753 25.6946C0.31881 25.6946 0.318866 25.6946 0.318923 25.6946ZM0.638189 26.0137C0.638189 26.0138 0.638189 26.0139 0.638189 26.0139L0.560813 26.0136H0.638189C0.638189 26.0136 0.638189 26.0137 0.638189 26.0137Z" fill="#09C75B"/>
<path d="M5.11628 13.561C5.11628 13.6407 5.09265 13.7185 5.04838 13.7848C5.00411 13.851 4.94119 13.9026 4.86758 13.9331C4.79397 13.9636 4.71296 13.9716 4.63482 13.956C4.55667 13.9405 4.48488 13.9021 4.42854 13.8458C4.3722 13.7895 4.33383 13.7177 4.31829 13.6396C4.30274 13.5614 4.31072 13.4804 4.34121 13.4068C4.3717 13.3332 4.42334 13.2703 4.48959 13.2261C4.55584 13.1818 4.63373 13.1582 4.71341 13.1582C4.82026 13.1582 4.92273 13.2006 4.99828 13.2762C5.07383 13.3517 5.11628 13.4542 5.11628 13.561Z" fill="#09C75B"/>
<path fill-rule="evenodd" clip-rule="evenodd" d="M4.70876 13.2357C4.64439 13.2357 4.58146 13.2548 4.52794 13.2905C4.47441 13.3263 4.43269 13.3771 4.40805 13.4366C4.38341 13.4961 4.37696 13.5615 4.38952 13.6247C4.40209 13.6878 4.43309 13.7458 4.47861 13.7913C4.52414 13.8368 4.58213 13.8678 4.64526 13.8804C4.7084 13.8929 4.77383 13.8865 4.8333 13.8619C4.89277 13.8372 4.94361 13.7955 4.97938 13.742C5.01515 13.6885 5.03424 13.6255 5.03424 13.5612C5.03424 13.4748 4.99994 13.392 4.9389 13.331C4.87785 13.27 4.79507 13.2357 4.70876 13.2357ZM4.44193 13.162C4.52091 13.1092 4.61377 13.0811 4.70876 13.0811C4.83614 13.0811 4.95829 13.1316 5.04835 13.2217C5.13841 13.3117 5.189 13.4338 5.189 13.5612C5.189 13.6561 5.16084 13.7489 5.10807 13.8279C5.05531 13.9068 4.98031 13.9684 4.89255 14.0047C4.80479 14.0411 4.70822 14.0506 4.61506 14.032C4.52189 14.0135 4.43632 13.9678 4.36916 13.9006C4.302 13.8335 4.25627 13.7479 4.23774 13.6548C4.21921 13.5617 4.22872 13.4652 4.26507 13.3774C4.30141 13.2897 4.36296 13.2147 4.44193 13.162Z" fill="#09C75B"/>
<path d="M17.9503 9.99458C17.9503 10.0742 17.9266 10.1521 17.8824 10.2184C17.8381 10.2846 17.7752 10.3362 17.7016 10.3667C17.628 10.3972 17.5469 10.4052 17.4688 10.3896C17.3907 10.3741 17.3189 10.3357 17.2625 10.2794C17.2062 10.2231 17.1678 10.1513 17.1523 10.0732C17.1367 9.99503 17.1447 9.91404 17.1752 9.84044C17.2057 9.76684 17.2573 9.70394 17.3236 9.65968C17.3898 9.61542 17.4677 9.5918 17.5474 9.5918C17.6542 9.5918 17.7567 9.63423 17.8323 9.70977C17.9078 9.78531 17.9503 9.88776 17.9503 9.99458Z" fill="#09C75B"/>
<path fill-rule="evenodd" clip-rule="evenodd" d="M17.5486 9.66857C17.4842 9.66857 17.4213 9.68765 17.3678 9.72341C17.3143 9.75916 17.2725 9.80999 17.2479 9.86947C17.2233 9.92894 17.2168 9.99439 17.2294 10.0575C17.2419 10.1207 17.2729 10.1787 17.3185 10.2242C17.364 10.2697 17.422 10.3007 17.4851 10.3132C17.5482 10.3258 17.6137 10.3193 17.6731 10.2947C17.7326 10.2701 17.7835 10.2284 17.8192 10.1749C17.855 10.1213 17.8741 10.0584 17.8741 9.99403C17.8741 9.9077 17.8398 9.82491 17.7787 9.76388C17.7177 9.70285 17.6349 9.66857 17.5486 9.66857ZM17.2818 9.59484C17.3608 9.54208 17.4536 9.51392 17.5486 9.51392C17.676 9.51392 17.7981 9.56451 17.8882 9.65455C17.9783 9.74459 18.0288 9.8667 18.0288 9.99403C18.0288 10.089 18.0007 10.1818 17.9479 10.2607C17.8951 10.3397 17.8201 10.4012 17.7324 10.4376C17.6446 10.4739 17.5481 10.4834 17.4549 10.4649C17.3617 10.4464 17.2762 10.4006 17.209 10.3335C17.1418 10.2664 17.0961 10.1808 17.0776 10.0877C17.0591 9.99456 17.0686 9.89803 17.1049 9.81031C17.1413 9.72258 17.2028 9.6476 17.2818 9.59484Z" fill="#09C75B"/>
<path d="M14.4229 2.9604C14.4229 3.04006 14.3993 3.11794 14.355 3.18418C14.3108 3.25041 14.2478 3.30204 14.1742 3.33253C14.1006 3.36301 14.0196 3.37099 13.9415 3.35545C13.8633 3.33991 13.7915 3.30154 13.7352 3.24521C13.6788 3.18888 13.6405 3.11711 13.6249 3.03898C13.6094 2.96085 13.6174 2.87986 13.6479 2.80626C13.6783 2.73266 13.73 2.66976 13.7962 2.6255C13.8625 2.58124 13.9404 2.55762 14.0201 2.55762C14.1268 2.5579 14.2291 2.60042 14.3046 2.6759C14.3801 2.75138 14.4226 2.85366 14.4229 2.9604Z" fill="#09C75B"/>
<path fill-rule="evenodd" clip-rule="evenodd" d="M14.0212 2.63439C13.9568 2.63441 13.8939 2.65349 13.8404 2.68923C13.7869 2.72498 13.7452 2.77581 13.7205 2.83529C13.6959 2.89476 13.6895 2.96021 13.702 3.02335C13.7146 3.08649 13.7456 3.14448 13.7911 3.18999C13.8366 3.23551 13.8946 3.2665 13.9578 3.27905C14.0209 3.29161 14.0863 3.28516 14.1458 3.26054C14.2053 3.23591 14.2561 3.1942 14.2919 3.14068C14.3276 3.08718 14.3467 3.02428 14.3467 2.95994C14.3465 2.87366 14.3121 2.791 14.2511 2.73001C14.1901 2.66901 14.1074 2.63464 14.0212 2.63439ZM13.7544 2.56066C13.8334 2.5079 13.9263 2.47974 14.0213 2.47974H14.0215C14.1487 2.48007 14.2706 2.53075 14.3605 2.62068C14.4505 2.71061 14.5012 2.83248 14.5015 2.95964L14.5015 2.95985C14.5015 3.05479 14.4733 3.14761 14.4206 3.22657C14.3678 3.30552 14.2928 3.36706 14.205 3.4034C14.1173 3.43975 14.0207 3.44926 13.9276 3.43073C13.8344 3.4122 13.7488 3.36647 13.6817 3.29932C13.6145 3.23217 13.5688 3.14663 13.5502 3.0535C13.5317 2.96038 13.5412 2.86385 13.5776 2.77613C13.6139 2.6884 13.6755 2.61342 13.7544 2.56066Z" fill="#09C75B"/>
<path d="M25.1814 0.372063C25.1816 0.430598 25.1645 0.487877 25.1321 0.536649C25.0997 0.585421 25.0536 0.62349 24.9996 0.646036C24.9455 0.668581 24.886 0.674589 24.8286 0.663298C24.7711 0.652007 24.7183 0.623926 24.6769 0.58261C24.6354 0.541294 24.6071 0.488602 24.5956 0.431208C24.5841 0.373814 24.5899 0.314298 24.6123 0.260199C24.6346 0.2061 24.6725 0.159851 24.7212 0.127308C24.7699 0.0947661 24.8271 0.0773949 24.8856 0.0773945C24.9244 0.077255 24.9629 0.0847739 24.9987 0.0995199C25.0346 0.114266 25.0672 0.135949 25.0947 0.163325C25.1222 0.190702 25.144 0.223233 25.1589 0.259053C25.1738 0.294873 25.1814 0.333277 25.1814 0.372063Z" fill="#09C75B"/>
<path fill-rule="evenodd" clip-rule="evenodd" d="M24.9686 0.170965C24.9421 0.160091 24.9138 0.154548 24.8852 0.15465L24.8849 0.154651C24.8417 0.154651 24.7994 0.167475 24.7635 0.191505C24.7275 0.215534 24.6995 0.249688 24.683 0.289646C24.6665 0.329604 24.6622 0.373565 24.6707 0.415959C24.6792 0.458355 24.7001 0.49727 24.7307 0.52778C24.7614 0.55829 24.8003 0.579023 24.8428 0.587359C24.8852 0.595695 24.9291 0.59126 24.969 0.574614C25.0089 0.557968 25.0429 0.529858 25.0669 0.493838C25.0908 0.457817 25.1034 0.415509 25.1033 0.372272L25.1033 0.371995C25.1033 0.343384 25.0976 0.315053 25.0867 0.288628C25.0757 0.262203 25.0596 0.238209 25.0393 0.218019C25.0191 0.197829 24.995 0.181839 24.9686 0.170965ZM24.8846 2.40726e-06C24.9336 -0.000173754 24.9821 0.00932024 25.0274 0.0279386C25.0727 0.0465567 25.1139 0.0739326 25.1486 0.108495C25.1833 0.143058 25.2108 0.184126 25.2296 0.229342C25.2484 0.274514 25.258 0.322943 25.258 0.371857C25.2583 0.44564 25.2366 0.51784 25.1958 0.579324C25.155 0.640848 25.0968 0.688876 25.0286 0.717321C24.9605 0.745767 24.8854 0.753347 24.8129 0.739101C24.7404 0.724856 24.6738 0.689426 24.6215 0.637304C24.5692 0.585182 24.5335 0.518714 24.519 0.446321C24.5045 0.373926 24.5118 0.298856 24.54 0.230616C24.5682 0.162376 24.616 0.104031 24.6774 0.0629761C24.7388 0.0219208 24.811 2.38422e-06 24.8849 1.9095e-06L24.8849 0.0773239L24.8846 2.40726e-06ZM25.258 0.371857C25.258 0.371903 25.258 0.371949 25.258 0.371996L25.1807 0.371995L25.258 0.371718C25.258 0.371764 25.258 0.371811 25.258 0.371857Z" fill="#09C75B"/>
<path d="M30.4289 0.892532C30.4292 0.972495 30.4056 1.05072 30.3613 1.11729C30.317 1.18387 30.2539 1.23579 30.1801 1.26649C30.1062 1.29719 30.0249 1.30528 29.9465 1.28973C29.868 1.27418 29.796 1.23569 29.7394 1.17915C29.6828 1.12261 29.6444 1.05055 29.6288 0.972117C29.6133 0.89368 29.6213 0.812393 29.652 0.738557C29.6827 0.664721 29.7347 0.60166 29.8013 0.557366C29.8679 0.513071 29.9461 0.489538 30.0261 0.489747C30.1329 0.489747 30.2354 0.532183 30.3109 0.60772C30.3865 0.683257 30.4289 0.785707 30.4289 0.892532Z" fill="#09C75B"/>
<path fill-rule="evenodd" clip-rule="evenodd" d="M30.0271 0.567004C29.9624 0.566834 29.8992 0.585857 29.8454 0.621666C29.7915 0.657474 29.7495 0.708458 29.7247 0.768162C29.6999 0.827867 29.6933 0.893597 29.7059 0.95702C29.7185 1.02044 29.7496 1.07871 29.7953 1.12442C29.8411 1.17013 29.8993 1.20124 29.9627 1.21381C30.0262 1.22638 30.0919 1.21984 30.1516 1.19503C30.2113 1.17021 30.2623 1.12823 30.2981 1.07441C30.3339 1.02058 30.3529 0.957326 30.3528 0.892666L30.3528 0.892464C30.3528 0.806134 30.3185 0.723348 30.2574 0.662316C30.1964 0.601285 30.1136 0.567004 30.0273 0.567004L30.0271 0.567004ZM30.0274 0.412355C29.9321 0.412125 29.8389 0.440168 29.7596 0.49293C29.6803 0.54571 29.6184 0.620848 29.5818 0.708817C29.5452 0.796784 29.5356 0.893628 29.5541 0.987078C29.5726 1.08053 29.6185 1.16638 29.6859 1.23375C29.7533 1.30112 29.8391 1.34698 29.9326 1.36551C30.0261 1.38403 30.123 1.3744 30.211 1.33782C30.299 1.30124 30.3742 1.23936 30.4269 1.16004C30.4797 1.08078 30.5077 0.987659 30.5075 0.892464" fill="#09C75B"/>
<path d="M34.3682 11.7482C34.3682 11.8279 34.3446 11.9058 34.3003 11.972C34.2561 12.0383 34.1931 12.0899 34.1195 12.1204C34.0459 12.1509 33.9649 12.1588 33.8868 12.1433C33.8086 12.1277 33.7368 12.0894 33.6805 12.0331C33.6242 11.9767 33.5858 11.905 33.5702 11.8268C33.5547 11.7487 33.5627 11.6677 33.5932 11.5941C33.6237 11.5205 33.6753 11.4576 33.7415 11.4133C33.8078 11.3691 33.8857 11.3455 33.9654 11.3455C34.0722 11.3455 34.1747 11.3879 34.2502 11.4634C34.3258 11.539 34.3682 11.6414 34.3682 11.7482Z" fill="#09C75B"/>
<path fill-rule="evenodd" clip-rule="evenodd" d="M33.9666 11.4232C33.9022 11.4232 33.8393 11.4423 33.7858 11.478C33.7322 11.5138 33.6905 11.5646 33.6659 11.6241C33.6412 11.6836 33.6348 11.749 33.6473 11.8122C33.6599 11.8753 33.6909 11.9333 33.7364 11.9788C33.782 12.0243 33.8399 12.0553 33.9031 12.0679C33.9662 12.0804 34.0316 12.074 34.0911 12.0494C34.1506 12.0247 34.2014 11.983 34.2372 11.9295C34.273 11.876 34.2921 11.813 34.2921 11.7487C34.2921 11.6623 34.2578 11.5796 34.1967 11.5185C34.1357 11.4575 34.0529 11.4232 33.9666 11.4232ZM33.6997 11.3495C33.7787 11.2967 33.8716 11.2686 33.9666 11.2686C34.0939 11.2686 34.2161 11.3191 34.3062 11.4092C34.3962 11.4992 34.4468 11.6213 34.4468 11.7487C34.4468 11.8436 34.4186 11.9364 34.3659 12.0154C34.3131 12.0943 34.2381 12.1559 34.1504 12.1922C34.0626 12.2286 33.966 12.2381 33.8729 12.2195C33.7797 12.201 33.6941 12.1553 33.627 12.0881C33.5598 12.021 33.5141 11.9354 33.4956 11.8423C33.477 11.7492 33.4865 11.6527 33.5229 11.5649C33.5592 11.4772 33.6208 11.4022 33.6997 11.3495Z" fill="#09C75B"/>
<path d="M38.527 4.1565C38.527 4.22463 38.5068 4.29123 38.4689 4.34789C38.4311 4.40454 38.3773 4.44869 38.3143 4.47476C38.2513 4.50084 38.1821 4.50766 38.1152 4.49437C38.0484 4.48107 37.987 4.44827 37.9388 4.40009C37.8906 4.35191 37.8578 4.29053 37.8445 4.2237C37.8312 4.15688 37.838 4.08762 37.8641 4.02467C37.8902 3.96172 37.9344 3.90792 37.991 3.87007C38.0477 3.83222 38.1143 3.81201 38.1824 3.81201C38.2738 3.81201 38.3615 3.84831 38.4261 3.91291C38.4907 3.97751 38.527 4.06514 38.527 4.1565Z" fill="#09C75B"/>
<path fill-rule="evenodd" clip-rule="evenodd" d="M38.1837 3.88976C38.1308 3.88976 38.0792 3.90542 38.0352 3.93477C37.9913 3.96412 37.957 4.00585 37.9368 4.05467C37.9166 4.10349 37.9113 4.15721 37.9216 4.20905C37.9319 4.26088 37.9574 4.30848 37.9947 4.34584C38.0321 4.3832 38.0797 4.40864 38.1315 4.41895C38.1834 4.42925 38.2371 4.42397 38.2859 4.40375C38.3347 4.38353 38.3764 4.3493 38.4058 4.30536C38.4352 4.26142 38.4508 4.20977 38.4508 4.15692C38.4508 4.08605 38.4227 4.01809 38.3726 3.96799C38.3225 3.9179 38.2545 3.88976 38.1837 3.88976ZM37.9492 3.8062C38.0186 3.75985 38.1002 3.73511 38.1837 3.73511C38.2956 3.73511 38.4029 3.77956 38.482 3.85867C38.5611 3.93777 38.6056 4.04506 38.6056 4.15692C38.6056 4.24034 38.5808 4.32189 38.5345 4.39125C38.4881 4.46062 38.4222 4.51469 38.3451 4.54662C38.268 4.57855 38.1832 4.5869 38.1013 4.57062C38.0195 4.55434 37.9443 4.51417 37.8853 4.45517C37.8263 4.39618 37.7861 4.32102 37.7698 4.2392C37.7535 4.15739 37.7619 4.07258 37.7938 3.99551C37.8258 3.91844 37.8798 3.85256 37.9492 3.8062Z" fill="#09C75B"/>
<path d="M42.3956 12.3398C42.3956 12.4195 42.3719 12.4973 42.3277 12.5636C42.2834 12.6298 42.2205 12.6814 42.1469 12.7119C42.0733 12.7424 41.9923 12.7504 41.9141 12.7348C41.836 12.7193 41.7642 12.6809 41.7078 12.6246C41.6515 12.5683 41.6131 12.4965 41.5976 12.4184C41.582 12.3402 41.59 12.2593 41.6205 12.1857C41.651 12.1121 41.7026 12.0492 41.7689 12.0049C41.8351 11.9606 41.913 11.937 41.9927 11.937C42.0456 11.937 42.098 11.9474 42.1469 11.9677C42.1958 11.9879 42.2402 12.0176 42.2776 12.055C42.315 12.0924 42.3447 12.1368 42.3649 12.1857C42.3852 12.2345 42.3956 12.2869 42.3956 12.3398Z" fill="#09C75B"/>
<path fill-rule="evenodd" clip-rule="evenodd" d="M41.99 12.0143C41.9256 12.0143 41.8627 12.0334 41.8092 12.0691C41.7557 12.1049 41.7139 12.1557 41.6893 12.2152C41.6647 12.2746 41.6582 12.3401 41.6708 12.4032C41.6833 12.4664 41.7143 12.5244 41.7599 12.5699C41.8054 12.6154 41.8634 12.6464 41.9265 12.6589C41.9896 12.6715 42.0551 12.665 42.1146 12.6404C42.174 12.6158 42.2249 12.5741 42.2606 12.5206C42.2964 12.467 42.3155 12.4041 42.3155 12.3397C42.3155 12.297 42.3071 12.2547 42.2907 12.2152C42.2744 12.1757 42.2504 12.1398 42.2201 12.1096C42.1899 12.0794 42.154 12.0554 42.1146 12.039C42.0751 12.0227 42.0327 12.0143 41.99 12.0143ZM41.7232 11.9405C41.8022 11.8878 41.895 11.8596 41.99 11.8596C42.0531 11.8596 42.1155 11.872 42.1738 11.8962C42.2321 11.9203 42.285 11.9557 42.3296 12.0003C42.3742 12.0448 42.4096 12.0978 42.4337 12.156C42.4578 12.2143 42.4702 12.2767 42.4702 12.3397C42.4702 12.4347 42.4421 12.5275 42.3893 12.6064C42.3366 12.6854 42.2616 12.7469 42.1738 12.7833C42.086 12.8196 41.9895 12.8291 41.8963 12.8106C41.8031 12.7921 41.7176 12.7464 41.6504 12.6792C41.5833 12.6121 41.5375 12.5265 41.519 12.4334C41.5005 12.3403 41.51 12.2437 41.5463 12.156C41.5827 12.0683 41.6442 11.9933 41.7232 11.9405Z" fill="#09C75B"/>
<path d="M45.2802 11.2566C45.4371 11.2566 45.5643 11.1294 45.5643 10.9725C45.5643 10.8157 45.4371 10.6885 45.2802 10.6885C45.1233 10.6885 44.9961 10.8157 44.9961 10.9725C44.9961 11.1294 45.1233 11.2566 45.2802 11.2566Z" fill="#09C75B"/>
<path fill-rule="evenodd" clip-rule="evenodd" d="M45.2756 10.7655C45.1614 10.7655 45.0688 10.858 45.0688 10.9722C45.0688 11.0864 45.1614 11.179 45.2756 11.179C45.3897 11.179 45.4823 11.0864 45.4823 10.9722C45.4823 10.858 45.3897 10.7655 45.2756 10.7655ZM44.9141 10.9722C44.9141 10.7727 45.0759 10.6108 45.2756 10.6108C45.4752 10.6108 45.6371 10.7727 45.6371 10.9722C45.6371 11.1718 45.4752 11.3336 45.2756 11.3336C45.0759 11.3336 44.9141 11.1718 44.9141 10.9722Z" fill="#09C75B"/>
<path d="M47.3345 14.871C47.557 14.871 47.7374 14.6907 47.7374 14.4682C47.7374 14.2458 47.557 14.0654 47.3345 14.0654C47.112 14.0654 46.9316 14.2458 46.9316 14.4682C46.9316 14.6907 47.112 14.871 47.3345 14.871Z" fill="#09C75B"/>
<path fill-rule="evenodd" clip-rule="evenodd" d="M47.3396 14.1427C47.1599 14.1427 47.0141 14.2884 47.0141 14.4681C47.0141 14.6479 47.1599 14.7936 47.3396 14.7936C47.5193 14.7936 47.6651 14.6479 47.6651 14.4681C47.6651 14.2884 47.5193 14.1427 47.3396 14.1427ZM46.8594 14.4681C46.8594 14.203 47.0744 13.988 47.3396 13.988C47.6049 13.988 47.8199 14.203 47.8199 14.4681C47.8199 14.7333 47.6049 14.9483 47.3396 14.9483C47.0744 14.9483 46.8594 14.7333 46.8594 14.4681Z" fill="#09C75B"/>
<path d="M4.07294 12.4627C4.07294 12.5174 4.05671 12.5709 4.02631 12.6164C3.9959 12.6619 3.95269 12.6973 3.90213 12.7183C3.85156 12.7392 3.79593 12.7447 3.74225 12.734C3.68858 12.7233 3.63927 12.697 3.60058 12.6583C3.56188 12.6196 3.53552 12.5703 3.52485 12.5167C3.51417 12.463 3.51965 12.4074 3.54059 12.3568C3.56154 12.3063 3.597 12.2631 3.64251 12.2327C3.68801 12.2023 3.74151 12.186 3.79624 12.186C3.83261 12.1859 3.86866 12.193 3.90229 12.2068C3.93593 12.2207 3.96648 12.241 3.99221 12.2668C4.01793 12.2925 4.03831 12.323 4.05216 12.3567C4.06602 12.3903 4.07308 12.4263 4.07294 12.4627Z" fill="#09C75B"/>
<path fill-rule="evenodd" clip-rule="evenodd" d="M3.87596 12.2785C3.85177 12.2685 3.82585 12.2634 3.79969 12.2635L3.79939 12.2635C3.75998 12.2635 3.72144 12.2752 3.68867 12.2971C3.65589 12.319 3.63033 12.3501 3.61524 12.3866C3.60015 12.423 3.5962 12.4631 3.6039 12.5018C3.61159 12.5404 3.63058 12.5759 3.65846 12.6038C3.68634 12.6317 3.72185 12.6507 3.76051 12.6584C3.79917 12.666 3.83924 12.6621 3.87566 12.647C3.91208 12.6319 3.94321 12.6064 3.96512 12.5736C3.98703 12.5408 3.99872 12.5023 3.99872 12.4629V12.4626H3.99872C3.99882 12.4364 3.99374 12.4105 3.98377 12.3863C3.9738 12.3621 3.95914 12.3401 3.94064 12.3216C3.92214 12.3031 3.90015 12.2884 3.87596 12.2785ZM3.79909 12.1089C3.84569 12.1087 3.89185 12.1178 3.93493 12.1355C3.97801 12.1532 4.01715 12.1793 4.05009 12.2123C4.08303 12.2452 4.10912 12.2843 4.12687 12.3274C4.14459 12.3704 4.15363 12.4165 4.15347 12.463C4.15344 12.533 4.13268 12.6013 4.09381 12.6595C4.05491 12.7177 3.99961 12.7631 3.93491 12.7899C3.8702 12.8167 3.799 12.8237 3.73031 12.81C3.66162 12.7964 3.59852 12.7627 3.54901 12.7131C3.49949 12.6636 3.46577 12.6006 3.45211 12.5319C3.43846 12.4633 3.44547 12.3921 3.47226 12.3274C3.49906 12.2627 3.54443 12.2075 3.60266 12.1686C3.66089 12.1297 3.72935 12.1089 3.79939 12.1089V12.1862L3.79909 12.1089ZM4.15347 12.463C4.15347 12.4631 4.15347 12.4631 4.15347 12.4632L4.0761 12.4629H4.15347C4.15347 12.4629 4.15347 12.463 4.15347 12.463Z" fill="#09C75B"/>
<path d="M2.53455 15.3598C2.53455 15.408 2.52025 15.4551 2.49346 15.4952C2.46667 15.5353 2.42858 15.5665 2.38403 15.585C2.33947 15.6034 2.29044 15.6083 2.24314 15.5989C2.19584 15.5895 2.1524 15.5662 2.11829 15.5321C2.08419 15.498 2.06097 15.4546 2.05156 15.4073C2.04215 15.36 2.04698 15.311 2.06544 15.2665C2.08389 15.2219 2.11515 15.1838 2.15524 15.1571C2.19534 15.1303 2.24249 15.116 2.29071 15.116C2.35538 15.116 2.41741 15.1417 2.46313 15.1874C2.50886 15.2331 2.53455 15.2951 2.53455 15.3598Z" fill="#09C75B"/>
<path fill-rule="evenodd" clip-rule="evenodd" d="M2.28606 15.1937C2.25314 15.1937 2.22096 15.2035 2.19359 15.2218C2.16622 15.24 2.14488 15.266 2.13227 15.2965C2.11967 15.3269 2.11637 15.3604 2.1228 15.3927C2.12922 15.425 2.14508 15.4546 2.16836 15.4779C2.19165 15.5012 2.22131 15.517 2.25359 15.5234C2.28587 15.5299 2.31934 15.5266 2.34975 15.514C2.38016 15.5014 2.40616 15.4801 2.42446 15.4527C2.44275 15.4253 2.45252 15.3931 2.45252 15.3602C2.45252 15.316 2.43497 15.2737 2.40375 15.2425C2.37253 15.2112 2.3302 15.1937 2.28606 15.1937ZM2.10759 15.0932C2.16041 15.0579 2.22252 15.0391 2.28606 15.0391C2.37126 15.0391 2.45297 15.0729 2.51321 15.1331C2.57344 15.1934 2.60727 15.275 2.60727 15.3602C2.60727 15.4237 2.58844 15.4858 2.55315 15.5386C2.51786 15.5914 2.46769 15.6325 2.40899 15.6568C2.35029 15.6812 2.2857 15.6875 2.22339 15.6751C2.16107 15.6627 2.10383 15.6321 2.05891 15.5872C2.01399 15.5423 1.98341 15.4851 1.97101 15.4228C1.95862 15.3605 1.96498 15.296 1.98929 15.2373C2.0136 15.1786 2.05476 15.1285 2.10759 15.0932Z" fill="#09C75B"/>
</svg>