<svg version="1.2" xmlns="http://www.w3.org/2000/svg" viewBox="0 0 259 512" width="259" height="512">
	<title>character_for_about_us-svg</title>
	<style>
		.s0 { fill: none;stroke: #000000;stroke-miterlimit:10 } 
		.s1 { fill: #06ab58 } 
		.s2 { fill: #f6c8a6 } 
		.s3 { fill: none;stroke: #ef8576;stroke-linecap: round;stroke-miterlimit:10;stroke-width: .8 } 
		.s4 { fill: none;stroke: #16004d;stroke-linecap: round;stroke-linejoin: round;stroke-width: .8 } 
		.s5 { fill: #ffffff;stroke: #010001;stroke-miterlimit:10 } 
		.s6 { fill: none;stroke: #010001;stroke-linecap: round;stroke-miterlimit:10 } 
		.s7 { fill: #ffffff } 
		.s8 { fill: #eb3341 } 
		.s9 { fill: none;stroke: #16004d;stroke-linecap: round;stroke-miterlimit:10 } 
		.s10 { fill: none;stroke: #3a4a36;stroke-miterlimit:10;stroke-width: .4 } 
		.s11 { fill: none;stroke: #16004d;stroke-linecap: round;stroke-miterlimit:10;stroke-width: .8 } 
		.s12 { fill: #161522 } 
		.s13 { fill: none;stroke: #161522;stroke-linecap: round;stroke-miterlimit:10;stroke-width: .5 } 
		.s14 { fill: #7f4040 } 
		.s15 { fill: #ef8576 } 
	</style>
	<path id="Layer" fill-rule="evenodd" class="s0" d="m20 512.5h1144"/>
	<path id="Layer" class="s1" d="m81.8 83c0 0-30.1-0.5-59.5 42-31.3 45.4-23.8 90.3-3.6 97.6 11.3 4.2 23.1 6.7 35.1 7.4z"/>
	<path id="Layer" class="s2" d="m255.6 62.4c-2.1-1.3-5.4 3.1-7.4 5.8 2.5-3.6 7.2-10.5 4.7-11.3-2-0.7-5.4 2.8-7.5 5.8 2.3-3.9 6.1-8.1 3.5-9.2-2.1-0.9-7.1 5.3-9.4 8.4 2.3-3.3 7.8-9.9 4-10.7-3.8-0.7-18.7 18.7-18.7 18.7l2.8-5c0 0 4.3-7.5 2-8.5-2.4-1-11.6 8.7-13.8 13-2.2 4.2-1.8 14.2-1.8 14.2l-10.6 13.3 22.4 14 8.8-15.6c17.4-18.2 23-31.6 21-32.9z"/>
	<path id="Layer" fill-rule="evenodd" class="s3" d="m226.9 83.2c0 0 0.4-7.6-3.4-10.9l3.9-7"/>
	<path id="Layer" fill-rule="evenodd" class="s3" d="m237 65.3l6.2-8.4"/>
	<path id="Layer" fill-rule="evenodd" class="s3" d="m248.1 58.9l-7 9.9"/>
	<path id="Layer" fill-rule="evenodd" class="s3" d="m251.8 63.5l-7.2 9.4"/>
	<path id="Layer" class="s1" d="m205.4 86l-35.4 36.8c-24.5-19.2-44.7-32.4-57.1-38.1-4.4-2.1-9.2-3-14-2.6l19.8 69.2c0 0 32.1 39.8 62.9 32.2 30.9-7.6 52.9-80 52.9-80z"/>
	<path id="Layer" fill-rule="evenodd" class="s4" d="m118.8 151.3c0 0 32 39.8 62.9 32.2 30.8-7.5 52.9-80 52.9-80l-29.3-17.5"/>
	<path id="Layer" fill-rule="evenodd" class="s4" d="m202.5 91.6l26.3 16.8"/>
	<path id="Layer" fill-rule="evenodd" class="s4" d="m170.1 122.8l4.6 17.6"/>
	<path id="Layer" class="s2" d="m160.7 432.4l12.3 50.1-32.7 3-11.4-49.3z"/>
	<path id="Layer" class="s5" d="m179.7 472.6l-51.6 3.1 6.3 36.6 87.9-0.4-33.5-18.8z"/>
	<path id="Layer" fill-rule="evenodd" class="s6" d="m203.6 498.7l-7.7 4.9"/>
	<path id="Layer" fill-rule="evenodd" class="s6" d="m197.5 493.7l-7.6 5"/>
	<path id="Layer" class="s1" d="m160.4 501.6c5-2 7.3-7.7 5.3-12.6-2-4.9-7.7-7.2-12.6-5.2-4.9 2-7.3 7.6-5.3 12.5 2.1 5 7.7 7.3 12.6 5.3z"/>
	<path id="Layer" class="s2" d="m69.4 433.4l0.5 51.5-32.5-4.5 0.2-50.6z"/>
	<path id="Layer" class="s5" d="m79.9 474.4l-50.2 1.1-3.8 36.8 87.9-0.4-33.5-18.8z"/>
	<path id="Layer" fill-rule="evenodd" class="s6" d="m95.2 498.7l-7.7 4.9"/>
	<path id="Layer" fill-rule="evenodd" class="s6" d="m89.1 493.7l-7.7 5"/>
	<path id="Layer" class="s1" d="m51.7 503.5c5.4 0 9.7-4.4 9.7-9.7 0-5.3-4.3-9.6-9.7-9.6-5.3 0-9.6 4.3-9.6 9.6 0 5.3 4.3 9.7 9.6 9.7z"/>
	<path id="Layer" class="s7" d="m85.6 257.1l32.9 198.9 69-5.5-47.5-237.4h-63.4z"/>
	<path id="Layer" fill-rule="evenodd" class="s8" d="m172.5 451.7v-10.6h-23.1v12.5l-1.3 0.1v-12.6h-23v14.7l-1.3 0.1v-14.5h-7.7l-0.2-1.4h7.9v-22.8h-11.7l-0.2-1.3h11.9v-22.8h-15.7l-0.2-1.3h15.8v-22.9h-19.6l-0.2-1.3h19.9v-22.8h-23.2v3.5l-1.3-7.7v-19.9h-3.3l-0.2-1.3h3.5v-22.8h-7.3l-0.2-1.3h7.5v-22.9h-11.3l-0.2-1.3h11.5v-22.8h-15.6l-0.3-1.3h15.9v-22.8h-20.5l-0.3-1.3h20.8v-9.9h1.3v9.9h23v-9.9h1.4v9.9h16.9l0.3 1.3h-17.2v22.8h21.7l0.3 1.3h-22v22.8h23v-17.8l1.3 6.4v11.4h2.3l0.2 1.3h-2.5v22.8h7.1l0.3 1.3h-7.4v22.8h11.9l0.3 1.3h-12.2v22.8h16.8l0.2 1.3h-17v22.8h21.5l0.3 1.3h-21.8v22.8h23v-16.7l1.3 6.3v10.4h2.1l0.2 1.3h-2.3v22.8h6.9l0.3 1.3h-7.2v22.7h11.7l0.3 1.4h-12v10.5zm-48.7-131.1h-23v22.8h23zm0-24.1h-23v22.8h23zm0-24h-23v22.8h23zm0-24.2h-23v22.8h23zm0-24.1h-23v22.9h23zm24.3 192.7h-23v22.9h23zm0-24.1h-23v22.8h23zm0-24.1h-23v22.8h23zm0-24.1h-23v22.9h23zm0-24.1h-23v22.8h23zm0-24.1h-23v22.8h23zm0-24h-23v22.8h23zm1.3 143.2h23.1v-22.8h-23.1zm23.1 24.1v-22.9h-23.1v22.9z"/>
	<path id="Layer" fill-rule="evenodd" class="s9" d="m85.8 258.5l32.7 197.5 69-5.5-47.5-237.4"/>
	<path id="Layer" fill-rule="evenodd" class="s10" d="m106.5 250.4l-10.8 1-6.3 85.5"/>
	<path id="Layer" class="s7" d="m106.5 250.4l-10.8 1-9.9 201.3-71.5-1 29.9-221.7 3.2-20.9 73.6-20.1z"/>
	<path id="Layer" fill-rule="evenodd" class="s8" d="m99.4 251.1v-2.8h-23.1v22.8h18.5l-0.1 1.3h-18.4v22.8h17.2v1.3h-17.2v22.8h16.1l-0.1 1.3h-16v22.8h14.9v1.3h-14.9v22.8h13.8v1.3h-13.7v22.8h12.5v1.3h-12.5v22.8h11.3v1.3h-11.2v22.9h10.1v1.3h-10.1v11.5h-1.3v-11.5h-23.1v11.2h-1.3v-11.2h-23v10.9h-1.4v-10.9h-10.6l0.2-1.3h10.4v-22.8h-7.4l0.2-1.3h7.2v-22.9h-4.1l0.2-1.3h3.9v-22.8h-0.9l0.2-1.3h0.7v-5.5l1.3-9.4v15.1h23.1v-22.9h-22l0.2-1.3h21.8v-22.8h-18.8l0.2-1.3h18.5v-22.8h-15.5l0.2-1.3h15.3v-22.9h-12.3l0.2-1.3h12.1v-22.8h-9l0.2-1.3h8.8v-22.8h-5.6l0.1-1.3h5.5v-14.7l1.3-0.4v15.1h23v-21.4l1.3-0.3v21.7h23.1v-22.8h-19l4.6-1.3h14.4v-3.9l1.3-0.4v4.3h18l-0.3 1.3h-17.7v22.8h12.3l-0.3 1.3h-12v22.8h6.6l-0.3 1.3h-6.3v2.6zm-48.7 165.9h-23v22.9h23zm0-24.1h-23v22.8h23zm0-24.1h-23v22.8h23zm24.4 48.2h-23.1v22.9h23.1zm0-24.1h-23.1v22.8h23.1zm0-24.1h-23.1v22.8h23.1zm0-24.1h-23.1v22.9h23.1zm0-24.1h-23.1v22.8h23.1zm0-24.1h-23.1v22.8h23.1zm0-24h-23.1v22.8h23.1zm0-24.2h-23.1v22.8h23.1zm0-24.1h-23.1v22.8h23.1zm24.3 22.9v-22.9h-23v22.9z"/>
	<path id="Layer" fill-rule="evenodd" class="s9" d="m106.5 250.4l-10.8 1-9.9 201.3-71.5-1 33.1-242.6"/>
	<path id="Layer" class="s1" d="m156.5 244.3l-13.1-114.6c0-6.4-1.2-12.8-3.7-18.7-2.5-5.9-6.1-11.3-10.6-15.8-4.5-4.6-9.9-8.1-15.9-10.6-5.9-2.5-12.3-3.7-18.7-3.7-6.4 0-12.8 1.2-18.7 3.7-6 2.5-11.4 6-15.9 10.6-4.6 4.5-8.2 9.9-10.6 15.8-2.5 5.9-3.7 12.3-3.7 18.7l-12.8 112.9z"/>
	<path id="Layer" fill-rule="evenodd" class="s4" d="m39.5 182.8l-6.8 59.8 123.8 1.7-11.2-98.2"/>
	<path id="Layer" fill-rule="evenodd" class="s11" d="m113.8 91.9c-2.1 3.3-4.9 6-8.3 7.9-3.4 1.8-7.2 2.8-11.1 2.8-4 0-8-1-11.4-3-3.5-2.1-6.4-5-8.4-8.4"/>
	<path id="Layer" class="s2" d="m83.3 55.8v-15.3c0-8.8 6.4-16 14.1-16h11.7c7.7 0 14 7.2 14 16v18c0 8.8-6.3 16-14 16h-3.8v7.5c0 1.8-0.7 3.6-2 4.8-1.3 1.3-3 2.1-4.9 2.1h-8.3c-1.8 0-3.6-0.8-4.9-2.1-1.3-1.2-2-3-2-4.8v-24.9q0-0.6 0.1-1.3z"/>
	<path id="Layer" class="s12" d="m100.1 46.5c0 0.6 0.2 1.3 0.7 1.8 0.5 0.5 1.2 0.8 1.9 0.8 0.7 0 1.3-0.3 1.8-0.8 0.5-0.5 0.8-1.2 0.8-1.8 0-0.7-0.3-1.4-0.8-1.9-0.5-0.5-1.1-0.8-1.8-0.8-0.7 0-1.4 0.3-1.9 0.8-0.5 0.5-0.7 1.2-0.7 1.9z"/>
	<path id="Layer" class="s12" d="m117.2 46c0 0.6 0.3 1.2 0.7 1.6 0.4 0.4 1 0.6 1.6 0.6 0.6 0 1.1-0.2 1.5-0.6 0.5-0.4 0.7-1 0.7-1.6 0-0.6-0.2-1.1-0.7-1.6-0.4-0.4-0.9-0.6-1.5-0.6-0.6 0-1.2 0.2-1.6 0.6-0.4 0.4-0.7 1-0.7 1.6z"/>
	<path id="Layer" class="s12" d="m103.6 40.5c-1.3 0-2.6 0.2-3.8 0.7q-0.2 0.1-0.3 0.3-0.2 0.2-0.1 0.5 0 0.1 0.1 0.2 0.1 0.1 0.2 0.2 0.1 0 0.2 0.1 0.2 0 0.3-0.1 0.8-0.3 1.7-0.5h0.4 0.1 0.3q0.4 0 0.9 0 0.3-0.1 0.4-0.2 0.2-0.2 0.2-0.5 0-0.3-0.2-0.5-0.1-0.1-0.4-0.2z"/>
	<path id="Layer" class="s12" d="m121.3 41.1q-1.3-0.8-2.8-1-0.2-0.1-0.5 0-0.2 0.2-0.3 0.4 0 0.3 0.1 0.5 0.1 0.2 0.4 0.3 0.7 0.1 1.3 0.4l0.3 0.1 0.2 0.1 0.6 0.3q0.3 0.1 0.5 0.1 0.3-0.1 0.4-0.3 0.1-0.3 0.1-0.5-0.1-0.3-0.3-0.4z"/>
	<path id="Layer" class="s12" d="m112 44.4q1.3 3.5 3.3 6.6l0.2-0.5-4.9 0.6c-0.4 0-0.2 0.7 0.2 0.7l4.9-0.7q0.1 0 0.1-0.1 0.1 0 0.1-0.1 0 0 0-0.1 0-0.1 0-0.2-2-3-3.3-6.3c-0.1-0.4-0.8-0.2-0.6 0.2z"/>
	<path id="Layer" fill-rule="evenodd" class="s13" d="m104.6 55.6c0 0 1.3 5.8 9.1 4.7"/>
	<path id="Layer" class="s14" d="m86.6 50.9l2.2-14.1c0 0 18.1 3.4 33.3-1.7 5.8-1.8 11-5.3 14.8-10.1 12.6-17-1.5-23.5-7.9-22.5-3.7 0.6-7.1 2.4-9.6 5.2 0 0 3.8-6.1-2.2-7.4-6-1.3-10.4 2.9-13.9 9.4 0 0-25.7-2.4-34.4 13.1-8.8 15.6-1.7 26.6 14.2 42.7l1.5-9z"/>
	<path id="Layer" class="s15" d="m102.8 55.8c0 1.4-0.5 2.7-1.5 3.7-1 1-2.3 1.5-3.7 1.5-1.4 0-2.7-0.5-3.7-1.5-1-1-1.6-2.3-1.6-3.7 0-1.4 0.6-2.7 1.6-3.7 1-1 2.3-1.5 3.7-1.5 1.4 0 2.7 0.5 3.7 1.5 1 1 1.5 2.3 1.5 3.7z"/>
	<path id="Layer" class="s15" d="m118.4 55.8c0 1.2 0.4 2.5 1.3 3.4 0.8 1 2 1.6 3.2 1.7q0.2-1.2 0.2-2.4v-7.8c-1.3 0.1-2.5 0.7-3.3 1.6-0.9 1-1.4 2.2-1.4 3.5z"/>
	<path id="Layer" class="s2" d="m68.9 53c0 1.2 0.3 2.4 0.7 3.5 0.5 1.1 1.2 2.1 2 3 0.9 0.8 1.9 1.5 3 2 1.2 0.4 2.4 0.6 3.6 0.6 1.2 0 2.4-0.2 3.5-0.6 1.1-0.5 2.2-1.2 3-2 0.9-0.9 1.6-1.9 2-3 0.5-1.1 0.7-2.3 0.7-3.5 0-1.2-0.2-2.4-0.7-3.5-0.4-1.2-1.1-2.2-2-3-0.8-0.9-1.9-1.5-3-2-1.1-0.4-2.3-0.7-3.5-0.7-1.2 0-2.4 0.3-3.6 0.7-1.1 0.5-2.1 1.1-3 2-0.8 0.8-1.5 1.8-2 3-0.4 1.1-0.7 2.3-0.7 3.5z"/>
	<path id="Layer" class="s15" d="m83.7 54.2c0.2-1.1-0.1-2.3-0.6-3.3-0.5-0.9-1.3-1.8-2.3-2.3-1.1-0.5-2.4-0.6-3.6-0.5q-0.2 0-0.4 0.2-0.1 0.1-0.1 0.4 0 0.2 0.1 0.3 0.2 0.2 0.4 0.2c1-0.1 2-0.1 2.9 0.3l0.4 0.2q0.3 0.1 0.5 0.3l0.1 0.1 0.2 0.1q0.2 0.2 0.4 0.4c-0.1-0.1 0 0.1 0 0.1l0.2 0.2q0.1 0.2 0.2 0.4c0 0.1 0.1 0.2 0.1 0.3 0-0.1 0 0.1 0 0v0.1c0 0.1 0.1 0.3 0.1 0.4q0.2 0.4 0.2 0.8 0 0.1 0 0.2c0-0.1 0 0.1 0 0q0 0.1 0 0.3 0.1 0.4 0 0.7c0 0.7 1.1 0.7 1.1 0z"/>
	<path id="Layer" class="s2" d="m94.4 96.1c3.7 0 7.3-1.3 10.1-3.5 2.9-2.3 4.9-5.5 5.7-9.1-5-1.7-10.4-2.6-15.7-2.6-5.4 0-10.8 0.9-15.9 2.6 0.8 3.6 2.9 6.8 5.7 9.1 2.9 2.2 6.5 3.5 10.1 3.5z"/>
	<path id="Layer" class="s2" d="m133.6 191.3c0 0 9.5-4.7 9-7.2-0.7-3.7-15.2 1.5-18.3 2-3.1 0.6-12.9 3.9-16.8 5.3q-5.7 1.7-11.5 2.6l-1.9 20.4c0 0 25.4 3.7 38.8 3.6 13.4-0.1 24.8-2.9 25-6 0.1-3.1-3.7-1.5-3.7-1.5 0 0 6-1.8 6.1-3.7 0.1-1.9-4.9-1.8-4.9-1.8 0 0 7.3-1.5 7.3-4.1 0-2.7-9.3-1.2-9.3-1.2 0 0 7.4-2.2 6.6-4.6-0.8-2.4-13-0.9-21.6 0-8.6 1-7.5-2.3-4.8-3.8z"/>
	<path id="Layer" class="s15" d="m155.6 209.7c-4 1.1-8.1 1.6-12.3 1.5-0.6 0-0.6 0.9 0 1 4.3 0.1 8.5-0.4 12.6-1.5q0.1-0.1 0.2-0.3 0.1-0.1 0.1-0.3-0.1-0.2-0.3-0.3-0.1-0.1-0.3-0.1z"/>
	<path id="Layer" class="s15" d="m158 203.6q-6.6 1.4-13.3 1.8c-0.6 0-0.6 1 0 1q6.9-0.5 13.5-1.9c0.6-0.1 0.4-1.1-0.2-0.9z"/>
	<path id="Layer" class="s15" d="m156.3 198.4l-12.8 1.4c-0.6 0.1-0.6 1.1 0 1l12.8-1.4c0.6-0.1 0.6-1.1 0-1z"/>
	<path id="Layer" class="s1" d="m48.4 176.3l6.9 0.9 2.9-31.1-49.2 5.5c-16.1 36.3-7.3 64.9 9.7 71 50.8 18.5 88.4-2.4 88.4-2.4v-36.8z"/>
	<path id="Layer" fill-rule="evenodd" class="s11" d="m9 151.6c-16.1 36.3-7.3 64.9 9.7 71 50.8 18.5 88.4-2.4 88.4-2.4v-36.8l-58.7-7.1"/>
	<path id="Layer" fill-rule="evenodd" class="s11" d="m58.2 146.1l-2.9 31.1"/>
	<path id="Layer" fill-rule="evenodd" class="s11" d="m98.4 186.5c0 0.7-1 33.5-1 33.5"/>
</svg>