<svg width="454" height="328" viewBox="0 0 454 328" fill="none" xmlns="http://www.w3.org/2000/svg">
<g clip-path="url(#clip0_2342_15307)">
<path d="M444.099 242.928C443.911 242.929 443.723 242.91 443.539 242.872C443.023 242.787 442.539 242.565 442.138 242.229C441.736 241.893 441.431 241.455 441.254 240.961C440.999 240.318 440.906 239.622 440.983 238.934C441.06 238.247 441.304 237.589 441.693 237.018C442.594 235.57 443.929 234.445 445.505 233.806C445.185 233.378 444.757 233.043 444.267 232.835C442.725 232.314 441.048 232.38 439.551 233.019C439.195 233.162 438.872 233.378 438.605 233.655C438.338 233.932 438.132 234.263 438.001 234.625C437.967 234.732 437.892 234.82 437.793 234.872C437.694 234.923 437.579 234.932 437.473 234.898C437.367 234.864 437.279 234.789 437.228 234.69C437.177 234.59 437.168 234.475 437.202 234.368C437.372 233.907 437.635 233.487 437.975 233.133C438.314 232.779 438.723 232.5 439.176 232.313C440.873 231.591 442.776 231.519 444.522 232.112C445.218 232.404 445.813 232.896 446.233 233.525C446.515 233.431 446.804 233.356 447.096 233.3C447.781 233.011 448.519 232.871 449.262 232.89C450.004 232.91 450.735 233.088 451.404 233.413C452.634 234.111 453.49 235.525 453.953 237.621C453.975 237.725 453.955 237.833 453.898 237.923C453.842 238.013 453.752 238.077 453.649 238.102C453.547 238.124 453.44 238.104 453.351 238.047C453.263 237.99 453.201 237.9 453.178 237.797C452.762 235.934 452.035 234.698 451.012 234.111C450.43 233.842 449.799 233.699 449.158 233.692C448.518 233.685 447.883 233.815 447.296 234.071C447.079 234.113 446.865 234.17 446.656 234.24C447.485 236.073 447.632 238.144 447.072 240.078C446.56 241.885 445.457 242.928 444.099 242.928ZM445.937 234.473C444.466 235.055 443.218 236.093 442.372 237.436C442.056 237.9 441.855 238.435 441.788 238.995C441.722 239.554 441.79 240.121 441.989 240.648C442.119 241.015 442.345 241.339 442.643 241.588C442.941 241.837 443.301 242 443.683 242.061C445.386 242.398 446.081 240.584 446.345 239.789C446.85 238.025 446.705 236.138 445.937 234.473Z" fill="black"/>
<path d="M112.304 266.128C111.342 266.124 110.389 265.926 109.505 265.544C108.62 265.161 107.822 264.603 107.157 263.903C106.508 263.138 106.041 262.235 105.791 261.261C104.746 261.173 103.743 260.811 102.882 260.209C102.108 259.652 101.457 258.939 100.971 258.117C100.484 257.295 100.171 256.381 100.052 255.431C99.7487 253.022 100.588 251.489 101.899 249.473C101.957 249.384 102.048 249.321 102.152 249.299C102.257 249.277 102.365 249.298 102.454 249.357C102.543 249.415 102.605 249.507 102.627 249.612C102.649 249.716 102.628 249.825 102.57 249.915C101.323 251.834 100.572 253.127 100.844 255.327C100.947 256.165 101.223 256.971 101.652 257.697C102.081 258.422 102.655 259.051 103.337 259.543C103.998 260.015 104.758 260.326 105.559 260.45C105.384 259.496 105.398 258.516 105.599 257.567C105.752 256.766 106.1 256.016 106.612 255.382C107.124 254.749 107.783 254.253 108.532 253.938C108.952 253.741 109.417 253.663 109.878 253.713C110.338 253.762 110.777 253.937 111.145 254.219C111.566 254.602 111.875 255.093 112.038 255.639C112.202 256.185 112.214 256.766 112.073 257.319C111.665 258.997 109.771 260.635 107.669 261.141C107.312 261.227 106.948 261.278 106.582 261.293C106.808 262.057 107.189 262.765 107.701 263.373C108.335 264.035 109.104 264.553 109.955 264.891C110.805 265.229 111.718 265.38 112.632 265.333C113.603 265.282 114.553 265.023 115.417 264.575C116.281 264.126 117.04 263.498 117.643 262.731C117.709 262.647 117.805 262.592 117.911 262.579C118.016 262.567 118.123 262.597 118.207 262.663C118.29 262.729 118.344 262.825 118.357 262.932C118.37 263.038 118.34 263.145 118.274 263.229C117.603 264.086 116.755 264.788 115.79 265.288C114.825 265.788 113.765 266.075 112.68 266.128H112.304ZM109.659 254.484C109.383 254.487 109.111 254.547 108.86 254.661C108.23 254.929 107.676 255.35 107.247 255.885C106.818 256.42 106.526 257.053 106.398 257.728C106.206 258.636 106.206 259.574 106.398 260.482C106.772 260.477 107.145 260.431 107.509 260.346C109.307 259.912 110.978 258.499 111.313 257.134C111.421 256.729 111.418 256.302 111.306 255.898C111.193 255.494 110.975 255.128 110.674 254.837C110.386 254.605 110.028 254.481 109.659 254.484Z" fill="black"/>
<path d="M115.55 36.0073C115.444 36.0073 115.342 35.965 115.267 35.8897C115.192 35.8144 115.15 35.7123 115.15 35.6058C115.094 32.2858 116.326 29.0742 118.587 26.6522C120.033 25.1986 121.992 24.3764 124.038 24.3636C124.9 23.0701 126.106 22.0448 127.518 21.4034C128.931 20.762 130.493 20.5301 132.03 20.734C133.734 21.1354 135.342 21.8723 136.761 22.9021C139.486 24.6125 141.836 26.1142 144.865 22.9021C144.94 22.8416 145.035 22.8104 145.131 22.8144C145.227 22.8184 145.319 22.8572 145.389 22.9237C145.459 22.9902 145.503 23.0799 145.512 23.1763C145.522 23.2726 145.496 23.3692 145.44 23.4481C141.972 27.134 139.111 25.3352 136.337 23.6007C135.006 22.6319 133.499 21.9336 131.902 21.545C130.604 21.3903 129.289 21.5735 128.083 22.077C126.876 22.5804 125.819 23.3872 125.013 24.4198C126.227 24.4629 127.396 24.8954 128.348 25.654C129.3 26.4126 129.985 27.4574 130.303 28.6356C130.735 30.3862 130.215 32.1207 129.081 32.7631C128.425 33.1325 127.019 33.4537 124.981 31.398C123.158 29.5671 122.679 27.3187 123.63 25.1987C121.937 25.2956 120.339 26.0194 119.146 27.2304C117.038 29.4986 115.891 32.5026 115.95 35.6058C115.95 35.7123 115.907 35.8144 115.832 35.8897C115.758 35.965 115.656 36.0073 115.55 36.0073ZM124.493 25.1666L124.445 25.2469C123.47 27.15 123.846 29.1255 125.516 30.8118C126.731 32.0324 127.874 32.4821 128.657 32.0404C129.44 31.5988 129.832 30.1854 129.456 28.8284C129.288 27.9932 128.337 25.3433 124.493 25.1666Z" fill="black"/>
<path d="M444.058 148.566C442.761 148.613 441.491 148.193 440.475 147.381C439.46 146.57 438.766 145.421 438.519 144.141C438.294 143.287 438.27 142.392 438.447 141.527C438.625 140.662 439 139.85 439.542 139.155C440.116 138.475 440.831 137.93 441.638 137.559C442.445 137.189 443.323 137.001 444.21 137.011C445.454 137.006 446.671 137.382 447.698 138.087C448.726 138.793 449.516 139.795 449.964 140.961C450.191 141.586 450.29 142.249 450.256 142.913C450.221 143.577 450.054 144.227 449.764 144.824C449.126 146.326 447.926 147.517 446.424 148.14C445.666 148.419 444.865 148.563 444.058 148.566ZM444.21 137.814C443.442 137.804 442.682 137.964 441.982 138.283C441.283 138.602 440.663 139.073 440.166 139.661C439.701 140.266 439.381 140.97 439.23 141.719C439.079 142.468 439.101 143.242 439.295 143.981C439.512 145.083 440.115 146.071 440.994 146.765C441.874 147.459 442.973 147.813 444.09 147.763C444.804 147.76 445.513 147.632 446.184 147.386C447.482 146.837 448.515 145.799 449.061 144.495C449.307 144 449.451 143.461 449.485 142.909C449.52 142.357 449.443 141.804 449.261 141.283C448.87 140.257 448.178 139.375 447.275 138.755C446.372 138.135 445.303 137.807 444.21 137.814Z" fill="#06AB58"/>
<path d="M44.0197 258.314C42.7235 258.359 41.4539 257.939 40.4387 257.128C39.4236 256.317 38.7295 255.169 38.4811 253.89C38.2554 253.036 38.2303 252.141 38.4078 251.275C38.5854 250.41 38.9607 249.598 39.5041 248.903C40.0774 248.223 40.7929 247.678 41.5997 247.307C42.4064 246.937 43.2845 246.75 44.1715 246.759C45.416 246.755 46.6324 247.13 47.6599 247.836C48.6874 248.541 49.4776 249.543 49.9258 250.71C50.1527 251.333 50.252 251.995 50.2176 252.657C50.1833 253.32 50.0161 253.968 49.726 254.564C49.0972 256.062 47.9094 257.252 46.4173 257.881C45.6508 258.17 44.8384 258.317 44.0197 258.314ZM44.1715 247.562C43.4037 247.552 42.6432 247.712 41.9442 248.031C41.2452 248.351 40.6249 248.821 40.1275 249.409C39.6626 250.012 39.3423 250.715 39.1912 251.463C39.0401 252.211 39.0624 252.983 39.2564 253.721C39.4715 254.825 40.0739 255.815 40.9539 256.51C41.8339 257.206 42.9331 257.561 44.0516 257.511C44.7669 257.509 45.4761 257.379 46.1456 257.126C47.4453 256.583 48.4793 255.547 49.0227 254.243C49.2684 253.748 49.4127 253.209 49.4471 252.657C49.4814 252.106 49.405 251.552 49.2225 251.031C48.8276 250.017 48.137 249.148 47.2413 248.536C46.3456 247.924 45.2866 247.598 44.2035 247.602L44.1715 247.562Z" fill="#70BADB"/>
<path d="M435.291 202.834C434.558 202.837 433.836 202.659 433.188 202.316C432.54 201.973 431.986 201.475 431.574 200.866L423.582 189.022C422.919 188.031 422.672 186.817 422.895 185.644C423.118 184.471 423.793 183.434 424.773 182.758L436.561 174.728C437.548 174.061 438.756 173.813 439.923 174.037C441.091 174.261 442.123 174.94 442.795 175.925L450.787 187.769C451.455 188.759 451.705 189.974 451.481 191.148C451.258 192.323 450.58 193.36 449.596 194.033L437.808 202.063C437.065 202.568 436.188 202.837 435.291 202.834ZM439.055 174.728C438.322 174.726 437.606 174.947 437.001 175.363L425.205 183.393C424.399 183.946 423.845 184.797 423.662 185.76C423.479 186.723 423.683 187.72 424.23 188.532L432.222 200.385C432.562 200.882 433.018 201.287 433.55 201.567C434.082 201.847 434.674 201.993 435.275 201.991C436.01 201.994 436.729 201.773 437.337 201.356L449.133 193.326C449.94 192.774 450.496 191.923 450.679 190.959C450.862 189.995 450.656 188.998 450.108 188.187L442.116 176.334C441.773 175.839 441.315 175.436 440.781 175.158C440.248 174.881 439.655 174.739 439.055 174.744V174.728Z" fill="#70BADB"/>
<path d="M83.8525 307.146C82.2541 307.146 81.0153 305.837 80.7196 303.725L78.3859 287.279C78.2609 286.707 78.262 286.115 78.389 285.543C78.516 284.972 78.7659 284.435 79.1212 283.971C80.0243 282.919 81.5908 282.702 83.3091 283.401L98.6539 289.608C100.164 290.218 101.092 291.214 101.259 292.41C101.427 293.607 100.812 294.819 99.5331 295.831L86.5059 306.078C85.7646 306.721 84.8307 307.097 83.8525 307.146ZM81.4149 283.794C81.1025 283.78 80.7908 283.835 80.5021 283.956C80.2134 284.077 79.9547 284.26 79.7446 284.493C79.4685 284.873 79.2766 285.309 79.1815 285.77C79.0864 286.231 79.0903 286.707 79.1931 287.167L81.5108 303.612C81.7506 305.323 82.6297 306.343 83.8525 306.343C84.6585 306.292 85.4254 305.976 86.0344 305.443L99.0535 295.197C100.1 294.394 100.612 293.422 100.484 292.523C100.356 291.623 99.605 290.853 98.3662 290.347L83.0293 284.147C82.5184 283.928 81.9705 283.808 81.4149 283.794Z" fill="#06AB58"/>
<path d="M208.124 32.2893C207.319 32.2661 206.533 32.0396 205.838 31.6308L191.348 23.6007C189.918 22.7976 189.118 21.7136 189.094 20.501C189.07 19.2885 189.822 18.1562 191.212 17.289L205.358 8.68062C206.073 8.21278 206.903 7.95164 207.756 7.92578C209.586 7.92578 210.793 9.41136 210.841 11.716L211.193 28.3786C211.238 28.9329 211.172 29.4906 210.999 30.0189C210.826 30.5471 210.549 31.0352 210.186 31.4542C209.917 31.7276 209.595 31.9428 209.241 32.0864C208.886 32.23 208.506 32.2991 208.124 32.2893ZM207.756 8.77698C207.05 8.80744 206.365 9.02943 205.774 9.41939L191.628 18.0197C190.485 18.7183 189.87 19.6257 189.894 20.509C189.917 21.3924 190.565 22.2757 191.732 22.9181L206.221 30.9483C207.58 31.7031 208.859 31.687 209.61 30.9483C209.901 30.6043 210.122 30.2058 210.259 29.7758C210.396 29.3458 210.447 28.8928 210.409 28.4428L210.058 11.8365C210.01 9.90923 209.131 8.77698 207.756 8.77698Z" fill="#7ED957"/>
<path d="M265 328C231.945 328 203.253 325.503 184.224 320.974C162.565 315.818 148.14 306.889 141.346 294.418C135.6 283.874 135.336 270.938 140.547 255.945C140.747 255.383 140.947 254.797 141.163 254.187C145.238 242.318 152.823 220.219 188.915 176.206C215.161 144.206 248.856 126.579 283.758 126.579C296.766 126.604 309.662 129.004 321.816 133.662C352.666 145.386 378.464 164.225 396.415 188.155C411.528 208.286 420.942 231.839 422.932 254.452C425.09 278.887 418.137 299.011 404.878 306.985C380.662 321.479 317.173 328 265 328ZM283.782 127.382C249.112 127.382 215.649 144.904 189.555 176.72C153.59 220.621 145.998 242.623 141.938 254.444C141.73 255.062 141.522 255.648 141.33 256.21C136.183 270.978 136.431 283.698 142.058 294.032C148.739 306.294 162.997 315.095 184.416 320.195C203.389 324.708 232.009 327.197 265.008 327.197C317.077 327.197 380.39 320.733 404.471 306.318C417.49 298.505 424.267 278.671 422.141 254.548C418.697 215.465 390.285 160.595 321.537 134.441C309.482 129.806 296.689 127.414 283.782 127.382Z" fill="black"/>
<mask id="mask0_2342_15307" style="mask-type:luminance" maskUnits="userSpaceOnUse" x="0" y="49" width="206" height="186">
<path d="M4.31427 125.439C0.31821 143.105 -4.92461 192.226 13.0017 211.113C30.928 230 44.5306 232.618 75.1803 233.196C105.83 233.774 121.167 235.516 143.721 234.071C166.274 232.626 201.56 231.815 205.324 180.606C212.109 88.0987 142.985 45.4184 87.4323 50.357C31.8791 55.2955 11.9068 92.1138 4.31427 125.439Z" fill="white"/>
</mask>
<g mask="url(#mask0_2342_15307)">
<path d="M108.003 94.3063C109.601 96.9241 110.896 101.574 111.615 106.657C112.127 110.214 113.062 110.575 116.538 112.173C120.015 113.771 120.798 116.823 118.936 118.598C116.258 121.087 116.266 119.73 115.899 122.524C115.659 124.387 116.163 125.881 113.661 125.078C112.686 124.757 110.656 123.544 110.368 123.769C109.505 124.443 109.769 126.981 113.07 128.884C114.268 129.583 115.259 129.494 114.204 135.019C113.277 139.837 107.475 140.576 101.729 139.484C95.9824 138.392 97.1733 142.752 94.8955 148.968C92.6178 155.183 92.2981 158.66 95.439 161.278C98.5799 163.896 101.081 176.423 100.754 179.474C100.426 182.526 89.5648 188.845 80.3658 178.607C75.3788 171.629 69.7363 158.226 69.7363 158.226C69.7363 158.226 75.5946 150.052 75.4827 142.102C75.3708 134.152 72.0141 104.183 82.9713 95.6794C93.9285 87.1755 106.916 92.2024 108.003 94.3063Z" fill="white"/>
<path d="M91.6696 184.581C88.7285 184.581 84.3328 183.585 80.0571 178.84C75.07 171.877 69.4116 158.483 69.3556 158.347C69.3272 158.284 69.3166 158.215 69.3251 158.147C69.3336 158.079 69.3607 158.015 69.4036 157.961C69.4595 157.881 75.1739 149.803 75.07 142.07C75.07 140.977 74.9741 139.42 74.8862 137.613C74.3107 126.306 73.1119 102.778 82.7105 95.334C86.7651 92.1876 91.7494 90.4918 96.8725 90.5159C102.747 90.5159 107.598 92.668 108.365 94.1535C109.916 96.7071 111.25 101.26 112.018 106.632C112.481 109.901 113.256 110.254 116.501 111.748L116.701 111.844C118.715 112.767 120.018 114.253 120.273 115.859C120.365 116.418 120.314 116.991 120.125 117.525C119.937 118.058 119.616 118.535 119.194 118.911C118.577 119.504 117.909 120.042 117.196 120.517C116.509 120.966 116.493 120.974 116.285 122.62C116.237 122.966 116.221 123.287 116.205 123.592C116.133 124.861 116.014 126.306 113.528 125.503C113.003 125.311 112.49 125.086 111.994 124.829C111.522 124.585 111.033 124.375 110.531 124.202C110.369 124.436 110.3 124.723 110.339 125.005C110.403 125.961 111.202 127.414 113.248 128.587L113.56 128.756C114.863 129.446 115.55 130.08 114.583 135.139C113.936 138.512 110.915 140.375 106.071 140.375C104.585 140.363 103.103 140.213 101.644 139.925C101.149 139.827 100.646 139.773 100.141 139.765C97.7836 139.765 97.344 141.234 96.5608 144.583C96.2237 146.143 95.7886 147.68 95.2581 149.184C92.8604 155.777 92.9483 158.772 95.6817 161.045C98.9584 163.775 101.484 176.374 101.14 179.594C100.916 181.538 96.8485 184.581 91.6696 184.581ZM70.1788 158.242C70.9141 159.953 76.109 171.95 80.6805 178.318C84.7245 182.815 88.8884 183.762 91.6696 183.762C96.4649 183.762 100.181 180.919 100.341 179.386C100.661 176.439 98.1432 164.008 95.1702 161.543C91.7335 158.676 92.285 154.845 94.5068 148.775C95.0296 147.302 95.4567 145.798 95.7856 144.27C96.5208 141.138 97.0563 138.865 100.141 138.865C100.694 138.871 101.246 138.93 101.788 139.042C103.199 139.32 104.633 139.465 106.071 139.476C109.196 139.476 113.064 138.673 113.8 134.891C114.703 130.169 114.103 129.856 113.192 129.374L112.857 129.189C110.883 128.049 109.66 126.467 109.54 124.965C109.493 124.671 109.52 124.37 109.619 124.089C109.718 123.809 109.886 123.558 110.107 123.359C110.459 123.094 111.058 123.359 112.337 123.97C112.804 124.209 113.284 124.421 113.776 124.604C114.097 124.72 114.434 124.788 114.775 124.805C115.246 124.805 115.342 124.612 115.406 123.407C115.406 123.086 115.446 122.741 115.494 122.38C115.734 120.525 115.83 120.324 116.765 119.706C117.437 119.269 118.068 118.772 118.651 118.22C118.97 117.93 119.211 117.564 119.351 117.155C119.49 116.746 119.525 116.309 119.45 115.883C119.242 114.558 118.076 113.281 116.341 112.486L116.133 112.39C112.833 110.872 111.722 110.358 111.194 106.656C110.443 101.389 109.148 96.948 107.63 94.4587C107.126 93.479 102.835 91.2466 96.8405 91.2466C91.8909 91.2456 87.0832 92.9077 83.182 95.9684C73.9191 103.195 75.102 126.403 75.6694 137.573C75.7573 139.379 75.8372 140.945 75.8532 142.061C75.9891 149.489 71.0739 156.949 70.1788 158.242Z" fill="black"/>
<path d="M75.1895 233.196C77.2194 234.071 96.3046 235.091 96.3046 235.091C96.3046 235.091 104.688 208.214 101.22 177.41C94.2826 183.513 86.4663 182.06 78.666 175.668C83.5732 190.772 81.2555 221.905 75.1895 233.196Z" fill="black"/>
<path d="M104.553 113.956C104.969 115.313 105.944 116.22 106.711 115.979C107.478 115.738 107.766 114.438 107.342 113.08C106.919 111.723 105.952 110.816 105.185 111.057C104.417 111.298 104.13 112.599 104.553 113.956Z" fill="black"/>
<path d="M105.845 111.707C105.808 111.715 105.77 111.715 105.733 111.707C105.683 111.693 105.636 111.668 105.595 111.635C105.554 111.602 105.52 111.561 105.495 111.515C105.469 111.469 105.453 111.418 105.448 111.366C105.442 111.313 105.447 111.26 105.461 111.21L106.189 108.736C106.22 108.636 106.289 108.551 106.382 108.502C106.475 108.452 106.583 108.441 106.684 108.471C106.734 108.486 106.781 108.511 106.822 108.544C106.863 108.577 106.897 108.617 106.923 108.664C106.948 108.71 106.964 108.761 106.969 108.813C106.975 108.866 106.971 108.919 106.956 108.969L106.229 111.434C106.203 111.516 106.151 111.586 106.082 111.635C106.013 111.684 105.93 111.71 105.845 111.707Z" fill="black"/>
<path d="M86.61 193.679C84.3722 177.137 77.0194 166.192 70.5059 156.058C69.5068 154.5 68.5798 154.725 68.1562 154.805C65.0392 155.424 61.5707 156.893 62.4578 158.82C62.6926 159.277 62.9738 159.707 63.297 160.105C61.9463 160.378 60.3319 160.715 58.4058 161.141C52.21 162.361 46.5502 165.5 42.2218 170.119C37.7382 174.624 14.8168 202.545 8.45508 209.667C16.8468 225.92 31.2326 228.329 31.2326 228.329C31.2326 228.329 44.3876 215.039 52.6275 204.865C52.3318 206.897 51.3248 225.792 48.4316 233.196C53.5386 236.175 67.7406 236.03 75.6048 235.693C76.8996 236.89 81.9506 235.813 81.9506 235.813C81.9506 235.813 88.9197 210.824 86.61 193.679Z" fill="#70BADB"/>
<path d="M62.2425 98.8109C58.4463 100.224 54.2504 103.709 51.9407 118.637C50.8378 125.865 48.1684 133.606 48.6719 140.969C49.1434 147.859 55.0656 149.738 61.1396 150.959C66.4703 152.027 87.2019 156.997 88.5126 148.028C90.0391 137.589 73.6233 132.313 75.973 122.596C76.4525 120.629 78.4265 118.172 80.4565 117.714C83.054 117.136 83.8212 119.36 85.8352 120.725C88.2968 122.387 89.7673 121.416 91.2379 118.918C92.6365 116.558 92.109 112.775 91.8932 110.125C91.6055 106.656 91.1899 105.404 94.187 104.408C98.247 103.067 101.716 100.305 97.8154 95.6471C103.018 101.862 105.624 100.883 109.852 98.1525C114.079 95.4222 114.295 92.9248 112.673 88.2352C111.05 83.5456 106.055 76.3586 97.2719 77.4507C88.4886 78.5428 89.3518 80.9358 78.8341 83.12C68.3165 85.3042 61.6031 88.4601 62.2425 98.8109Z" fill="black"/>
<path d="M101.501 106.946C101.456 106.953 101.41 106.953 101.365 106.946C101.266 106.909 101.184 106.835 101.139 106.738C101.094 106.642 101.089 106.532 101.125 106.432C101.405 105.629 103.011 101.613 106.72 100.81C106.823 100.791 106.93 100.813 107.018 100.872C107.106 100.93 107.168 101.02 107.191 101.124C107.202 101.175 107.202 101.229 107.192 101.28C107.182 101.332 107.162 101.381 107.133 101.425C107.104 101.469 107.067 101.507 107.023 101.537C106.98 101.566 106.931 101.587 106.88 101.597C103.579 102.288 102.084 105.95 101.861 106.681C101.834 106.756 101.785 106.821 101.721 106.868C101.657 106.915 101.58 106.942 101.501 106.946Z" fill="black"/>
<path d="M75.3239 235.34C75.2714 235.337 75.22 235.323 75.1727 235.3C75.1254 235.277 75.083 235.245 75.0481 235.205C75.0132 235.166 74.9865 235.12 74.9693 235.07C74.9522 235.02 74.945 234.967 74.9483 234.914C74.9483 234.569 75.0442 233.613 75.1561 232.232C75.7795 224.154 77.4418 202.697 76.8344 197.799C76.195 192.668 77.5777 191.375 79.6716 189.439C79.9354 189.191 80.2071 188.942 80.4708 188.636C79.4398 187.978 76.7305 186.227 74.6845 184.991C72.6385 183.754 72.0711 181.891 70.8163 177.121C70.4407 175.7 70.0171 174.086 69.4497 172.118C68.3746 168.073 66.3957 164.327 63.6634 161.165C63.2638 160.683 62.9281 160.266 62.6404 159.864C62.5797 159.778 62.5549 159.67 62.5713 159.565C62.5877 159.461 62.644 159.366 62.7283 159.302C62.7713 159.271 62.8199 159.25 62.8713 159.238C62.9228 159.226 62.976 159.224 63.028 159.233C63.0801 159.242 63.1298 159.261 63.1744 159.29C63.2189 159.318 63.2575 159.355 63.2878 159.399C63.5595 159.776 63.8952 160.202 64.2788 160.659C67.0837 163.904 69.1147 167.749 70.2169 171.902C70.7844 173.885 71.2319 175.571 71.5836 176.928C72.7824 181.466 73.23 183.168 75.1001 184.316C77.6736 185.922 81.286 188.219 81.326 188.243C81.3763 188.274 81.4191 188.316 81.4509 188.366C81.4827 188.416 81.5029 188.473 81.5098 188.532C81.5153 188.592 81.5074 188.653 81.4867 188.71C81.466 188.767 81.4329 188.819 81.3899 188.861C80.9663 189.287 80.5907 189.664 80.1911 190.01C78.1451 191.913 76.9943 192.965 77.6017 197.678C78.225 202.665 76.5547 224.178 75.9233 232.28C75.8194 233.654 75.7475 234.601 75.7235 234.954C75.7225 235.006 75.7113 235.057 75.6907 235.104C75.67 235.152 75.6403 235.195 75.6032 235.23C75.5661 235.266 75.5223 235.294 75.4744 235.313C75.4265 235.332 75.3753 235.341 75.3239 235.34Z" fill="white"/>
<path d="M131.136 182.782L128.099 191.792C128.099 191.792 120.866 178.574 116.238 172.761C111.955 167.3 105.705 163.927 100.766 162.08C97.4409 156.556 92.7735 155.761 92.7735 155.761C92.5632 156.757 92.6723 157.794 93.0852 158.724C93.7725 160.378 101.221 173.339 99.4789 193.968C97.7366 214.598 91.8145 235.091 91.8145 235.091H96.298C96.298 235.091 96.298 234.97 96.3939 234.761C99.7666 235.195 106.632 235.894 106.848 234.36C107.143 232.328 111.043 216.051 113.361 210.968C120.298 223.897 126.74 226.539 136.059 222.604C142.716 219.793 148.207 197.317 148.926 188.452C149.07 188.307 131.136 182.782 131.136 182.782Z" fill="#70BADB"/>
<path d="M96.2987 235.492C96.2591 235.5 96.2184 235.5 96.1788 235.492C96.0785 235.461 95.9947 235.391 95.9453 235.298C95.8959 235.204 95.8851 235.095 95.9151 234.994C96.003 234.697 104.89 205.451 106.177 199.862C107.496 194.113 107.448 193.438 106.593 191.736C105.506 189.608 104.579 187.721 104.579 187.721C104.536 187.63 104.528 187.527 104.556 187.431C104.584 187.335 104.646 187.252 104.73 187.199C105.705 186.597 108.143 184.669 107.727 183.031C106.808 179.385 103.292 167.332 100.718 162.747L100.638 162.602C100.611 162.557 100.594 162.507 100.586 162.455C100.579 162.403 100.582 162.35 100.595 162.299C100.609 162.248 100.632 162.2 100.664 162.159C100.696 162.117 100.737 162.082 100.782 162.056C100.875 162.003 100.984 161.989 101.087 162.016C101.19 162.043 101.279 162.109 101.334 162.201L101.414 162.353C104.027 167.011 107.576 179.161 108.503 182.83C109.046 184.982 106.385 187.038 105.458 187.648C105.761 188.275 106.489 189.72 107.304 191.31C108.311 193.286 108.271 194.257 106.952 199.983C105.633 205.708 96.7702 234.906 96.6823 235.203C96.657 235.286 96.6062 235.358 96.5373 235.41C96.4684 235.462 96.3849 235.491 96.2987 235.492Z" fill="white"/>
<path d="M113.361 211.37C113.292 211.373 113.224 211.358 113.164 211.327C113.103 211.295 113.051 211.248 113.014 211.191C112.977 211.133 112.955 211.067 112.952 210.998C112.948 210.929 112.962 210.861 112.993 210.8C119.491 196.506 117.069 191.359 115.622 188.315C115.386 187.845 115.181 187.359 115.007 186.862C114.991 186.812 114.984 186.76 114.988 186.708C114.992 186.656 115.006 186.605 115.03 186.558C115.053 186.512 115.085 186.47 115.125 186.436C115.164 186.402 115.21 186.376 115.259 186.36C115.308 186.343 115.36 186.337 115.412 186.341C115.464 186.345 115.514 186.359 115.561 186.382C115.607 186.406 115.648 186.438 115.682 186.478C115.716 186.517 115.742 186.563 115.758 186.613C115.927 187.08 116.125 187.536 116.35 187.978C117.852 191.19 120.346 196.53 113.72 211.169C113.685 211.233 113.632 211.285 113.569 211.321C113.505 211.356 113.433 211.373 113.361 211.37Z" fill="black"/>
<path d="M130.454 197.638C130.379 197.638 130.306 197.617 130.242 197.578C130.179 197.538 130.128 197.481 130.095 197.413C130.095 197.413 128.496 194.025 127.05 190.564C127.029 190.515 127.018 190.463 127.018 190.41C127.017 190.358 127.027 190.305 127.048 190.257C127.068 190.208 127.097 190.164 127.135 190.127C127.172 190.09 127.217 190.061 127.265 190.042C127.363 190.002 127.472 190.002 127.57 190.043C127.667 190.083 127.744 190.161 127.785 190.258C129.216 193.695 130.798 197.036 130.814 197.068C130.837 197.115 130.85 197.166 130.854 197.218C130.857 197.27 130.85 197.322 130.833 197.372C130.815 197.421 130.789 197.467 130.754 197.505C130.719 197.544 130.677 197.576 130.63 197.598C130.576 197.627 130.515 197.64 130.454 197.638Z" fill="black"/>
<path d="M132.301 179.346C133.899 174.23 136.297 160.386 136.856 155.255C137.416 150.124 134.363 142.937 137.935 138.392C141.508 133.847 143.793 131.526 144.768 129.245C145.744 126.965 148.021 126.628 149.212 128.916C150.403 131.205 148.565 135.236 145.855 138.071C152.473 133.815 153.008 135.34 155.07 132.072C157.132 128.804 161.144 120.412 163.75 120.637C165.916 117.69 168.409 119.328 168.849 123.359C170.143 123.247 171.342 126.298 170.447 130.876C173.596 132.731 173.268 139.484 168.849 144.607C164.429 149.73 155.91 152.75 154.095 156.861C152.281 160.973 149.212 185.304 149.212 185.304L132.301 179.346Z" fill="white"/>
<path d="M149.212 185.77C149.17 185.777 149.126 185.777 149.084 185.77L132.165 179.779C132.067 179.743 131.986 179.67 131.94 179.576C131.894 179.482 131.886 179.373 131.917 179.273C133.515 174.118 135.913 160.202 136.456 155.271C136.562 153.344 136.46 151.411 136.153 149.505C135.673 145.49 135.178 141.307 137.623 138.175C138.726 136.769 139.693 135.589 140.556 134.537C142.474 132.2 143.753 130.651 144.401 129.117C144.588 128.532 144.944 128.017 145.423 127.637C145.903 127.256 146.485 127.028 147.094 126.981C147.631 127.018 148.147 127.204 148.584 127.519C149.022 127.834 149.364 128.265 149.571 128.763C150.634 130.803 149.571 133.903 147.685 136.513C148.903 135.809 150.16 135.176 151.45 134.617C152.859 134.18 154.039 133.202 154.734 131.895C155.174 131.197 155.717 130.233 156.333 129.221C159.074 124.403 161.512 120.388 163.59 120.259C163.859 119.829 164.227 119.47 164.661 119.21C165.096 118.95 165.586 118.798 166.091 118.766C167.69 118.766 168.88 120.42 169.24 123.022C169.59 123.117 169.9 123.326 170.119 123.616C170.918 124.588 171.598 127.021 170.918 130.715C171.458 131.126 171.908 131.643 172.241 132.236C172.573 132.828 172.781 133.483 172.852 134.16C173.388 137.476 171.941 141.692 169.152 144.904C167.058 147.313 164.157 149.232 161.36 151.079C158.299 153.095 155.414 154.998 154.471 157.118C152.672 161.133 149.675 185.223 149.619 185.44C149.612 185.499 149.592 185.556 149.561 185.606C149.529 185.656 149.486 185.698 149.436 185.729C149.366 185.764 149.289 185.778 149.212 185.77ZM132.796 179.121L148.884 184.822C149.332 181.249 152.009 160.627 153.727 156.765C154.766 154.436 157.723 152.468 160.92 150.34C163.678 148.526 166.515 146.647 168.553 144.31C171.182 141.274 172.549 137.316 172.061 134.224C172.013 133.614 171.829 133.023 171.523 132.493C171.217 131.964 170.798 131.51 170.295 131.164C170.224 131.123 170.168 131.061 170.134 130.986C170.099 130.911 170.089 130.828 170.103 130.747C170.735 127.398 170.247 124.965 169.488 124.042C169.425 123.949 169.344 123.87 169.249 123.81C169.154 123.751 169.047 123.712 168.936 123.696C168.83 123.701 168.726 123.668 168.641 123.604C168.556 123.539 168.497 123.447 168.473 123.343C168.225 121.03 167.258 119.481 166.075 119.481C165.665 119.534 165.273 119.683 164.929 119.914C164.585 120.145 164.299 120.453 164.093 120.814C164.054 120.869 164.001 120.913 163.939 120.942C163.877 120.97 163.809 120.981 163.741 120.974C161.863 120.974 158.946 126.122 157.012 129.526C156.429 130.554 155.885 131.518 155.414 132.232C154.637 133.678 153.334 134.765 151.777 135.268C149.791 136.125 147.884 137.157 146.079 138.351C145.995 138.403 145.896 138.423 145.799 138.406C145.702 138.39 145.614 138.339 145.551 138.263C145.486 138.191 145.449 138.096 145.449 137.998C145.449 137.9 145.486 137.806 145.551 137.733C148.005 135.163 149.995 131.253 148.844 129.044C148.703 128.677 148.464 128.356 148.152 128.118C147.84 127.88 147.468 127.733 147.078 127.695C146.632 127.745 146.21 127.923 145.863 128.208C145.515 128.493 145.257 128.873 145.12 129.301C144.425 130.907 143.122 132.514 141.124 134.923C140.269 135.966 139.302 137.147 138.207 138.544C135.961 141.411 136.44 145.41 136.904 149.28C137.214 151.248 137.313 153.242 137.2 155.231C136.728 160.129 134.442 173.612 132.796 179.08V179.121Z" fill="black"/>
<path d="M149.756 145.523C149.667 145.521 149.58 145.49 149.511 145.433C149.441 145.376 149.393 145.297 149.373 145.209C148.821 142.897 146.759 139.123 145.633 138.368C145.545 138.309 145.484 138.218 145.463 138.114C145.442 138.01 145.463 137.902 145.521 137.814C145.581 137.725 145.673 137.664 145.777 137.643C145.882 137.622 145.991 137.643 146.08 137.701C147.479 138.641 149.597 142.688 150.148 145.025C150.172 145.128 150.154 145.237 150.099 145.327C150.044 145.417 149.955 145.482 149.852 145.507L149.756 145.523Z" fill="black"/>
<path d="M162.99 143.338C162.916 143.338 162.844 143.318 162.781 143.28C162.717 143.242 162.665 143.187 162.631 143.122C162.231 142.319 157.428 136.521 155.598 135.894C155.498 135.86 155.416 135.787 155.368 135.693C155.321 135.599 155.311 135.49 155.342 135.388C155.375 135.287 155.446 135.204 155.541 135.155C155.635 135.107 155.745 135.099 155.845 135.132C157.947 135.838 162.91 141.861 163.35 142.744C163.373 142.792 163.387 142.843 163.39 142.896C163.393 142.949 163.386 143.002 163.369 143.051C163.352 143.101 163.325 143.148 163.291 143.187C163.256 143.227 163.213 143.259 163.166 143.282C163.114 143.316 163.053 143.336 162.99 143.338Z" fill="black"/>
<path d="M162.016 143.884C161.939 143.883 161.864 143.861 161.799 143.82C161.734 143.779 161.682 143.721 161.648 143.651C161.605 143.555 161.602 143.444 161.639 143.345C161.677 143.246 161.752 143.165 161.848 143.121C163.103 142.535 165.844 138.978 166.643 134.915C167.027 132.827 167.658 131.534 168.593 130.956C168.967 130.754 169.379 130.634 169.802 130.605C170.225 130.576 170.65 130.638 171.047 130.787C171.098 130.801 171.146 130.825 171.187 130.858C171.229 130.89 171.263 130.931 171.288 130.978C171.314 131.024 171.33 131.076 171.335 131.128C171.34 131.181 171.335 131.234 171.319 131.285C171.289 131.385 171.221 131.47 171.13 131.521C171.039 131.572 170.932 131.585 170.831 131.558C170.54 131.436 170.226 131.381 169.911 131.394C169.596 131.408 169.288 131.492 169.009 131.638C168.298 132.08 167.762 133.244 167.411 135.059C166.611 139.243 163.766 143.089 162.2 143.892C162.139 143.904 162.076 143.901 162.016 143.884Z" fill="black"/>
<path d="M160.601 140.287C160.544 140.289 160.488 140.278 160.437 140.254C160.385 140.23 160.34 140.195 160.305 140.15C160.268 140.113 160.238 140.07 160.218 140.021C160.198 139.973 160.188 139.921 160.188 139.869C160.188 139.817 160.198 139.765 160.218 139.717C160.238 139.668 160.268 139.625 160.305 139.588C162.703 137.516 163.646 134.505 164.517 130.008C165.316 125.856 166.915 123.584 169.176 123.15C169.229 123.141 169.283 123.142 169.335 123.153C169.387 123.165 169.436 123.186 169.48 123.217C169.524 123.247 169.561 123.286 169.59 123.331C169.619 123.376 169.638 123.427 169.648 123.479C169.657 123.532 169.656 123.586 169.645 123.639C169.634 123.691 169.612 123.741 169.582 123.785C169.551 123.829 169.512 123.866 169.468 123.895C169.423 123.924 169.373 123.944 169.32 123.953C167.386 124.299 166.035 126.362 165.324 130.177C164.421 134.85 163.398 137.99 160.856 140.206C160.783 140.262 160.693 140.29 160.601 140.287Z" fill="black"/>
<path d="M158.109 137.46C158.025 137.461 157.943 137.433 157.877 137.38C157.792 137.319 157.735 137.226 157.717 137.123C157.699 137.019 157.722 136.912 157.782 136.826C158.964 135.148 160.435 130.337 161.626 126.483C162.215 124.294 162.952 122.147 163.832 120.059C163.882 119.965 163.968 119.896 164.07 119.865C164.172 119.835 164.282 119.847 164.375 119.898C164.468 119.949 164.538 120.036 164.568 120.138C164.598 120.24 164.586 120.351 164.535 120.444C163.684 122.477 162.965 124.564 162.385 126.692C161.122 130.811 159.684 135.477 158.437 137.259C158.403 137.318 158.356 137.367 158.299 137.402C158.241 137.437 158.176 137.457 158.109 137.46Z" fill="black"/>
<path d="M51.7561 206.142C51.6621 206.142 51.5713 206.108 51.5003 206.046C51.4199 205.976 51.3698 205.877 51.3608 205.77C51.3519 205.664 51.3847 205.558 51.4524 205.476C53.85 202.601 58.7891 197.381 58.8451 197.325C58.8816 197.288 58.9251 197.258 58.9731 197.238C59.0211 197.217 59.0727 197.207 59.1248 197.207C59.1769 197.207 59.2285 197.217 59.2765 197.238C59.3246 197.258 59.3681 197.288 59.4045 197.325C59.442 197.362 59.4717 197.407 59.492 197.456C59.5123 197.504 59.5227 197.557 59.5227 197.61C59.5227 197.663 59.5123 197.715 59.492 197.764C59.4717 197.813 59.442 197.858 59.4045 197.895C59.3566 197.951 54.4734 203.147 52.0438 206.014C52.0073 206.054 51.9629 206.086 51.9134 206.108C51.8638 206.13 51.8103 206.142 51.7561 206.142Z" fill="black"/>
<path d="M131.589 178.036C129.991 181.048 129.072 185.93 129.391 186.372C129.711 186.813 141.579 187.777 149.675 193.599C151.513 194.466 152.073 185.882 151.817 184.894C151.058 182.276 132.564 176.936 131.589 178.036Z" fill="black"/>
<path d="M86.4584 193.358C86.4111 193.358 86.3641 193.349 86.3202 193.332C86.2763 193.314 86.2364 193.287 86.2027 193.254C86.1627 193.254 82.5183 190.042 80.824 188.909C80.775 188.883 80.732 188.847 80.6978 188.803C80.6636 188.758 80.6389 188.708 80.6254 188.654C80.6118 188.599 80.6096 188.543 80.619 188.488C80.6284 188.433 80.6491 188.38 80.6798 188.334C80.7105 188.287 80.7505 188.248 80.7974 188.217C80.8442 188.187 80.8967 188.167 80.9517 188.159C81.0066 188.15 81.0628 188.153 81.1165 188.168C81.1702 188.182 81.2203 188.208 81.2636 188.243C83.0058 189.407 86.5703 192.523 86.7222 192.651C86.7959 192.728 86.8371 192.83 86.8371 192.936C86.8371 193.043 86.7959 193.145 86.7222 193.222C86.654 193.298 86.5601 193.347 86.4584 193.358Z" fill="white"/>
<path d="M99.6291 191.72C99.5254 191.717 99.4261 191.678 99.3493 191.607C99.2756 191.531 99.2344 191.429 99.2344 191.322C99.2344 191.216 99.2756 191.114 99.3493 191.037C100.802 189.683 102.412 188.51 104.145 187.544L104.944 187.054C105.032 186.996 105.139 186.975 105.243 186.997C105.346 187.018 105.437 187.079 105.495 187.167C105.553 187.258 105.572 187.367 105.55 187.473C105.528 187.578 105.465 187.67 105.375 187.729L104.576 188.235C102.911 189.171 101.363 190.303 99.9647 191.607C99.9199 191.649 99.8667 191.68 99.8089 191.7C99.751 191.719 99.6897 191.726 99.6291 191.72Z" fill="white"/>
<path d="M88.0152 134.658C87.5916 130.691 84.4827 126.627 80.8223 129.037C77.6254 131.092 76.6344 136.633 79.5675 139.267C80.2528 139.833 81.052 140.243 81.9102 140.469C82.7684 140.695 83.6651 140.732 84.5386 140.576C87.3518 139.998 88.3029 137.34 88.0152 134.658Z" fill="#06AB58"/>
</g>
<path d="M125.909 235.035C118.116 235.035 110.476 234.746 101.636 234.408C94.044 234.119 85.4365 233.79 75.1826 233.605C45.2441 233.043 31.226 230.875 12.7242 211.402C-4.57071 193.174 -0.662563 145.555 3.9329 125.359C14.4186 79.3299 42.5028 53.9626 87.4025 49.9636C90.2797 49.7066 93.2288 49.5781 96.1939 49.5781C125.893 49.5781 155.719 62.6673 175.979 84.5816C191.54 101.445 209.346 131.743 205.75 180.638C202.065 230.827 168.099 232.955 145.625 234.36L143.779 234.481C137.761 234.85 132.086 235.035 125.909 235.035ZM96.1619 50.341C93.2528 50.341 90.3276 50.4695 87.4745 50.7264C42.9584 54.6853 15.1139 79.8438 4.70814 125.495C0.13665 145.571 -3.77949 192.82 13.2997 210.808C31.5776 230.08 45.4919 232.2 75.1906 232.762C85.4445 232.963 94.06 233.284 101.66 233.565C110.452 233.902 118.124 234.192 125.901 234.192C132.062 234.192 137.721 234.015 143.691 233.629L145.537 233.509C167.731 232.12 201.282 230.024 204.919 180.51C207.74 142.037 197.518 109.041 175.348 85.0554C155.248 63.3659 125.637 50.3731 96.1619 50.3731V50.341Z" fill="black"/>
<path d="M137.01 69.678C142.429 68.2566 159.739 64.9482 168.803 63.0531C177.866 61.158 187.768 59.841 189.063 60.4513C190.357 61.0616 175.987 79.266 169.274 86.4771C167.036 88.0189 163.975 85.1762 163.975 85.1762C157.622 91.8011 150.437 94.2904 149.262 94.5233C148.087 94.7562 147.488 87.4247 147.376 83.0482C147.264 78.6718 148.031 77.8206 144.427 76.07C133.246 70.6256 137.01 69.678 137.01 69.678Z" fill="#70BADB"/>
<path d="M149.263 94.9246C149.211 94.932 149.157 94.9289 149.106 94.9155C149.055 94.9022 149.007 94.8788 148.964 94.8467C148.879 94.782 148.822 94.6858 148.808 94.5793C148.793 94.4728 148.821 94.3648 148.885 94.2789C148.95 94.1931 149.045 94.1365 149.151 94.1216C149.743 93.9048 151.893 90.4116 153.467 87.8581C155.145 85.1117 156.744 82.518 157.695 81.5624C159.477 79.7717 175.949 68.5294 182.942 63.7113L148.72 77.3626C148.621 77.402 148.511 77.4005 148.414 77.3583C148.316 77.3161 148.239 77.2368 148.2 77.1378C148.161 77.0387 148.163 76.9281 148.205 76.8302C148.246 76.7323 148.325 76.6552 148.424 76.6158L186.107 61.5914C186.202 61.5534 186.309 61.5539 186.404 61.5928C186.499 61.6316 186.576 61.7059 186.618 61.8002C186.66 61.8952 186.663 62.0026 186.627 62.0999C186.591 62.1972 186.519 62.2769 186.426 62.3221C185.268 62.9404 160.14 80.2454 158.27 82.1245C157.391 83.0078 155.745 85.6819 154.162 88.2676C151.429 92.7083 150.166 94.6917 149.367 94.8844C149.336 94.9053 149.3 94.919 149.263 94.9246Z" fill="black"/>
<path d="M164.702 86.0515C164.616 86.0522 164.533 86.027 164.462 85.9792L164.294 85.8508C161.897 84.0761 158.868 81.8357 158.164 82.2211C158.118 82.2458 158.067 82.2608 158.014 82.2653C157.962 82.2697 157.909 82.2635 157.859 82.247C157.809 82.2305 157.763 82.2041 157.723 82.1693C157.684 82.1345 157.652 82.092 157.629 82.0445C157.606 81.997 157.592 81.9454 157.589 81.8927C157.585 81.84 157.592 81.7871 157.61 81.7371C157.627 81.6871 157.653 81.641 157.688 81.6014C157.723 81.5618 157.765 81.5296 157.813 81.5064C158.9 80.9604 161.049 82.4781 164.766 85.2003L164.934 85.3288C165 85.3789 165.05 85.4487 165.075 85.5284C165.1 85.608 165.1 85.6936 165.074 85.7732C165.049 85.8528 164.999 85.9224 164.932 85.9723C164.866 86.0222 164.785 86.0499 164.702 86.0515Z" fill="black"/>
<path d="M195.414 150.798C190.882 151.216 188.309 154.01 188.764 162.089C189.22 170.167 187.406 178.438 190.578 181.546C193.751 184.654 201.767 184.662 209.16 184.758C216.553 184.854 226.151 184.67 228.989 184.629C235.67 184.533 238.052 183.369 238.955 178.109C239.49 175.017 238.211 157.568 238.156 155.729C238.044 151.16 235.095 150.574 228.637 150.285C222.451 150.036 199.641 150.437 195.414 150.798Z" fill="#06AB58"/>
<path d="M213.597 172.118H213.509C210.312 172.07 207.73 169.38 205.828 167.035C202.32 162.707 194.416 153.834 192.489 152.18C192.409 152.11 192.359 152.012 192.351 151.906C192.343 151.799 192.377 151.694 192.446 151.613C192.514 151.533 192.612 151.482 192.718 151.474C192.824 151.466 192.928 151.5 193.009 151.569C194.959 153.24 202.919 162.177 206.452 166.529C208.242 168.738 210.664 171.275 213.517 171.348C215.563 171.348 217.697 170.119 219.87 167.597C225.857 160.659 234.736 151.923 234.824 151.834C234.861 151.797 234.906 151.768 234.955 151.749C235.004 151.729 235.056 151.719 235.109 151.72C235.162 151.721 235.214 151.732 235.262 151.753C235.311 151.774 235.354 151.804 235.391 151.842C235.428 151.88 235.457 151.925 235.476 151.974C235.496 152.024 235.505 152.076 235.505 152.129C235.504 152.182 235.493 152.234 235.472 152.283C235.451 152.332 235.421 152.376 235.383 152.412C235.295 152.501 226.44 161.246 220.478 168.119C218.136 170.777 215.89 172.118 213.597 172.118Z" fill="black"/>
<path d="M190.579 181.947C190.488 181.948 190.4 181.917 190.329 181.86C190.258 181.804 190.208 181.725 190.188 181.636C190.168 181.548 190.178 181.455 190.217 181.372C190.256 181.29 190.322 181.224 190.403 181.184C191.442 180.67 196.741 175.643 200.609 171.974C203.806 168.938 205.644 167.204 206.084 166.939C206.128 166.911 206.177 166.892 206.228 166.884C206.279 166.875 206.332 166.877 206.382 166.889C206.433 166.901 206.481 166.923 206.523 166.953C206.565 166.984 206.6 167.023 206.627 167.067C206.655 167.112 206.674 167.162 206.683 167.214C206.691 167.266 206.69 167.32 206.678 167.371C206.666 167.422 206.644 167.471 206.613 167.514C206.583 167.557 206.544 167.593 206.499 167.621C206.116 167.854 203.702 170.143 201.153 172.56C195.91 177.531 191.818 181.393 190.763 181.907C190.707 181.938 190.643 181.952 190.579 181.947Z" fill="black"/>
<path d="M235.749 183.248C235.68 183.248 235.611 183.229 235.551 183.194C235.491 183.159 235.44 183.108 235.406 183.047C235.15 182.614 232.169 179.378 229.292 176.238C225.495 172.102 221.563 167.83 220.972 166.883C220.94 166.839 220.918 166.788 220.906 166.735C220.894 166.682 220.893 166.627 220.903 166.573C220.914 166.52 220.934 166.469 220.965 166.424C220.995 166.378 221.034 166.34 221.08 166.31C221.126 166.281 221.177 166.261 221.23 166.252C221.284 166.243 221.339 166.245 221.391 166.258C221.444 166.271 221.493 166.295 221.537 166.328C221.58 166.36 221.616 166.402 221.643 166.449C222.203 167.341 226.279 171.781 229.883 175.7C233.487 179.619 235.805 182.124 236.093 182.646C236.145 182.738 236.16 182.846 236.133 182.949C236.106 183.051 236.04 183.138 235.949 183.192C235.889 183.23 235.82 183.25 235.749 183.248Z" fill="black"/>
<mask id="mask1_2342_15307" style="mask-type:luminance" maskUnits="userSpaceOnUse" x="234" y="0" width="205" height="180">
<path d="M303.698 5.74151C275.789 11.6517 232.072 23.8576 234.078 77.3625C236.084 130.867 256.608 158.467 290.766 169.179C324.925 179.892 408.858 190.861 426.632 155.295C444.407 119.73 438.573 68.9148 429.374 47.7955C420.175 26.6761 397.941 -14.1813 303.698 5.74151Z" fill="white"/>
</mask>
<g mask="url(#mask1_2342_15307)">
<path d="M379.224 49.3936C377.027 40.0224 356.775 27.9772 348.119 31.3258C339.464 34.6744 350.517 38.5529 350.517 38.5529C337.194 36.1439 330.8 37.7499 329.474 41.0905C328.147 44.431 333.733 45.7801 333.733 45.7801C324.678 46.0451 314.552 53.1357 316.015 58.0903C317.477 63.0449 323.479 61.2381 323.479 61.2381C314.952 68.128 316.343 75.1383 325.238 74.3112C315.887 81.3778 314.552 94.3866 318.149 99.0441C321.745 103.702 325.238 96.6351 325.238 96.6351C321.481 107.074 327.076 113.9 332.431 105.203C331.232 117.112 341.757 118.718 345.09 112.832C348.287 124.203 355.88 122.468 357.206 116.847C361.338 122.067 369.466 120.324 371.065 114.703C375.588 120.059 379.584 115.169 379.185 111.025C383.852 116.51 391.173 117.176 392.643 107.211C399.301 112.157 402.633 112.029 400.835 100.184C411.952 104.264 417.818 91.817 405.031 81.1128C413.551 83.3853 412.624 74.5521 400.436 69.2683C409.027 69.0675 410.09 63.1734 405.83 58.8291C401.57 54.4848 394.338 46.0451 379.224 49.3936Z" fill="black"/>
<path d="M336.889 72.2557C335.586 80.1012 337.896 82.4219 340.213 87.9467C342.531 93.4714 339.286 99.2853 345.456 106.175C351.203 112.599 359.842 112.206 359.842 112.206L362.304 122.235L383.587 116.711L378.967 96.5871C378.967 96.5871 383.299 94.1781 381.996 85.6179C380.693 77.0578 380.558 55.834 359.874 59.03C339.19 62.2261 338.767 66.0083 336.889 72.2557Z" fill="white"/>
<path d="M362.334 122.637C362.26 122.635 362.188 122.613 362.126 122.573C362.08 122.546 362.04 122.51 362.009 122.467C361.977 122.424 361.954 122.376 361.942 122.324L359.545 112.615C358.034 112.615 350.378 112.302 345.159 106.448C341.203 102.015 341.027 97.92 340.867 94.3065C340.903 92.1928 340.56 90.09 339.852 88.0991C339.396 87.0311 338.957 86.0916 338.525 85.1842C336.799 81.5224 335.432 78.6236 336.495 72.1834L336.695 71.5169C338.501 65.43 339.588 61.7602 359.824 58.6686C361.167 58.4567 362.525 58.3466 363.884 58.3394C379.069 58.3394 380.931 73.5324 382.018 82.6145C382.146 83.7147 382.266 84.7184 382.402 85.5937C383.561 93.2144 380.38 96.1132 379.421 96.836L383.984 116.687C384.006 116.788 383.989 116.893 383.935 116.981C383.882 117.07 383.796 117.134 383.697 117.16L362.438 122.685L362.334 122.637ZM359.872 111.804C359.962 111.805 360.049 111.835 360.119 111.89C360.19 111.945 360.241 112.022 360.264 112.109L362.622 121.746L383.113 116.43L378.574 96.6834C378.555 96.5988 378.564 96.5106 378.598 96.4312C378.633 96.3519 378.691 96.2855 378.766 96.2417C378.766 96.2417 382.842 93.8327 381.603 85.6901C381.467 84.8068 381.347 83.795 381.219 82.6868C380.156 73.8536 378.39 59.1183 363.876 59.1183C362.557 59.1231 361.239 59.2304 359.936 59.4395C340.204 62.4829 339.157 65.976 337.454 71.7497L337.263 72.3761C336.248 78.5191 337.502 81.1691 339.245 84.8469C339.676 85.7624 340.124 86.7099 340.579 87.794C341.33 89.8697 341.696 92.0661 341.658 94.2743C341.818 97.9281 341.978 101.702 345.75 105.918C350.769 111.539 358.146 111.82 359.569 111.82C359.96 111.812 359.864 111.804 359.872 111.804Z" fill="black"/>
<path d="M386.88 78.2941C386.152 73.9177 385.281 69.7741 383.02 65.8795C381.629 63.4704 380.374 60.9971 378.024 59.3911C371.431 54.8862 362.552 55.1592 355.039 56.7251C349.085 57.9698 342.444 60.0897 337.824 64.2172C336.29 65.5904 330.072 71.8138 334.1 73.6125C336.497 74.6725 339.055 72.4321 340.837 70.9224C340.934 71.1901 341.066 71.4439 341.229 71.6772C342.428 73.484 345.425 73.6848 347.423 73.2833C352.618 72.4803 357.613 69.0674 361.409 65.2531C360.61 66.4576 359.611 68.0637 360.01 69.6697C360.809 71.4765 362.608 71.6772 364.206 71.6772C367.603 71.4765 370.8 68.6659 373.197 66.4576C371.199 70.272 369.001 74.0863 368.802 78.5029C368.56 80.546 368.835 82.6174 369.601 84.5255C370.6 86.9345 372.798 86.9345 374.796 85.5293C373.797 88.7413 373.197 91.7526 374.596 94.9647C375.395 96.8759 378.056 100.112 381.717 99.4455C384.642 98.9156 385.185 92.0176 386.248 89.6086C388.262 85.1197 387.679 83.1845 386.88 78.2941Z" fill="black"/>
<path d="M332.876 75.0578C331.086 75.0578 329.36 74.4154 328.88 72.5926C328.644 71.5284 328.691 70.4207 329.016 69.3805C329.702 67.4054 330.841 65.6201 332.341 64.1689C332.379 64.1298 332.425 64.099 332.475 64.0783C332.526 64.0577 332.58 64.0476 332.634 64.0487C332.689 64.0498 332.742 64.062 332.792 64.0847C332.841 64.1074 332.886 64.14 332.922 64.1806C332.959 64.2212 332.987 64.2688 333.004 64.3206C333.022 64.3724 333.029 64.4273 333.025 64.4819C333.02 64.5364 333.005 64.5895 332.979 64.6379C332.954 64.6863 332.919 64.7289 332.876 64.7631C331.492 66.1118 330.432 67.7595 329.775 69.5812C329.503 70.4766 329.459 71.4267 329.648 72.3436C330.247 74.6081 333.436 74.2146 334.067 74.1103C335.609 73.9153 337.105 73.4506 338.487 72.7371C338.533 72.7078 338.584 72.6881 338.638 72.6793C338.691 72.6706 338.746 72.6729 338.799 72.6861C338.851 72.6993 338.901 72.7232 338.944 72.7563C338.987 72.7894 339.023 72.831 339.05 72.8786C339.077 72.9261 339.093 72.9787 339.099 73.0329C339.105 73.0872 339.1 73.1421 339.084 73.1942C339.067 73.2464 339.041 73.2947 339.006 73.3362C338.97 73.3777 338.927 73.4116 338.878 73.4357C337.414 74.1944 335.829 74.689 334.195 74.8972C333.761 74.987 333.32 75.0407 332.876 75.0578Z" fill="white"/>
<path d="M353.966 98.6426C351.337 98.4981 349.699 97.8797 348.947 96.7716C348.012 95.3904 348.612 93.5595 349.187 91.8491C349.299 91.5118 349.411 91.1746 349.507 90.8453C350.394 87.8742 348.372 84.2927 346.11 82.2209C345.385 81.5305 344.502 81.0301 343.539 80.764C342.576 80.4979 341.562 80.4743 340.588 80.6952C340.24 80.7604 339.915 80.9132 339.642 81.1393C339.369 81.3655 339.159 81.6575 339.029 81.9881C339.014 82.0387 338.99 82.0859 338.957 82.127C338.924 82.1681 338.884 82.2023 338.838 82.2277C338.792 82.253 338.741 82.269 338.689 82.2748C338.637 82.2805 338.584 82.2759 338.534 82.2611C338.484 82.2472 338.437 82.2235 338.396 82.1912C338.355 82.159 338.321 82.1189 338.296 82.0733C338.27 82.0278 338.254 81.9776 338.249 81.9257C338.243 81.8738 338.247 81.8213 338.262 81.7713C338.425 81.3064 338.705 80.8919 339.074 80.5682C339.444 80.2445 339.891 80.0227 340.372 79.9243C341.476 79.6668 342.627 79.6875 343.721 79.9845C344.816 80.2815 345.82 80.8456 346.646 81.6267C349.171 83.9394 351.265 87.7537 350.274 91.0702C350.178 91.4155 350.058 91.7608 349.946 92.1061C349.427 93.6639 348.899 95.2699 349.611 96.3219C350.202 97.1972 351.681 97.7111 354.014 97.8396C354.067 97.8416 354.119 97.8543 354.167 97.877C354.215 97.8997 354.258 97.932 354.293 97.9717C354.328 98.0115 354.354 98.058 354.371 98.1085C354.388 98.1589 354.394 98.2122 354.39 98.2652C354.387 98.318 354.374 98.3696 354.351 98.4171C354.328 98.4647 354.296 98.5072 354.256 98.5423C354.217 98.5773 354.171 98.6042 354.121 98.6215C354.071 98.6387 354.019 98.6459 353.966 98.6426Z" fill="black"/>
<path d="M352.745 80.8959C352.655 80.8948 352.568 80.8637 352.497 80.8076C352.415 80.7413 352.362 80.6451 352.35 80.5398C352.338 80.4345 352.368 80.3287 352.434 80.2455C353.832 78.4708 357.868 74.8091 365.221 79.0169C365.313 79.0701 365.38 79.158 365.408 79.2611C365.436 79.3643 365.422 79.4743 365.369 79.5669C365.316 79.6596 365.228 79.7273 365.126 79.7551C365.023 79.783 364.914 79.7687 364.821 79.7155C358.244 75.9574 354.623 78.7439 353.041 80.7434C353.005 80.7882 352.96 80.825 352.909 80.8513C352.858 80.8776 352.802 80.8928 352.745 80.8959Z" fill="black"/>
<path d="M362.106 87.0952C362.777 88.3559 362.745 89.6809 362.034 90.0663C361.323 90.4518 360.196 89.7451 359.524 88.4603C358.853 87.1755 358.893 85.8746 359.604 85.4891C360.316 85.1037 361.467 85.8425 362.106 87.0952Z" fill="black"/>
<path d="M360.121 86.1238C360.054 86.1231 359.989 86.1066 359.929 86.0756L357.668 84.863C357.622 84.8386 357.581 84.8052 357.548 84.7648C357.515 84.7244 357.49 84.6778 357.475 84.6277C357.46 84.5776 357.456 84.525 357.461 84.4731C357.467 84.4211 357.483 84.3708 357.508 84.325C357.531 84.2781 357.564 84.2364 357.604 84.2024C357.644 84.1685 357.69 84.1429 357.74 84.1271C357.79 84.1114 357.843 84.1059 357.895 84.1109C357.947 84.1159 357.997 84.1314 358.043 84.1564L360.305 85.3689C360.352 85.3926 360.393 85.4255 360.427 85.4656C360.461 85.5057 360.486 85.5522 360.502 85.6023C360.518 85.6525 360.523 85.7053 360.518 85.7576C360.513 85.8099 360.498 85.8607 360.473 85.9069C360.439 85.9718 360.389 86.0263 360.327 86.0645C360.265 86.1027 360.194 86.1232 360.121 86.1238Z" fill="black"/>
<path d="M347.066 88.4043C347.729 89.665 347.697 90.99 346.986 91.3754C346.275 91.7609 345.156 91.0542 344.484 89.7694C343.813 88.4846 343.853 87.1917 344.556 86.8062C345.26 86.4208 346.394 87.1515 347.066 88.4043Z" fill="black"/>
<path d="M345.047 87.4327C344.981 87.4321 344.915 87.4156 344.856 87.3845L342.594 86.1961C342.548 86.1709 342.507 86.1367 342.474 86.0956C342.441 86.0545 342.416 86.0072 342.401 85.9564C342.386 85.9057 342.381 85.8525 342.387 85.7999C342.393 85.7473 342.409 85.6964 342.434 85.65C342.458 85.6038 342.492 85.5629 342.532 85.5298C342.572 85.4966 342.618 85.4718 342.668 85.4569C342.718 85.4419 342.77 85.4371 342.822 85.4427C342.874 85.4483 342.924 85.4642 342.969 85.4894L345.231 86.6939C345.313 86.7339 345.38 86.8009 345.419 86.8839C345.458 86.9668 345.467 87.0607 345.446 87.1499C345.424 87.2391 345.373 87.3182 345.301 87.374C345.228 87.4299 345.139 87.4591 345.047 87.4568V87.4327Z" fill="black"/>
<path d="M356.653 105.468C354.75 105.468 352.872 103.694 351.378 100.465C351.343 100.404 351.324 100.335 351.324 100.265C351.324 100.194 351.343 100.125 351.378 100.064C351.417 100.004 351.473 99.9568 351.538 99.927C351.603 99.8972 351.675 99.8862 351.745 99.8953C352.153 99.9354 352.545 99.9756 352.992 99.9756C354.535 99.9756 356.357 99.3653 361.136 96.2496C361.2 96.2106 361.273 96.1899 361.348 96.1899C361.423 96.1899 361.496 96.2106 361.56 96.2496C361.625 96.2889 361.677 96.346 361.711 96.4142C361.745 96.4825 361.759 96.5591 361.752 96.635C361.304 102.079 359.322 105.468 356.653 105.468ZM352.417 100.754C353.687 103.252 355.214 104.665 356.653 104.665C358.715 104.665 360.345 101.839 360.904 97.3818C355.893 100.586 354.223 100.883 352.417 100.754Z" fill="black"/>
<path d="M355.542 105.163H355.43C355.328 105.135 355.242 105.068 355.19 104.976C355.137 104.884 355.123 104.776 355.15 104.673C355.853 102.08 358.723 100.136 360.609 100.249C360.661 100.252 360.713 100.265 360.76 100.288C360.807 100.311 360.85 100.344 360.884 100.383C360.919 100.423 360.946 100.469 360.963 100.519C360.98 100.569 360.988 100.622 360.984 100.674C360.983 100.728 360.972 100.781 360.949 100.829C360.927 100.878 360.895 100.921 360.855 100.957C360.815 100.992 360.769 101.019 360.718 101.035C360.667 101.052 360.614 101.057 360.561 101.052C358.962 100.947 356.517 102.698 355.925 104.882C355.899 104.963 355.847 105.034 355.778 105.085C355.71 105.135 355.627 105.163 355.542 105.163Z" fill="black"/>
<path d="M307.494 173.403C311.29 169.702 329.401 145.619 336.45 137.011C343.499 128.402 351.635 128.178 362.696 128.081C359.97 117.112 360.698 116.839 361.241 116.976C364.913 117.609 368.674 117.51 372.308 116.683C375.941 115.856 379.378 114.318 382.42 112.157C385.145 111.427 385.034 122.412 387.639 123.825C390.244 125.239 407.619 121.649 416.163 130.249C424.706 138.85 430.693 159.27 430.693 159.27C426.033 166.795 394.36 190.435 354.56 179.538C353.8 176.166 348.382 170.93 346.751 164.281C340.03 173.114 335.259 179.643 335.259 179.643C335.259 179.643 313.896 178.206 307.494 173.403Z" fill="#06AB58"/>
<path d="M370.993 131.381C366.637 131.381 363.6 129.607 362.409 128.354C362.372 128.317 362.342 128.272 362.322 128.223C362.301 128.174 362.291 128.122 362.291 128.069C362.291 128.016 362.301 127.963 362.322 127.915C362.342 127.866 362.372 127.821 362.409 127.784C362.446 127.747 362.489 127.717 362.537 127.697C362.585 127.676 362.637 127.666 362.689 127.666C362.741 127.666 362.793 127.676 362.841 127.697C362.889 127.717 362.932 127.747 362.969 127.784C365.214 130.137 374.405 134.369 386.817 123.295C386.856 123.258 386.902 123.228 386.953 123.209C387.003 123.19 387.057 123.181 387.111 123.183C387.165 123.186 387.217 123.199 387.266 123.222C387.315 123.246 387.358 123.279 387.394 123.319C387.43 123.36 387.457 123.408 387.473 123.459C387.49 123.511 387.497 123.565 387.492 123.619C387.487 123.673 387.472 123.725 387.447 123.773C387.421 123.821 387.387 123.863 387.345 123.897C380.951 129.639 375.324 131.381 370.993 131.381Z" fill="black"/>
<path d="M368.697 131.277C368.612 131.276 368.529 131.249 368.46 131.199C368.391 131.148 368.34 131.077 368.313 130.996C368.169 130.514 364.765 119.264 364.405 117.674C364.381 117.571 364.399 117.462 364.454 117.372C364.509 117.282 364.598 117.217 364.701 117.192C364.752 117.18 364.805 117.179 364.857 117.188C364.909 117.197 364.959 117.216 365.004 117.244C365.048 117.273 365.087 117.31 365.117 117.353C365.148 117.397 365.169 117.446 365.18 117.497C365.532 119.055 369.04 130.643 369.08 130.763C369.11 130.864 369.1 130.973 369.05 131.067C369.001 131.16 368.917 131.23 368.817 131.261L368.697 131.277Z" fill="black"/>
<path d="M373.398 131.205C373.312 131.204 373.23 131.177 373.161 131.126C373.092 131.076 373.041 131.005 373.014 130.924L368.826 117.514C368.81 117.464 368.804 117.412 368.808 117.36C368.812 117.308 368.826 117.257 368.85 117.211C368.874 117.165 368.907 117.124 368.947 117.09C368.986 117.057 369.032 117.031 369.082 117.016C369.182 116.983 369.292 116.991 369.386 117.04C369.481 117.088 369.552 117.172 369.585 117.273L373.781 130.715C373.811 130.818 373.801 130.928 373.752 131.022C373.702 131.117 373.618 131.188 373.517 131.221L373.398 131.205Z" fill="black"/>
<path d="M378.31 129.751C378.227 129.752 378.145 129.726 378.078 129.677C378.01 129.628 377.96 129.558 377.934 129.478L373.738 116.63C373.706 116.529 373.714 116.419 373.762 116.324C373.81 116.229 373.893 116.157 373.994 116.124C374.095 116.093 374.203 116.103 374.297 116.151C374.391 116.199 374.463 116.281 374.498 116.381L378.693 129.229C378.724 129.332 378.715 129.442 378.668 129.538C378.62 129.633 378.538 129.707 378.438 129.743L378.31 129.751Z" fill="black"/>
<path d="M382.797 127.431C382.71 127.431 382.626 127.402 382.557 127.35C382.488 127.298 382.437 127.225 382.413 127.142L378.888 115.104C378.859 114.998 378.872 114.884 378.926 114.787C378.98 114.691 379.07 114.62 379.176 114.59C379.282 114.561 379.396 114.574 379.491 114.629C379.587 114.683 379.658 114.773 379.688 114.879L383.228 126.925C383.244 126.976 383.25 127.03 383.245 127.083C383.239 127.136 383.224 127.188 383.198 127.235C383.173 127.282 383.139 127.324 383.097 127.358C383.056 127.391 383.008 127.416 382.956 127.431H382.797Z" fill="black"/>
<path d="M359.996 112.695H359.868C359.816 112.694 359.764 112.683 359.716 112.662C359.668 112.641 359.624 112.61 359.588 112.572C359.552 112.534 359.523 112.489 359.504 112.44C359.485 112.391 359.476 112.339 359.477 112.286C359.477 112.233 359.487 112.18 359.508 112.131C359.529 112.083 359.559 112.039 359.597 112.002C359.635 111.965 359.68 111.936 359.729 111.918C359.779 111.899 359.831 111.89 359.884 111.892C362.721 111.997 370.33 109.483 375.181 103.469C375.251 103.388 375.348 103.338 375.454 103.327C375.559 103.317 375.665 103.347 375.749 103.413C375.79 103.445 375.824 103.486 375.849 103.532C375.874 103.578 375.89 103.629 375.895 103.682C375.9 103.734 375.895 103.787 375.879 103.837C375.864 103.888 375.838 103.934 375.805 103.975C370.849 110.11 363.041 112.695 359.996 112.695Z" fill="black"/>
<path d="M348.271 168.69C348.195 168.689 348.119 168.666 348.056 168.624C347.992 168.581 347.942 168.52 347.912 168.449C346.071 164.088 345.102 159.406 345.059 154.669C345.059 154.563 345.101 154.46 345.176 154.385C345.251 154.31 345.352 154.268 345.458 154.268C345.564 154.268 345.666 154.31 345.741 154.385C345.816 154.46 345.858 154.563 345.858 154.669C345.919 159.285 346.863 163.846 348.639 168.104C348.66 168.152 348.672 168.204 348.673 168.257C348.674 168.31 348.664 168.363 348.645 168.412C348.626 168.461 348.597 168.506 348.56 168.544C348.523 168.582 348.48 168.613 348.431 168.634C348.381 168.661 348.327 168.68 348.271 168.69Z" fill="black"/>
<path d="M406.509 176.318C406.423 176.317 406.34 176.289 406.271 176.237C406.202 176.185 406.151 176.112 406.126 176.029C406.126 175.901 402.529 163.663 401.035 159.038C401.007 158.938 401.018 158.831 401.066 158.739C401.115 158.647 401.197 158.578 401.295 158.546C401.393 158.513 401.5 158.521 401.593 158.566C401.686 158.611 401.758 158.691 401.794 158.789C403.297 163.43 406.861 175.652 406.893 175.797C406.909 175.848 406.915 175.901 406.909 175.955C406.904 176.008 406.889 176.06 406.863 176.107C406.838 176.154 406.804 176.196 406.762 176.229C406.72 176.263 406.673 176.288 406.621 176.302L406.509 176.318Z" fill="black"/>
<path d="M380.309 100.152C378.832 100.085 377.391 99.6663 376.105 98.9317C376.059 98.9079 376.017 98.8751 375.983 98.835C375.95 98.7949 375.924 98.7484 375.909 98.6982C375.893 98.6481 375.887 98.5953 375.892 98.543C375.897 98.4907 375.913 98.4399 375.938 98.3936C375.963 98.3468 375.998 98.3055 376.04 98.2724C376.082 98.2392 376.13 98.2148 376.181 98.2006C376.233 98.1864 376.286 98.1826 376.339 98.1896C376.392 98.1965 376.443 98.214 376.489 98.2411C378.311 99.2047 379.95 99.566 381.212 99.2769C384.185 98.6024 385.424 93.3668 385.424 90.7168C385.423 90.6329 385.447 90.5506 385.495 90.4815C385.542 90.4124 385.609 90.3599 385.688 90.3313C385.768 90.3052 385.853 90.3043 385.933 90.3287C386.013 90.3531 386.084 90.4017 386.136 90.4679C386.694 91.2878 387.447 91.9556 388.325 92.4111C389.204 92.8666 390.182 93.0957 391.171 93.0777C393.193 92.9412 395.167 90.6686 395.398 88.918C395.414 88.812 395.471 88.7165 395.556 88.6519C395.641 88.5874 395.748 88.5589 395.854 88.5727C395.958 88.5905 396.051 88.6482 396.114 88.7335C396.176 88.8189 396.204 88.9253 396.19 89.0305C395.894 91.1344 393.648 93.712 391.195 93.8486C390.255 93.8695 389.322 93.6899 388.457 93.3217C387.592 92.9535 386.814 92.405 386.176 91.7125C385.904 94.9969 384.361 99.3492 381.38 100.032C381.029 100.11 380.67 100.15 380.309 100.152Z" fill="white"/>
</g>
<path d="M362.254 180.012C334.042 180.012 306.053 174.391 290.66 169.573C254.216 158.162 235.587 128.017 233.685 77.3625C232.805 53.8341 240.79 35.6618 257.429 23.3516C271.208 13.1613 288.51 8.51186 303.616 5.31586C320.399 1.76653 335.792 -0.0322266 349.442 -0.0322266C374.066 -0.0322266 393.775 5.8057 408.025 17.321C419.749 26.7885 425.815 38.4804 429.787 47.6027C434.846 59.2304 438.219 77.8041 438.578 96.0808C438.89 112.021 437.148 135.252 427.03 155.448C416.912 175.644 386.198 180.012 362.254 180.012ZM349.466 0.802911C335.88 0.802911 320.511 2.59364 303.807 6.13494C268.498 13.611 232.678 27.9208 234.508 77.3625C236.394 127.599 254.848 157.512 290.908 168.802C307.468 173.981 335.952 179.241 362.27 179.241C385.99 179.241 416.368 175.065 426.334 155.151C436.373 135.075 438.107 112.005 437.795 96.1691C437.436 77.9808 434.095 59.5275 429.076 47.9881C423.441 35.0596 408.528 0.802911 349.442 0.802911H349.466Z" fill="black"/>
<path d="M269.402 41.5884H238.097C232.654 41.5884 228.506 46.2941 228.826 52.0276L229.673 66.4819C229.822 68.9915 230.919 71.3493 232.74 73.0732C234.561 74.7972 236.969 75.7571 239.471 75.7567L262.137 75.4114C263.32 78.9527 264.183 82.3896 266.453 82.221C268.051 82.0604 268.77 78.6155 269.234 75.2829C271.6 75.0863 273.811 74.0199 275.443 72.2879C277.075 70.556 278.015 68.28 278.081 65.8957L278.593 51.7385C278.793 46.1897 274.701 41.5884 269.402 41.5884Z" fill="white"/>
<path d="M266.289 82.6466C264.068 82.6466 263.157 79.844 262.102 76.6079C262.014 76.3509 261.934 76.094 261.846 75.8049L239.324 76.1421C236.734 76.1168 234.25 75.0987 232.382 73.2958C230.513 71.493 229.4 69.0413 229.27 66.4417L228.423 51.9874C228.33 50.5646 228.526 49.1377 228.998 47.7932C229.471 46.4487 230.211 45.2147 231.172 44.166C232.064 43.2261 233.138 42.4802 234.329 41.9747C235.52 41.4691 236.801 41.2146 238.093 41.227H269.398C270.651 41.2272 271.89 41.4828 273.041 41.9783C274.192 42.4739 275.232 43.199 276.096 44.1098C277.06 45.1368 277.809 46.3472 278.301 47.6698C278.792 48.9923 279.015 50.4003 278.957 51.8107L278.445 65.9679C278.37 68.3939 277.431 70.7121 275.799 72.5012C274.166 74.2902 271.949 75.4311 269.55 75.7165C269.039 79.2659 268.295 82.494 266.457 82.6787L266.289 82.6466ZM262.134 75.0259C262.216 75.0277 262.297 75.0548 262.364 75.1036C262.431 75.1524 262.482 75.2205 262.509 75.299L262.861 76.3589C263.844 79.3703 264.715 81.9801 266.417 81.8355C267.936 81.683 268.591 77.0174 268.815 75.2428C268.831 75.1515 268.876 75.0681 268.944 75.0056C269.012 74.943 269.099 74.905 269.191 74.8975C271.456 74.7069 273.572 73.6844 275.135 72.0254C276.698 70.3663 277.597 68.187 277.662 65.9037L278.19 51.7465C278.247 50.4435 278.043 49.1423 277.59 47.9201C277.137 46.6979 276.444 45.5796 275.552 44.6318C274.756 43.8008 273.8 43.1415 272.742 42.6941C271.684 42.2468 270.546 42.0208 269.398 42.03H238.093C236.905 42.0261 235.729 42.2687 234.638 42.7427C233.548 43.2166 232.566 43.9117 231.756 44.7844C230.867 45.7528 230.183 46.8931 229.748 48.1357C229.312 49.3783 229.133 50.6971 229.222 52.0115L230.069 66.4658C230.215 68.8511 231.247 71.0944 232.961 72.7513C234.675 74.4081 236.946 75.3575 239.324 75.4114H239.46L262.126 75.0661L262.134 75.0259Z" fill="black"/>
<path d="M244.136 59.1258C244.121 59.734 243.929 60.3245 243.582 60.8233C243.236 61.3221 242.75 61.7071 242.187 61.93C241.624 62.153 241.007 62.204 240.415 62.0767C239.823 61.9493 239.282 61.6493 238.859 61.2142C238.435 60.7791 238.15 60.2282 238.036 59.6306C237.923 59.0329 237.988 58.4151 238.223 57.8543C238.458 57.2936 238.852 56.815 239.357 56.4783C239.861 56.1417 240.453 55.9621 241.059 55.9619C241.468 55.9661 241.872 56.0513 242.248 56.2127C242.624 56.3741 242.965 56.6084 243.25 56.9023C243.536 57.1962 243.762 57.5439 243.913 57.9255C244.065 58.307 244.141 58.7149 244.136 59.1258Z" fill="#70BADB"/>
<path d="M256.276 59.1258C256.262 59.7343 256.069 60.3251 255.722 60.8241C255.375 61.3231 254.89 61.7081 254.326 61.9308C253.762 62.1535 253.145 62.204 252.553 62.076C251.961 61.9481 251.419 61.6473 250.997 61.2114C250.574 60.7754 250.288 60.2238 250.176 59.6256C250.064 59.0275 250.13 58.4093 250.366 57.8488C250.602 57.2882 250.998 56.8101 251.503 56.4745C252.009 56.1388 252.601 55.9605 253.207 55.9619C253.615 55.9672 254.019 56.0532 254.394 56.215C254.769 56.3768 255.109 56.6114 255.394 56.9052C255.679 57.199 255.903 57.5463 256.055 57.9273C256.206 58.3083 256.281 58.7156 256.276 59.1258Z" fill="#70BADB"/>
<path d="M268.417 59.1258C268.403 59.7343 268.21 60.3251 267.863 60.8241C267.516 61.3231 267.03 61.7081 266.466 61.9308C265.903 62.1535 265.286 62.204 264.694 62.076C264.101 61.9481 263.56 61.6473 263.137 61.2114C262.714 60.7754 262.429 60.2238 262.317 59.6256C262.205 59.0275 262.271 58.4093 262.507 57.8488C262.743 57.2882 263.139 56.8101 263.644 56.4745C264.149 56.1388 264.742 55.9605 265.348 55.9619C265.756 55.9672 266.159 56.0532 266.535 56.215C266.91 56.3768 267.25 56.6114 267.535 56.9052C267.82 57.199 268.044 57.5463 268.195 57.9273C268.347 58.3083 268.422 58.7156 268.417 59.1258Z" fill="#70BADB"/>
<path d="M370.188 313.546H339.083C338.977 313.546 338.876 313.503 338.801 313.428C338.726 313.353 338.684 313.251 338.684 313.144C338.684 313.038 338.726 312.936 338.801 312.86C338.876 312.785 338.977 312.743 339.083 312.743H370.188C370.294 312.743 370.396 312.785 370.471 312.86C370.546 312.936 370.588 313.038 370.588 313.144C370.588 313.251 370.546 313.353 370.471 313.428C370.396 313.503 370.294 313.546 370.188 313.546Z" fill="black"/>
<path d="M278.254 199.782C269.039 195.31 267.305 185.288 280.748 181.474C271.317 169.814 280.86 163.06 287.253 161.752C293.647 160.443 306.346 163.711 318.598 174.279C330.85 184.846 336.181 185.392 339.857 193.679C343.534 201.967 341.807 208.391 338.115 216.774C334.423 225.158 333.999 227.784 341.152 234.537C348.305 241.29 354.171 248.052 349.184 260.796C344.197 273.539 284.544 268.866 281.723 260.145C278.902 251.424 285.631 219.496 285.631 219.496L278.254 199.782Z" fill="black"/>
<path d="M271.422 251.97C270.015 245.763 271.653 231.501 284.001 224.403C293.016 219.231 297.78 226.475 297.78 226.475L299.186 250.34C299.186 250.34 274.459 252.083 271.422 251.97Z" fill="black"/>
<path d="M202.017 216.124C200.93 214.598 199.308 212.51 197.789 213.602C196.271 214.695 198.693 223.536 205.486 222.436C204.203 220.404 203.045 218.297 202.017 216.124Z" fill="white"/>
<path d="M204.352 222.941C200.547 222.941 198.198 219.81 197.343 217.136C196.903 215.746 196.695 213.924 197.566 213.273C197.891 213.032 198.282 212.9 198.685 212.896C200.036 212.896 201.243 214.333 202.354 215.891C203.383 218.07 204.544 220.183 205.83 222.219C205.862 222.278 205.878 222.344 205.878 222.411C205.878 222.479 205.862 222.545 205.83 222.604C205.804 222.666 205.762 222.72 205.709 222.761C205.656 222.802 205.593 222.828 205.526 222.837C205.139 222.906 204.745 222.941 204.352 222.941ZM198.677 213.699C198.439 213.702 198.209 213.784 198.022 213.932C197.726 214.14 197.582 215.289 198.094 216.887C198.893 219.424 200.971 222.138 204.352 222.138H204.799C203.65 220.253 202.601 218.307 201.658 216.309C201.123 215.562 199.804 213.699 198.677 213.699Z" fill="black"/>
<path d="M221.214 217.087C217.521 215.891 215.14 212.952 216.331 210.551C217.521 208.15 221.43 211.314 224.139 213.49C225.676 214.772 227.491 215.674 229.438 216.124C226.875 217.339 223.986 217.677 221.214 217.087Z" fill="white"/>
<path d="M223.789 217.826C222.886 217.829 221.987 217.718 221.111 217.497C218.642 216.694 216.668 215.088 215.932 213.353C215.715 212.89 215.602 212.384 215.602 211.872C215.602 211.359 215.715 210.853 215.932 210.39C216.082 210.059 216.325 209.779 216.632 209.586C216.94 209.393 217.297 209.296 217.659 209.306C219.513 209.306 222.166 211.442 224.3 213.153C225.808 214.398 227.579 215.279 229.479 215.73C229.561 215.743 229.637 215.782 229.696 215.841C229.755 215.9 229.794 215.977 229.807 216.06C229.822 216.142 229.81 216.228 229.773 216.304C229.735 216.379 229.674 216.44 229.599 216.477C227.782 217.343 225.8 217.803 223.789 217.826ZM217.699 210.109C217.486 210.098 217.275 210.152 217.095 210.266C216.915 210.379 216.774 210.546 216.692 210.744C216.522 211.102 216.434 211.495 216.434 211.892C216.434 212.289 216.522 212.681 216.692 213.04C217.339 214.59 219.129 215.995 221.359 216.726C222.162 216.926 222.986 217.026 223.813 217.023C225.323 217.009 226.82 216.738 228.24 216.22C226.668 215.682 225.203 214.867 223.916 213.811C221.91 212.269 219.273 210.109 217.699 210.109Z" fill="black"/>
<path d="M225.083 250.557C224.795 244.133 224.068 231.381 223.053 227.31C222.038 223.238 215.684 224.403 215.245 224.258C214.805 224.114 206.893 227.125 202.993 219.175C199.092 211.225 202.265 208.254 204.399 209.057C205.159 206.439 207.332 207.202 208.523 208.511C209.61 206.223 212.751 208.624 213.51 211.563C214.27 214.502 215.029 217.119 221.103 216.381C227.177 215.642 234.689 213.875 237.59 222.7C240.492 231.526 242.905 245.193 242.905 245.193C242.905 245.193 241.746 253.938 225.083 250.557Z" fill="white"/>
<path d="M232.028 251.738C229.666 251.702 227.313 251.433 225.003 250.935C224.915 250.917 224.836 250.87 224.778 250.801C224.72 250.733 224.687 250.647 224.683 250.557C224.483 246.237 223.764 231.791 222.669 227.39C222.206 225.535 220.375 224.596 217.234 224.596C216.723 224.596 216.275 224.596 215.932 224.636C215.682 224.66 215.43 224.66 215.18 224.636C215.03 224.653 214.88 224.68 214.733 224.716C213.682 224.946 212.611 225.067 211.536 225.077C207.54 225.077 204.463 223.094 202.617 219.328C199.9 213.795 200.691 211.033 201.402 209.884C201.668 209.409 202.07 209.026 202.557 208.785C203.043 208.545 203.591 208.457 204.127 208.535C204.248 208.066 204.518 207.65 204.896 207.35C205.274 207.05 205.74 206.882 206.221 206.873C207.049 206.922 207.833 207.263 208.435 207.837C208.593 207.625 208.798 207.454 209.034 207.337C209.27 207.219 209.531 207.16 209.794 207.162C211.392 207.162 213.294 209.154 213.886 211.418C214.525 213.907 215.077 216.052 219.129 216.052C219.767 216.045 220.405 216.002 221.039 215.923L222.397 215.738C224.196 215.455 226.012 215.291 227.832 215.249C231.141 215.249 235.824 216.003 237.95 222.476C240.851 231.229 243.257 244.96 243.281 245.089C243.289 245.131 243.289 245.175 243.281 245.217C243.289 245.338 242.322 251.738 232.028 251.738ZM225.442 250.228C227.603 250.67 229.799 250.907 232.004 250.935C241.099 250.935 242.394 245.803 242.474 245.217C242.282 244.157 239.964 231.164 237.183 222.789C235.209 216.838 231.149 216.076 227.824 216.076C226.039 216.121 224.258 216.281 222.493 216.557L221.127 216.742C220.461 216.828 219.791 216.873 219.121 216.879C214.453 216.879 213.734 214.1 213.103 211.651C212.567 209.587 210.881 207.989 209.786 207.989C209.58 207.992 209.38 208.059 209.214 208.182C209.048 208.304 208.923 208.475 208.859 208.672C208.831 208.731 208.789 208.783 208.736 208.821C208.682 208.859 208.62 208.882 208.555 208.889C208.491 208.899 208.425 208.894 208.364 208.873C208.303 208.852 208.247 208.816 208.203 208.768C207.706 208.163 206.991 207.779 206.213 207.7C205.526 207.7 205.038 208.19 204.759 209.154C204.745 209.206 204.719 209.254 204.685 209.296C204.65 209.337 204.608 209.371 204.559 209.395C204.51 209.418 204.457 209.43 204.403 209.43C204.349 209.43 204.296 209.418 204.247 209.395C203.835 209.273 203.395 209.298 202.999 209.465C202.603 209.631 202.276 209.93 202.073 210.31C201.57 211.113 200.683 213.594 203.328 218.975C205.054 222.492 207.812 224.274 211.528 224.274C212.547 224.261 213.561 224.145 214.557 223.929C214.761 223.876 214.97 223.841 215.18 223.825C215.236 223.817 215.293 223.817 215.348 223.825H215.868C216.219 223.825 216.667 223.785 217.211 223.785C220.767 223.785 222.861 224.933 223.42 227.189C224.531 231.582 225.251 245.538 225.442 250.228Z" fill="black"/>
<path d="M206.075 223.439C205.988 223.437 205.904 223.406 205.836 223.351C203.382 221.448 201.752 218.597 200.992 214.887C200.971 214.781 200.993 214.67 201.053 214.58C201.113 214.489 201.206 214.427 201.312 214.405C201.418 214.384 201.528 214.406 201.618 214.466C201.708 214.526 201.77 214.62 201.792 214.727C202.511 218.244 204.037 220.934 206.339 222.717C206.423 222.782 206.477 222.877 206.491 222.983C206.504 223.088 206.475 223.195 206.411 223.279C206.372 223.33 206.321 223.372 206.262 223.4C206.204 223.428 206.14 223.441 206.075 223.439Z" fill="black"/>
<path d="M216.332 221.97C215.261 221.94 214.21 221.669 213.258 221.175C212.307 220.681 211.478 219.979 210.833 219.119C208.124 215.682 207.82 210.149 208.148 208.423C208.167 208.316 208.227 208.222 208.316 208.16C208.404 208.098 208.513 208.074 208.619 208.094C208.725 208.113 208.819 208.173 208.881 208.262C208.942 208.351 208.966 208.461 208.947 208.567C208.651 210.173 208.947 215.433 211.472 218.621C212.049 219.387 212.789 220.013 213.638 220.454C214.488 220.894 215.424 221.138 216.38 221.167C216.486 221.173 216.586 221.221 216.658 221.301C216.73 221.38 216.768 221.485 216.763 221.592C216.761 221.646 216.748 221.699 216.725 221.748C216.702 221.796 216.669 221.84 216.629 221.875C216.588 221.911 216.541 221.937 216.49 221.953C216.439 221.97 216.385 221.975 216.332 221.97Z" fill="black"/>
<path d="M212.101 224.917C211.081 224.835 210.09 224.533 209.196 224.031C208.302 223.53 207.527 222.84 206.922 222.01C203.725 217.858 203.725 210.639 204.037 208.969C204.046 208.917 204.065 208.867 204.093 208.823C204.121 208.778 204.158 208.74 204.201 208.71C204.244 208.68 204.293 208.659 204.344 208.648C204.396 208.638 204.449 208.637 204.5 208.648C204.553 208.657 204.602 208.676 204.647 208.704C204.692 208.732 204.73 208.769 204.761 208.812C204.791 208.855 204.813 208.904 204.825 208.956C204.836 209.008 204.837 209.061 204.828 209.114C204.548 210.72 204.524 217.577 207.553 221.52C208.09 222.261 208.78 222.877 209.576 223.325C210.373 223.772 211.256 224.042 212.165 224.114C212.271 224.114 212.373 224.156 212.447 224.232C212.522 224.307 212.565 224.409 212.565 224.515C212.565 224.622 212.522 224.724 212.447 224.799C212.373 224.875 212.271 224.917 212.165 224.917H212.101Z" fill="black"/>
<path d="M287.254 257.744C290.834 259.35 301.248 263.084 320.117 258.29C319.47 271.371 318.167 298.939 318.167 298.939C318.167 298.939 302.439 307.868 291.921 304.167C288.996 299.156 287.254 257.744 287.254 257.744Z" fill="black"/>
<path d="M290.482 247.401C293.623 246.968 297.02 245.795 296.692 240.535C296.364 235.276 295.501 228.434 295.501 228.434C287.365 228.33 279.341 224.082 275.657 215.69C271.972 207.299 276.848 202.938 279.557 194.226C282.266 185.513 287.365 178.31 298.738 179.073C310.111 179.835 316.193 185.288 316.193 185.288C314.243 195.526 312.293 210.021 316.52 210.896C320.748 211.771 321.835 204.247 321.835 204.247C328.229 201.083 334.934 204.93 332.353 210.567C329.212 217.433 321.731 213.948 321.731 213.948C320.213 217.866 313.811 222.227 313.811 222.227C314.786 230.257 315.761 243.627 321.803 244.39C319.31 257.142 318.015 261.783 318.015 261.783C318.015 261.783 296.22 267.115 288.3 259.278C288.668 256.548 290.482 247.401 290.482 247.401Z" fill="white"/>
<path d="M303.156 263.959C296.083 263.959 291 262.474 288.059 259.559C288.016 259.516 287.984 259.465 287.965 259.407C287.945 259.35 287.939 259.29 287.947 259.23C288.266 256.516 290.009 247.698 290.081 247.321C290.099 247.239 290.142 247.164 290.203 247.107C290.264 247.05 290.342 247.012 290.424 247C293.493 246.574 296.594 245.482 296.291 240.576C296.011 236.079 295.323 230.305 295.14 228.844C286.292 228.603 278.708 223.656 275.287 215.867C272.57 209.692 274.352 205.701 276.606 200.61C277.592 198.493 278.449 196.318 279.171 194.097C282.608 183.04 289.01 178.037 298.776 178.671C310.173 179.434 316.223 184.75 316.479 184.983C316.53 185.028 316.569 185.086 316.591 185.15C316.614 185.215 316.619 185.285 316.607 185.352C313.673 200.722 313.681 209.884 316.607 210.495C316.801 210.535 316.999 210.557 317.198 210.559C320.491 210.559 321.434 204.247 321.45 204.183C321.456 204.118 321.479 204.055 321.517 204.002C321.555 203.948 321.606 203.905 321.666 203.878C323.175 203.12 324.837 202.716 326.525 202.697C329.17 202.697 331.44 203.765 332.575 205.556C333.041 206.332 333.301 207.216 333.327 208.122C333.354 209.028 333.147 209.925 332.727 210.728C332.187 212.086 331.246 213.246 330.03 214.05C328.813 214.855 327.381 215.264 325.925 215.224C324.559 215.21 323.206 214.952 321.929 214.462C320.331 217.987 315.312 221.641 314.225 222.411C314.297 223.022 314.377 223.672 314.449 224.331C315.368 232.361 316.622 243.322 321.873 243.98C321.928 243.988 321.98 244.007 322.027 244.036C322.073 244.065 322.114 244.104 322.145 244.149C322.209 244.24 322.235 244.352 322.217 244.462C319.747 257.078 318.429 261.831 318.413 261.88C318.394 261.948 318.358 262.011 318.307 262.06C318.257 262.11 318.194 262.144 318.125 262.161C313.211 263.282 308.194 263.885 303.156 263.959ZM288.77 259.141C291.583 261.815 296.418 263.156 303.156 263.156C308.06 263.089 312.945 262.516 317.733 261.446C318.013 260.378 319.26 255.496 321.378 244.719C315.863 243.499 314.608 232.513 313.681 224.435C313.593 223.68 313.514 222.957 313.426 222.275C313.417 222.201 313.429 222.125 313.46 222.058C313.491 221.99 313.54 221.931 313.601 221.889C313.665 221.849 319.915 217.561 321.37 213.795C321.39 213.744 321.421 213.699 321.459 213.66C321.498 213.621 321.543 213.591 321.594 213.57C321.696 213.53 321.81 213.53 321.913 213.57C323.178 214.109 324.535 214.398 325.909 214.421C327.211 214.466 328.494 214.104 329.582 213.385C330.67 212.666 331.509 211.625 331.983 210.406C332.352 209.729 332.538 208.966 332.521 208.193C332.504 207.421 332.286 206.667 331.887 206.006C330.896 204.448 328.882 203.516 326.509 203.516C325.011 203.534 323.536 203.879 322.185 204.528C321.977 205.725 320.81 211.378 317.182 211.378C316.93 211.375 316.678 211.348 316.431 211.298C312.866 210.559 312.642 201.862 315.751 185.449C314.696 184.597 308.774 180.157 298.696 179.482C289.242 178.856 283.271 183.553 279.915 194.346C279.176 196.598 278.306 198.805 277.309 200.955C275.135 205.837 273.425 209.692 275.991 215.53C279.331 223.134 286.796 227.928 295.475 228.041C295.572 228.043 295.664 228.081 295.736 228.145C295.807 228.21 295.854 228.298 295.867 228.394C295.867 228.466 296.746 235.332 297.066 240.511C297.409 246.012 293.733 247.313 290.792 247.739C290.512 249.272 289.098 256.524 288.762 259.125L288.77 259.141Z" fill="black"/>
<path d="M287.908 210.856C287.838 210.856 287.77 210.84 287.708 210.808C285.422 209.499 284.223 208.214 284.04 206.881C283.816 205.227 285.151 203.886 286.437 202.585C286.685 202.336 286.941 202.079 287.173 201.83C289.282 199.574 289.059 195.454 287.972 192.587C287.806 192.041 287.495 191.551 287.073 191.168C286.65 190.786 286.132 190.527 285.574 190.419C284.892 190.323 284.198 190.389 283.545 190.611C282.893 190.832 282.302 191.204 281.818 191.696C281.781 191.734 281.736 191.764 281.688 191.784C281.639 191.804 281.587 191.815 281.534 191.815C281.481 191.815 281.429 191.804 281.38 191.784C281.332 191.764 281.287 191.734 281.25 191.696C281.213 191.659 281.184 191.616 281.163 191.567C281.143 191.519 281.133 191.467 281.133 191.415C281.133 191.363 281.143 191.311 281.163 191.263C281.184 191.214 281.213 191.171 281.25 191.134C281.826 190.54 282.535 190.091 283.317 189.826C284.099 189.561 284.933 189.486 285.75 189.608C286.437 189.743 287.076 190.061 287.598 190.531C288.12 191 288.506 191.603 288.715 192.274C289.938 195.486 290.122 199.831 287.764 202.352C287.524 202.609 287.268 202.874 286.965 203.155C285.814 204.319 284.623 205.516 284.791 206.777C284.935 207.829 286.038 208.945 288.068 210.109C288.143 210.154 288.201 210.222 288.234 210.303C288.267 210.384 288.272 210.474 288.25 210.559C288.227 210.643 288.177 210.718 288.108 210.772C288.04 210.826 287.955 210.855 287.868 210.856H287.908Z" fill="black"/>
<path d="M307.497 197.277C307.432 197.276 307.368 197.26 307.311 197.229C307.254 197.199 307.205 197.154 307.169 197.1C302.949 190.781 298.473 191.648 296.172 192.732C296.079 192.763 295.978 192.758 295.888 192.719C295.798 192.681 295.725 192.61 295.684 192.521C295.643 192.431 295.635 192.33 295.663 192.236C295.691 192.142 295.753 192.061 295.836 192.009C297.874 191.046 303.117 189.6 307.824 196.651C307.882 196.739 307.903 196.847 307.882 196.951C307.861 197.055 307.8 197.146 307.712 197.205C307.65 197.251 307.574 197.276 307.497 197.277Z" fill="black"/>
<path d="M301.061 202.986C300.638 204.344 299.671 205.251 298.896 205.01C298.12 204.769 297.849 203.476 298.264 202.111C298.68 200.746 299.655 199.847 300.43 200.088C301.205 200.328 301.485 201.629 301.061 202.986Z" fill="black"/>
<path d="M300.629 200.979C300.542 200.98 300.457 200.953 300.388 200.9C300.318 200.848 300.268 200.774 300.245 200.69L299.526 198.225C299.503 198.173 299.492 198.116 299.492 198.06C299.493 198.003 299.505 197.947 299.529 197.896C299.552 197.844 299.586 197.798 299.629 197.761C299.671 197.724 299.721 197.696 299.775 197.68C299.829 197.663 299.886 197.658 299.942 197.665C299.998 197.672 300.052 197.691 300.1 197.721C300.148 197.75 300.189 197.79 300.221 197.836C300.253 197.883 300.275 197.936 300.285 197.992L301.012 200.465C301.028 200.516 301.034 200.569 301.028 200.622C301.023 200.674 301.007 200.726 300.982 200.772C300.957 200.819 300.922 200.859 300.881 200.892C300.839 200.925 300.791 200.949 300.74 200.963L300.629 200.979Z" fill="black"/>
<path d="M285.262 200.007C284.839 201.372 283.872 202.272 283.105 202.031C282.337 201.79 282.05 200.497 282.473 199.132C282.897 197.767 283.864 196.867 284.631 197.108C285.398 197.349 285.686 198.618 285.262 200.007Z" fill="black"/>
<path d="M284.832 198C284.746 197.998 284.662 197.97 284.593 197.918C284.524 197.866 284.474 197.793 284.448 197.711L283.729 195.245C283.713 195.195 283.708 195.141 283.713 195.089C283.718 195.036 283.734 194.985 283.759 194.938C283.785 194.892 283.819 194.851 283.861 194.818C283.902 194.785 283.95 194.761 284.001 194.747C284.101 194.717 284.21 194.728 284.303 194.778C284.395 194.827 284.465 194.912 284.496 195.012L285.215 197.486C285.245 197.587 285.235 197.696 285.185 197.789C285.136 197.882 285.052 197.952 284.952 197.984C284.913 197.997 284.872 198.002 284.832 198Z" fill="black"/>
<path d="M287.781 218.918C287.39 218.929 287.001 218.858 286.639 218.708C286.277 218.559 285.95 218.335 285.679 218.051C284.712 217.031 284.28 215.144 284.392 212.43C284.396 212.353 284.421 212.28 284.465 212.217C284.509 212.154 284.57 212.106 284.64 212.077C284.71 212.048 284.787 212.039 284.862 212.052C284.937 212.065 285.007 212.098 285.064 212.149C285.639 212.679 287.317 213.289 290.171 213.289C292.081 213.272 293.983 213.03 295.837 212.566C295.919 212.546 296.006 212.553 296.083 212.587C296.161 212.62 296.226 212.678 296.269 212.751C296.313 212.824 296.333 212.909 296.326 212.995C296.319 213.08 296.285 213.161 296.229 213.225C293.032 216.847 289.955 218.918 287.781 218.918ZM285.175 213.201C285.175 215.265 285.543 216.742 286.262 217.497C287.781 219.103 291.17 217.497 294.782 213.626C290.882 214.389 286.982 214.165 285.144 213.201H285.175Z" fill="black"/>
<path d="M286.06 218.196C285.989 218.196 285.92 218.177 285.86 218.139C285.814 218.114 285.774 218.079 285.742 218.037C285.71 217.996 285.687 217.948 285.673 217.897C285.66 217.846 285.657 217.793 285.664 217.741C285.671 217.689 285.689 217.638 285.716 217.593C286.651 215.987 290.472 214.927 292.749 215.706C292.805 215.718 292.857 215.741 292.902 215.775C292.948 215.808 292.986 215.851 293.014 215.901C293.042 215.95 293.059 216.005 293.064 216.061C293.069 216.118 293.063 216.175 293.044 216.228C293.026 216.282 292.997 216.331 292.958 216.373C292.92 216.414 292.873 216.447 292.821 216.469C292.769 216.491 292.713 216.502 292.656 216.5C292.6 216.499 292.544 216.486 292.494 216.461C290.432 215.762 287.107 216.774 286.412 217.995C286.375 218.056 286.324 218.107 286.262 218.142C286.201 218.177 286.131 218.196 286.06 218.196Z" fill="black"/>
<path d="M295.322 228.876C295.211 228.88 295.103 228.84 295.021 228.765C294.939 228.69 294.889 228.586 294.883 228.474C294.883 228.368 294.925 228.265 295 228.19C295.075 228.115 295.176 228.073 295.282 228.073H295.33C299.374 228.073 305.904 225.728 310.276 223.399C310.322 223.374 310.372 223.359 310.424 223.354C310.476 223.349 310.529 223.354 310.579 223.37C310.629 223.386 310.675 223.411 310.715 223.445C310.755 223.479 310.787 223.521 310.811 223.568C310.836 223.613 310.852 223.664 310.858 223.716C310.863 223.768 310.858 223.82 310.843 223.87C310.829 223.92 310.804 223.967 310.771 224.007C310.738 224.048 310.697 224.081 310.651 224.106C306.16 226.483 299.502 228.876 295.322 228.876Z" fill="black"/>
<path d="M224.785 248.702C226.631 249.361 235.63 249.361 242.903 245.217C244.094 251.866 248.498 271.717 248.498 271.717C254.684 264.963 263.251 257.013 267.151 253.633C271.052 250.252 277.022 246.984 282.88 247.209C285.841 247.362 288.81 247.328 291.767 247.104C291.767 247.104 287.108 255.383 289.489 278.374C291.871 301.364 292.638 304.415 292.638 304.415L284.646 303.653C284.646 303.653 286.245 298.529 281.393 292.651C276.542 286.773 275.104 283.063 274.448 278.703C269.245 284.043 255.363 298.859 243.758 298.971C232.154 299.083 228.038 288.556 226.416 275.507C225.392 266.608 224.847 257.66 224.785 248.702Z" fill="#70BADB"/>
<path d="M314.151 298.794C310.898 299.774 296.904 303.95 290.51 303.516C284.117 303.083 277.491 299.919 272.288 301.228C267.086 302.536 258.15 309.129 258.782 311.739C259.269 313.755 261.659 312.671 261.659 312.671C261.758 312.913 261.907 313.131 262.098 313.31C262.288 313.489 262.515 313.624 262.763 313.707C263.01 313.789 263.273 313.817 263.532 313.788C263.791 313.758 264.041 313.673 264.264 313.538C265.127 315.393 269.14 314.301 271.529 312.229C273.919 310.157 276.844 309.073 280.528 310.382C285.718 312.327 291.162 313.501 296.688 313.867C303.41 314.188 319.25 313.449 319.25 313.449C319.25 313.449 321.632 304.022 314.151 298.794Z" fill="white"/>
<path d="M266.2 314.887C265.812 314.927 265.419 314.871 265.057 314.724C264.695 314.577 264.374 314.344 264.122 314.044C263.845 314.143 263.553 314.195 263.259 314.196C262.9 314.201 262.546 314.108 262.235 313.927C261.924 313.746 261.667 313.484 261.493 313.168C261.123 313.288 260.738 313.353 260.35 313.361C259.897 313.39 259.45 313.25 259.093 312.969C258.736 312.688 258.495 312.284 258.416 311.835C257.657 308.712 267.207 302.095 272.21 300.834C273.144 300.608 274.102 300.497 275.063 300.505C277.766 300.637 280.445 301.066 283.055 301.782C285.508 302.422 288.006 302.868 290.528 303.115C296.123 303.5 307.823 300.28 314.033 298.409C314.091 298.392 314.152 298.389 314.211 298.398C314.27 298.408 314.327 298.431 314.377 298.465C321.993 303.789 319.651 313.45 319.627 313.546C319.608 313.63 319.562 313.706 319.495 313.761C319.429 313.816 319.346 313.848 319.26 313.851C319.148 313.851 308.526 314.349 301.062 314.349C299.287 314.349 297.801 314.349 296.658 314.269C291.095 313.906 285.615 312.724 280.394 310.759C277.253 309.643 274.448 310.221 271.787 312.534C270.226 313.904 268.266 314.73 266.2 314.887ZM264.282 313.136H264.402C264.454 313.152 264.503 313.179 264.544 313.215C264.586 313.251 264.619 313.295 264.642 313.345C264.81 313.607 265.051 313.815 265.335 313.942C265.619 314.069 265.933 314.11 266.24 314.06C268.123 313.914 269.907 313.156 271.323 311.9C274.216 309.394 277.309 308.768 280.722 309.972C285.851 311.915 291.237 313.087 296.706 313.45C297.841 313.506 299.303 313.53 301.07 313.53C307.807 313.53 317.118 313.128 318.924 313.048C319.228 311.442 320.347 303.741 314.081 299.22C307.775 301.115 296.186 304.287 290.48 303.902C287.918 303.652 285.379 303.201 282.888 302.553C280.328 301.844 277.699 301.421 275.047 301.292C274.151 301.284 273.257 301.386 272.386 301.597C267.151 302.914 258.632 309.378 259.175 311.627C259.213 311.9 259.355 312.148 259.571 312.319C259.787 312.49 260.06 312.57 260.334 312.542C260.732 312.528 261.125 312.441 261.493 312.285C261.588 312.243 261.697 312.24 261.795 312.276C261.893 312.312 261.974 312.384 262.02 312.478C262.107 312.736 262.271 312.961 262.49 313.122C262.709 313.283 262.972 313.372 263.243 313.377C263.522 313.37 263.795 313.299 264.042 313.168C264.113 313.138 264.19 313.127 264.266 313.136H264.282Z" fill="black"/>
<path d="M363.281 291.094C358.485 278.245 354.385 264.289 350.493 257.969C346.601 251.649 341.926 245.763 333.254 244.888C326.964 244.454 321.322 244.238 321.322 244.238C319.26 249.682 312.651 276.053 316.119 298.176C315.183 298.19 314.273 298.493 313.514 299.043C316.982 301.878 318.94 307.001 318.069 313.867C333.142 315.064 349.087 312.671 354.289 311.362C359.492 310.053 368.052 303.95 363.281 291.094ZM332.695 295.109L333.454 285.954L335.948 294.45L332.695 295.109Z" fill="#70BADB"/>
<path d="M218.967 216.814C218.865 216.813 218.768 216.773 218.694 216.703C218.62 216.634 218.575 216.539 218.567 216.437C218.564 216.384 218.571 216.331 218.588 216.281C218.605 216.231 218.632 216.185 218.667 216.146C218.702 216.106 218.744 216.074 218.792 216.051C218.839 216.028 218.89 216.014 218.943 216.011C219.686 215.963 220.581 215.883 221.564 215.787C224.841 215.473 228.917 215.088 231.355 215.722C231.405 215.735 231.453 215.758 231.495 215.79C231.537 215.822 231.573 215.862 231.6 215.907C231.626 215.953 231.644 216.003 231.651 216.055C231.659 216.108 231.655 216.161 231.642 216.212C231.614 216.314 231.548 216.402 231.457 216.456C231.366 216.51 231.257 216.526 231.155 216.501C228.845 215.899 224.849 216.284 221.636 216.59C220.653 216.678 219.742 216.766 218.991 216.814H218.967Z" fill="black"/>
<path d="M274.785 280.927C274.692 280.927 274.602 280.894 274.53 280.834C274.459 280.773 274.41 280.69 274.393 280.598C273.666 276.952 274.481 272.279 275.6 269.267C275.618 269.217 275.646 269.171 275.682 269.131C275.718 269.092 275.762 269.06 275.81 269.039C275.859 269.017 275.911 269.005 275.965 269.004C276.018 269.004 276.071 269.014 276.12 269.034C276.169 269.052 276.214 269.08 276.253 269.116C276.291 269.151 276.322 269.194 276.344 269.242C276.365 269.29 276.377 269.342 276.378 269.394C276.38 269.447 276.371 269.499 276.352 269.548C275.552 271.716 274.385 276.454 275.177 280.445C275.196 280.549 275.174 280.657 275.116 280.745C275.058 280.834 274.968 280.896 274.865 280.919L274.785 280.927Z" fill="black"/>
<path d="M313.736 299.156C313.63 299.168 313.523 299.138 313.439 299.072C313.355 299.006 313.301 298.909 313.288 298.802C313.275 298.696 313.305 298.589 313.371 298.504C313.437 298.42 313.534 298.365 313.64 298.353C317.148 297.413 339.119 293.085 346.863 292.418C346.969 292.409 347.074 292.442 347.156 292.51C347.238 292.579 347.289 292.677 347.298 292.784C347.308 292.89 347.275 292.996 347.207 293.078C347.139 293.16 347.041 293.212 346.935 293.221C339.222 293.88 317.364 298.2 313.839 299.124C313.808 299.143 313.772 299.154 313.736 299.156Z" fill="black"/>
<path d="M333.996 287.753C333.912 287.754 333.829 287.728 333.76 287.679C333.691 287.63 333.639 287.56 333.612 287.48C332.813 285.014 330.903 277.241 329.976 273.499L329.704 272.415C329.691 272.364 329.688 272.311 329.695 272.258C329.703 272.206 329.72 272.156 329.747 272.11C329.774 272.065 329.809 272.025 329.851 271.993C329.893 271.961 329.941 271.938 329.992 271.925C330.096 271.901 330.205 271.918 330.296 271.974C330.387 272.029 330.453 272.119 330.479 272.222L330.751 273.306C331.67 277.032 333.596 284.79 334.372 287.231C334.404 287.332 334.396 287.442 334.348 287.537C334.3 287.632 334.217 287.704 334.116 287.737C334.077 287.75 334.037 287.755 333.996 287.753Z" fill="black"/>
<path d="M264.266 313.939H264.226C264.122 313.929 264.025 313.878 263.958 313.797C263.891 313.715 263.858 313.611 263.867 313.506C263.995 312.044 269.837 307.146 275.104 305.636C275.156 305.621 275.211 305.617 275.265 305.624C275.319 305.63 275.371 305.647 275.419 305.674C275.466 305.701 275.508 305.737 275.542 305.78C275.576 305.823 275.6 305.872 275.615 305.925C275.63 305.978 275.634 306.033 275.627 306.087C275.621 306.142 275.604 306.194 275.577 306.242C275.55 306.29 275.515 306.332 275.472 306.365C275.429 306.399 275.38 306.424 275.327 306.439C270.029 307.957 264.746 312.662 264.666 313.61C264.647 313.703 264.598 313.786 264.525 313.846C264.452 313.906 264.36 313.939 264.266 313.939Z" fill="black"/>
<path d="M261.661 313.072C261.555 313.072 261.454 313.03 261.379 312.954C261.304 312.879 261.262 312.777 261.262 312.671C261.262 310.575 265.641 306.158 272.499 303.998C272.551 303.983 272.606 303.978 272.66 303.984C272.715 303.99 272.767 304.007 272.815 304.033C272.863 304.06 272.905 304.095 272.939 304.138C272.973 304.181 272.999 304.23 273.014 304.283C273.029 304.336 273.034 304.391 273.028 304.446C273.022 304.5 273.005 304.553 272.979 304.601C272.953 304.649 272.917 304.692 272.875 304.726C272.832 304.76 272.783 304.786 272.73 304.801C265.689 307.009 262.061 311.338 262.061 312.703C262.053 312.804 262.007 312.898 261.933 312.966C261.859 313.035 261.762 313.072 261.661 313.072Z" fill="black"/>
<path d="M289.959 312.349H255.713L241.934 271.909C241.217 270.089 239.993 268.515 238.408 267.375C236.824 266.236 234.945 265.58 232.999 265.485H174.513C170.804 265.485 168.75 268.368 169.957 271.909L184.151 313.57C185.702 317.585 185.886 320.942 189.922 320.942H289.959C291.093 320.942 292.18 320.489 292.982 319.683C293.784 318.878 294.235 317.785 294.235 316.646C294.235 315.506 293.784 314.413 292.982 313.608C292.18 312.802 291.093 312.349 289.959 312.349Z" fill="#06AB58"/>
<path d="M252.696 313.498H184.683C184.577 313.498 184.475 313.455 184.4 313.38C184.325 313.305 184.283 313.203 184.283 313.096C184.285 312.99 184.328 312.889 184.403 312.814C184.477 312.74 184.577 312.697 184.683 312.695H252.696C252.802 312.695 252.903 312.737 252.978 312.812C253.053 312.887 253.095 312.99 253.095 313.096C253.095 313.203 253.053 313.305 252.978 313.38C252.903 313.455 252.802 313.498 252.696 313.498Z" fill="black"/>
<path d="M211.854 299.075C208.897 299.075 205.644 296.128 204.605 292.507C204.005 290.435 204.221 288.492 205.196 287.199C205.55 286.726 206.011 286.345 206.54 286.087C207.07 285.828 207.653 285.7 208.241 285.713C211.198 285.713 214.443 288.66 215.482 292.282C216.082 294.354 215.866 296.297 214.891 297.59C214.539 298.062 214.079 298.444 213.551 298.702C213.023 298.96 212.441 299.088 211.854 299.075ZM208.241 286.516C207.778 286.502 207.318 286.6 206.9 286.803C206.483 287.006 206.12 287.307 205.844 287.681C205.044 288.773 204.853 290.451 205.38 292.282C206.331 295.582 209.232 298.272 211.862 298.272C212.325 298.287 212.785 298.189 213.203 297.986C213.62 297.783 213.983 297.482 214.259 297.108C215.059 296.016 215.25 294.338 214.723 292.507C213.796 289.206 210.887 286.516 208.265 286.516H208.241Z" fill="black"/>
</g>
<defs>
<clipPath id="clip0_2342_15307">
<rect width="454" height="328" fill="white"/>
</clipPath>
</defs>
</svg>
