<svg width="272" height="214" viewBox="0 0 272 214" fill="none" xmlns="http://www.w3.org/2000/svg">
<g clip-path="url(#clip0_3222_42577)">
<path d="M271.998 0L221.112 97.2555L185.056 80.1297L157.621 67.1029L180.505 53.6823L182.41 52.5591L271.998 0Z" fill="#06AB58"/>
<path d="M272 0L139.944 57.373L84.4492 44.7402L272 0Z" fill="#06AB58"/>
<path d="M185.056 80.1297L157.621 114.265V67.103L185.056 80.1297Z" fill="#098948"/>
<path d="M272.002 0L157.625 67.1029V114.265L139.945 57.373L272.002 0Z" fill="#7ED957"/>
<path d="M208.261 136.19L180.783 188.705L161.315 179.456L146.5 172.425L158.858 165.175L159.883 164.57L208.261 136.19Z" fill="#F7F7F7"/>
<path d="M208.262 136.19L136.956 167.166L106.984 160.347L208.262 136.19Z" fill="#F7F7F7"/>
<path d="M161.315 179.457L146.5 197.888V172.425L161.315 179.457Z" fill="#BFACAC"/>
<path d="M208.263 136.19L146.502 172.425V197.888L136.957 167.166L208.263 136.19Z" fill="#EAE5E5"/>
<path d="M112.53 77.803L81.998 136.161L60.3642 125.884L43.9062 118.065L57.6309 110.012L58.7795 109.341L112.53 77.803Z" fill="#F7F7F7"/>
<path d="M112.531 77.803L33.294 112.23L0 104.651L112.531 77.803Z" fill="#F7F7F7"/>
<path d="M60.3642 125.884L43.9062 146.365V118.065L60.3642 125.884Z" fill="#BFACAC"/>
<path d="M112.53 77.803L43.9063 118.065V146.365L33.293 112.23L112.53 77.803Z" fill="#EAE5E5"/>
<path d="M85.8367 170.806L66.6018 207.567L52.9717 201.097L42.6055 196.174L51.2561 191.097L51.9758 190.674L85.8367 170.806Z" fill="#F7F7F7"/>
<path d="M85.8367 170.806L35.9176 192.498L14.9453 187.72L85.8367 170.806Z" fill="#F7F7F7"/>
<path d="M52.9717 201.097L42.6055 214V196.174L52.9717 201.097Z" fill="#BFACAC"/>
<path d="M85.8371 170.806L42.6058 196.174V214L35.918 192.498L85.8371 170.806Z" fill="#EAE5E5"/>
</g>
<defs>
<clipPath id="clip0_3222_42577">
<rect width="272" height="214" fill="white"/>
</clipPath>
</defs>
</svg>
