<svg width="268" height="79" viewBox="0 0 268 79" fill="none" xmlns="http://www.w3.org/2000/svg">
<path d="M86.1659 42.734C87.9737 42.5674 88.61 42.1959 88.61 40.7531V25.6154C88.61 24.1727 87.9737 23.8028 86.1659 23.6362V22.7632C89.0453 22.8631 92.1242 22.8631 95.0036 22.7632V23.6362C93.1959 23.8028 92.5595 24.1727 92.5595 25.6154V40.7531C92.5595 42.1959 93.1959 42.5657 95.0036 42.734V43.607C92.1242 43.5054 89.0453 43.5054 86.1659 43.607V42.734Z" fill="black"/>
<path d="M108.593 22.7629C111.104 22.7629 112.415 22.7296 113.578 22.4597L112.372 27.2912H111.506C111.807 24.7389 111.071 23.9342 109.732 23.9342H106.953V40.6196C106.953 42.1623 107.618 42.5655 109.966 42.7338V43.6068C106.551 43.5051 103.371 43.5051 99.9567 43.6068V42.7338C102.266 42.5672 102.969 42.1623 102.969 40.6196V23.9375H100.761C99.1209 23.9375 98.4846 24.6039 97.2118 27.2946H96.3412L97.5142 22.463C98.6856 22.7329 100.025 22.7663 102.467 22.7663L108.593 22.7629Z" fill="black"/>
<path d="M122.283 33.1008C122.283 26.7898 126.271 22.2249 131.92 22.2249C137.569 22.2249 141.661 26.7565 141.661 33.2007C141.661 39.5117 137.712 44.0767 132.024 44.0767C126.36 44.0767 122.283 39.545 122.283 33.1008ZM137.481 34.3086C137.481 28.0327 134.97 23.3328 131.421 23.3328C128.811 23.3328 126.468 25.8502 126.468 31.9962C126.468 38.2722 128.977 42.9387 132.559 42.9387C135.137 42.9354 137.481 40.418 137.481 34.3086Z" fill="black"/>
<path d="M156.895 38.2357C158.868 41.0896 160.716 42.9006 162.183 43.0356L161.419 43.9752C158.774 44.0085 155.962 43.1705 153.443 39.4103L150.802 35.4834C150.366 35.5167 149.931 35.5167 149.496 35.5167V40.7531C149.496 42.1959 150.066 42.5991 151.873 42.734V43.607C148.994 43.5054 146.048 43.5054 143.17 43.607V42.734C144.978 42.5991 145.546 42.1959 145.546 40.7531V25.7837C145.546 24.3742 144.978 23.8028 143.303 23.6362V22.7632C146.384 22.8965 149.462 22.7632 151.104 22.7632C158.367 22.7632 160.51 25.5155 160.51 28.8376C160.51 31.8248 158.735 34.0739 154.651 35.0136L156.895 38.2357ZM149.496 34.5438C154.417 34.5438 156.627 32.3962 156.627 28.8042C156.627 25.9853 155.22 23.8061 151.573 23.8061C150.802 23.8061 149.964 23.9078 149.496 24.1393V34.5438Z" fill="black"/>
<path d="M163.019 32.9991C163.019 26.7565 166.767 22.2249 172.593 22.2249C174.935 22.2249 176.082 22.9646 178.016 22.9646C178.457 22.9749 178.896 22.9188 179.32 22.798C179.588 24.7106 179.89 26.5566 180.66 28.6374H179.455C178.182 25.4153 175.74 23.3344 172.995 23.3344C169.914 23.3344 167.271 25.9201 167.271 32.1645C167.271 38.2722 169.781 42.8038 174.065 42.8038C176.509 42.8038 178.785 41.361 179.857 37.9723H181.186C180.384 40.9262 178.074 44.0816 173.086 44.0816C167.103 44.0766 163.019 39.545 163.019 32.9991Z" fill="black"/>
<path d="M203.456 23.6362C201.648 23.8028 201.013 24.1727 201.013 25.6154V40.7531C201.013 42.1959 201.648 42.5657 203.456 42.734V43.607C200.578 43.5054 197.497 43.5054 194.62 43.607V42.734C196.427 42.5674 197.062 42.1959 197.062 40.7531V33.7391H189.097V40.7531C189.097 42.1959 189.731 42.5657 191.539 42.734V43.607C188.661 43.5054 185.581 43.5054 182.703 43.607V42.734C184.511 42.5674 185.146 42.1959 185.146 40.7531V25.6154C185.146 24.1727 184.511 23.8028 182.703 23.6362V22.7632C185.581 22.8631 188.661 22.8631 191.539 22.7632V23.6362C189.731 23.8028 189.097 24.1727 189.097 25.6154V32.6978H197.062V25.6154C197.062 24.1727 196.427 23.8028 194.62 23.6362V22.7632C197.497 22.8631 200.578 22.8631 203.456 22.7632V23.6362Z" fill="black"/>
<path d="M223.035 39.6783C223.773 41.6926 224.208 42.5322 226.417 42.7338V43.6068C223.437 43.5385 220.124 43.5385 217.112 43.6068V42.7338C219.32 42.5672 219.756 41.9958 219.119 40.1831L218.049 37.1609H210.718L209.647 40.3164C209.077 42.0624 210.35 42.5656 212.458 42.7338V43.6068C209.981 43.5385 207.236 43.5385 204.793 43.6068V42.7338C207.002 42.5322 207.839 41.8275 208.475 39.9815L214.533 22.5947H216.843L223.035 39.6783ZM211.086 36.1213H217.647L214.266 26.6899L211.086 36.1213Z" fill="black"/>
<path d="M241.48 38.2357C243.454 41.0896 245.302 42.9006 246.769 43.0356L245.998 43.9752C243.355 44.0085 240.542 43.1705 238.033 39.4103L235.387 35.4834C234.952 35.5167 234.517 35.5167 234.081 35.5167V40.7531C234.081 42.1959 234.651 42.5991 236.459 42.734V43.607C233.58 43.5054 230.634 43.5054 227.756 43.607V42.734C229.562 42.5991 230.132 42.1959 230.132 40.7531V25.7837C230.132 24.3742 229.562 23.8028 227.889 23.6362V22.7632C230.969 22.8965 234.048 22.7632 235.688 22.7632C242.952 22.7632 245.094 25.5155 245.094 28.8376C245.094 31.8248 243.321 34.0739 239.237 35.0136L241.48 38.2357ZM234.081 34.5438C239.003 34.5438 241.211 32.3962 241.211 28.8042C241.211 25.9853 239.805 23.8061 236.157 23.8061C235.387 23.8061 234.55 23.9078 234.081 24.1393V34.5438Z" fill="black"/>
<path d="M248.106 42.734C249.78 42.4308 250.482 42.1292 250.482 40.7531V25.7837C250.482 24.3742 249.914 23.8028 248.206 23.6362V22.7632C251.287 22.8965 254.098 22.7632 255.671 22.7632C263.069 22.7632 267.555 25.817 267.555 33.0327C267.555 41.0896 261.864 43.607 257.846 43.607C256.14 43.607 254.567 43.1372 252.323 43.1372C250.951 43.1372 249.746 43.3038 248.106 43.607V42.734ZM263.27 33.5041C263.27 27.6963 261.194 23.8028 256.206 23.8028C255.47 23.8028 254.867 23.9044 254.434 24.106V40.7531C254.434 42.1959 255.806 42.5657 257.11 42.5657C261.798 42.5657 263.271 38.404 263.271 33.5041H263.27Z" fill="black"/>
<path d="M104.644 57.9982C104.36 57.8773 104.115 57.6815 103.933 57.4318C103.761 57.1878 103.669 56.8971 103.667 56.5987H104.473C104.495 56.861 104.613 57.1057 104.805 57.2852C105.044 57.4866 105.352 57.587 105.664 57.565C105.972 57.5828 106.275 57.4861 106.517 57.2935C106.617 57.2087 106.697 57.1021 106.751 56.9818C106.805 56.8615 106.831 56.7305 106.827 56.5987C106.836 56.4016 106.771 56.2083 106.644 56.0573C106.52 55.9163 106.363 55.8077 106.188 55.7407C105.945 55.6498 105.699 55.5719 105.448 55.5075C105.135 55.4305 104.829 55.3303 104.531 55.2076C104.297 55.1049 104.093 54.9424 103.941 54.7361C103.765 54.4847 103.679 54.1814 103.695 53.8748C103.69 53.5765 103.774 53.2836 103.936 53.0334C104.104 52.7836 104.339 52.587 104.614 52.467C104.928 52.3292 105.268 52.261 105.611 52.267C106.087 52.2481 106.556 52.392 106.94 52.6752C107.109 52.8039 107.248 52.967 107.349 53.1537C107.449 53.3404 107.51 53.5464 107.525 53.7581H106.694C106.66 53.5235 106.535 53.312 106.345 53.17C106.112 52.992 105.824 52.9023 105.531 52.9168C105.253 52.9045 104.979 52.9913 104.759 53.1617C104.659 53.2454 104.58 53.351 104.528 53.4704C104.476 53.5898 104.453 53.7197 104.46 53.8498C104.452 54.0385 104.516 54.2231 104.639 54.3662C104.764 54.5017 104.919 54.6047 105.093 54.6661C105.333 54.7582 105.578 54.8377 105.827 54.9044C106.143 54.9864 106.453 55.0905 106.754 55.2159C106.99 55.3217 107.196 55.4849 107.352 55.6908C107.53 55.945 107.618 56.2518 107.602 56.5621C107.602 56.8443 107.524 57.1211 107.377 57.3618C107.216 57.6226 106.986 57.8332 106.713 57.9699C106.391 58.1318 106.034 58.2119 105.674 58.2031C105.32 58.21 104.969 58.1401 104.644 57.9982Z" fill="black"/>
<path d="M111.199 57.9281C110.853 57.7344 110.571 57.4452 110.385 57.0951C110.181 56.7125 110.079 56.284 110.089 55.8505C110.08 55.4183 110.185 54.9914 110.393 54.6127C110.586 54.2638 110.874 53.9776 111.224 53.788C111.586 53.5997 111.987 53.5015 112.395 53.5015C112.803 53.5015 113.205 53.5997 113.566 53.788C113.915 53.978 114.203 54.2627 114.397 54.6093C114.605 54.9894 114.709 55.4174 114.7 55.8505C114.709 56.2858 114.602 56.7156 114.389 57.0951C114.19 57.4462 113.898 57.7347 113.545 57.9281C113.183 58.1247 112.777 58.2251 112.365 58.2197C111.958 58.2266 111.555 58.1261 111.199 57.9281ZM113.121 57.3616C113.364 57.2288 113.565 57.0295 113.699 56.7869C113.843 56.4968 113.917 56.1775 113.917 55.8539C113.917 55.5302 113.843 55.2109 113.699 54.9209C113.57 54.6797 113.374 54.4812 113.134 54.3494C112.901 54.2268 112.641 54.1628 112.377 54.1628C112.113 54.1628 111.853 54.2268 111.619 54.3494C111.383 54.4813 111.19 54.6801 111.066 54.9209C110.92 55.2096 110.849 55.5304 110.858 55.8539C110.848 56.1798 110.918 56.5031 111.063 56.7952C111.183 57.0352 111.372 57.2337 111.606 57.365C111.835 57.4906 112.092 57.5554 112.354 57.5532C112.621 57.5552 112.885 57.4893 113.121 57.3616Z" fill="black"/>
<path d="M121.387 53.5798V58.1448H120.631V57.47C120.486 57.705 120.278 57.8939 120.03 58.0148C119.765 58.1478 119.473 58.2152 119.177 58.2114C118.846 58.2169 118.518 58.1409 118.222 57.9898C117.938 57.8401 117.707 57.6078 117.557 57.3234C117.384 56.9925 117.3 56.6223 117.312 56.2488V53.5798H118.053V56.1539C118.028 56.5305 118.15 56.902 118.393 57.1901C118.514 57.3131 118.659 57.409 118.82 57.4716C118.98 57.5342 119.152 57.5621 119.324 57.5533C119.5 57.5625 119.677 57.5339 119.842 57.4692C120.006 57.4046 120.156 57.3055 120.279 57.1785C120.512 56.9286 120.628 56.5648 120.628 56.0872V53.5798H121.387Z" fill="black"/>
<path d="M125.25 54.2045V56.8952C125.242 56.979 125.25 57.0636 125.274 57.1443C125.298 57.2249 125.338 57.2999 125.392 57.365C125.534 57.4736 125.712 57.5231 125.89 57.5033H126.447V58.1447H125.765C125.346 58.1447 125.03 58.0475 124.818 57.8531C124.609 57.6582 124.503 57.34 124.503 56.8952V54.2045H123.913V53.5797H124.503V52.4302H125.259V53.5797H126.447V54.2045H125.25Z" fill="black"/>
<path d="M132.204 53.7163C132.484 53.8669 132.712 54.0993 132.857 54.3827C133.023 54.7158 133.104 55.0851 133.093 55.4573V58.148H132.342V55.5656C132.37 55.1869 132.251 54.8119 132.01 54.5194C131.889 54.3965 131.743 54.3008 131.583 54.2385C131.423 54.1762 131.251 54.1487 131.079 54.1578C130.903 54.1492 130.728 54.1782 130.564 54.2428C130.4 54.3075 130.252 54.4063 130.129 54.5327C129.893 54.7826 129.775 55.1463 129.775 55.6239V58.148H129.019V51.9836H129.775V54.2328C129.927 53.9978 130.142 53.8102 130.395 53.6913C130.671 53.5604 130.973 53.4949 131.278 53.4997C131.6 53.4946 131.918 53.569 132.204 53.7163Z" fill="black"/>
<path d="M143.295 56.8535H140.769L140.304 58.1447H139.506L141.6 52.3718H142.477L144.563 58.1447H143.765L143.295 56.8535ZM143.079 56.237L142.032 53.3048L140.985 56.237H143.079Z" fill="black"/>
<path d="M147.806 58.0481C147.543 57.9445 147.314 57.7718 147.141 57.5482C146.98 57.3354 146.888 57.0786 146.875 56.8119H147.656C147.666 56.9226 147.7 57.0299 147.755 57.1263C147.811 57.2226 147.886 57.3058 147.977 57.37C148.197 57.5233 148.461 57.5994 148.728 57.5866C148.97 57.5995 149.209 57.5322 149.409 57.395C149.486 57.3405 149.55 57.2681 149.593 57.184C149.636 57.0999 149.659 57.0065 149.658 56.9118C149.662 56.8196 149.639 56.7284 149.591 56.6492C149.544 56.5699 149.475 56.5061 149.393 56.4653C149.131 56.3379 148.855 56.2417 148.57 56.1788C148.287 56.1088 148.009 56.018 147.739 55.9072C147.527 55.8173 147.338 55.6773 147.191 55.499C147.031 55.2978 146.949 55.0448 146.962 54.7876C146.961 54.5571 147.034 54.3324 147.169 54.1462C147.321 53.9414 147.525 53.7814 147.759 53.683C148.035 53.5666 148.332 53.5098 148.632 53.5164C149.071 53.496 149.503 53.6317 149.853 53.8996C150.007 54.0274 150.132 54.1876 150.218 54.369C150.304 54.5503 150.35 54.7484 150.351 54.9492H149.595C149.591 54.8386 149.563 54.7302 149.514 54.6312C149.464 54.5321 149.395 54.4446 149.31 54.3744C149.108 54.221 148.859 54.1442 148.607 54.1578C148.378 54.146 148.151 54.2073 147.959 54.3328C147.883 54.3828 147.822 54.4509 147.78 54.531C147.738 54.6111 147.716 54.7004 147.718 54.7909C147.716 54.8593 147.727 54.9275 147.753 54.9911C147.778 55.0547 147.816 55.1125 147.864 55.1608C147.968 55.2637 148.093 55.3432 148.23 55.3941C148.429 55.4702 148.633 55.5358 148.839 55.5906C149.11 55.6609 149.377 55.7482 149.637 55.8522C149.841 55.9381 150.022 56.0711 150.165 56.2404C150.318 56.4311 150.399 56.6703 150.393 56.9151C150.396 57.1564 150.323 57.3924 150.185 57.5899C150.041 57.7902 149.847 57.9484 149.622 58.0481C149.348 58.1654 149.051 58.2222 148.753 58.2147C148.429 58.2252 148.107 58.1685 147.806 58.0481Z" fill="black"/>
<path d="M153.156 52.6885C153.083 52.6162 153.034 52.524 153.014 52.4234C152.994 52.3229 153.004 52.2186 153.043 52.1239C153.082 52.0292 153.149 51.9484 153.234 51.8917C153.319 51.8349 153.419 51.8049 153.522 51.8055C153.588 51.8046 153.653 51.8174 153.714 51.8433C153.775 51.8691 153.83 51.9072 153.875 51.9554C153.968 52.0548 154.02 52.1858 154.02 52.3219C154.02 52.458 153.968 52.5891 153.875 52.6885C153.83 52.7366 153.775 52.7748 153.714 52.8006C153.653 52.8264 153.588 52.8393 153.522 52.8384C153.454 52.8397 153.386 52.8271 153.323 52.8013C153.26 52.7755 153.204 52.7371 153.156 52.6885ZM153.887 53.5798V58.1447H153.131V53.5798H153.887Z" fill="black"/>
<path d="M156.836 54.616C157.014 54.2752 157.283 53.9912 157.614 53.7963C157.947 53.6005 158.328 53.4997 158.714 53.5047C159.077 53.496 159.436 53.5852 159.752 53.763C160.026 53.9151 160.253 54.1399 160.409 54.4127V53.5797H161.173V58.1447H160.409V57.295C160.251 57.5728 160.021 57.8029 159.744 57.9614C159.429 58.1413 159.071 58.2323 158.709 58.2246C158.322 58.2299 157.941 58.1256 157.611 57.9237C157.28 57.7218 157.013 57.4306 156.84 57.0834C156.647 56.7016 156.55 56.2784 156.557 55.8505C156.546 55.4221 156.642 54.9978 156.836 54.616ZM160.201 54.9492C160.073 54.7046 159.879 54.5009 159.641 54.3611C159.404 54.2289 159.137 54.1595 158.866 54.1595C158.595 54.1595 158.328 54.2289 158.091 54.3611C157.854 54.4987 157.661 54.7009 157.534 54.9442C157.391 55.2218 157.319 55.5312 157.327 55.8439C157.319 56.1602 157.39 56.4735 157.534 56.7552C157.661 57.0024 157.856 57.2081 158.096 57.3483C158.33 57.4856 158.597 57.5565 158.868 57.5532C159.141 57.5558 159.41 57.485 159.646 57.3483C159.885 57.2085 160.079 57.0033 160.206 56.7568C160.349 56.4779 160.421 56.1675 160.414 55.8538C160.419 55.5408 160.346 55.2313 160.201 54.9542V54.9492Z" fill="black"/>
<path d="M171.554 52.3386V52.9551H169.976V58.1448H169.228V52.9551H167.641V52.3386H171.554Z" fill="black"/>
<path d="M178.278 56.1455H174.64C174.64 56.3378 174.679 56.5279 174.754 56.7048C174.83 56.8816 174.939 57.0416 175.077 57.1752C175.215 57.3088 175.378 57.4133 175.557 57.4825C175.736 57.5517 175.927 57.5843 176.118 57.5783C176.409 57.5889 176.695 57.5085 176.938 57.3484C177.153 57.2 177.315 56.9854 177.398 56.737H178.212C178.096 57.1664 177.839 57.5436 177.481 57.8066C177.085 58.0914 176.606 58.2367 176.118 58.2197C175.712 58.2274 175.311 58.1268 174.955 57.9282C174.615 57.7324 174.337 57.4435 174.155 57.0952C173.954 56.7116 173.854 56.2834 173.864 55.8506C173.854 55.4199 173.952 54.9935 174.146 54.6094C174.326 54.2639 174.602 53.9784 174.94 53.7881C175.3 53.5916 175.705 53.4928 176.115 53.5015C176.516 53.493 176.911 53.5907 177.262 53.7847C177.586 53.9655 177.853 54.2354 178.029 54.5628C178.213 54.9073 178.307 55.2932 178.3 55.684C178.301 55.8381 178.294 55.9922 178.278 56.1455ZM177.331 54.7827C177.207 54.578 177.027 54.4133 176.813 54.3079C176.587 54.1965 176.337 54.1394 176.085 54.1413C175.725 54.1325 175.376 54.2639 175.11 54.5078C174.831 54.7743 174.666 55.1383 174.648 55.5241H177.522C177.529 55.2639 177.463 55.0072 177.331 54.7827Z" fill="black"/>
<path d="M180.962 54.616C181.141 54.2741 181.413 53.9899 181.746 53.7963C182.14 53.5866 182.583 53.4868 183.029 53.5073C183.475 53.5278 183.907 53.6679 184.28 53.913C184.648 54.1915 184.903 54.5937 184.999 55.0459H184.182C184.114 54.7771 183.953 54.541 183.728 54.3795C183.484 54.2124 183.193 54.1278 182.898 54.1379C182.701 54.1306 182.506 54.1667 182.325 54.2436C182.144 54.3204 181.982 54.4362 181.851 54.5827C181.585 54.8809 181.452 55.3008 181.452 55.8456C181.452 56.3904 181.585 56.8202 181.851 57.1201C181.981 57.2682 182.143 57.3853 182.324 57.4631C182.505 57.5409 182.701 57.5774 182.898 57.5699C183.192 57.5806 183.482 57.4991 183.728 57.3367C183.954 57.1752 184.116 56.9393 184.185 56.6703H184.999C184.891 57.1166 184.633 57.5119 184.268 57.7898C183.872 58.0811 183.389 58.2296 182.898 58.2114C182.495 58.2191 182.097 58.1184 181.746 57.9198C181.412 57.7252 181.14 57.4391 180.962 57.0951C180.766 56.7083 180.669 56.2791 180.679 55.8456C180.671 55.4187 180.768 54.9964 180.962 54.616Z" fill="black"/>
<path d="M190.856 53.7163C191.136 53.867 191.363 54.0995 191.508 54.3827C191.675 54.7156 191.756 55.0849 191.745 55.4573V58.148H190.994V55.5656C191.023 55.1869 190.904 54.8119 190.662 54.5194C190.541 54.3965 190.396 54.3008 190.235 54.2385C190.075 54.1762 189.903 54.1487 189.731 54.1578C189.555 54.1494 189.379 54.1785 189.215 54.2431C189.051 54.3077 188.903 54.4064 188.779 54.5327C188.545 54.7826 188.427 55.1463 188.427 55.6239V58.148H187.671V51.9836H188.427V54.2328C188.579 53.998 188.793 53.8105 189.045 53.6913C189.322 53.5602 189.625 53.4946 189.931 53.4997C190.252 53.4948 190.57 53.5692 190.856 53.7163Z" fill="black"/>
<path d="M198.624 53.7163C198.869 53.2741 199.229 52.9072 199.666 52.655C200.112 52.3975 200.619 52.2651 201.133 52.2719C201.72 52.2578 202.298 52.4171 202.795 52.73C203.269 53.04 203.631 53.496 203.825 54.0295H202.919C202.773 53.6967 202.531 53.4153 202.225 53.2215C201.898 53.026 201.522 52.9277 201.141 52.9383C200.76 52.9326 200.384 53.0304 200.053 53.2215C199.73 53.4115 199.468 53.6901 199.297 54.0245C199.107 54.4029 199.013 54.8223 199.023 55.2457C199.013 55.6659 199.108 56.082 199.297 56.4569C199.467 56.7922 199.729 57.0714 200.053 57.2616C200.384 57.4527 200.76 57.5506 201.141 57.5449C201.522 57.5557 201.897 57.4587 202.225 57.265C202.532 57.0739 202.774 56.7939 202.919 56.4619H203.825C203.629 56.9912 203.268 57.4426 202.795 57.7481C202.297 58.0598 201.719 58.218 201.133 58.203C200.619 58.2092 200.113 58.0781 199.666 57.8231C199.229 57.5746 198.868 57.2103 198.624 56.7702C198.373 56.3005 198.242 55.776 198.242 55.2432C198.242 54.7105 198.373 54.1859 198.624 53.7163Z" fill="black"/>
<path d="M207.425 57.9281C207.081 57.7334 206.798 57.4445 206.611 57.0951C206.409 56.7121 206.308 56.2837 206.317 55.8505C206.309 55.4186 206.413 54.9919 206.619 54.6127C206.813 54.2643 207.101 53.9783 207.45 53.788C207.812 53.5997 208.214 53.5015 208.622 53.5015C209.029 53.5015 209.431 53.5997 209.793 53.788C210.142 53.9773 210.43 54.2622 210.624 54.6093C210.832 54.9889 210.937 55.4172 210.928 55.8505C210.937 56.286 210.829 56.7158 210.615 57.0951C210.417 57.446 210.126 57.7345 209.773 57.9281C209.411 58.1245 209.005 58.2249 208.593 58.2197C208.185 58.2269 207.782 58.1264 207.425 57.9281ZM209.349 57.3616C209.592 57.2287 209.792 57.0294 209.926 56.7869C210.081 56.501 210.157 56.179 210.147 55.8539C210.156 55.5294 210.082 55.208 209.931 54.9209C209.801 54.6801 209.605 54.4817 209.366 54.3494C209.132 54.2268 208.872 54.1628 208.607 54.1628C208.343 54.1628 208.083 54.2268 207.849 54.3494C207.613 54.4814 207.421 54.6802 207.297 54.9209C207.151 55.2093 207.079 55.5303 207.09 55.8539C207.08 56.1795 207.149 56.5027 207.292 56.7952C207.414 57.035 207.603 57.2333 207.837 57.365C208.066 57.491 208.324 57.5558 208.585 57.5532C208.852 57.5545 209.115 57.4886 209.349 57.3616Z" fill="black"/>
<path d="M220 53.7164C220.283 53.867 220.514 54.0991 220.664 54.3829C220.833 54.7152 220.916 55.0847 220.905 55.4575V58.1481H220.158V55.5658C220.184 55.1872 220.066 54.8127 219.825 54.5195C219.708 54.3976 219.567 54.3022 219.41 54.2398C219.253 54.1775 219.085 54.1496 218.916 54.1579C218.742 54.1498 218.568 54.1794 218.406 54.2447C218.244 54.3099 218.098 54.4093 217.978 54.5361C217.745 54.7894 217.629 55.1548 217.629 55.6324V58.1481H216.881V55.5658C216.908 55.1872 216.789 54.8127 216.549 54.5195C216.432 54.3976 216.29 54.3022 216.133 54.2398C215.977 54.1775 215.808 54.1496 215.64 54.1579C215.466 54.1498 215.291 54.1794 215.129 54.2447C214.968 54.3099 214.821 54.4093 214.701 54.5361C214.469 54.7894 214.352 55.1548 214.352 55.6324V58.1481H213.596V53.5832H214.352V54.2412C214.499 54.0061 214.707 53.8159 214.954 53.6915C215.212 53.5628 215.496 53.4972 215.784 53.4999C216.139 53.4932 216.489 53.5824 216.798 53.7581C217.096 53.9312 217.33 54.1974 217.463 54.5161C217.583 54.2023 217.806 53.9383 218.094 53.7664C218.39 53.5876 218.729 53.4953 219.074 53.4999C219.396 53.4962 219.713 53.5705 220 53.7164Z" fill="black"/>
<path d="M225.222 53.7665C225.537 53.5871 225.895 53.4967 226.257 53.5049C226.643 53.4999 227.024 53.6007 227.357 53.7965C227.687 53.9918 227.957 54.2757 228.135 54.6162C228.329 54.9962 228.426 55.4187 228.417 55.8457C228.424 56.2736 228.327 56.6967 228.135 57.0786C227.96 57.4259 227.691 57.717 227.359 57.9188C227.027 58.1205 226.645 58.2248 226.257 58.2198C225.897 58.2265 225.543 58.1356 225.23 57.9566C224.953 57.8003 224.72 57.5755 224.554 57.3035V60.3107H223.798V53.5799H224.557V54.4212C224.718 54.1484 224.947 53.9226 225.222 53.7665ZM227.437 54.946C227.309 54.7021 227.114 54.4998 226.875 54.3629C226.639 54.2291 226.371 54.1601 226.099 54.163C225.829 54.1613 225.564 54.2315 225.33 54.3662C225.091 54.507 224.895 54.7118 224.765 54.9577C224.626 55.2372 224.554 55.5451 224.554 55.8574C224.554 56.1696 224.626 56.4775 224.765 56.757C224.895 57.0029 225.091 57.2077 225.33 57.3485C225.565 57.4828 225.832 57.5535 226.103 57.5535C226.374 57.5535 226.64 57.4828 226.875 57.3485C227.115 57.2088 227.309 57.0036 227.437 56.757C227.581 56.4753 227.652 56.1621 227.645 55.8457C227.651 55.5329 227.579 55.2235 227.435 54.946H227.437Z" fill="black"/>
<path d="M231.074 54.616C231.251 54.2756 231.52 53.9917 231.85 53.7963C232.184 53.6005 232.565 53.4997 232.951 53.5047C233.314 53.496 233.673 53.5852 233.99 53.763C234.267 53.9144 234.497 54.1391 234.655 54.4127V53.5797H235.419V58.1447H234.655V57.295C234.497 57.573 234.267 57.8033 233.99 57.9614C233.676 58.1416 233.318 58.2326 232.956 58.2246C232.57 58.2298 232.19 58.1259 231.86 57.9247C231.529 57.7217 231.262 57.4303 231.087 57.0834C230.894 56.7018 230.797 56.2785 230.805 55.8505C230.79 55.4229 230.883 54.9984 231.074 54.616ZM234.439 54.9492C234.31 54.7045 234.115 54.5009 233.877 54.3611C233.64 54.2289 233.374 54.1595 233.103 54.1595C232.832 54.1595 232.565 54.2289 232.328 54.3611C232.092 54.4987 231.899 54.7009 231.772 54.9442C231.627 55.2214 231.556 55.5311 231.564 55.8439C231.556 56.1603 231.627 56.4737 231.772 56.7552C231.898 57.0011 232.091 57.2062 232.328 57.3466C232.563 57.484 232.83 57.5548 233.101 57.5515C233.373 57.5543 233.641 57.4835 233.877 57.3466C234.116 57.2069 234.311 57.0018 234.439 56.7552C234.582 56.4762 234.653 56.1658 234.646 55.8522C234.653 55.5401 234.582 55.2313 234.439 54.9542V54.9492Z" fill="black"/>
<path d="M241.916 53.9995C242.258 54.3327 242.431 54.8209 242.431 55.454V58.1446H241.683V55.5623C241.711 55.1836 241.591 54.8089 241.351 54.516C241.23 54.3933 241.084 54.2977 240.924 54.2354C240.764 54.1731 240.592 54.1455 240.42 54.1545C240.244 54.1461 240.068 54.1751 239.904 54.2397C239.74 54.3043 239.591 54.403 239.468 54.5293C239.232 54.7792 239.116 55.1424 239.116 55.6206V58.1446H238.348V53.5797H239.104V54.2294C239.254 53.9958 239.465 53.8084 239.714 53.688C239.979 53.5582 240.271 53.4926 240.566 53.4964C240.813 53.4856 241.06 53.5246 241.292 53.611C241.524 53.6975 241.736 53.8296 241.916 53.9995Z" fill="black"/>
<path d="M249.251 53.5798L246.51 60.294H245.729L246.626 58.0948L244.798 53.5798H245.629L247.058 57.2784L248.47 53.5798H249.251Z" fill="black"/>
<path d="M6.74915 25.1387H25.611L32.0046 34.3469L25.611 53.6763L6.74915 25.1387Z" fill="#C9E265"/>
<path d="M73.1062 53.603H54.2461L48.0934 44.5198L54.2461 25.0654L73.1062 53.603Z" fill="#008037"/>
<path d="M45.1475 53.6763H25.6111L35.0503 25.1387H54.3425L45.1475 53.6763Z" fill="#7ED957"/>
<path d="M12.5214 40.9461L27.4354 15.564L27.4669 15.6306L39.5347 41.0211H39.4766L12.5214 40.9461ZM27.4287 15.7306L12.6626 40.8611L39.4134 40.9494L27.4287 15.7306Z" fill="#09C75B"/>
<path fill-rule="evenodd" clip-rule="evenodd" d="M27.4461 15.3213C27.5358 15.3253 27.6159 15.3786 27.6544 15.4599L27.6859 15.5262L27.686 15.5265L39.7537 40.9167C39.7895 40.992 39.7842 41.0804 39.7398 41.151C39.6954 41.2215 39.6179 41.2643 39.5347 41.2643H39.4759L12.5207 41.1893C12.4338 41.1891 12.3536 41.1423 12.3106 41.0666C12.2676 40.9909 12.2683 40.898 12.3124 40.8229L27.2264 15.4408C27.2719 15.3633 27.3565 15.3173 27.4461 15.3213ZM27.406 16.2483L13.086 40.6196L39.0286 40.7052L27.406 16.2483Z" fill="#09C75B"/>
<path d="M39.4617 41.0628L39.4318 41.0028L27.3673 15.6057H27.4371L53.3139 18.4996L53.2774 18.5529L39.4617 41.0628ZM27.4986 15.699L39.4799 40.9079L53.176 18.5629L27.4986 15.699Z" fill="#09C75B"/>
<path fill-rule="evenodd" clip-rule="evenodd" d="M27.1622 15.4758C27.2067 15.4053 27.2841 15.3625 27.3673 15.3625H27.4371C27.4461 15.3625 27.455 15.363 27.464 15.364L53.3408 18.258C53.4255 18.2674 53.4991 18.3208 53.5345 18.3985C53.5699 18.4762 53.5621 18.5668 53.5138 18.6372L53.4807 18.6855L39.6682 41.1901C39.6221 41.2653 39.5389 41.3095 39.451 41.3056C39.363 41.3017 39.2841 41.2503 39.2447 41.1714L39.2148 41.1114L39.2128 41.1072L27.1483 15.7101C27.1125 15.6348 27.1178 15.5464 27.1622 15.4758ZM52.7693 18.7621L27.905 15.9888L39.5069 40.3994L52.7693 18.7621Z" fill="#09C75B"/>
<path d="M53.3057 18.5846H53.2409L27.3208 15.6874L27.4089 15.6274L46.9968 1.19946L47.0151 1.24445L53.3057 18.5846ZM27.5418 15.624L53.1844 18.4913L46.9602 1.31775L27.5418 15.624Z" fill="#09C75B"/>
<path fill-rule="evenodd" clip-rule="evenodd" d="M47.0627 0.965446C47.1346 0.985809 47.1932 1.0383 47.2214 1.10771L47.2397 1.1527C47.2408 1.15554 47.2419 1.15841 47.243 1.1613L53.5336 18.5015C53.5606 18.576 53.5497 18.659 53.5043 18.724C53.4589 18.7889 53.3848 18.8276 53.3057 18.8276H53.2409C53.2319 18.8276 53.2229 18.8271 53.214 18.8261L27.2939 15.9288C27.193 15.9176 27.1098 15.8445 27.0854 15.7457C27.061 15.647 27.1005 15.5434 27.1845 15.4862L27.2688 15.4288L46.8532 1.00351C46.9134 0.959127 46.9907 0.945083 47.0627 0.965446ZM28.1855 15.4514L52.823 18.2062L46.8429 1.70582L28.1855 15.4514Z" fill="#09C75B"/>
<path d="M27.4171 15.709L27.3972 15.669L21.8726 4.53322H21.9307L47.1214 1.20947L27.4171 15.709ZM21.9939 4.6032L27.447 15.5991L46.8372 1.31277L21.9939 4.6032Z" fill="#09C75B"/>
<path fill-rule="evenodd" clip-rule="evenodd" d="M47.3464 1.11876C47.3877 1.22173 47.3541 1.33966 47.2649 1.40533L27.5606 15.9049C27.503 15.9473 27.4297 15.9621 27.3602 15.9452C27.2907 15.9284 27.2321 15.8817 27.2002 15.8176L27.1802 15.7776L21.6554 4.64137C21.618 4.56602 21.6221 4.47666 21.6664 4.40513C21.7106 4.33359 21.7886 4.29007 21.8725 4.29007H21.9148L47.0897 0.968401C47.1995 0.953916 47.3051 1.01579 47.3464 1.11876ZM45.9323 1.67774L22.3621 4.79954L27.5358 15.2319L45.9323 1.67774Z" fill="#09C75B"/>
<path d="M21.9358 4.6083L21.9258 4.53L38.8735 0.654785L47.2892 1.27289L21.9358 4.6083ZM38.8652 0.736421L22.6004 4.48002L46.6695 1.29288L38.8652 0.736421Z" fill="#09C75B"/>
<path fill-rule="evenodd" clip-rule="evenodd" d="M38.8196 0.417711C38.8431 0.41234 38.8672 0.410506 38.8912 0.412271L47.3069 1.03037C47.431 1.03948 47.5281 1.1412 47.5317 1.26583C47.5352 1.39046 47.4441 1.49758 47.3208 1.51381L21.9673 4.84922C21.9034 4.85763 21.8388 4.84019 21.7877 4.80073C21.7366 4.76128 21.7033 4.70308 21.6952 4.63898L21.6852 4.56067C21.6694 4.43659 21.7501 4.32075 21.8718 4.29292L38.8196 0.417711ZM38.8842 0.981376L27.6602 3.56473L44.2697 1.36537L38.8842 0.981376Z" fill="#09C75B"/>
<path d="M65.9483 19.396L53.2126 18.5629L53.2042 18.5396L46.8904 1.1145L65.9483 19.396ZM53.2674 18.4946L65.7289 19.3027L47.0748 1.40273L53.2674 18.4946Z" fill="#09C75B"/>
<path fill-rule="evenodd" clip-rule="evenodd" d="M46.7579 0.910804C46.8523 0.849112 46.9767 0.860716 47.0581 0.938813L66.116 19.2203C66.1896 19.2909 66.2113 19.4002 66.1703 19.4937C66.1292 19.5873 66.0342 19.6451 65.9325 19.6384L53.1968 18.8054C53.1002 18.7991 53.0167 18.7359 52.9841 18.6446L52.9763 18.6225L52.9758 18.6213L46.6624 1.19739C46.624 1.09123 46.6635 0.972496 46.7579 0.910804ZM47.6573 2.29807L53.4412 18.2622L65.0806 19.017L47.6573 2.29807Z" fill="#09C75B"/>
<path d="M65.9267 19.521L46.7924 1.14624L60.0066 6.71415V6.72748L65.9267 19.521ZM47.1645 1.37116L65.6575 19.1795L59.9518 6.77746L47.1645 1.37116Z" fill="#09C75B"/>
<path fill-rule="evenodd" clip-rule="evenodd" d="M46.5896 1.01276C46.6538 0.914807 46.7786 0.876684 46.8863 0.9221L60.1006 6.49001C60.174 6.52096 60.2265 6.58546 60.2433 6.66132L66.1467 19.4187C66.1958 19.5247 66.1626 19.6507 66.0677 19.7187C65.9728 19.7867 65.8431 19.7773 65.7589 19.6965L46.6245 1.32169C46.5401 1.24062 46.5254 1.11072 46.5896 1.01276ZM64.8995 18.1124L59.7709 6.96474L48.2769 2.10523L64.8995 18.1124Z" fill="#09C75B"/>
<path d="M65.8186 19.396L59.8221 6.53418L70.9362 17.2452L65.8186 19.396ZM60.1345 6.95735L65.8552 19.3011L70.795 17.2152L60.1345 6.95735Z" fill="#09C75B"/>
<path fill-rule="evenodd" clip-rule="evenodd" d="M59.681 6.33641C59.776 6.26827 59.906 6.27771 59.9903 6.35888L71.1043 17.0699C71.1632 17.1266 71.1896 17.2092 71.1746 17.2896C71.1597 17.3701 71.1053 17.4376 71.03 17.4692L65.9124 19.6201C65.7924 19.6705 65.654 19.617 65.5989 19.4988L59.6024 6.637C59.553 6.53091 59.586 6.40455 59.681 6.33641ZM60.899 8.02989L65.9766 18.9859L70.3611 17.1345L60.899 8.02989Z" fill="#09C75B"/>
<path d="M74.1546 22.8563L65.7406 19.3443L70.8814 17.1785L74.1546 22.8563ZM65.9333 19.3576L73.9403 22.6581L70.8482 17.2784L65.9333 19.3576Z" fill="#09C75B"/>
<path fill-rule="evenodd" clip-rule="evenodd" d="M70.7874 16.9543C70.9 16.9069 71.0303 16.9508 71.0914 17.0568L74.3646 22.7347C74.4167 22.8249 74.4055 22.9384 74.3368 23.0167C74.2682 23.095 74.1574 23.1208 74.0614 23.0807L65.6473 19.5687C65.5571 19.531 65.4982 19.4427 65.498 19.3447C65.4979 19.2467 65.5565 19.1582 65.6466 19.1202L70.7874 16.9543ZM66.5639 19.3547L73.3755 22.1624L70.745 17.5859L66.5639 19.3547Z" fill="#09C75B"/>
<path d="M67.761 41.3876H67.6845L39.4034 41.0194L39.4417 40.9627L53.2474 18.4712L53.279 18.5228L67.761 41.3876ZM39.5447 40.9511L67.6148 41.3043L53.2524 18.6095L39.5447 40.9511Z" fill="#09C75B"/>
<path fill-rule="evenodd" clip-rule="evenodd" d="M53.2477 18.228C53.3321 18.2281 53.4103 18.2721 53.4543 18.3441L53.4849 18.3941L67.9658 41.2572C68.0133 41.3321 68.0162 41.4269 67.9736 41.5046C67.931 41.5823 67.8496 41.6306 67.7611 41.6306H67.6815L39.4004 41.2624C39.3112 41.2612 39.2299 41.2111 39.1886 41.1319C39.1473 41.0527 39.1527 40.9572 39.2026 40.8831L39.2379 40.8308L53.0409 18.3437C53.0851 18.2718 53.1634 18.2279 53.2477 18.228ZM39.9753 40.7133L67.1703 41.0555L53.2557 19.0682L39.9753 40.7133Z" fill="#09C75B"/>
<path d="M51.164 66.3249L51.1357 66.2616L39.4119 40.9377L67.7578 41.3176L67.7212 41.3726L51.164 66.3249ZM39.5332 41.0294L51.1756 66.1649L67.6182 41.3876L39.5332 41.0294Z" fill="#09C75B"/>
<path fill-rule="evenodd" clip-rule="evenodd" d="M39.2083 40.8057C39.2536 40.7356 39.3317 40.6937 39.4151 40.6948L67.761 41.0747C67.8498 41.0759 67.9309 41.1257 67.9723 41.2045C68.0137 41.2833 68.0089 41.3784 67.9596 41.4525L67.9232 41.5073L67.923 41.5075L51.3659 66.4596C51.3169 66.5334 51.2318 66.5746 51.1438 66.5673C51.0557 66.5599 50.9786 66.5051 50.9425 66.4243L50.9157 66.364L50.9143 66.3609L39.1918 41.0402C39.1567 40.9644 39.163 40.8759 39.2083 40.8057ZM51.2133 65.6693L67.1694 41.6251L39.9154 41.2775L51.2133 65.6693Z" fill="#09C75B"/>
<path d="M26.7159 62.713L26.6794 62.658L12.5214 40.8662H12.5895L39.5414 40.9728L39.5081 41.0345L26.7159 62.713ZM12.6609 40.9395L26.7093 62.5614L39.4068 41.0545L12.6609 40.9395Z" fill="#09C75B"/>
<path fill-rule="evenodd" clip-rule="evenodd" d="M12.3081 40.7503C12.3505 40.6719 12.4324 40.623 12.5213 40.623H12.5904L39.5423 40.7297C39.6276 40.73 39.7064 40.7752 39.7499 40.8487C39.7934 40.9221 39.7953 41.0131 39.7547 41.0883L39.7215 41.1499C39.72 41.1527 39.7185 41.1554 39.7169 41.1581L26.9247 62.8367C26.8822 62.9086 26.8058 62.9537 26.7224 62.9559C26.639 62.9582 26.5603 62.9173 26.5141 62.8477L26.4761 62.7906L12.3181 40.9988C12.2695 40.924 12.2657 40.8287 12.3081 40.7503ZM13.1095 41.1844L26.6994 62.1007L38.9825 41.2956L13.1095 41.1844Z" fill="#09C75B"/>
<path d="M9.73328 64.4323V64.3873L12.5579 40.7878L12.6194 40.8828L26.7774 62.673H26.7093L9.73328 64.4323ZM12.621 41.0194L9.81968 64.344L26.6428 62.598L12.621 41.0194Z" fill="#09C75B"/>
<path fill-rule="evenodd" clip-rule="evenodd" d="M12.5032 40.5512C12.6026 40.5281 12.7059 40.5699 12.7615 40.6557L26.9807 62.5405C27.0293 62.6152 27.0331 62.7106 26.9907 62.789C26.9483 62.8674 26.8665 62.9162 26.7775 62.9162H26.7219L9.75832 64.6743C9.69002 64.6813 9.62193 64.6591 9.57094 64.613C9.51995 64.5669 9.49084 64.5013 9.49084 64.4325V64.3875C9.49084 64.3778 9.49142 64.3681 9.49257 64.3585L12.3172 40.7591C12.3294 40.6575 12.4037 40.5744 12.5032 40.5512ZM26.223 62.3974L12.7822 41.7128L10.0969 64.071L26.223 62.3974Z" fill="#09C75B"/>
<path d="M32.3618 77.5242L9.64856 64.3625H9.77318L26.7392 62.6082L26.7492 62.6331L32.3618 77.5242ZM9.90444 64.4241L32.2007 77.336L26.6877 62.6748L9.90444 64.4241Z" fill="#09C75B"/>
<path fill-rule="evenodd" clip-rule="evenodd" d="M26.7143 62.3663C26.8221 62.3551 26.9241 62.417 26.9644 62.5178L26.9743 62.5428L26.976 62.5472L32.5887 77.4382C32.625 77.5344 32.597 77.6429 32.5188 77.7094C32.4406 77.7759 32.3292 77.786 32.2404 77.7346L9.52716 64.5729C9.43216 64.5178 9.38587 64.4057 9.41431 64.2994C9.44275 64.1932 9.53882 64.1193 9.64856 64.1193H9.7607L26.7143 62.3663ZM10.6729 64.5883L31.7344 76.7851L26.5267 62.9359L10.6729 64.5883Z" fill="#09C75B"/>
<path d="M32.5796 77.5641L20.3888 73.0425L9.49744 64.1775L32.5796 77.5641ZM20.4354 72.9742L31.9847 77.2959L10.0524 64.6057L20.4354 72.9742Z" fill="#09C75B"/>
<path fill-rule="evenodd" clip-rule="evenodd" d="M9.29771 64.0395C9.36952 63.9351 9.50937 63.9035 9.6189 63.967L32.701 77.3537C32.8101 77.4169 32.8526 77.5533 32.7991 77.6675C32.7455 77.7817 32.6135 77.8358 32.4954 77.792L20.3047 73.2704C20.2798 73.2612 20.2565 73.2479 20.2359 73.2311L9.34453 64.3661C9.2463 64.2862 9.22591 64.1439 9.29771 64.0395ZM12.6586 66.3943L20.5569 72.7601L29.3423 76.0476L12.6586 66.3943Z" fill="#09C75B"/>
<path d="M9.93604 64.6507L5.31529 58.2531L0.415405 40.9163L0.488513 40.8879L9.93604 64.6507ZM5.38674 58.2148L9.61703 64.1259L0.721129 41.6027L5.38674 58.2148Z" fill="#09C75B"/>
<path fill-rule="evenodd" clip-rule="evenodd" d="M0.401087 40.6612C0.525115 40.6131 0.664622 40.6741 0.713844 40.7979L10.1614 64.5607C10.2067 64.6746 10.1602 64.8045 10.053 64.8636C9.94573 64.9228 9.81136 64.8925 9.7396 64.7932L5.11885 58.3956C5.10219 58.3725 5.08971 58.3467 5.08196 58.3193L0.182077 40.9825C0.147946 40.8617 0.211168 40.7348 0.327979 40.6895L0.401087 40.6612ZM2.23527 46.0966L5.60868 58.1078L8.66733 62.3817L2.23527 46.0966Z" fill="#09C75B"/>
<path d="M38.8651 78.1172L31.9348 77.4208L55.1814 74.6018L55.1914 74.6801L38.8651 78.1172ZM32.636 77.4407L38.8634 78.0405L54.2493 74.7534L32.636 77.4407Z" fill="#09C75B"/>
<path fill-rule="evenodd" clip-rule="evenodd" d="M55.1524 74.3604C55.2848 74.3444 55.4053 74.4384 55.4221 74.571L55.4321 74.6493C55.4481 74.775 55.3651 74.8919 55.2414 74.9179L38.9151 78.355C38.8907 78.3601 38.8658 78.3614 38.841 78.359L31.9107 77.6626C31.7877 77.6502 31.6937 77.5471 31.6924 77.4232C31.6911 77.2993 31.7831 77.1943 31.9058 77.1794L55.1524 74.3604ZM34.8529 77.41L38.8495 77.7949L48.7238 75.6853L34.8529 77.41Z" fill="#09C75B"/>
<path d="M32.2622 77.4857L26.6511 62.5896L26.7176 62.5996L51.2901 66.2232L51.1904 66.2799L32.2622 77.4857ZM26.7791 62.6862L32.3004 77.374L51.0542 66.2665L26.7791 62.6862Z" fill="#09C75B"/>
<path fill-rule="evenodd" clip-rule="evenodd" d="M26.4624 62.437C26.5165 62.3699 26.602 62.3366 26.6871 62.3494L26.7536 62.3594L51.3254 65.9829C51.4279 65.998 51.5095 66.0767 51.5285 66.1787C51.5476 66.2808 51.4998 66.3837 51.4097 66.4349L51.3119 66.4904L32.3855 77.6951C32.3238 77.7316 32.2492 77.739 32.1817 77.7151C32.1141 77.6913 32.0605 77.6388 32.0352 77.5717L26.4242 62.6756C26.3938 62.5949 26.4084 62.5041 26.4624 62.437ZM50.3404 66.4071L27.1512 62.987L32.4255 77.0177L50.3404 66.4071Z" fill="#09C75B"/>
<path d="M32.1094 77.4841L32.2622 77.3958L51.1872 66.1917L51.2055 66.2266L55.2463 74.6735H55.1865L32.1094 77.4841ZM51.1556 66.2999L32.455 77.3741L55.1151 74.6035L51.1556 66.2999Z" fill="#09C75B"/>
<path fill-rule="evenodd" clip-rule="evenodd" d="M51.2535 65.958C51.3175 65.9763 51.3711 66.02 51.402 66.0791L51.4202 66.1141C51.4216 66.1166 51.4228 66.1191 51.4241 66.1217L55.4649 74.5685C55.501 74.6439 55.4959 74.7324 55.4515 74.8031C55.4071 74.8738 55.3296 74.9167 55.2462 74.9167H55.2011L32.1385 77.7255C32.0241 77.7395 31.9157 77.6707 31.8792 77.5611C31.8427 77.4515 31.8883 77.3313 31.9882 77.2736L32.1388 77.1866L32.141 77.1853L51.0637 65.9825C51.121 65.9486 51.1896 65.9398 51.2535 65.958ZM33.5768 76.9922L54.7506 74.4033L51.0509 66.6444L33.5768 76.9922Z" fill="#09C75B"/>
<path d="M55.1682 74.7086L55.1433 74.6619L51.114 66.2701L51.1605 66.2567L71.0741 61.5735L70.9628 61.6818L55.1682 74.7086ZM51.2287 66.32L55.1881 74.5803L70.8066 61.7318L51.2287 66.32Z" fill="#09C75B"/>
<path fill-rule="evenodd" clip-rule="evenodd" d="M71.2869 61.4568C71.3392 61.5527 71.3213 61.6717 71.243 61.7478L71.1317 61.8561C71.1269 61.8608 71.122 61.8652 71.1169 61.8694L55.3223 74.8962C55.2662 74.9424 55.1923 74.9611 55.1211 74.9469C55.0498 74.9328 54.9886 74.8874 54.9543 74.8232L54.9294 74.7766C54.9278 74.7735 54.9262 74.7704 54.9247 74.7672L50.8954 66.3754C50.8644 66.3108 50.8634 66.2358 50.8927 66.1704C50.922 66.1051 50.9786 66.056 51.0473 66.0363L51.0938 66.0229C51.0976 66.0219 51.1013 66.0209 51.1051 66.02L71.0187 61.3368C71.1248 61.3118 71.2346 61.3609 71.2869 61.4568ZM51.5781 66.4877L55.273 74.1959L69.8477 62.2061L51.5781 66.4877Z" fill="#09C75B"/>
<path d="M9.80143 64.5456L0.388794 40.8645H12.6344V40.9078L9.80143 64.5456ZM0.510086 40.9428L9.74992 64.2391L12.5446 40.9428H0.510086Z" fill="#09C75B"/>
<path fill-rule="evenodd" clip-rule="evenodd" d="M0.188037 40.7282C0.233168 40.6615 0.308357 40.6216 0.388775 40.6216H12.6343C12.7683 40.6216 12.8769 40.7304 12.8769 40.8647V40.908C12.8769 40.9177 12.8763 40.9273 12.8751 40.937L10.0422 64.5748C10.029 64.6851 9.94276 64.7724 9.8328 64.7868C9.72283 64.8012 9.61714 64.739 9.5761 64.6357L0.163461 40.9546C0.1337 40.8797 0.142905 40.7949 0.188037 40.7282ZM0.867471 41.186L9.62296 63.2611L12.2712 41.186H0.867471Z" fill="#09C75B"/>
<path d="M7.20276 21.3153L7.28584 21.2187L21.9423 4.49829L21.9689 4.5516L27.4885 15.6774L7.20276 21.3153ZM21.924 4.63824L7.42873 21.172L27.3755 15.6274L21.924 4.63824Z" fill="#09C75B"/>
<path fill-rule="evenodd" clip-rule="evenodd" d="M21.9734 4.25714C22.0535 4.26752 22.1231 4.31716 22.1592 4.38954L22.186 4.4433L27.7057 15.5691C27.7379 15.6341 27.7395 15.7101 27.71 15.7763C27.6805 15.8426 27.6231 15.8922 27.5533 15.9116L7.26755 21.5495C7.16461 21.5781 7.05511 21.5358 6.9979 21.4454C6.9407 21.355 6.94927 21.2377 7.01901 21.1566L7.1036 21.0582L21.7601 4.33778C21.8134 4.27699 21.8933 4.24676 21.9734 4.25714ZM8.14801 20.7197L27.0275 15.4718L21.8677 5.07064L8.14801 20.7197Z" fill="#09C75B"/>
<path d="M12.6427 40.9429H0.395508L0.415446 40.8879L7.32082 21.1104L12.6427 40.9429ZM0.50517 40.8646H12.5447L7.31417 21.3719L0.50517 40.8646Z" fill="#09C75B"/>
<path fill-rule="evenodd" clip-rule="evenodd" d="M7.32976 20.8674C7.43605 20.8713 7.52738 20.9442 7.55501 21.0471L12.8769 40.8797C12.8965 40.9527 12.8811 41.0307 12.8352 41.0907C12.7893 41.1507 12.7182 41.1859 12.6427 41.1859H0.39549C0.316378 41.1859 0.242238 41.1472 0.196847 41.0823C0.151457 41.0173 0.140521 40.9343 0.167547 40.8598L0.186506 40.8076L0.187485 40.8048L7.09187 21.03C7.12701 20.9294 7.22346 20.8634 7.32976 20.8674ZM0.847029 40.6214H12.2283L7.28375 22.1945L0.847029 40.6214Z" fill="#09C75B"/>
<path d="M0.486852 40.9161L0.415405 40.8878L3.70027 24.0441L7.4105 21.0769L0.486852 40.9161ZM3.7684 24.0891L0.679591 40.1281L7.2161 21.4084L3.7684 24.0891Z" fill="#09C75B"/>
<path fill-rule="evenodd" clip-rule="evenodd" d="M7.55081 20.8788C7.63898 20.9415 7.67513 21.0551 7.63944 21.1573L0.715791 40.9965C0.693995 41.059 0.647741 41.1098 0.587703 41.1373C0.527665 41.1649 0.459032 41.1667 0.397645 41.1423L0.326198 41.114C0.217526 41.0709 0.154962 40.9563 0.17738 40.8413L3.46225 23.9977C3.47329 23.9411 3.50404 23.8902 3.54901 23.8543L7.25923 20.8871C7.34372 20.8195 7.46264 20.8161 7.55081 20.8788ZM3.98923 24.2252L1.54638 36.91L6.71593 22.1051L3.98923 24.2252Z" fill="#09C75B"/>
<path d="M3.58728 24.2874L5.92507 19.7108L21.9058 4.5498L21.9623 4.60145L7.3407 21.2769L3.58728 24.2874ZM5.98655 19.7608L3.87971 23.8542L7.28753 21.2169L21.0966 5.48279L5.98655 19.7608Z" fill="#09C75B"/>
<path fill-rule="evenodd" clip-rule="evenodd" d="M21.739 4.37343C21.8313 4.28589 21.9754 4.28456 22.0692 4.37038L22.1257 4.42203C22.2234 4.51132 22.2317 4.66255 22.1444 4.76207L7.52288 21.4375C7.51354 21.4481 7.50329 21.4579 7.49224 21.4668L3.73882 24.4773C3.64955 24.5489 3.5225 24.5483 3.43392 24.4759C3.34534 24.4034 3.31928 24.2788 3.37139 24.1768L5.70918 19.6002C5.72172 19.5756 5.73835 19.5534 5.75834 19.5344L21.739 4.37343ZM17.4862 9.22861L6.18308 19.9093L4.59597 22.9929L7.12083 21.0389L17.4862 9.22861Z" fill="#09C75B"/>
<path d="M12.5779 41.0046L12.5546 40.9146L7.26758 21.217L7.30579 21.2053L27.5151 15.5891L27.4653 15.6724L12.5779 41.0046ZM7.36395 21.2703L12.6061 40.803L27.349 15.7157L7.36395 21.2703Z" fill="#09C75B"/>
<path d="M51.237 66.2951L51.1656 66.2834L26.6528 62.6698L26.6778 62.6198L39.4833 40.9263L39.5165 40.9979L51.237 66.2951ZM26.7725 62.6081L51.1057 66.1968L39.4749 41.1029L26.7725 62.6081Z" fill="#09C75B"/>
<path fill-rule="evenodd" clip-rule="evenodd" d="M39.4953 40.6834C39.5852 40.6879 39.6652 40.7419 39.7032 40.8237L39.7364 40.8954L51.457 66.1926C51.4948 66.2742 51.4845 66.3701 51.4302 66.4419C51.376 66.5136 51.2866 66.5494 51.198 66.5349L51.1265 66.5232L26.6175 62.9102C26.5406 62.8988 26.4737 62.8512 26.4378 62.7821C26.4018 62.7129 26.4011 62.6307 26.4359 62.561L26.4608 62.511C26.4633 62.5059 26.4661 62.5009 26.469 62.4959L39.2745 40.8024C39.3203 40.7248 39.4053 40.6789 39.4953 40.6834ZM50.6964 65.8906L39.449 41.6238L27.1652 62.4203L50.6964 65.8906Z" fill="#09C75B"/>
<path d="M51.0791 66.3116L51.1389 66.2233L67.7078 41.3359L67.7194 41.4392L70.9727 61.6766L70.9395 61.6866L51.0791 66.3116ZM67.6613 41.5542L51.2585 66.1799L70.888 61.62L67.6613 41.5542Z" fill="#09C75B"/>
<path fill-rule="evenodd" clip-rule="evenodd" d="M67.765 41.0999C67.8639 41.1239 67.9374 41.2074 67.9488 41.3088L67.9598 41.4064L71.2122 61.6381C71.2315 61.7585 71.1589 61.8746 71.0425 61.9096L71.0092 61.9196C71.0043 61.9211 70.9994 61.9224 70.9944 61.9236L51.134 66.5485C51.0367 66.5711 50.9356 66.5318 50.8791 66.4492C50.8226 66.3667 50.8223 66.258 50.8784 66.1752L50.9371 66.0885L50.9382 66.0869L67.506 41.2012C67.5626 41.1163 67.666 41.0758 67.765 41.0999ZM51.8001 65.8048L70.6125 61.4346L67.5201 42.2041L51.8001 65.8048Z" fill="#09C75B"/>
<path d="M70.9164 61.8033L67.6448 41.311L77.8234 41.5859L77.8367 41.6392L70.9164 61.8033ZM67.7328 41.3877L70.9579 61.4918L77.742 41.6659L67.7328 41.3877Z" fill="#09C75B"/>
<path fill-rule="evenodd" clip-rule="evenodd" d="M67.4623 41.151C67.5099 41.0966 67.5792 41.0663 67.6513 41.0682L77.8299 41.3431C77.9387 41.346 78.0323 41.4213 78.0587 41.5272L78.072 41.5805C78.0833 41.6261 78.0813 41.674 78.066 41.7185L71.1457 61.8826C71.1095 61.988 71.0063 62.0553 70.8954 62.0457C70.7845 62.0361 70.6944 61.952 70.6768 61.8419L67.4053 41.3496C67.3939 41.2782 67.4148 41.2054 67.4623 41.151ZM68.0188 41.6389L71.0433 60.493L77.4055 41.8999L68.0188 41.6389Z" fill="#09C75B"/>
<path d="M67.7395 41.6026L67.6547 41.466L53.1727 18.4946L65.8802 19.3127V19.346L67.7395 41.6026ZM53.3189 18.5813L67.6365 41.2877L65.8004 19.386L53.3189 18.5813Z" fill="#09C75B"/>
<path fill-rule="evenodd" clip-rule="evenodd" d="M52.9642 18.3705C53.0107 18.2919 53.0973 18.2461 53.1883 18.252L65.8957 19.07C66.0234 19.0782 66.1227 19.1844 66.1227 19.3126V19.3357L67.9811 41.5823C67.9905 41.6942 67.9221 41.798 67.8157 41.8333C67.7093 41.8686 67.5926 41.8263 67.5335 41.7309L67.4497 41.5958L67.4487 41.5942L52.9677 18.6244C52.919 18.5471 52.9176 18.449 52.9642 18.3705ZM67.3117 40.3177L65.5762 19.615L53.7781 18.8544L67.3117 40.3177Z" fill="#09C75B"/>
<path d="M77.8034 41.6642L67.6514 41.3877L65.7838 19.166L77.8034 41.6642ZM67.7245 41.311L77.7336 41.5859L65.8918 19.5325L67.7245 41.311Z" fill="#09C75B"/>
<path fill-rule="evenodd" clip-rule="evenodd" d="M65.715 18.9329C65.8253 18.9002 65.9433 18.9496 65.9976 19.0512L78.0172 41.5494C78.058 41.6258 78.0552 41.7182 78.0098 41.7919C77.9643 41.8656 77.8832 41.9095 77.7968 41.9072L67.6448 41.6306C67.5213 41.6272 67.4201 41.5314 67.4097 41.408L65.5421 19.1864C65.5325 19.0715 65.6047 18.9656 65.715 18.9329ZM66.2316 20.6783L67.9479 41.0739L77.3215 41.3314L66.2316 20.6783Z" fill="#09C75B"/>
<path d="M77.8433 41.6394H77.7719L65.7423 19.2561L74.0816 22.7281V22.7465L77.8433 41.6394ZM65.9317 19.4427L77.6888 41.3361L74.0218 22.7831L65.9317 19.4427Z" fill="#09C75B"/>
<path fill-rule="evenodd" clip-rule="evenodd" d="M65.5624 19.093C65.6313 19.0167 65.7406 18.9921 65.8353 19.0315L74.1746 22.5036C74.2633 22.5405 74.3217 22.6262 74.324 22.722L78.0811 41.5917C78.0954 41.6631 78.0769 41.7371 78.0308 41.7934C77.9848 41.8497 77.9159 41.8824 77.8433 41.8824H77.7719C77.6826 41.8824 77.6006 41.8333 77.5583 41.7546L65.5288 19.3713C65.4801 19.2807 65.4936 19.1693 65.5624 19.093ZM77.1371 39.7959L73.8091 22.9581L66.467 19.9265L77.1371 39.7959Z" fill="#09C75B"/>
<path d="M78.2105 41.6444C78.2105 41.7466 78.1802 41.8464 78.1236 41.9313C78.067 42.0163 77.9866 42.0825 77.8925 42.1216C77.7984 42.1607 77.6948 42.1709 77.5949 42.151C77.495 42.131 77.4032 42.0818 77.3312 42.0096C77.2591 41.9374 77.2101 41.8453 77.1902 41.7452C77.1703 41.645 77.1805 41.5411 77.2195 41.4468C77.2585 41.3524 77.3245 41.2717 77.4092 41.215C77.4939 41.1582 77.5935 41.1279 77.6954 41.1279C77.7631 41.1277 77.8302 41.1409 77.8927 41.1668C77.9553 41.1927 78.0122 41.2307 78.0601 41.2787C78.1079 41.3267 78.1459 41.3837 78.1717 41.4465C78.1975 41.5093 78.2107 41.5765 78.2105 41.6444Z" fill="#09C75B"/>
<path fill-rule="evenodd" clip-rule="evenodd" d="M77.8466 41.2791C77.7988 41.2593 77.7475 41.2493 77.6958 41.2494L77.6954 41.2494C77.6175 41.2494 77.5414 41.2726 77.4767 41.316C77.4119 41.3594 77.3614 41.421 77.3316 41.4932C77.3018 41.5654 77.294 41.6448 77.3092 41.7214C77.3244 41.798 77.3619 41.8684 77.417 41.9236C77.4721 41.9789 77.5422 42.0165 77.6186 42.0317C77.695 42.0469 77.7742 42.0391 77.8461 42.0092C77.9181 41.9794 77.9796 41.9287 78.0229 41.8638C78.0661 41.7988 78.0892 41.7225 78.0892 41.6444V41.644H78.0892C78.0894 41.5921 78.0793 41.5407 78.0596 41.4928C78.0399 41.4448 78.0109 41.4013 77.9744 41.3646C77.9378 41.3279 77.8944 41.2989 77.8466 41.2791ZM77.695 41.0064C77.7787 41.0061 77.8617 41.0224 77.939 41.0544C78.0164 41.0864 78.0867 41.1334 78.1459 41.1927C78.2051 41.2521 78.252 41.3226 78.2839 41.4001C78.3157 41.4777 78.332 41.5607 78.3318 41.6446C78.3317 41.7707 78.2944 41.8939 78.2245 41.9988C78.1546 42.1037 78.0552 42.1855 77.939 42.2338C77.8227 42.2821 77.6947 42.2947 77.5713 42.2701C77.4478 42.2455 77.3344 42.1847 77.2454 42.0955C77.1565 42.0062 77.0959 41.8926 77.0713 41.7688C77.0468 41.6451 77.0594 41.5168 77.1075 41.4002C77.1557 41.2836 77.2372 41.184 77.3419 41.1139C77.4465 41.0438 77.5696 41.0064 77.6954 41.0064V41.1279L77.695 41.0064ZM78.3318 41.6446C78.3318 41.6446 78.3318 41.6447 78.3318 41.6448L78.2105 41.6444H78.3318C78.3318 41.6444 78.3318 41.6445 78.3318 41.6446Z" fill="#09C75B"/>
<path d="M68.2761 41.311C68.2757 41.4362 68.2384 41.5584 68.1689 41.6623C68.0993 41.7662 68.0006 41.8471 67.8852 41.8947C67.7698 41.9424 67.6429 41.9547 67.5205 41.9301C67.3981 41.9055 67.2858 41.845 67.1976 41.7564C67.1095 41.6678 67.0495 41.555 67.0253 41.4323C67.0011 41.3095 67.0137 41.1823 67.0615 41.0667C67.1094 40.9511 67.1903 40.8523 67.2941 40.7828C67.3979 40.7134 67.5199 40.6763 67.6447 40.6763C67.8123 40.6767 67.9729 40.7438 68.0912 40.8628C68.2096 40.9818 68.2761 41.143 68.2761 41.311Z" fill="#09C75B"/>
<path fill-rule="evenodd" clip-rule="evenodd" d="M67.6446 40.7978C67.5438 40.7978 67.4453 40.8278 67.3615 40.8839C67.2776 40.94 67.2122 41.0198 67.1736 41.1132C67.1349 41.2066 67.1248 41.3094 67.1443 41.4086C67.1639 41.5078 67.2124 41.599 67.2836 41.6706C67.3548 41.7422 67.4456 41.791 67.5444 41.8109C67.6433 41.8308 67.7458 41.8208 67.839 41.7823C67.9322 41.7438 68.012 41.6785 68.0682 41.5945C68.1244 41.5106 68.1546 41.4119 68.1549 41.3108C68.1548 41.175 68.1011 41.0447 68.0054 40.9485C67.9098 40.8524 67.78 40.7982 67.6446 40.7978ZM67.2268 40.6817C67.3505 40.5989 67.496 40.5547 67.6447 40.5547H67.6451C67.8448 40.5552 68.0362 40.6351 68.1772 40.7769C68.3182 40.9187 68.3974 41.1108 68.3974 41.311L68.3974 41.3113C68.397 41.4605 68.3525 41.6062 68.2696 41.73C68.1867 41.8538 68.069 41.9503 67.9314 42.0071C67.7938 42.0639 67.6426 42.0786 67.4967 42.0492C67.3508 42.0199 67.2169 41.9478 67.1118 41.8422C67.0068 41.7366 66.9353 41.6021 66.9064 41.4558C66.8775 41.3095 66.8925 41.1579 66.9496 41.0201C67.0066 40.8823 67.103 40.7646 67.2268 40.6817Z" fill="#09C75B"/>
<path d="M51.7105 66.325C51.7105 66.4502 51.6735 66.5726 51.6041 66.6767C51.5347 66.7808 51.4361 66.862 51.3208 66.9099C51.2054 66.9578 51.0784 66.9703 50.956 66.9459C50.8335 66.9215 50.721 66.8612 50.6327 66.7727C50.5444 66.6841 50.4842 66.5713 50.4599 66.4485C50.4355 66.3257 50.448 66.1984 50.4958 66.0827C50.5436 65.967 50.6245 65.8682 50.7284 65.7986C50.8322 65.729 50.9543 65.6919 51.0791 65.6919C51.2466 65.6919 51.4072 65.7586 51.5256 65.8773C51.644 65.996 51.7105 66.1571 51.7105 66.325Z" fill="#09C75B"/>
<path fill-rule="evenodd" clip-rule="evenodd" d="M51.0792 65.8134C50.9783 65.8134 50.8797 65.8434 50.7958 65.8996C50.7119 65.9558 50.6465 66.0357 50.6079 66.1292C50.5693 66.2226 50.5592 66.3255 50.5789 66.4248C50.5986 66.524 50.6472 66.6152 50.7185 66.6867C50.7898 66.7582 50.8807 66.8069 50.9797 66.8267C51.0786 66.8464 51.1812 66.8363 51.2744 66.7976C51.3676 66.7589 51.4473 66.6933 51.5033 66.6092C51.5594 66.525 51.5893 66.4261 51.5893 66.3249C51.5893 66.1893 51.5355 66.0591 51.4399 65.9632C51.3442 65.8673 51.2145 65.8134 51.0792 65.8134ZM50.661 65.6975C50.7848 65.6146 50.9303 65.5703 51.0792 65.5703C51.2788 65.5703 51.4703 65.6498 51.6114 65.7914C51.7526 65.9329 51.8318 66.1248 51.8318 66.3249C51.8318 66.4742 51.7877 66.6201 51.705 66.7442C51.6223 66.8683 51.5048 66.965 51.3672 67.0221C51.2297 67.0793 51.0784 67.0942 50.9323 67.0651C50.7863 67.036 50.6522 66.9641 50.547 66.8585C50.4417 66.753 50.37 66.6185 50.341 66.4722C50.312 66.3258 50.3269 66.1741 50.3838 66.0362C50.4408 65.8983 50.5372 65.7804 50.661 65.6975Z" fill="#09C75B"/>
<path d="M71.4745 61.0652C71.5753 61.1899 71.6265 61.3476 71.6183 61.508C71.61 61.6683 71.5429 61.8198 71.4298 61.9334C71.3167 62.0471 71.1656 62.1147 71.0058 62.1233C70.8459 62.1318 70.6885 62.0808 70.564 61.9799C70.5325 61.9581 70.5049 61.9311 70.4826 61.8999C70.3845 61.7746 70.3355 61.6177 70.345 61.4586C70.3545 61.2996 70.4218 61.1496 70.5342 61.037C70.6465 60.9244 70.7961 60.8569 70.9547 60.8474C71.1133 60.8378 71.2698 60.8869 71.3948 60.9853C71.4268 61.0058 71.4541 61.0331 71.4745 61.0652Z" fill="#09C75B"/>
<path fill-rule="evenodd" clip-rule="evenodd" d="M71.3199 61.0808C71.2183 61.0008 71.0909 60.9609 70.962 60.9686C70.833 60.9764 70.7113 61.0312 70.62 61.1229C70.5286 61.2145 70.4739 61.3365 70.4661 61.4659C70.4584 61.5952 70.4982 61.7229 70.578 61.8248L70.5796 61.8269L70.5811 61.829C70.5953 61.8488 70.6128 61.8659 70.6328 61.8798L70.6366 61.8824L70.6403 61.8853C70.7415 61.9673 70.8694 62.0088 70.9993 62.0018C71.1293 61.9949 71.252 61.9399 71.344 61.8476C71.4359 61.7552 71.4905 61.632 71.4972 61.5016C71.5039 61.3713 71.4623 61.2431 71.3804 61.1417L71.376 61.1363L71.3723 61.1305C71.3614 61.1133 71.3468 61.0987 71.3296 61.0877L71.3246 61.0845L71.3199 61.0808ZM71.4653 60.8862C71.3178 60.7718 71.1338 60.7148 70.9475 60.726C70.7593 60.7373 70.5817 60.8174 70.4484 60.951C70.3151 61.0847 70.2353 61.2627 70.224 61.4513C70.2128 61.6392 70.2703 61.8246 70.3857 61.973C70.415 62.0133 70.4507 62.0485 70.4913 62.0772C70.6386 62.1951 70.824 62.2547 71.0123 62.2446C71.2021 62.2344 71.3814 62.1541 71.5157 62.0192C71.6499 61.8844 71.7296 61.7045 71.7394 61.5142C71.7491 61.3261 71.6899 61.141 71.5729 60.9938C71.5446 60.9511 71.508 60.9145 71.4653 60.8862Z" fill="#09C75B"/>
<path d="M55.6451 74.7086C55.6451 74.7998 55.6181 74.8891 55.5675 74.965C55.517 75.0408 55.4451 75.1 55.361 75.1349C55.2769 75.1699 55.1843 75.179 55.0951 75.1612C55.0058 75.1434 54.9238 75.0994 54.8594 75.0349C54.795 74.9703 54.7512 74.8881 54.7335 74.7986C54.7157 74.7091 54.7248 74.6163 54.7596 74.532C54.7945 74.4476 54.8535 74.3756 54.9292 74.3248C55.0048 74.2741 55.0938 74.2471 55.1849 74.2471C55.3069 74.2471 55.424 74.2957 55.5103 74.3822C55.5966 74.4688 55.6451 74.5862 55.6451 74.7086Z" fill="#09C75B"/>
<path fill-rule="evenodd" clip-rule="evenodd" d="M55.1848 74.3686C55.1178 74.3686 55.0522 74.3885 54.9965 74.4258C54.9407 74.4632 54.8973 74.5163 54.8716 74.5784C54.846 74.6405 54.8392 74.7089 54.8523 74.7749C54.8654 74.8408 54.8977 74.9014 54.9451 74.9489C54.9925 74.9965 55.0529 75.0288 55.1187 75.0419C55.1844 75.0551 55.2526 75.0483 55.3145 75.0226C55.3764 74.9969 55.4294 74.9533 55.4666 74.8974C55.5039 74.8415 55.5238 74.7758 55.5238 74.7085C55.5238 74.6183 55.488 74.5319 55.4245 74.4681C55.3609 74.4044 55.2747 74.3686 55.1848 74.3686ZM54.8617 74.2238C54.9573 74.1597 55.0698 74.1255 55.1848 74.1255C55.339 74.1255 55.4869 74.1869 55.596 74.2963C55.705 74.4056 55.7663 74.5539 55.7663 74.7085C55.7663 74.8238 55.7322 74.9365 55.6683 75.0324C55.6044 75.1283 55.5136 75.203 55.4073 75.2472C55.3011 75.2913 55.1841 75.3028 55.0713 75.2803C54.9585 75.2578 54.8549 75.2023 54.7736 75.1208C54.6923 75.0392 54.6369 74.9353 54.6144 74.8223C54.592 74.7092 54.6035 74.5919 54.6475 74.4854C54.6915 74.3789 54.7661 74.2878 54.8617 74.2238Z" fill="#09C75B"/>
<path d="M38.7804 78.4687C38.974 78.4687 39.131 78.3113 39.131 78.1172C39.131 77.923 38.974 77.7656 38.7804 77.7656C38.5868 77.7656 38.4298 77.923 38.4298 78.1172C38.4298 78.3113 38.5868 78.4687 38.7804 78.4687Z" fill="#09C75B"/>
<path fill-rule="evenodd" clip-rule="evenodd" d="M38.7804 77.8874C38.6538 77.8874 38.5511 77.9903 38.5511 78.1174C38.5511 78.2444 38.6539 78.3474 38.7804 78.3474C38.907 78.3474 39.0098 78.2444 39.0098 78.1174C39.0098 77.9903 38.907 77.8874 38.7804 77.8874ZM38.3086 78.1174C38.3086 77.8561 38.5198 77.6443 38.7804 77.6443C39.0411 77.6443 39.2523 77.8561 39.2523 78.1174C39.2523 78.3786 39.0411 78.5904 38.7804 78.5904C38.5198 78.5904 38.3086 78.3786 38.3086 78.1174Z" fill="#09C75B"/>
<path d="M32.8022 77.4842C32.8022 77.6094 32.7652 77.7318 32.6958 77.8359C32.6264 77.94 32.5278 78.0212 32.4124 78.0691C32.2971 78.117 32.1701 78.1295 32.0476 78.1051C31.9252 78.0807 31.8127 78.0204 31.7244 77.9318C31.6361 77.8433 31.5759 77.7305 31.5516 77.6077C31.5272 77.4849 31.5397 77.3576 31.5875 77.2419C31.6353 77.1262 31.7162 77.0273 31.82 76.9578C31.9239 76.8882 32.0459 76.8511 32.1708 76.8511C32.3383 76.8511 32.4989 76.9178 32.6173 77.0365C32.7357 77.1552 32.8022 77.3163 32.8022 77.4842Z" fill="#09C75B"/>
<path fill-rule="evenodd" clip-rule="evenodd" d="M32.1707 76.9726C32.0699 76.9726 31.9712 77.0026 31.8874 77.0588C31.8035 77.115 31.7381 77.1949 31.6995 77.2883C31.6608 77.3818 31.6507 77.4847 31.6704 77.5839C31.6901 77.6832 31.7387 77.7743 31.8101 77.8459C31.8814 77.9174 31.9723 77.9661 32.0712 77.9859C32.1702 78.0056 32.2727 77.9955 32.3659 77.9568C32.4591 77.918 32.5388 77.8525 32.5949 77.7684C32.6509 77.6842 32.6809 77.5853 32.6809 77.4841C32.6809 77.3484 32.6271 77.2183 32.5314 77.1224C32.4358 77.0265 32.306 76.9726 32.1707 76.9726ZM31.7526 76.8567C31.8763 76.7738 32.0219 76.7295 32.1707 76.7295C32.3704 76.7295 32.5618 76.809 32.703 76.9505C32.8441 77.0921 32.9234 77.284 32.9234 77.4841C32.9234 77.6334 32.8793 77.7793 32.7966 77.9034C32.7139 78.0275 32.5963 78.1242 32.4588 78.1813C32.3213 78.2384 32.1699 78.2534 32.0239 78.2243C31.8779 78.1951 31.7438 78.1233 31.6385 78.0177C31.5333 77.9122 31.4616 77.7777 31.4326 77.6313C31.4035 77.485 31.4184 77.3332 31.4754 77.1954C31.5323 77.0575 31.6288 76.9396 31.7526 76.8567Z" fill="#09C75B"/>
<path d="M20.6629 73.0424C20.6629 73.1218 20.6394 73.1994 20.5954 73.2655C20.5514 73.3315 20.4889 73.383 20.4157 73.4133C20.3426 73.4437 20.262 73.4517 20.1844 73.4362C20.1067 73.4207 20.0353 73.3825 19.9793 73.3263C19.9233 73.2701 19.8852 73.1986 19.8698 73.1207C19.8543 73.0428 19.8622 72.9621 19.8925 72.8887C19.9228 72.8154 19.9742 72.7527 20.04 72.7085C20.1059 72.6644 20.1833 72.6409 20.2625 72.6409C20.3687 72.6409 20.4705 72.6832 20.5456 72.7585C20.6207 72.8338 20.6629 72.9359 20.6629 73.0424Z" fill="#09C75B"/>
<path fill-rule="evenodd" clip-rule="evenodd" d="M20.2625 72.7626C20.2073 72.7626 20.1534 72.779 20.1075 72.8098C20.0616 72.8405 20.0258 72.8843 20.0046 72.9354C19.9835 72.9866 19.978 73.0429 19.9887 73.0972C19.9995 73.1515 20.0261 73.2014 20.0652 73.2406C20.1042 73.2797 20.1539 73.3064 20.2081 73.3172C20.2622 73.328 20.3184 73.3224 20.3694 73.3013C20.4204 73.2801 20.464 73.2442 20.4946 73.1982C20.5253 73.1521 20.5417 73.098 20.5417 73.0426C20.5417 72.9683 20.5123 72.8971 20.4599 72.8446C20.4076 72.7921 20.3366 72.7626 20.2625 72.7626ZM19.9727 72.6077C20.0585 72.5502 20.1593 72.5195 20.2625 72.5195C20.4009 72.5195 20.5336 72.5747 20.6315 72.6728C20.7293 72.7708 20.7842 72.9039 20.7842 73.0426C20.7842 73.146 20.7537 73.2471 20.6963 73.3332C20.639 73.4192 20.5575 73.4862 20.4622 73.5258C20.3669 73.5654 20.262 73.5758 20.1608 73.5556C20.0595 73.5354 19.9666 73.4856 19.8936 73.4124C19.8207 73.3393 19.771 73.2461 19.7509 73.1446C19.7307 73.0432 19.7411 72.938 19.7805 72.8424C19.82 72.7469 19.8869 72.6652 19.9727 72.6077Z" fill="#09C75B"/>
<path d="M27.2825 62.7129C27.2825 62.8381 27.2455 62.9605 27.1761 63.0647C27.1068 63.1688 27.0082 63.2499 26.8928 63.2978C26.7774 63.3457 26.6505 63.3583 26.528 63.3339C26.4055 63.3094 26.293 63.2491 26.2047 63.1606C26.1164 63.0721 26.0563 62.9592 26.0319 62.8364C26.0075 62.7136 26.02 62.5863 26.0678 62.4707C26.1156 62.355 26.1966 62.2561 26.3004 62.1865C26.4042 62.117 26.5263 62.0798 26.6512 62.0798C26.8185 62.0803 26.9788 62.1471 27.0971 62.2657C27.2154 62.3844 27.2821 62.5452 27.2825 62.7129Z" fill="#09C75B"/>
<path fill-rule="evenodd" clip-rule="evenodd" d="M26.6511 62.2016C26.5502 62.2016 26.4517 62.2316 26.3678 62.2878C26.2839 62.344 26.2185 62.4239 26.1799 62.5173C26.1413 62.6108 26.1312 62.7137 26.1509 62.8129C26.1706 62.9122 26.2192 63.0033 26.2905 63.0749C26.3619 63.1464 26.4528 63.1951 26.5517 63.2149C26.6506 63.2346 26.7532 63.2245 26.8464 63.1858C26.9396 63.147 27.0193 63.0815 27.0753 62.9974C27.1314 62.9133 27.1613 62.8144 27.1613 62.7133C27.1609 62.5777 27.107 62.4477 27.0114 62.3519C26.9158 62.256 26.7862 62.202 26.6511 62.2016ZM26.233 62.0857C26.3568 62.0028 26.5023 61.9585 26.6512 61.9585H26.6515C26.8509 61.959 27.042 62.0387 27.183 62.18C27.3239 62.3214 27.4033 62.5129 27.4039 62.7128L27.4039 62.7131C27.4039 62.8624 27.3597 63.0083 27.277 63.1324C27.1943 63.2565 27.0768 63.3532 26.9393 63.4103C26.8017 63.4674 26.6504 63.4824 26.5044 63.4533C26.3584 63.4241 26.2242 63.3523 26.119 63.2467C26.0137 63.1412 25.9421 63.0067 25.913 62.8603C25.884 62.714 25.8989 62.5622 25.9558 62.4244C26.0128 62.2865 26.1093 62.1686 26.233 62.0857Z" fill="#09C75B"/>
<path d="M10.3348 64.4324C10.3348 64.5576 10.2978 64.68 10.2284 64.7841C10.159 64.8883 10.0604 64.9694 9.94503 65.0173C9.82966 65.0652 9.70271 65.0778 9.58023 65.0533C9.45775 65.0289 9.34525 64.9686 9.25695 64.8801C9.16865 64.7915 9.10852 64.6787 9.08415 64.5559C9.05979 64.4331 9.07229 64.3058 9.12008 64.1901C9.16787 64.0745 9.2488 63.9756 9.35263 63.906C9.45646 63.8364 9.57853 63.7993 9.70341 63.7993C9.87073 63.7998 10.0311 63.8666 10.1494 63.9852C10.2677 64.1039 10.3344 64.2646 10.3348 64.4324Z" fill="#09C75B"/>
<path fill-rule="evenodd" clip-rule="evenodd" d="M9.7033 63.9208C9.60248 63.9208 9.50392 63.9508 9.42007 64.007C9.33619 64.0632 9.2708 64.1431 9.23218 64.2366C9.19356 64.3301 9.18346 64.4329 9.20314 64.5322C9.22283 64.6314 9.27143 64.7226 9.34277 64.7941C9.41412 64.8657 9.50501 64.9144 9.60395 64.9341C9.70289 64.9538 9.80545 64.9437 9.89865 64.905C9.99186 64.8663 10.0715 64.8007 10.1276 64.7166C10.1836 64.6325 10.2135 64.5337 10.2136 64.4325C10.2132 64.2969 10.1593 64.167 10.0637 64.0711C9.96805 63.9752 9.83849 63.9212 9.7033 63.9208ZM9.28529 63.8049C9.40906 63.722 9.55459 63.6777 9.70346 63.6777H9.70378C9.90317 63.6783 10.0942 63.7579 10.2352 63.8993C10.3762 64.0406 10.4556 64.2322 10.4561 64.4321L10.4561 64.4324C10.4561 64.5816 10.412 64.7275 10.3293 64.8516C10.2466 64.9757 10.129 65.0724 9.9915 65.1296C9.85397 65.1867 9.70262 65.2016 9.55661 65.1725C9.4106 65.1434 9.27649 65.0715 9.17123 64.966C9.06598 64.8604 8.9943 64.726 8.96527 64.5796C8.93623 64.4332 8.95113 64.2815 9.00809 64.1436C9.06505 64.0057 9.16151 63.8879 9.28529 63.8049Z" fill="#09C75B"/>
<path d="M5.83035 58.3529C5.83035 58.4287 5.80794 58.5028 5.76594 58.5658C5.72395 58.6288 5.66427 58.6779 5.59444 58.7069C5.52461 58.7359 5.44777 58.7435 5.37364 58.7287C5.29951 58.714 5.23142 58.6775 5.17797 58.6239C5.12453 58.5703 5.08813 58.502 5.07338 58.4277C5.05864 58.3533 5.06621 58.2763 5.09513 58.2063C5.12405 58.1363 5.17304 58.0764 5.23588 58.0343C5.29873 57.9922 5.37261 57.9697 5.44819 57.9697C5.54955 57.9697 5.64675 58.0101 5.71842 58.082C5.79009 58.1538 5.83035 58.2513 5.83035 58.3529Z" fill="#09C75B"/>
<path fill-rule="evenodd" clip-rule="evenodd" d="M5.44825 58.0912C5.39666 58.0912 5.34623 58.1066 5.30333 58.1353C5.26042 58.164 5.22698 58.2049 5.20722 58.2527C5.18747 58.3005 5.1823 58.3532 5.19237 58.4039C5.20244 58.4547 5.2273 58.5013 5.26379 58.5379C5.30028 58.5745 5.34676 58.5994 5.39736 58.6095C5.44795 58.6196 5.5004 58.6144 5.54807 58.5946C5.59573 58.5748 5.63648 58.5413 5.66515 58.4983C5.69382 58.4552 5.70913 58.4046 5.70913 58.3529C5.70913 58.2835 5.68163 58.2169 5.6327 58.1678C5.58377 58.1188 5.51742 58.0912 5.44825 58.0912ZM5.16854 57.9332C5.25132 57.8778 5.34866 57.8481 5.44825 57.8481C5.58178 57.8481 5.70983 57.9013 5.80424 57.996C5.89864 58.0907 5.95167 58.219 5.95167 58.3529C5.95167 58.4527 5.92215 58.5503 5.86684 58.6333C5.81153 58.7163 5.73291 58.781 5.64092 58.8192C5.54892 58.8574 5.44769 58.8674 5.35002 58.8479C5.25236 58.8284 5.16265 58.7803 5.09225 58.7098C5.02185 58.6392 4.97392 58.5492 4.9545 58.4513C4.93508 58.3534 4.94504 58.252 4.98314 58.1597C5.02123 58.0675 5.08575 57.9887 5.16854 57.9332Z" fill="#09C75B"/>
<path d="M40.1661 40.9427C40.1661 41.0679 40.1291 41.1903 40.0597 41.2944C39.9903 41.3985 39.8917 41.4797 39.7763 41.5276C39.661 41.5755 39.534 41.588 39.4115 41.5636C39.2891 41.5392 39.1765 41.4789 39.0882 41.3903C38.9999 41.3018 38.9398 41.189 38.9155 41.0662C38.8911 40.9434 38.9036 40.8161 38.9514 40.7004C38.9992 40.5847 39.0801 40.4858 39.1839 40.4163C39.2878 40.3467 39.4098 40.3096 39.5347 40.3096C39.7022 40.3096 39.8628 40.3763 39.9812 40.495C40.0996 40.6137 40.1661 40.7748 40.1661 40.9427Z" fill="#09C75B"/>
<path fill-rule="evenodd" clip-rule="evenodd" d="M39.5348 40.4313C39.4339 40.4313 39.3353 40.4613 39.2514 40.5175C39.1675 40.5737 39.1021 40.6536 39.0635 40.7471C39.0249 40.8406 39.0148 40.9434 39.0344 41.0427C39.0541 41.1419 39.1027 41.2331 39.1741 41.3046C39.2454 41.3761 39.3363 41.4249 39.4353 41.4446C39.5342 41.4643 39.6367 41.4542 39.73 41.4155C39.8232 41.3768 39.9028 41.3112 39.9589 41.2271C40.015 41.143 40.0449 41.0441 40.0449 40.9429C40.0449 40.8072 39.9911 40.6771 39.8954 40.5811C39.7998 40.4852 39.67 40.4313 39.5348 40.4313ZM39.1166 40.3154C39.2404 40.2325 39.3859 40.1882 39.5348 40.1882C39.7344 40.1882 39.9258 40.2678 40.067 40.4093C40.2081 40.5508 40.2874 40.7427 40.2874 40.9429C40.2874 41.0921 40.2433 41.238 40.1606 41.3621C40.0779 41.4862 39.9603 41.5829 39.8228 41.64C39.6853 41.6972 39.5339 41.7121 39.3879 41.683C39.2419 41.6539 39.1078 41.582 39.0025 41.4765C38.8973 41.3709 38.8256 41.2365 38.7966 41.0901C38.7675 40.9437 38.7824 40.792 38.8394 40.6541C38.8963 40.5162 38.9928 40.3984 39.1166 40.3154Z" fill="#09C75B"/>
<path d="M13.2741 41.0196C13.2741 41.1448 13.2371 41.2672 13.1677 41.3713C13.0983 41.4754 12.9997 41.5566 12.8844 41.6045C12.769 41.6524 12.642 41.6649 12.5196 41.6405C12.3971 41.6161 12.2846 41.5558 12.1963 41.4672C12.108 41.3787 12.0478 41.2659 12.0235 41.1431C11.9991 41.0203 12.0116 40.893 12.0594 40.7773C12.1072 40.6616 12.1881 40.5627 12.292 40.4932C12.3958 40.4236 12.5179 40.3865 12.6427 40.3865C12.8102 40.3865 12.9708 40.4532 13.0892 40.5719C13.2076 40.6906 13.2741 40.8517 13.2741 41.0196Z" fill="#09C75B"/>
<path fill-rule="evenodd" clip-rule="evenodd" d="M12.6427 40.508C12.5418 40.508 12.4432 40.538 12.3593 40.5942C12.2754 40.6504 12.21 40.7303 12.1714 40.8237C12.1328 40.9172 12.1227 41.0201 12.1424 41.1193C12.162 41.2186 12.2106 41.3097 12.282 41.3813C12.3533 41.4528 12.4442 41.5015 12.5432 41.5213C12.6421 41.541 12.7447 41.5309 12.8379 41.4922C12.9311 41.4534 13.0107 41.3879 13.0668 41.3038C13.1229 41.2196 13.1528 41.1207 13.1528 41.0195C13.1528 40.8838 13.099 40.7537 13.0034 40.6578C12.9077 40.5619 12.7779 40.508 12.6427 40.508ZM12.2245 40.3921C12.3483 40.3092 12.4938 40.2649 12.6427 40.2649C12.8423 40.2649 13.0337 40.3444 13.1749 40.4859C13.316 40.6275 13.3953 40.8194 13.3953 41.0195C13.3953 41.1688 13.3512 41.3147 13.2685 41.4388C13.1858 41.5629 13.0683 41.6596 12.9307 41.7167C12.7932 41.7738 12.6418 41.7888 12.4958 41.7597C12.3498 41.7305 12.2157 41.6587 12.1104 41.5531C12.0052 41.4476 11.9335 41.3131 11.9045 41.1667C11.8754 41.0204 11.8903 40.8686 11.9473 40.7308C12.0043 40.5929 12.1007 40.475 12.2245 40.3921Z" fill="#09C75B"/>
<path d="M0.879001 40.8879C0.879001 40.963 0.856783 41.0365 0.815157 41.099C0.77353 41.1614 0.714365 41.2101 0.645142 41.2389C0.57592 41.2676 0.499749 41.2751 0.426263 41.2605C0.352777 41.2458 0.285276 41.2096 0.232295 41.1565C0.179315 41.1034 0.143234 41.0357 0.128617 40.962C0.114 40.8883 0.121502 40.812 0.150175 40.7426C0.178848 40.6731 0.227404 40.6138 0.289702 40.5721C0.352001 40.5303 0.425244 40.5081 0.50017 40.5081C0.54998 40.5078 0.599341 40.5175 0.645402 40.5365C0.691463 40.5555 0.733313 40.5835 0.768534 40.6188C0.803756 40.6541 0.831652 40.6961 0.850612 40.7423C0.869572 40.7885 0.879221 40.838 0.879001 40.8879Z" fill="#09C75B"/>
<path fill-rule="evenodd" clip-rule="evenodd" d="M0.599153 40.6489C0.567903 40.636 0.534419 40.6294 0.500634 40.6296L0.500099 40.6296C0.449169 40.6296 0.39938 40.6447 0.357025 40.6731C0.314669 40.7015 0.281649 40.7418 0.262148 40.789C0.242646 40.8362 0.237543 40.8882 0.247485 40.9383C0.257428 40.9884 0.281969 41.0344 0.317993 41.0706C0.354015 41.1067 0.399905 41.1313 0.449861 41.1412C0.499815 41.1512 0.551592 41.1461 0.598646 41.1265C0.645702 41.107 0.685932 41.0739 0.714241 41.0314C0.74255 40.9889 0.757664 40.939 0.757664 40.8879V40.8873H0.757665C0.757814 40.8534 0.751264 40.8198 0.738395 40.7885C0.725528 40.7571 0.706596 40.7287 0.682695 40.7047C0.658795 40.6807 0.630401 40.6618 0.599153 40.6489ZM0.49983 40.3865C0.565575 40.3862 0.630718 40.399 0.691509 40.4241C0.752384 40.4492 0.807689 40.4862 0.854232 40.5329C0.900774 40.5795 0.937635 40.635 0.962687 40.696C0.987705 40.7569 1.00045 40.8222 1.0002 40.8881C1.00014 40.9872 0.970824 41.084 0.91593 41.1664C0.860986 41.2489 0.782885 41.3131 0.691497 41.3511C0.600106 41.3891 0.499542 41.399 0.402524 41.3796C0.305507 41.3603 0.216395 41.3125 0.146456 41.2424C0.0765186 41.1723 0.028899 41.0829 0.00960734 40.9857C-0.00968468 40.8884 0.000216297 40.7876 0.0380603 40.696C0.075905 40.6044 0.139996 40.5261 0.222237 40.471C0.304405 40.4159 0.401001 40.3865 0.49983 40.3865ZM0.49983 40.3865C0.499919 40.3865 0.500009 40.3865 0.500099 40.3865V40.508L0.499563 40.3865C0.499652 40.3865 0.499741 40.3865 0.49983 40.3865ZM1.0002 40.8881C1.0002 40.8882 1.0002 40.8883 1.0002 40.8884L0.87893 40.8879H1.0002C1.0002 40.888 1.0002 40.8881 1.0002 40.8881Z" fill="#09C75B"/>
<path d="M8.01192 21.3152C8.01192 21.4404 7.97489 21.5628 7.90551 21.667C7.83613 21.7711 7.73752 21.8522 7.62215 21.9001C7.50678 21.948 7.37983 21.9606 7.25735 21.9362C7.13488 21.9117 7.02238 21.8514 6.93407 21.7629C6.84577 21.6743 6.78564 21.5615 6.76128 21.4387C6.73692 21.3159 6.74942 21.1886 6.79721 21.0729C6.845 20.9573 6.92592 20.8584 7.02975 20.7888C7.13358 20.7193 7.25566 20.6821 7.38053 20.6821C7.54799 20.6821 7.70858 20.7488 7.82699 20.8676C7.9454 20.9863 8.01192 21.1473 8.01192 21.3152Z" fill="#09C75B"/>
<path fill-rule="evenodd" clip-rule="evenodd" d="M7.38058 20.8036C7.2797 20.8036 7.18108 20.8336 7.0972 20.8898C7.01331 20.946 6.94792 21.0259 6.9093 21.1194C6.87069 21.2129 6.86058 21.3157 6.88027 21.415C6.89996 21.5142 6.94855 21.6054 7.01989 21.6769C7.09124 21.7485 7.18213 21.7972 7.28107 21.8169C7.38002 21.8366 7.48257 21.8265 7.57578 21.7878C7.66898 21.7491 7.74866 21.6835 7.80472 21.5994C7.86078 21.5153 7.8907 21.4164 7.8907 21.3152C7.8907 21.1795 7.83694 21.0494 7.74127 20.9534C7.6456 20.8575 7.51586 20.8036 7.38058 20.8036ZM6.96241 20.6877C7.08618 20.6048 7.23171 20.5605 7.38058 20.5605C7.58022 20.5605 7.77166 20.6401 7.91281 20.7816C8.05395 20.9231 8.13324 21.1151 8.13324 21.3152C8.13324 21.4644 8.0891 21.6103 8.00641 21.7344C7.92371 21.8585 7.80617 21.9552 7.66863 22.0124C7.53109 22.0695 7.37975 22.0844 7.23374 22.0553C7.08773 22.0262 6.95361 21.9543 6.84836 21.8488C6.7431 21.7432 6.67143 21.6088 6.64239 21.4624C6.61335 21.316 6.62825 21.1643 6.68521 21.0264C6.74217 20.8885 6.83864 20.7707 6.96241 20.6877Z" fill="#09C75B"/>
<path d="M28.12 15.709C28.12 15.8342 28.0829 15.9566 28.0135 16.0608C27.9442 16.1649 27.8456 16.246 27.7302 16.2939C27.6148 16.3418 27.4879 16.3544 27.3654 16.33C27.2429 16.3055 27.1304 16.2452 27.0421 16.1567C26.9538 16.0681 26.8937 15.9553 26.8693 15.8325C26.8449 15.7097 26.8575 15.5824 26.9052 15.4667C26.953 15.3511 27.034 15.2522 27.1378 15.1826C27.2416 15.1131 27.3637 15.0759 27.4886 15.0759C27.656 15.0759 27.8166 15.1426 27.935 15.2614C28.0534 15.3801 28.12 15.5411 28.12 15.709Z" fill="#09C75B"/>
<path fill-rule="evenodd" clip-rule="evenodd" d="M27.4886 15.1974C27.3877 15.1974 27.2891 15.2274 27.2052 15.2836C27.1213 15.3398 27.056 15.4197 27.0173 15.5132C26.9787 15.6067 26.9686 15.7095 26.9883 15.8088C27.008 15.908 27.0566 15.9992 27.1279 16.0707C27.1993 16.1423 27.2902 16.191 27.3891 16.2107C27.488 16.2304 27.5906 16.2203 27.6838 16.1816C27.777 16.1429 27.8567 16.0773 27.9127 15.9932C27.9688 15.9091 27.9987 15.8102 27.9987 15.709C27.9987 15.5733 27.945 15.4432 27.8493 15.3472C27.7536 15.2513 27.6239 15.1974 27.4886 15.1974ZM27.0704 15.0815C27.1942 14.9986 27.3397 14.9543 27.4886 14.9543C27.6883 14.9543 27.8797 15.0339 28.0208 15.1754C28.162 15.3169 28.2413 15.5089 28.2413 15.709C28.2413 15.8582 28.1971 16.0041 28.1144 16.1282C28.0317 16.2523 27.9142 16.349 27.7767 16.4062C27.6391 16.4633 27.4878 16.4782 27.3418 16.4491C27.1958 16.42 27.0616 16.3481 26.9564 16.2426C26.8511 16.137 26.7795 16.0026 26.7504 15.8562C26.7214 15.7098 26.7363 15.5581 26.7932 15.4202C26.8502 15.2823 26.9467 15.1645 27.0704 15.0815Z" fill="#09C75B"/>
<path d="M22.5937 4.65311C22.5937 4.77833 22.5567 4.90073 22.4873 5.00484C22.4179 5.10896 22.3193 5.1901 22.2039 5.23802C22.0886 5.28594 21.9616 5.29847 21.8391 5.27405C21.7167 5.24962 21.6042 5.18932 21.5159 5.10078C21.4276 5.01224 21.3674 4.89943 21.3431 4.77663C21.3187 4.65382 21.3312 4.52652 21.379 4.41084C21.4268 4.29516 21.5077 4.19628 21.6115 4.12672C21.7154 4.05715 21.8374 4.02002 21.9623 4.02002C22.1296 4.02046 22.29 4.0873 22.4083 4.20593C22.5266 4.32457 22.5933 4.48534 22.5937 4.65311Z" fill="#09C75B"/>
<path fill-rule="evenodd" clip-rule="evenodd" d="M21.9621 4.14151C21.8613 4.14155 21.7627 4.17154 21.6789 4.22771C21.595 4.28392 21.5296 4.36381 21.491 4.45729C21.4523 4.55077 21.4422 4.65364 21.4619 4.75288C21.4816 4.85213 21.5302 4.94328 21.6016 5.01482C21.6729 5.08636 21.7638 5.13507 21.8627 5.1548C21.9617 5.17454 22.0642 5.16441 22.1574 5.1257C22.2506 5.08698 22.3303 5.02143 22.3864 4.9373C22.4424 4.85321 22.4723 4.75436 22.4724 4.65322C22.472 4.51761 22.4181 4.38768 22.3225 4.29181C22.2268 4.19594 22.0973 4.14191 21.9621 4.14151ZM21.5441 4.02563C21.6678 3.9427 21.8134 3.89844 21.9622 3.89844H21.9626C22.162 3.89896 22.353 3.97862 22.494 4.11997C22.635 4.26132 22.7144 4.45288 22.7149 4.65275L22.7149 4.65307C22.7149 4.80231 22.6708 4.9482 22.5881 5.0723C22.5054 5.1964 22.3878 5.29313 22.2503 5.35025C22.1128 5.40738 21.9614 5.42233 21.8154 5.3932C21.6694 5.36408 21.5353 5.2922 21.43 5.18666C21.3248 5.08112 21.2531 4.94666 21.2241 4.80028C21.195 4.65391 21.2099 4.50219 21.2669 4.3643C21.3238 4.22642 21.4203 4.10856 21.5441 4.02563Z" fill="#09C75B"/>
<path d="M39.4467 0.584745C39.447 0.676749 39.4201 0.766781 39.3694 0.84344C39.3186 0.920099 39.2463 0.979936 39.1617 1.01537C39.077 1.05081 38.9837 1.06025 38.8937 1.04251C38.8036 1.02476 38.7209 0.980622 38.6559 0.915681C38.5909 0.850741 38.5466 0.767921 38.5286 0.677708C38.5105 0.587496 38.5196 0.493949 38.5547 0.408916C38.5897 0.323884 38.6491 0.251189 38.7254 0.200039C38.8017 0.14889 38.8913 0.121586 38.9831 0.121585C39.0439 0.121366 39.1041 0.133184 39.1604 0.156362C39.2166 0.179539 39.2677 0.213621 39.3108 0.256651C39.3539 0.299681 39.388 0.350813 39.4113 0.407115C39.4347 0.463417 39.4467 0.523781 39.4467 0.584745Z" fill="#09C75B"/>
<path fill-rule="evenodd" clip-rule="evenodd" d="M39.1143 0.268722C39.0728 0.251631 39.0284 0.242917 38.9836 0.243079L38.9831 0.24308C38.9154 0.24308 38.8492 0.263237 38.7929 0.301006C38.7366 0.338775 38.6927 0.392459 38.6668 0.455264C38.6409 0.518071 38.6342 0.587169 38.6475 0.653804C38.6608 0.720441 38.6936 0.781608 38.7416 0.829563C38.7896 0.877519 38.8507 0.910107 38.9171 0.923209C38.9836 0.936311 39.0525 0.92934 39.115 0.903176C39.1775 0.877012 39.2309 0.832829 39.2683 0.776212C39.3058 0.719596 39.3257 0.653097 39.3255 0.585136L39.3255 0.5847C39.3255 0.53973 39.3166 0.4952 39.2994 0.453664C39.2822 0.41213 39.257 0.374416 39.2252 0.342682C39.1935 0.310947 39.1558 0.285814 39.1143 0.268722ZM38.9827 3.78373e-06C39.0595 -0.000273106 39.1355 0.0146495 39.2065 0.0439138C39.2775 0.0731777 39.3421 0.116207 39.3965 0.170533C39.4508 0.224859 39.494 0.289409 39.5234 0.360479C39.5528 0.43148 39.568 0.507601 39.568 0.584484C39.5684 0.700456 39.5344 0.81394 39.4705 0.91058C39.4065 1.00728 39.3153 1.08277 39.2084 1.12748C39.1016 1.17219 38.9839 1.18411 38.8703 1.16172C38.7567 1.13933 38.6523 1.08364 38.5703 1.00171C38.4883 0.919787 38.4324 0.815313 38.4097 0.701526C38.387 0.587736 38.3984 0.469741 38.4426 0.362482C38.4868 0.255221 38.5618 0.163516 38.658 0.0989856C38.7542 0.034455 38.8674 3.74751e-06 38.9831 3.00135e-06L38.9831 0.121537L38.9827 3.78373e-06ZM39.568 0.584484C39.568 0.584556 39.568 0.584629 39.568 0.584702L39.4467 0.584701L39.568 0.584266C39.568 0.584338 39.568 0.584411 39.568 0.584484Z" fill="#09C75B"/>
<path d="M47.6747 1.40263C47.675 1.52831 47.6381 1.65127 47.5687 1.75591C47.4992 1.86055 47.4004 1.94217 47.2846 1.99042C47.1689 2.03867 47.0415 2.05138 46.9185 2.02694C46.7956 2.0025 46.6826 1.94201 46.594 1.85314C46.5054 1.76426 46.445 1.65101 46.4207 1.52772C46.3963 1.40443 46.409 1.27667 46.4571 1.16061C46.5052 1.04456 46.5866 0.945437 46.691 0.875815C46.7953 0.806194 46.9179 0.769204 47.0433 0.769533C47.2107 0.769533 47.3713 0.836234 47.4897 0.954963C47.6081 1.07369 47.6747 1.23472 47.6747 1.40263Z" fill="#09C75B"/>
<path fill-rule="evenodd" clip-rule="evenodd" d="M47.0429 0.891028C46.9416 0.890762 46.8424 0.920662 46.7581 0.976945C46.6737 1.03323 46.6079 1.11337 46.569 1.20721C46.5301 1.30105 46.5198 1.40437 46.5395 1.50405C46.5592 1.60375 46.608 1.69532 46.6797 1.76717C46.7513 1.83902 46.8427 1.88792 46.942 1.90768C47.0414 1.92743 47.1444 1.91716 47.238 1.87816C47.3316 1.83915 47.4115 1.77317 47.4676 1.68856C47.5238 1.60396 47.5536 1.50454 47.5533 1.4029L47.5533 1.40259C47.5533 1.26689 47.4996 1.13677 47.4039 1.04084C47.3082 0.944911 47.1785 0.891028 47.0432 0.891028L47.0429 0.891028ZM47.0434 0.647951C46.8941 0.647591 46.748 0.691668 46.6237 0.774598C46.4993 0.857558 46.4024 0.97566 46.345 1.11393C46.2877 1.2522 46.2726 1.40441 46.3016 1.5513C46.3307 1.69818 46.4025 1.83312 46.5081 1.93901C46.6138 2.04491 46.7483 2.11699 46.8949 2.14611C47.0414 2.17523 47.1932 2.16009 47.3311 2.10259C47.4691 2.0451 47.5868 1.94784 47.6696 1.82317C47.7522 1.69858 47.7962 1.55221 47.7959 1.40259" fill="#09C75B"/>
<path d="M53.8457 18.4663C53.8457 18.5916 53.8086 18.714 53.7393 18.8181C53.6699 18.9222 53.5713 19.0033 53.4559 19.0513C53.3405 19.0992 53.2136 19.1117 53.0911 19.0873C52.9686 19.0629 52.8561 19.0026 52.7678 18.914C52.6795 18.8255 52.6194 18.7127 52.595 18.5899C52.5707 18.4671 52.5832 18.3398 52.6309 18.2241C52.6787 18.1084 52.7597 18.0095 52.8635 17.9399C52.9673 17.8704 53.0894 17.8333 53.2143 17.8333C53.3817 17.8333 53.5423 17.9 53.6607 18.0187C53.7791 18.1374 53.8457 18.2984 53.8457 18.4663Z" fill="#09C75B"/>
<path fill-rule="evenodd" clip-rule="evenodd" d="M53.2142 17.9547C53.1133 17.9547 53.0147 17.9847 52.9308 18.0409C52.8469 18.0972 52.7815 18.177 52.7429 18.2705C52.7043 18.364 52.6942 18.4669 52.7139 18.5661C52.7336 18.6654 52.7822 18.7565 52.8535 18.8281C52.9249 18.8996 53.0157 18.9483 53.1147 18.968C53.2136 18.9878 53.3162 18.9776 53.4094 18.9389C53.5026 18.9002 53.5823 18.8347 53.6383 18.7505C53.6944 18.6664 53.7243 18.5675 53.7243 18.4663C53.7243 18.3306 53.6706 18.2005 53.5749 18.1046C53.4792 18.0086 53.3495 17.9547 53.2142 17.9547ZM52.796 17.8389C52.9198 17.7559 53.0653 17.7117 53.2142 17.7117C53.4138 17.7117 53.6053 17.7912 53.7464 17.9327C53.8876 18.0742 53.9669 18.2662 53.9669 18.4663C53.9669 18.6155 53.9227 18.7614 53.84 18.8855C53.7573 19.0096 53.6398 19.1064 53.5022 19.1635C53.3647 19.2206 53.2134 19.2356 53.0674 19.2064C52.9213 19.1773 52.7872 19.1054 52.682 18.9999C52.5767 18.8944 52.505 18.7599 52.476 18.6135C52.447 18.4671 52.4619 18.3154 52.5188 18.1775C52.5758 18.0397 52.6723 17.9218 52.796 17.8389Z" fill="#09C75B"/>
<path d="M60.3622 6.53414C60.3622 6.64123 60.3306 6.74592 60.2712 6.83496C60.2119 6.924 60.1276 6.9934 60.0289 7.03439C59.9302 7.07537 59.8216 7.08609 59.7169 7.0652C59.6121 7.04431 59.5159 6.99274 59.4404 6.91701C59.3649 6.84129 59.3134 6.74481 59.2926 6.63977C59.2718 6.53474 59.2825 6.42587 59.3233 6.32693C59.3642 6.22799 59.4334 6.14343 59.5222 6.08393C59.611 6.02443 59.7154 5.99268 59.8222 5.99268C59.9654 5.99268 60.1028 6.04972 60.2041 6.15127C60.3053 6.25281 60.3622 6.39053 60.3622 6.53414Z" fill="#09C75B"/>
<path fill-rule="evenodd" clip-rule="evenodd" d="M59.8222 6.11417C59.7394 6.11417 59.6584 6.13879 59.5895 6.18493C59.5207 6.23106 59.467 6.29664 59.4353 6.37338C59.4036 6.45012 59.3953 6.53456 59.4115 6.61603C59.4276 6.6975 59.4675 6.77232 59.5261 6.83105C59.5847 6.88977 59.6593 6.92975 59.7405 6.94595C59.8217 6.96215 59.9059 6.95384 59.9824 6.92206C60.0589 6.89029 60.1243 6.83647 60.1703 6.76742C60.2163 6.69836 60.2409 6.61716 60.2409 6.5341C60.2409 6.42271 60.1968 6.31589 60.1182 6.23714C60.0397 6.1584 59.9332 6.11417 59.8222 6.11417ZM59.4548 5.98284C59.5635 5.90999 59.6914 5.87109 59.8222 5.87109C59.9976 5.87109 60.1658 5.94096 60.2898 6.0653C60.4138 6.18964 60.4834 6.35828 60.4834 6.5341C60.4834 6.66521 60.4447 6.79339 60.372 6.90242C60.2993 7.01145 60.1961 7.09643 60.0752 7.14662C59.9544 7.19681 59.8214 7.20994 59.6931 7.18436C59.5649 7.15877 59.447 7.09562 59.3546 7.00289C59.2621 6.91016 59.1991 6.79203 59.1736 6.66343C59.1481 6.53483 59.1612 6.40154 59.2112 6.28039C59.2613 6.15925 59.346 6.0557 59.4548 5.98284Z" fill="#09C75B"/>
<path d="M66.4152 19.396C66.4152 19.5212 66.3782 19.6437 66.3088 19.7478C66.2395 19.8519 66.1408 19.933 66.0255 19.9809C65.9101 20.0289 65.7831 20.0414 65.6607 20.017C65.5382 19.9925 65.4257 19.9322 65.3374 19.8437C65.2491 19.7552 65.189 19.6424 65.1646 19.5195C65.1402 19.3967 65.1527 19.2694 65.2005 19.1538C65.2483 19.0381 65.3292 18.9392 65.4331 18.8696C65.5369 18.8001 65.659 18.7629 65.7839 18.7629C65.8668 18.7629 65.9489 18.7793 66.0255 18.8111C66.1021 18.8429 66.1717 18.8896 66.2303 18.9484C66.2889 19.0072 66.3354 19.077 66.3672 19.1538C66.3989 19.2306 66.4152 19.3129 66.4152 19.396Z" fill="#09C75B"/>
<path fill-rule="evenodd" clip-rule="evenodd" d="M65.7838 18.8844C65.6829 18.8844 65.5843 18.9144 65.5004 18.9706C65.4165 19.0268 65.3511 19.1067 65.3125 19.2002C65.2739 19.2937 65.2638 19.3966 65.2835 19.4958C65.3032 19.595 65.3517 19.6862 65.4231 19.7577C65.4944 19.8293 65.5853 19.878 65.6843 19.8977C65.7832 19.9175 65.8858 19.9073 65.979 19.8686C66.0722 19.8299 66.1519 19.7643 66.2079 19.6802C66.264 19.5961 66.2939 19.4972 66.2939 19.396C66.2939 19.3288 66.2807 19.2623 66.2551 19.2002C66.2294 19.1381 66.1918 19.0817 66.1445 19.0342C66.0971 18.9867 66.0409 18.9491 65.979 18.9234C65.9171 18.8977 65.8508 18.8844 65.7838 18.8844ZM65.3656 18.7686C65.4894 18.6856 65.6349 18.6414 65.7838 18.6414C65.8826 18.6414 65.9805 18.6609 66.0718 18.6988C66.1631 18.7367 66.2461 18.7923 66.316 18.8624C66.3859 18.9325 66.4413 19.0157 66.4792 19.1072C66.517 19.1988 66.5364 19.2969 66.5364 19.396C66.5364 19.5452 66.4923 19.6911 66.4096 19.8152C66.3269 19.9393 66.2094 20.0361 66.0718 20.0932C65.9343 20.1503 65.7829 20.1652 65.6369 20.1361C65.4909 20.107 65.3568 20.0351 65.2516 19.9296C65.1463 19.824 65.0746 19.6896 65.0456 19.5432C65.0166 19.3968 65.0315 19.2451 65.0884 19.1072C65.1454 18.9693 65.2418 18.8515 65.3656 18.7686Z" fill="#09C75B"/>
<path d="M70.9363 17.6933C71.1822 17.6933 71.3816 17.4934 71.3816 17.2468C71.3816 17.0002 71.1822 16.8003 70.9363 16.8003C70.6903 16.8003 70.491 17.0002 70.491 17.2468C70.491 17.4934 70.6903 17.6933 70.9363 17.6933Z" fill="#09C75B"/>
<path fill-rule="evenodd" clip-rule="evenodd" d="M70.9362 16.9218C70.7573 16.9218 70.6122 17.0672 70.6122 17.2467C70.6122 17.4263 70.7573 17.5717 70.9362 17.5717C71.1151 17.5717 71.2602 17.4263 71.2602 17.2467C71.2602 17.0672 71.1151 16.9218 70.9362 16.9218ZM70.3696 17.2467C70.3696 16.9331 70.6232 16.6787 70.9362 16.6787C71.2491 16.6787 71.5027 16.9331 71.5027 17.2467C71.5027 17.5604 71.2491 17.8148 70.9362 17.8148C70.6232 17.8148 70.3696 17.5604 70.3696 17.2467Z" fill="#09C75B"/>
<path d="M74.1563 23.3743C74.505 23.3743 74.7877 23.0909 74.7877 22.7413C74.7877 22.3916 74.505 22.1082 74.1563 22.1082C73.8076 22.1082 73.5249 22.3916 73.5249 22.7413C73.5249 23.0909 73.8076 23.3743 74.1563 23.3743Z" fill="#09C75B"/>
<path fill-rule="evenodd" clip-rule="evenodd" d="M74.1563 22.2299C73.8747 22.2299 73.6462 22.4589 73.6462 22.7415C73.6462 23.024 73.8747 23.253 74.1563 23.253C74.438 23.253 74.6665 23.024 74.6665 22.7415C74.6665 22.4589 74.438 22.2299 74.1563 22.2299ZM73.4037 22.7415C73.4037 22.3247 73.7406 21.9868 74.1563 21.9868C74.5721 21.9868 74.909 22.3247 74.909 22.7415C74.909 23.1582 74.5721 23.4961 74.1563 23.4961C73.7406 23.4961 73.4037 23.1582 73.4037 22.7415Z" fill="#09C75B"/>
<path d="M6.38527 19.5891C6.38527 19.6751 6.35984 19.7592 6.31218 19.8307C6.26453 19.9022 6.1968 19.958 6.11756 19.9909C6.03832 20.0238 5.95113 20.0324 5.867 20.0156C5.78288 19.9988 5.70561 19.9574 5.64496 19.8966C5.58431 19.8358 5.54301 19.7583 5.52628 19.674C5.50954 19.5896 5.51813 19.5022 5.55096 19.4227C5.58378 19.3433 5.63936 19.2754 5.71068 19.2276C5.78199 19.1798 5.86584 19.1543 5.95161 19.1543C6.00862 19.1541 6.06511 19.1652 6.11782 19.187C6.17054 19.2087 6.21843 19.2407 6.25874 19.2812C6.29906 19.3216 6.33099 19.3696 6.35271 19.4225C6.37442 19.4753 6.38549 19.532 6.38527 19.5891Z" fill="#09C75B"/>
<path fill-rule="evenodd" clip-rule="evenodd" d="M6.07166 19.2995C6.03375 19.2839 5.99312 19.2759 5.95213 19.276L5.95166 19.276C5.88988 19.276 5.82949 19.2944 5.77812 19.3288C5.72675 19.3632 5.6867 19.4122 5.66305 19.4694C5.6394 19.5267 5.63321 19.5897 5.64527 19.6505C5.65733 19.7113 5.68709 19.7671 5.73078 19.8109C5.77447 19.8547 5.83013 19.8845 5.89072 19.8966C5.95131 19.9087 6.01411 19.9025 6.07119 19.8788C6.12826 19.8551 6.17706 19.8149 6.21139 19.7634C6.24572 19.7119 6.26405 19.6513 6.26405 19.5893V19.5889H6.26405C6.26421 19.5477 6.25625 19.507 6.24062 19.4689C6.225 19.4309 6.20202 19.3964 6.17302 19.3673C6.14403 19.3382 6.10958 19.3152 6.07166 19.2995ZM5.95119 19.033C6.02421 19.0327 6.09657 19.0469 6.16408 19.0748C6.2316 19.1027 6.29294 19.1437 6.34456 19.1954C6.39619 19.2472 6.43708 19.3087 6.46489 19.3764C6.49267 19.444 6.50684 19.5165 6.50659 19.5896C6.50654 19.6995 6.47401 19.807 6.41308 19.8984C6.35211 19.9899 6.26545 20.0612 6.16404 20.1034C6.06263 20.1455 5.95104 20.1565 5.84339 20.135C5.73573 20.1135 5.63685 20.0605 5.55924 19.9827C5.48164 19.9049 5.4288 19.8058 5.40739 19.6979C5.38598 19.59 5.39697 19.4781 5.43896 19.3764C5.48096 19.2748 5.55208 19.1879 5.64333 19.1267C5.73459 19.0656 5.84189 19.033 5.95166 19.033V19.1545L5.95119 19.033ZM6.50659 19.5896C6.50659 19.5896 6.50659 19.5897 6.50659 19.5898L6.38532 19.5893H6.50659C6.50659 19.5894 6.50659 19.5895 6.50659 19.5896Z" fill="#09C75B"/>
<path d="M3.96939 24.1425C3.96939 24.2183 3.94697 24.2923 3.90498 24.3554C3.86299 24.4184 3.80331 24.4675 3.73348 24.4965C3.66365 24.5255 3.58681 24.5331 3.51268 24.5183C3.43855 24.5035 3.37045 24.467 3.31701 24.4134C3.26356 24.3598 3.22717 24.2916 3.21242 24.2172C3.19768 24.1429 3.20524 24.0658 3.23417 23.9958C3.26309 23.9258 3.31207 23.866 3.37492 23.8239C3.43776 23.7818 3.51165 23.7593 3.58723 23.7593C3.68859 23.7593 3.78579 23.7996 3.85746 23.8715C3.92913 23.9434 3.96939 24.0408 3.96939 24.1425Z" fill="#09C75B"/>
<path fill-rule="evenodd" clip-rule="evenodd" d="M3.58728 23.8808C3.5357 23.8808 3.48527 23.8961 3.44236 23.9249C3.39946 23.9536 3.36602 23.9945 3.34626 24.0423C3.32651 24.0901 3.32134 24.1427 3.33141 24.1935C3.34148 24.2442 3.36634 24.2909 3.40283 24.3275C3.43932 24.364 3.4858 24.389 3.5364 24.399C3.587 24.4091 3.63944 24.404 3.6871 24.3842C3.73477 24.3644 3.77552 24.3308 3.80419 24.2878C3.83286 24.2448 3.84817 24.1942 3.84817 24.1424C3.84817 24.073 3.82067 24.0065 3.77174 23.9574C3.72281 23.9083 3.65646 23.8808 3.58728 23.8808ZM3.30758 23.7228C3.39037 23.6673 3.4877 23.6377 3.58728 23.6377C3.72082 23.6377 3.84887 23.6909 3.94328 23.7855C4.03768 23.8802 4.09071 24.0086 4.09071 24.1424C4.09071 24.2422 4.06119 24.3398 4.00588 24.4228C3.95057 24.5058 3.87195 24.5705 3.77995 24.6087C3.68796 24.6469 3.58672 24.6569 3.48906 24.6374C3.3914 24.618 3.30169 24.5699 3.23129 24.4993C3.16089 24.4287 3.11295 24.3388 3.09353 24.2409C3.07411 24.143 3.08408 24.0415 3.12218 23.9493C3.16027 23.8571 3.22479 23.7782 3.30758 23.7228Z" fill="#09C75B"/>
</svg>
