<svg width="40" height="40" viewBox="0 0 40 40" fill="none" xmlns="http://www.w3.org/2000/svg">
<g clip-path="url(#clip0_3260_37730)">
<path d="M20.0904 23.6744C19.3597 23.6721 18.6461 23.4534 18.0396 23.0458C17.4331 22.6382 16.961 22.0601 16.6829 21.3843C16.4048 20.7086 16.3332 19.9656 16.4772 19.2492C16.6211 18.5328 16.9741 17.8751 17.4916 17.3592C18.0091 16.8433 18.6678 16.4923 19.3847 16.3506C20.1015 16.2089 20.8443 16.2827 21.5191 16.5629C22.194 16.843 22.7707 17.3169 23.1765 17.9246C23.5822 18.5323 23.7987 19.2467 23.7988 19.9774C23.7958 20.9589 23.4038 21.8992 22.7086 22.5922C22.0135 23.2852 21.072 23.6744 20.0904 23.6744Z" fill="url(#paint0_linear_3260_37730)"/>
<path fill-rule="evenodd" clip-rule="evenodd" d="M11.8978 11.8751C12.8053 10.9677 14.036 10.4579 15.3194 10.4579H24.6806C25.9639 10.4579 27.1948 10.9677 28.1022 11.8751C29.0097 12.7826 29.5195 14.0134 29.5195 15.2968V24.658C29.5195 25.9413 29.0097 27.1721 28.1022 28.0796C27.1948 28.9871 25.9639 29.4969 24.6806 29.4969H15.3194C14.036 29.4969 12.8053 28.9871 11.8978 28.0796C10.9903 27.1721 10.4805 25.9413 10.4805 24.658V15.2968C10.4805 14.0134 10.9903 12.7826 11.8978 11.8751ZM26.2069 12.4364C25.9341 12.4364 25.6674 12.5173 25.4406 12.6688C25.2138 12.8204 25.037 13.0358 24.9326 13.2879C24.8282 13.5399 24.8009 13.8172 24.8541 14.0848C24.9073 14.3523 25.0387 14.5981 25.2316 14.791C25.4245 14.9839 25.6702 15.1153 25.9378 15.1685C26.2054 15.2217 26.4827 15.1944 26.7347 15.09C26.9868 14.9856 27.2022 14.8088 27.3538 14.582C27.5053 14.3552 27.5862 14.0885 27.5862 13.8157C27.5862 13.4499 27.4409 13.099 27.1822 12.8404C26.9235 12.5817 26.5727 12.4364 26.2069 12.4364ZM20.0904 14.2001C18.9478 14.2001 17.8308 14.5389 16.8808 15.1737C15.9307 15.8086 15.1902 16.7108 14.753 17.7665C14.3157 18.8222 14.2013 19.9838 14.4242 21.1045C14.6471 22.2251 15.1973 23.2545 16.0053 24.0625C16.8133 24.8705 17.8427 25.4207 18.9633 25.6436C20.084 25.8665 21.2456 25.7521 22.3013 25.3149C23.357 24.8776 24.2593 24.1371 24.8941 23.187C25.5289 22.237 25.8677 21.12 25.8677 19.9774C25.8677 18.4451 25.259 16.9757 24.1756 15.8922C23.0921 14.8088 21.6227 14.2001 20.0904 14.2001Z" fill="url(#paint1_linear_3260_37730)"/>
<path fill-rule="evenodd" clip-rule="evenodd" d="M40 20C40 31.0457 31.0457 40 20 40C8.9543 40 0 31.0457 0 20C0 8.9543 8.9543 0 20 0C31.0457 0 40 8.9543 40 20ZM15.3194 31.7015H24.6806C26.5487 31.7015 28.3402 30.9594 29.6611 29.6385C30.982 28.3176 31.7241 26.526 31.7241 24.658V15.2968C31.7241 13.4287 30.982 11.6372 29.6611 10.3162C28.3402 8.99532 26.5487 8.25324 24.6806 8.25324H15.3194C13.4513 8.25324 11.6598 8.99532 10.3389 10.3162C9.01793 11.6372 8.27587 13.4287 8.27587 15.2968V24.658C8.27587 26.526 9.01793 28.3176 10.3389 29.6385C11.6598 30.9594 13.4513 31.7015 15.3194 31.7015Z" fill="url(#paint2_linear_3260_37730)"/>
</g>
<defs>
<linearGradient id="paint0_linear_3260_37730" x1="1.26625" y1="4.17185" x2="41.2549" y2="37.9536" gradientUnits="userSpaceOnUse">
<stop stop-color="#FBE18A"/>
<stop offset="0.21" stop-color="#FCBB45"/>
<stop offset="0.38" stop-color="#F75274"/>
<stop offset="0.52" stop-color="#D53692"/>
<stop offset="0.74" stop-color="#8F39CE"/>
<stop offset="1" stop-color="#5B4FE9"/>
</linearGradient>
<linearGradient id="paint1_linear_3260_37730" x1="1.26625" y1="4.17185" x2="41.2549" y2="37.9536" gradientUnits="userSpaceOnUse">
<stop stop-color="#FBE18A"/>
<stop offset="0.21" stop-color="#FCBB45"/>
<stop offset="0.38" stop-color="#F75274"/>
<stop offset="0.52" stop-color="#D53692"/>
<stop offset="0.74" stop-color="#8F39CE"/>
<stop offset="1" stop-color="#5B4FE9"/>
</linearGradient>
<linearGradient id="paint2_linear_3260_37730" x1="1.26625" y1="4.17185" x2="41.2549" y2="37.9536" gradientUnits="userSpaceOnUse">
<stop stop-color="#FBE18A"/>
<stop offset="0.21" stop-color="#FCBB45"/>
<stop offset="0.38" stop-color="#F75274"/>
<stop offset="0.52" stop-color="#D53692"/>
<stop offset="0.74" stop-color="#8F39CE"/>
<stop offset="1" stop-color="#5B4FE9"/>
</linearGradient>
<clipPath id="clip0_3260_37730">
<rect width="40" height="40" fill="white"/>
</clipPath>
</defs>
</svg>
