<svg width="15" height="17" viewBox="0 0 15 17" fill="none" xmlns="http://www.w3.org/2000/svg">
<g clip-path="url(#clip0_2557_1064)">
<path d="M0.0186001 13.8652C0.239312 12.8476 1.0793 12.371 2.001 11.9752C2.31424 11.8407 2.64511 11.7399 2.97318 11.6376C3.36173 11.5165 3.71663 11.6695 3.83399 11.9949C3.95416 12.3266 3.75388 12.6249 3.35732 12.7694C2.88145 12.9423 2.41305 13.1324 1.95213 13.3397C1.77709 13.4187 1.62367 13.5524 1.48427 13.6825C1.24633 13.9049 1.24393 14.1179 1.46464 14.3555C1.75866 14.6731 2.15002 14.8613 2.55499 15.0259C3.44785 15.389 4.39198 15.5736 5.35374 15.6877C6.67244 15.8443 8.00655 15.8558 9.32816 15.7218C10.5599 15.5977 11.7716 15.3857 12.8724 14.825C13.1202 14.6929 13.3461 14.5283 13.5429 14.3362C13.7648 14.1265 13.7616 13.8971 13.5261 13.6992C13.2876 13.4939 13.0217 13.3175 12.735 13.1744C12.3885 13.0077 12.014 12.888 11.6438 12.7668C11.2481 12.6367 11.0462 12.3273 11.166 11.9953C11.2833 11.6699 11.635 11.5231 12.0276 11.6362C12.7314 11.8385 13.4055 12.0986 14.0048 12.5052C14.5155 12.8513 14.8664 13.2923 14.9838 13.8745C15.007 13.99 15.0054 14.1086 14.9789 14.2236C14.7827 15.0796 14.1249 15.5699 13.3314 15.9453C12.4325 16.3711 11.4668 16.6056 10.4782 16.765C8.76524 17.0377 7.01802 17.0737 5.29366 16.8717C4.13202 16.7394 2.9912 16.513 1.92089 16.0564C1.02723 15.6759 0.246124 15.1871 0.0210058 14.2213C-0.00616612 14.104 -0.00698653 13.9828 0.0186001 13.8652Z" fill="#898989"/>
<path d="M13.268 5.41884C13.2612 6.13443 13.0356 6.8678 12.7336 7.58414C12.2637 8.69847 11.624 9.73054 10.9271 10.7341C10.0485 11.988 9.08999 13.1924 8.0566 14.3409C7.93002 14.4829 7.78902 14.5977 7.57993 14.6189C7.31515 14.6455 7.12008 14.5425 6.95505 14.3595C5.70007 12.9535 4.53362 11.4886 3.52379 9.92028C2.9416 9.02739 2.45488 8.08413 2.07054 7.10386C0.984605 4.29005 2.66658 1.37951 5.35999 0.384873C6.06649 0.123252 6.82209 -0.00603624 7.583 0.00450237C8.34391 0.015041 9.09499 0.165197 9.79271 0.446267C10.4904 0.727336 11.1209 1.13373 11.6476 1.64189C12.1743 2.15005 12.5867 2.74987 12.861 3.40658C13.127 4.03212 13.2596 4.68212 13.268 5.41884ZM7.49981 7.50631C8.12095 7.50564 8.71661 7.27786 9.15698 6.8726C9.59735 6.46735 9.84672 5.91749 9.85074 5.34287C9.85715 4.14663 8.79324 3.16015 7.49701 3.16052C6.8761 3.16351 6.2814 3.39245 5.84148 3.79785C5.40156 4.20324 5.15176 4.75251 5.14609 5.32693C5.14048 6.52391 6.20198 7.50668 7.49981 7.50631Z" fill="#898989"/>
</g>
<defs>
<clipPath id="clip0_2557_1064">
<rect width="15" height="17" fill="white"/>
</clipPath>
</defs>
</svg>
