<svg width="77" height="77" viewBox="0 0 77 77" fill="none" xmlns="http://www.w3.org/2000/svg">
<path d="M42.6521 0.338204C43.0549 0.402302 43.4562 0.472975 43.8558 0.556795C53.5494 2.56192 61.4244 11.0673 62.7448 20.8743C63.6788 27.8079 62.0163 34.0429 57.7574 39.5795C57.6752 39.6863 57.6028 39.8014 57.4877 39.9641C58.4414 40.5722 59.3952 41.1343 60.3012 41.772C69.4605 48.1572 74.8804 56.8926 76.6152 67.9044C76.898 69.7041 76.9441 71.5481 76.9967 73.3757C77.0381 74.2946 76.7127 75.1923 76.0919 75.8713C75.4711 76.5503 74.6059 76.9551 73.6865 76.9965C72.7672 77.0379 71.8691 76.7126 71.1897 76.0921C70.5103 75.4717 70.1054 74.6069 70.064 73.688C69.9324 70.6475 69.6726 67.6365 68.7863 64.711C66.1004 55.8424 60.6055 49.3438 52.3013 45.2152C52.0448 45.0887 51.5646 45.1856 51.2917 45.35C47.2037 47.7989 42.7902 49.0381 38.0215 48.9444C33.7063 48.8789 29.4899 47.6439 25.8218 45.3714C25.3761 45.1002 25.044 45.0427 24.5638 45.2958C14.5923 50.4992 8.73825 58.6085 7.22706 69.7846C7.04453 71.1356 7.07413 72.5129 6.93765 73.8705C6.84061 74.7433 6.41629 75.547 5.75014 76.1197C5.08399 76.6924 4.22549 76.9916 3.34749 76.957C2.46948 76.9224 1.63719 76.5567 1.01821 75.9333C0.39922 75.31 0.0395051 74.4754 0.0114926 73.5976C-0.0208757 72.6955 -0.00220515 71.7923 0.0674061 70.8923C1.2393 57.5248 7.54278 47.3239 18.9778 40.2895C19.1423 40.1926 19.2853 40.0824 19.4827 39.9493C18.9581 39.2064 18.4385 38.5112 17.9649 37.7864C8.41431 23.2147 16.9569 3.43629 34.1243 0.372718H34.1687C36.9747 -0.112372 39.8422 -0.124039 42.6521 0.338204ZM38.4918 41.9331C41.9511 41.936 45.3337 40.9139 48.2121 38.9961C51.0905 37.0783 53.3356 34.3507 54.6637 31.1581C55.9917 27.9654 56.3431 24.4509 55.6735 21.0587C55.0038 17.6665 53.3432 14.5489 50.9014 12.0996C48.4597 9.65037 45.3463 7.97949 41.9548 7.2981C38.5633 6.61671 35.0458 6.95539 31.8468 8.27135C28.6478 9.5873 25.9108 11.8215 23.9818 14.6916C22.0527 17.5617 21.0181 20.9389 21.0087 24.3964C21.0011 26.6962 21.4477 28.9749 22.3228 31.1019C23.198 33.2289 24.4845 35.1624 26.1087 36.7915C27.7328 38.4206 29.6626 39.7134 31.7876 40.5956C33.9125 41.4779 36.1908 41.9324 38.4918 41.9331Z" fill="#898989"/>
</svg>
