<svg width="19" height="18" viewBox="0 0 19 18" fill="none" xmlns="http://www.w3.org/2000/svg">
<g clip-path="url(#clip0_36_554)">
<path d="M18.4329 1.73386C18.2689 2.26636 18.1032 2.79848 17.9438 3.33098C16.6669 7.60453 15.3919 11.8781 14.1187 16.1516C13.9456 16.7305 13.5379 17.0756 12.9973 17.1021C12.4287 17.1298 11.9984 16.845 11.7633 16.2763C10.9238 14.2457 10.0849 12.2145 9.24664 10.1827C9.23221 10.1472 9.22052 10.1106 9.22052 10.1114C10.3508 8.97429 11.4683 7.85202 12.5818 6.7274C12.8157 6.49017 12.8157 6.14309 12.5963 5.92339C12.3768 5.70369 12.0319 5.69706 11.793 5.9343C10.7234 6.99619 9.65732 8.06094 8.59456 9.12855C8.54277 9.1872 8.49448 9.24885 8.44996 9.31319C8.13386 9.18347 7.81153 9.0522 7.48998 8.91936C5.73293 8.19559 3.97627 7.47156 2.22 6.74727C1.67433 6.52173 1.37967 6.07726 1.40891 5.52294C1.43736 4.98615 1.78269 4.57012 2.33849 4.40456C6.89871 3.04778 15.7284 0.409018 16.9398 0.0416786C17.0333 0.013251 17.1305 -0.0011878 17.2282 -0.00117014C17.4062 -0.00102326 17.5817 0.0407311 17.7407 0.120757C17.899 0.198666 18.056 0.281249 18.1769 0.398891C18.2367 0.459581 18.287 0.528917 18.3261 0.604571C18.4184 0.776171 18.4754 0.964487 18.4937 1.15843C18.5121 1.35237 18.4914 1.54802 18.4329 1.73386Z" fill="white"/>
<path d="M2.76294 16.4816C2.64245 16.5506 2.50037 16.5717 2.36499 16.5408C2.29052 16.5264 2.22028 16.4953 2.15953 16.4499C2.09878 16.4045 2.0491 16.3459 2.0142 16.2786C1.90585 16.0796 1.91949 15.8786 2.04422 15.6892C2.08234 15.6368 2.12555 15.5883 2.17323 15.5443C3.24273 14.4749 4.31211 13.4055 5.38136 12.336C5.52479 12.1927 5.67875 12.0828 5.89117 12.0957C5.98886 12.1009 6.08346 12.1317 6.16543 12.1851C6.2474 12.2385 6.31385 12.3125 6.35807 12.3997C6.4023 12.4869 6.42274 12.5843 6.41734 12.6819C6.41194 12.7795 6.38089 12.874 6.32731 12.9558C6.28725 13.0148 6.24085 13.0693 6.18895 13.1183C5.11515 14.1922 4.04331 15.2685 2.96289 16.3363C2.90281 16.3931 2.8356 16.442 2.76294 16.4816Z" fill="white"/>
<path d="M7.32669 17.9408C7.20825 18.0007 7.07204 18.0153 6.94355 17.9821C6.8658 17.9649 6.79324 17.9296 6.73184 17.8789C6.67045 17.8283 6.62198 17.7638 6.59043 17.6907C6.4926 17.4776 6.5078 17.2591 6.6715 17.0924C7.27953 16.4714 7.89444 15.8574 8.51625 15.2502C8.73568 15.0371 9.08335 15.0699 9.28719 15.2892C9.49728 15.5128 9.49533 15.8423 9.26498 16.0768C8.79259 16.5583 8.3124 17.032 7.83533 17.5088C7.72035 17.6233 7.6155 17.7511 7.48688 17.8473C7.43662 17.8835 7.38297 17.9148 7.32669 17.9408Z" fill="white"/>
<path d="M3.22133 9.2236C3.30932 9.30699 3.3675 9.41693 3.38693 9.53656C3.40637 9.65619 3.38598 9.77889 3.3289 9.88582C3.30083 9.9443 3.26417 9.99826 3.22016 10.0459C2.64526 10.6357 2.061 11.2146 1.47519 11.795C1.22769 12.0396 0.885091 12.0412 0.65669 11.8129C0.436085 11.5916 0.44661 11.2418 0.690601 10.9948C1.26225 10.4196 1.83546 9.84635 2.41023 9.27502C2.59693 9.08842 2.81402 9.02103 3.0662 9.12465C3.12332 9.14827 3.17584 9.18177 3.22133 9.2236Z" fill="white"/>
</g>
<defs>
<clipPath id="clip0_36_554">
<rect width="18" height="18" fill="white" transform="translate(0.5)"/>
</clipPath>
</defs>
</svg>
