<svg width="19" height="18" viewBox="0 0 19 18" fill="none" xmlns="http://www.w3.org/2000/svg">
<g clip-path="url(#clip0_1259_2342)">
<path d="M18.4323 1.73381C18.2682 2.26631 18.1025 2.79843 17.9431 3.33093C16.6663 7.60448 15.3912 11.878 14.118 16.1516C13.9449 16.7304 13.5372 17.0756 12.9966 17.1021C12.428 17.1297 11.9977 16.845 11.7627 16.2762C10.9231 14.2457 10.0842 12.2145 9.24596 10.1826C9.23154 10.1472 9.21985 10.1105 9.21985 10.1113C10.3502 8.97424 11.4676 7.85196 12.5812 6.72735C12.815 6.49012 12.815 6.14304 12.5956 5.92334C12.3761 5.70364 12.0312 5.69701 11.7923 5.93425C10.7228 6.99614 9.65664 8.06089 8.59389 9.1285C8.5421 9.18715 8.49381 9.2488 8.44929 9.31314C8.13319 9.18342 7.81086 9.05215 7.48931 8.91931C5.73226 8.19554 3.9756 7.47151 2.21933 6.74722C1.67366 6.52168 1.379 6.07721 1.40824 5.52289C1.43669 4.9861 1.78202 4.57007 2.33782 4.40451C6.89804 3.04773 15.7277 0.408967 16.9391 0.0416281C17.0326 0.0132004 17.1298 -0.00123835 17.2275 -0.00122069C17.4055 -0.00107381 17.5811 0.0406805 17.7401 0.120706C17.8983 0.198615 18.0554 0.281199 18.1762 0.398841C18.236 0.45953 18.2863 0.528867 18.3255 0.60452C18.4177 0.776121 18.4747 0.964436 18.4931 1.15838C18.5114 1.35232 18.4907 1.54797 18.4323 1.73381Z" fill="#06AB58"/>
<path d="M2.7633 16.4816C2.64282 16.5507 2.50074 16.5718 2.36536 16.5408C2.29089 16.5264 2.22065 16.4953 2.1599 16.4499C2.09915 16.4045 2.04947 16.346 2.01457 16.2787C1.90622 16.0796 1.91986 15.8786 2.04458 15.6893C2.0827 15.6369 2.12592 15.5883 2.17359 15.5444C3.2431 14.4749 4.31248 13.4055 5.38173 12.3361C5.52516 12.1927 5.67911 12.0829 5.89154 12.0957C5.98923 12.1009 6.08383 12.1318 6.1658 12.1852C6.24777 12.2385 6.31422 12.3126 6.35844 12.3998C6.40267 12.487 6.42311 12.5843 6.41771 12.6819C6.41231 12.7796 6.38126 12.874 6.32768 12.9559C6.28762 13.0149 6.24122 13.0694 6.18931 13.1183C5.11552 14.1923 4.04367 15.2686 2.96325 16.3363C2.90318 16.3932 2.83597 16.442 2.7633 16.4816Z" fill="#06AB58"/>
<path d="M7.32645 17.9408C7.20801 18.0007 7.0718 18.0154 6.94331 17.9821C6.86556 17.965 6.793 17.9296 6.7316 17.879C6.6702 17.8283 6.62174 17.7638 6.59019 17.6907C6.49236 17.4776 6.50756 17.2591 6.67126 17.0924C7.27929 16.4714 7.8942 15.8574 8.516 15.2502C8.73544 15.0371 9.0831 15.0699 9.28695 15.2892C9.49703 15.5128 9.49508 15.8423 9.26473 16.0768C8.79234 16.5583 8.31215 17.032 7.83509 17.5088C7.72011 17.6233 7.61526 17.7511 7.48664 17.8473C7.43637 17.8835 7.38273 17.9149 7.32645 17.9408Z" fill="#06AB58"/>
<path d="M3.22035 9.22351C3.30834 9.3069 3.36652 9.41685 3.38596 9.53648C3.40539 9.65611 3.385 9.77881 3.32792 9.88573C3.29985 9.94421 3.2632 9.99817 3.21918 10.0458C2.64428 10.6356 2.06003 11.2145 1.47421 11.7949C1.22672 12.0395 0.884115 12.0411 0.655714 11.8128C0.435108 11.5915 0.445633 11.2417 0.689624 10.9948C1.26128 10.4195 1.83449 9.84626 2.40926 9.27493C2.59595 9.08834 2.81305 9.02095 3.06522 9.12457C3.12235 9.14818 3.17486 9.18168 3.22035 9.22351Z" fill="#06AB58"/>
</g>
<defs>
<clipPath id="clip0_1259_2342">
<rect width="18" height="18" fill="white" transform="translate(0.5)"/>
</clipPath>
</defs>
</svg>
