<svg width="278" height="80" viewBox="0 0 278 80" fill="none" xmlns="http://www.w3.org/2000/svg">
<g clip-path="url(#clip0_666_9257)">
<path d="M96.5229 43.3616C98.3335 43.1942 98.9709 42.8207 98.9709 41.3704V26.1538C98.9709 24.7035 98.3335 24.3317 96.5229 24.1643V23.2867C99.4069 23.3872 102.491 23.3872 105.375 23.2867V24.1643C103.564 24.3317 102.927 24.7035 102.927 26.1538V41.3704C102.927 42.8207 103.564 43.1925 105.375 43.3616V44.2392C102.491 44.137 99.4069 44.137 96.5229 44.2392V43.3616Z" fill="white"/>
<path d="M118.986 23.2867C121.501 23.2867 122.814 23.2532 123.979 22.9819L122.771 27.8386H121.904C122.205 25.2729 121.468 24.464 120.126 24.464H117.344V41.2364C117.344 42.7872 118.009 43.1925 120.361 43.3616V44.2392C116.941 44.137 113.756 44.137 110.336 44.2392V43.3616C112.649 43.1942 113.353 42.7872 113.353 41.2364V24.4674H111.141C109.499 24.4674 108.861 25.1373 107.586 27.842H106.714L107.889 22.9853C109.063 23.2566 110.404 23.2901 112.85 23.2901L118.986 23.2867Z" fill="white"/>
<path d="M132.698 33.6784C132.698 27.3346 136.692 22.7458 142.35 22.7458C148.008 22.7458 152.107 27.3011 152.107 33.7789C152.107 40.1228 148.152 44.7115 142.455 44.7115C136.782 44.7115 132.698 40.1563 132.698 33.6784ZM147.92 34.8926C147.92 28.5839 145.406 23.8595 141.851 23.8595C139.236 23.8595 136.89 26.39 136.89 32.5681C136.89 38.8768 139.403 43.5677 142.991 43.5677C145.572 43.5643 147.92 41.0338 147.92 34.8926Z" fill="white"/>
<path d="M167.365 38.8399C169.342 41.7087 171.192 43.5291 172.662 43.6648L171.896 44.6093C169.247 44.6428 166.431 43.8004 163.908 40.0206L161.262 36.0732C160.826 36.1067 160.39 36.1067 159.954 36.1067V41.3704C159.954 42.8207 160.525 43.226 162.336 43.3616V44.2392C159.452 44.137 156.501 44.137 153.618 44.2392V43.3616C155.429 43.226 155.998 42.8207 155.998 41.3704V26.323C155.998 24.9062 155.429 24.3317 153.752 24.1643V23.2867C156.837 23.4207 159.921 23.2867 161.565 23.2867C168.839 23.2867 170.986 26.0534 170.986 29.3928C170.986 32.3955 169.209 34.6564 165.118 35.601L167.365 38.8399ZM159.954 35.1287C164.883 35.1287 167.097 32.97 167.097 29.3593C167.097 26.5256 165.687 24.3351 162.034 24.3351C161.262 24.3351 160.423 24.4373 159.954 24.67V35.1287Z" fill="white"/>
<path d="M173.499 33.5763C173.499 27.3011 177.254 22.7458 183.088 22.7458C185.435 22.7458 186.583 23.4894 188.52 23.4894C188.962 23.4998 189.402 23.4433 189.827 23.3219C190.095 25.2445 190.397 27.1001 191.168 29.1918H189.961C188.687 25.9529 186.24 23.8612 183.491 23.8612C180.406 23.8612 177.758 26.4604 177.758 32.7372C177.758 38.8768 180.272 43.432 184.563 43.432C187.011 43.432 189.291 41.9817 190.364 38.5753H191.696C190.892 41.5446 188.578 44.7165 183.583 44.7165C177.59 44.7115 173.499 40.1563 173.499 33.5763Z" fill="white"/>
<path d="M214.001 24.1643C212.19 24.3317 211.555 24.7035 211.555 26.1538V41.3704C211.555 42.8207 212.19 43.1925 214.001 43.3616V44.2392C211.119 44.137 208.033 44.137 205.151 44.2392V43.3616C206.961 43.1942 207.597 42.8207 207.597 41.3704V34.3198H199.619V41.3704C199.619 42.8207 200.255 43.1925 202.065 43.3616V44.2392C199.183 44.137 196.097 44.137 193.215 44.2392V43.3616C195.026 43.1942 195.661 42.8207 195.661 41.3704V26.1538C195.661 24.7035 195.026 24.3317 193.215 24.1643V23.2867C196.097 23.3872 199.183 23.3872 202.065 23.2867V24.1643C200.255 24.3317 199.619 24.7035 199.619 26.1538V33.2731H207.597V26.1538C207.597 24.7035 206.961 24.3317 205.151 24.1643V23.2867C208.033 23.3872 211.119 23.3872 214.001 23.2867V24.1643Z" fill="white"/>
<path d="M233.612 40.2901C234.351 42.3149 234.787 43.1589 236.999 43.3616V44.2391C234.015 44.1705 230.696 44.1705 227.679 44.2391V43.3616C229.891 43.1941 230.327 42.6197 229.689 40.7976L228.618 37.7596H221.275L220.202 40.9315C219.631 42.6867 220.906 43.1924 223.018 43.3616V44.2391C220.536 44.1705 217.787 44.1705 215.341 44.2391V43.3616C217.552 43.1589 218.391 42.4505 219.028 40.5949L225.096 23.1175H227.409L233.612 40.2901ZM221.643 36.7146H228.215L224.828 27.234L221.643 36.7146Z" fill="white"/>
<path d="M252.086 38.8399C254.063 41.7087 255.914 43.5291 257.383 43.6648L256.611 44.6093C253.964 44.6428 251.146 43.8004 248.633 40.0206L245.984 36.0732C245.548 36.1067 245.112 36.1067 244.676 36.1067V41.3704C244.676 42.8207 245.246 43.226 247.057 43.3616V44.2392C244.173 44.137 241.222 44.137 238.34 44.2392V43.3616C240.149 43.226 240.72 42.8207 240.72 41.3704V26.323C240.72 24.9062 240.149 24.3317 238.473 24.1643V23.2867C241.559 23.4207 244.642 23.2867 246.285 23.2867C253.561 23.2867 255.706 26.0534 255.706 29.3928C255.706 32.3955 253.93 34.6564 249.84 35.601L252.086 38.8399ZM244.676 35.1287C249.605 35.1287 251.817 32.97 251.817 29.3593C251.817 26.5256 250.409 24.3351 246.754 24.3351C245.984 24.3351 245.145 24.4373 244.676 24.67V35.1287Z" fill="white"/>
<path d="M258.723 43.3616C260.399 43.0568 261.103 42.7537 261.103 41.3704V26.323C261.103 24.9062 260.534 24.3317 258.823 24.1643V23.2867C261.908 23.4207 264.724 23.2867 266.3 23.2867C273.709 23.2867 278.203 26.3565 278.203 33.6097C278.203 41.7087 272.503 44.2392 268.479 44.2392C266.77 44.2392 265.194 43.7669 262.947 43.7669C261.572 43.7669 260.366 43.9344 258.723 44.2392V43.3616ZM273.911 34.0837C273.911 28.2456 271.832 24.3317 266.836 24.3317C266.099 24.3317 265.495 24.4339 265.06 24.6365V41.3704C265.06 42.8207 266.435 43.1925 267.741 43.1925C272.436 43.1925 273.912 39.009 273.912 34.0837H273.911Z" fill="white"/>
<path d="M115.031 58.7055C114.746 58.5839 114.5 58.3872 114.318 58.1361C114.147 57.8909 114.054 57.5987 114.052 57.2987H114.859C114.881 57.5623 115 57.8083 115.192 57.9887C115.432 58.1913 115.74 58.2921 116.052 58.2701C116.361 58.2879 116.665 58.1907 116.906 57.9971C117.007 57.9118 117.087 57.8047 117.141 57.6838C117.195 57.5628 117.221 57.4312 117.217 57.2987C117.226 57.1006 117.161 56.9063 117.034 56.7544C116.909 56.6127 116.752 56.5036 116.577 56.4363C116.334 56.3448 116.087 56.2666 115.836 56.2018C115.523 56.1244 115.216 56.0237 114.917 55.9003C114.683 55.7971 114.479 55.6337 114.327 55.4264C114.15 55.1737 114.064 54.8688 114.08 54.5606C114.075 54.2608 114.159 53.9663 114.322 53.7148C114.489 53.4637 114.725 53.2661 115.001 53.1454C115.315 53.007 115.656 52.9384 115.999 52.9445C116.476 52.9254 116.946 53.0701 117.33 53.3548C117.499 53.4841 117.639 53.6481 117.74 53.8357C117.841 54.0234 117.901 54.2305 117.916 54.4433H117.084C117.05 54.2075 116.924 53.9948 116.735 53.8522C116.501 53.6732 116.212 53.5831 115.919 53.5976C115.64 53.5853 115.366 53.6725 115.145 53.8438C115.046 53.9279 114.967 54.0341 114.915 54.1541C114.863 54.2742 114.839 54.4047 114.846 54.5354C114.838 54.7252 114.902 54.9108 115.026 55.0546C115.15 55.1908 115.306 55.2943 115.48 55.3561C115.721 55.4486 115.966 55.5285 116.215 55.5955C116.532 55.678 116.842 55.7827 117.144 55.9087C117.38 56.015 117.586 56.1791 117.743 56.386C117.922 56.6416 118.01 56.95 117.993 57.2619C117.993 57.5456 117.915 57.8238 117.768 58.0658C117.607 58.3279 117.377 58.5396 117.102 58.677C116.78 58.8398 116.423 58.9203 116.062 58.9115C115.708 58.9183 115.356 58.8481 115.031 58.7055Z" fill="white"/>
<path d="M121.596 58.635C121.25 58.4403 120.967 58.1496 120.78 57.7977C120.577 57.4131 120.475 56.9823 120.484 56.5466C120.475 56.1122 120.58 55.6831 120.789 55.3023C120.982 54.9516 121.27 54.6639 121.621 54.4733C121.983 54.2841 122.386 54.1853 122.794 54.1853C123.202 54.1853 123.605 54.2841 123.967 54.4733C124.316 54.6643 124.605 54.9505 124.799 55.299C125.007 55.681 125.112 56.1112 125.102 56.5466C125.112 56.9842 125.004 57.4162 124.791 57.7977C124.592 58.1506 124.299 58.4406 123.946 58.635C123.583 58.8326 123.176 58.9335 122.764 58.9281C122.356 58.9351 121.953 58.834 121.596 58.635ZM123.521 58.0656C123.765 57.9321 123.966 57.7317 124.1 57.4878C124.244 57.1963 124.319 56.8753 124.319 56.55C124.319 56.2246 124.244 55.9037 124.1 55.6121C123.971 55.3697 123.774 55.1702 123.535 55.0377C123.3 54.9145 123.04 54.8501 122.776 54.8501C122.511 54.8501 122.251 54.9145 122.017 55.0377C121.78 55.1703 121.587 55.3701 121.463 55.6121C121.316 55.9023 121.245 56.2248 121.255 56.55C121.244 56.8776 121.315 57.2026 121.459 57.4962C121.58 57.7375 121.769 57.937 122.004 58.069C122.233 58.1953 122.491 58.2604 122.752 58.2582C123.021 58.2602 123.285 58.194 123.521 58.0656Z" fill="white"/>
<path d="M131.801 54.2641V58.8528H131.043V58.1746C130.898 58.4108 130.689 58.6007 130.441 58.7222C130.176 58.8558 129.883 58.9236 129.587 58.9198C129.255 58.9254 128.926 58.8489 128.63 58.6971C128.346 58.5466 128.114 58.313 127.965 58.0272C127.791 57.6945 127.707 57.3224 127.718 56.947V54.2641H128.461V56.8515C128.436 57.2301 128.558 57.6035 128.802 57.8932C128.923 58.0168 129.068 58.1132 129.229 58.1761C129.39 58.2391 129.562 58.2671 129.734 58.2583C129.911 58.2676 130.088 58.2387 130.253 58.1738C130.418 58.1088 130.567 58.0091 130.691 57.8815C130.924 57.6303 131.04 57.2646 131.04 56.7846V54.2641H131.801Z" fill="white"/>
<path d="M135.67 54.892V57.5967C135.661 57.6809 135.669 57.766 135.694 57.8471C135.718 57.9282 135.758 58.0036 135.811 58.069C135.954 58.1781 136.133 58.2279 136.311 58.208H136.868V58.8527H136.186C135.765 58.8527 135.449 58.7551 135.237 58.5597C135.028 58.3637 134.921 58.0439 134.921 57.5967V54.892H134.33V54.264H134.921V53.1084H135.678V54.264H136.868V54.892H135.67Z" fill="white"/>
<path d="M142.635 54.4014C142.915 54.5528 143.143 54.7864 143.289 55.0713C143.455 55.4061 143.536 55.7773 143.525 56.1515V58.8562H142.773V56.2604C142.801 55.8797 142.682 55.5027 142.44 55.2086C142.319 55.0852 142.173 54.989 142.013 54.9263C141.852 54.8637 141.68 54.836 141.508 54.8452C141.332 54.8366 141.156 54.8657 140.992 54.9307C140.828 54.9956 140.679 55.095 140.556 55.222C140.32 55.4732 140.202 55.8389 140.202 56.319V58.8562H139.444V52.6597H140.202V54.9206C140.354 54.6844 140.569 54.4958 140.822 54.3763C141.099 54.2447 141.402 54.1788 141.708 54.1837C142.03 54.1785 142.348 54.2533 142.635 54.4014Z" fill="white"/>
<path d="M153.743 57.5549H151.214L150.748 58.8528H149.949L152.046 53.0499H152.925L155.013 58.8528H154.214L153.743 57.5549ZM153.527 56.9353L152.479 53.9878L151.43 56.9353H153.527Z" fill="white"/>
<path d="M158.262 58.7556C157.999 58.6515 157.769 58.4779 157.596 58.2532C157.435 58.0392 157.342 57.7811 157.33 57.513H158.112C158.122 57.6243 158.156 57.7321 158.211 57.829C158.267 57.9259 158.342 58.0094 158.433 58.074C158.653 58.2281 158.918 58.3046 159.185 58.2917C159.428 58.3048 159.667 58.2371 159.868 58.0991C159.945 58.0444 160.008 57.9716 160.052 57.8871C160.095 57.8025 160.118 57.7086 160.117 57.6134C160.121 57.5207 160.097 57.4291 160.05 57.3494C160.003 57.2698 159.934 57.2056 159.851 57.1646C159.588 57.0365 159.312 56.9399 159.027 56.8766C158.744 56.8062 158.465 56.715 158.195 56.6036C157.982 56.5132 157.794 56.3725 157.646 56.1933C157.485 55.991 157.404 55.7367 157.416 55.4782C157.416 55.2465 157.489 55.0206 157.624 54.8334C157.776 54.6276 157.98 54.4667 158.215 54.3678C158.491 54.2508 158.789 54.1937 159.089 54.2004C159.529 54.1798 159.962 54.3162 160.312 54.5855C160.467 54.714 160.592 54.8751 160.678 55.0573C160.764 55.2396 160.81 55.4387 160.811 55.6406H160.054C160.049 55.5294 160.022 55.4205 159.972 55.3209C159.923 55.2213 159.853 55.1334 159.768 55.0628C159.566 54.9086 159.317 54.8314 159.064 54.8451C158.834 54.8332 158.607 54.8948 158.415 55.021C158.339 55.0712 158.278 55.1397 158.236 55.2202C158.193 55.3007 158.172 55.3905 158.173 55.4815C158.171 55.5503 158.183 55.6188 158.208 55.6827C158.233 55.7467 158.271 55.8047 158.32 55.8533C158.424 55.9567 158.549 56.0366 158.686 56.0878C158.886 56.1643 159.09 56.2303 159.297 56.2854C159.568 56.356 159.835 56.4438 160.096 56.5483C160.3 56.6347 160.481 56.7684 160.625 56.9385C160.778 57.1303 160.859 57.3707 160.853 57.6168C160.856 57.8593 160.783 58.0966 160.645 58.2951C160.501 58.4964 160.306 58.6554 160.081 58.7556C159.806 58.8736 159.509 58.9307 159.21 58.9231C158.886 58.9337 158.563 58.8767 158.262 58.7556Z" fill="white"/>
<path d="M163.62 53.3681C163.548 53.2955 163.498 53.2027 163.478 53.1017C163.458 53.0006 163.468 52.8958 163.507 52.8006C163.547 52.7054 163.613 52.6241 163.698 52.5671C163.784 52.5101 163.884 52.4799 163.986 52.4805C164.053 52.4796 164.118 52.4925 164.179 52.5185C164.24 52.5444 164.295 52.5828 164.341 52.6312C164.434 52.7311 164.486 52.8628 164.486 52.9996C164.486 53.1365 164.434 53.2682 164.341 53.3681C164.295 53.4165 164.24 53.4549 164.179 53.4808C164.118 53.5068 164.053 53.5197 163.986 53.5188C163.918 53.5201 163.851 53.5074 163.788 53.4815C163.725 53.4556 163.668 53.417 163.62 53.3681ZM164.353 54.2641V58.8528H163.595V54.2641H164.353Z" fill="white"/>
<path d="M167.307 55.3058C167.484 54.9632 167.754 54.6777 168.085 54.4818C168.419 54.285 168.8 54.1837 169.187 54.1887C169.551 54.18 169.91 54.2696 170.227 54.4483C170.502 54.6012 170.729 54.8272 170.885 55.1014V54.2641H171.65V58.8528H170.885V57.9987C170.726 58.278 170.496 58.5093 170.219 58.6686C169.903 58.8495 169.545 58.9409 169.182 58.9332C168.794 58.9385 168.413 58.8336 168.082 58.6307C167.751 58.4278 167.483 58.135 167.31 57.786C167.117 57.4022 167.02 56.9768 167.027 56.5467C167.016 56.1161 167.112 55.6896 167.307 55.3058ZM170.677 55.6407C170.548 55.3949 170.354 55.1901 170.116 55.0495C169.878 54.9167 169.611 54.8469 169.339 54.8469C169.068 54.8469 168.801 54.9167 168.563 55.0495C168.326 55.1879 168.132 55.3911 168.006 55.6357C167.862 55.9147 167.79 56.2258 167.798 56.54C167.79 56.8581 167.862 57.1729 168.006 57.4561C168.133 57.7046 168.328 57.9114 168.568 58.0523C168.803 58.1903 169.07 58.2616 169.342 58.2583C169.615 58.2609 169.884 58.1898 170.121 58.0523C170.36 57.9118 170.555 57.7056 170.682 57.4578C170.825 57.1774 170.897 56.8654 170.89 56.5501C170.895 56.2354 170.822 55.9243 170.677 55.6457V55.6407Z" fill="white"/>
<path d="M182.048 53.0164V53.6361H180.467V58.8528H179.718V53.6361H178.129V53.0164H182.048Z" fill="white"/>
<path d="M188.783 56.8431H185.139C185.139 57.0364 185.178 57.2275 185.253 57.4053C185.329 57.5831 185.439 57.7439 185.577 57.8782C185.715 58.0124 185.878 58.1175 186.057 58.1871C186.237 58.2567 186.428 58.2895 186.62 58.2834C186.91 58.294 187.197 58.2133 187.44 58.0523C187.656 57.9031 187.818 57.6874 187.901 57.4377H188.717C188.601 57.8693 188.343 58.2485 187.984 58.5128C187.588 58.7992 187.108 58.9452 186.62 58.9282C186.212 58.9359 185.81 58.8347 185.455 58.6351C185.114 58.4383 184.835 58.1479 184.653 57.7977C184.452 57.4122 184.352 56.9818 184.361 56.5467C184.352 56.1137 184.449 55.6851 184.644 55.299C184.824 54.9517 185.1 54.6648 185.44 54.4734C185.8 54.2759 186.206 54.1766 186.616 54.1854C187.017 54.1768 187.414 54.275 187.765 54.4701C188.09 54.6517 188.356 54.9231 188.534 55.2522C188.718 55.5984 188.811 55.9864 188.805 56.3792C188.806 56.5342 188.798 56.689 188.783 56.8431ZM187.835 55.4732C187.71 55.2675 187.53 55.1019 187.315 54.9959C187.089 54.8839 186.839 54.8266 186.586 54.8285C186.226 54.8196 185.876 54.9517 185.61 55.1969C185.33 55.4648 185.165 55.8307 185.147 56.2185H188.026C188.032 55.957 187.966 55.6989 187.835 55.4732Z" fill="white"/>
<path d="M191.471 55.3058C191.65 54.9621 191.923 54.6765 192.256 54.4819C192.651 54.271 193.095 54.1706 193.541 54.1913C193.988 54.2119 194.42 54.3527 194.794 54.5991C195.163 54.8791 195.419 55.2834 195.515 55.7379H194.696C194.628 55.4677 194.467 55.2304 194.242 55.068C193.997 54.9001 193.706 54.8151 193.41 54.8252C193.213 54.8179 193.017 54.8541 192.836 54.9314C192.655 55.0087 192.493 55.1251 192.361 55.2723C192.095 55.5721 191.962 55.9941 191.962 56.5418C191.962 57.0894 192.095 57.5215 192.361 57.8229C192.492 57.9718 192.654 58.0895 192.835 58.1677C193.016 58.2459 193.213 58.2826 193.41 58.2751C193.704 58.2859 193.995 58.2039 194.242 58.0406C194.468 57.8783 194.63 57.6412 194.699 57.3708H195.515C195.407 57.8194 195.148 58.2168 194.783 58.4962C194.385 58.7889 193.902 58.9382 193.41 58.9199C193.006 58.9277 192.608 58.8264 192.256 58.6268C191.922 58.4312 191.649 58.1436 191.471 57.7978C191.275 57.409 191.178 56.9775 191.188 56.5418C191.18 56.1126 191.277 55.6881 191.471 55.3058Z" fill="white"/>
<path d="M201.381 54.4014C201.661 54.5529 201.889 54.7866 202.034 55.0713C202.201 55.4059 202.283 55.7772 202.272 56.1515V58.8562H201.519V56.2604C201.548 55.8797 201.428 55.5027 201.187 55.2086C201.066 55.0852 200.92 54.989 200.759 54.9263C200.599 54.8637 200.427 54.836 200.255 54.8452C200.078 54.8368 199.902 54.866 199.738 54.9309C199.573 54.9959 199.425 55.0951 199.301 55.222C199.066 55.4732 198.948 55.8389 198.948 56.319V58.8562H198.191V52.6597H198.948V54.9206C199.1 54.6846 199.314 54.4961 199.567 54.3763C199.844 54.2445 200.148 54.1786 200.454 54.1837C200.776 54.1787 201.095 54.2535 201.381 54.4014Z" fill="white"/>
<path d="M209.161 54.4013C209.406 53.9568 209.767 53.5879 210.205 53.3345C210.651 53.0756 211.159 52.9425 211.674 52.9493C212.262 52.9352 212.841 53.0953 213.339 53.4098C213.814 53.7214 214.176 54.1798 214.37 54.7161H213.463C213.317 54.3816 213.075 54.0987 212.768 53.9039C212.44 53.7073 212.064 53.6086 211.683 53.6192C211.3 53.6135 210.924 53.7118 210.593 53.9039C210.269 54.0949 210.006 54.3749 209.835 54.7111C209.645 55.0915 209.551 55.513 209.561 55.9387C209.551 56.3611 209.646 56.7793 209.835 57.1562C210.006 57.4932 210.269 57.7739 210.593 57.9651C210.924 58.1571 211.3 58.2555 211.683 58.2498C212.063 58.2607 212.44 58.1631 212.768 57.9684C213.075 57.7764 213.318 57.4949 213.463 57.1612H214.37C214.175 57.6933 213.813 58.147 213.339 58.4541C212.84 58.7674 212.262 58.9264 211.674 58.9113C211.16 58.9176 210.652 58.7858 210.205 58.5295C209.767 58.2797 209.406 57.9135 209.161 57.471C208.91 56.999 208.779 56.4717 208.779 55.9362C208.779 55.4006 208.91 54.8734 209.161 54.4013Z" fill="white"/>
<path d="M217.977 58.635C217.632 58.4393 217.349 58.1489 217.161 57.7977C216.959 57.4127 216.857 56.9821 216.867 56.5466C216.858 56.1124 216.963 55.6835 217.17 55.3023C217.363 54.9521 217.652 54.6646 218.002 54.4733C218.364 54.2841 218.767 54.1853 219.175 54.1853C219.583 54.1853 219.986 54.2841 220.348 54.4733C220.698 54.6636 220.986 54.95 221.18 55.299C221.389 55.6805 221.494 56.111 221.485 56.5466C221.494 56.9843 221.386 57.4164 221.172 57.7977C220.974 58.1504 220.681 58.4404 220.328 58.635C219.966 58.8325 219.559 58.9334 219.147 58.9281C218.738 58.9354 218.334 58.8343 217.977 58.635ZM219.904 58.0656C220.147 57.932 220.347 57.7316 220.481 57.4878C220.637 57.2005 220.713 56.8768 220.703 56.55C220.712 56.2238 220.638 55.9007 220.486 55.6121C220.356 55.37 220.16 55.1706 219.921 55.0377C219.686 54.9145 219.425 54.8501 219.161 54.8501C218.896 54.8501 218.636 54.9145 218.401 55.0377C218.165 55.1704 217.973 55.3702 217.849 55.6121C217.702 55.9021 217.63 56.2247 217.641 56.55C217.631 56.8773 217.7 57.2022 217.844 57.4962C217.965 57.7373 218.155 57.9366 218.389 58.069C218.619 58.1956 218.877 58.2608 219.138 58.2582C219.406 58.2594 219.669 58.1932 219.904 58.0656Z" fill="white"/>
<path d="M230.571 54.4014C230.855 54.5528 231.087 54.7861 231.237 55.0713C231.406 55.4053 231.489 55.7768 231.478 56.1515V58.8562H230.73V56.2604C230.756 55.8798 230.637 55.5034 230.397 55.2086C230.28 55.0861 230.138 54.9902 229.981 54.9275C229.824 54.8649 229.655 54.8368 229.486 54.8452C229.312 54.8371 229.137 54.8668 228.975 54.9324C228.813 54.998 228.667 55.0979 228.546 55.2254C228.313 55.4799 228.197 55.8473 228.197 56.3273V58.8562H227.448V56.2604C227.475 55.8798 227.355 55.5034 227.115 55.2086C226.998 55.0861 226.856 54.9902 226.699 54.9275C226.542 54.8649 226.373 54.8368 226.205 54.8452C226.03 54.8371 225.856 54.8668 225.693 54.9324C225.531 54.998 225.385 55.0979 225.264 55.2254C225.031 55.4799 224.915 55.8473 224.915 56.3273V58.8562H224.158V54.2674H224.915V54.929C225.061 54.6926 225.27 54.5014 225.517 54.3763C225.776 54.247 226.061 54.181 226.349 54.1837C226.705 54.177 227.055 54.2666 227.365 54.4433C227.663 54.6173 227.897 54.8849 228.03 55.2053C228.151 54.8898 228.374 54.6244 228.663 54.4517C228.959 54.2719 229.299 54.1791 229.644 54.1837C229.966 54.18 230.284 54.2547 230.571 54.4014Z" fill="white"/>
<path d="M235.802 54.4517C236.118 54.2714 236.476 54.1805 236.839 54.1888C237.226 54.1837 237.607 54.2851 237.941 54.4819C238.271 54.6782 238.541 54.9636 238.719 55.3058C238.914 55.6878 239.011 56.1125 239.002 56.5418C239.009 56.9719 238.912 57.3972 238.719 57.7811C238.544 58.1302 238.275 58.4229 237.942 58.6257C237.61 58.8285 237.228 58.9333 236.839 58.9282C236.479 58.935 236.123 58.8436 235.81 58.6636C235.533 58.5066 235.299 58.2806 235.133 58.0071V61.03H234.376V54.2641H235.136V55.1099C235.297 54.8356 235.527 54.6086 235.802 54.4517ZM238.02 55.6374C237.892 55.3922 237.697 55.1889 237.458 55.0513C237.221 54.9167 236.953 54.8474 236.681 54.8503C236.41 54.8486 236.145 54.9191 235.91 55.0546C235.67 55.1961 235.474 55.402 235.344 55.6491C235.205 55.9301 235.133 56.2396 235.133 56.5535C235.133 56.8673 235.205 57.1769 235.344 57.4578C235.474 57.705 235.67 57.9109 235.91 58.0524C236.146 58.1874 236.413 58.2585 236.684 58.2585C236.955 58.2585 237.222 58.1874 237.458 58.0524C237.698 57.9119 237.893 57.7057 238.02 57.4578C238.164 57.1747 238.236 56.8598 238.228 56.5418C238.235 56.2274 238.163 55.9163 238.019 55.6374H238.02Z" fill="white"/>
<path d="M241.663 55.3058C241.841 54.9636 242.11 54.6782 242.441 54.4818C242.775 54.285 243.156 54.1837 243.544 54.1887C243.907 54.18 244.267 54.2696 244.584 54.4483C244.861 54.6005 245.092 54.8264 245.25 55.1014V54.2641H246.015V58.8528H245.25V57.9987C245.092 58.2782 244.862 58.5097 244.584 58.6686C244.269 58.8497 243.911 58.9412 243.549 58.9332C243.162 58.9385 242.781 58.834 242.451 58.6318C242.12 58.4276 241.852 58.1348 241.677 57.786C241.483 57.4025 241.386 56.9769 241.394 56.5467C241.379 56.1169 241.472 55.6902 241.663 55.3058ZM245.033 55.6407C244.904 55.3948 244.709 55.19 244.471 55.0495C244.234 54.9167 243.967 54.8469 243.695 54.8469C243.424 54.8469 243.157 54.9167 242.92 55.0495C242.683 55.1879 242.489 55.3911 242.362 55.6357C242.217 55.9143 242.146 56.2257 242.154 56.54C242.146 56.8581 242.218 57.1732 242.362 57.4561C242.489 57.7033 242.682 57.9095 242.92 58.0506C243.154 58.1887 243.422 58.2599 243.694 58.2566C243.966 58.2594 244.235 58.1883 244.471 58.0506C244.711 57.9102 244.906 57.704 245.033 57.4561C245.177 57.1757 245.248 56.8637 245.241 56.5484C245.248 56.2347 245.177 55.9243 245.033 55.6457V55.6407Z" fill="white"/>
<path d="M252.522 54.6861C252.865 55.021 253.038 55.5117 253.038 56.1481V58.8528H252.289V56.257C252.317 55.8764 252.198 55.4997 251.957 55.2052C251.835 55.082 251.69 54.9859 251.529 54.9232C251.369 54.8606 251.197 54.8329 251.025 54.8418C250.848 54.8334 250.672 54.8626 250.508 54.9275C250.343 54.9925 250.195 55.0917 250.071 55.2186C249.835 55.4699 249.718 55.8349 249.718 56.3156V58.8528H248.949V54.2641H249.707V54.9172C249.856 54.6824 250.068 54.494 250.317 54.3729C250.583 54.2425 250.875 54.1765 251.171 54.1803C251.418 54.1695 251.665 54.2087 251.898 54.2956C252.13 54.3825 252.342 54.5152 252.522 54.6861Z" fill="white"/>
<path d="M259.87 54.2641L257.124 61.0132H256.342L257.24 58.8026L255.41 54.2641H256.242L257.673 57.982L259.088 54.2641H259.87Z" fill="white"/>
<path d="M6.96267 25.6748H25.8548L32.2586 34.931L25.8548 54.3612L6.96267 25.6748Z" fill="white"/>
<path d="M73.4262 54.2875H54.5357L48.3732 45.157L54.5357 25.6012L73.4262 54.2875Z" fill="white"/>
<path d="M45.4225 54.3612H25.8548L35.3091 25.6748H54.6322L45.4225 54.3612Z" fill="white"/>
<path d="M12.7441 41.5646L27.6821 16.0502L27.7137 16.1172L39.8008 41.64H39.7426L12.7441 41.5646ZM27.6754 16.2177L12.8856 41.4792L39.6793 41.568L27.6754 16.2177Z" fill="white"/>
<path fill-rule="evenodd" clip-rule="evenodd" d="M27.6929 15.8062C27.7827 15.8102 27.8629 15.8638 27.9015 15.9455L27.933 16.0122L40.0201 41.535C40.056 41.6107 40.0507 41.6996 40.0062 41.7705C39.9617 41.8414 39.8842 41.8844 39.8008 41.8844H39.7419L12.7435 41.809C12.6564 41.8088 12.5762 41.7617 12.5331 41.6856C12.49 41.6096 12.4906 41.5161 12.5348 41.4407L27.4727 15.9263C27.5184 15.8483 27.603 15.8021 27.6929 15.8062ZM27.6527 16.738L13.3097 41.2363L39.2939 41.3224L27.6527 16.738Z" fill="white"/>
<path d="M39.7276 41.6818L39.6976 41.6216L27.6138 16.0921H27.6837L53.6021 19.0011L53.5654 19.0547L39.7276 41.6818ZM27.7453 16.1859L39.7459 41.5261L53.4639 19.0647L27.7453 16.1859Z" fill="white"/>
<path fill-rule="evenodd" clip-rule="evenodd" d="M27.4084 15.9616C27.4529 15.8908 27.5305 15.8478 27.6138 15.8478H27.6837C27.6927 15.8478 27.7017 15.8483 27.7107 15.8493L53.629 18.7583C53.7139 18.7678 53.7875 18.8214 53.823 18.8995C53.8585 18.9776 53.8507 19.0687 53.8023 19.1395L53.7692 19.188L39.9345 41.8099C39.8883 41.8855 39.805 41.9299 39.7169 41.926C39.6288 41.9221 39.5497 41.8705 39.5103 41.7911L39.4803 41.7308L39.4783 41.7266L27.3945 16.1971C27.3587 16.1214 27.3639 16.0325 27.4084 15.9616ZM53.0566 19.265L28.1524 16.4773L39.7729 41.015L53.0566 19.265Z" fill="white"/>
<path d="M53.5937 19.0865H53.5288L27.5672 16.1741L27.6554 16.1138L47.2748 1.61074L47.2931 1.65596L53.5937 19.0865ZM27.7885 16.1105L53.4723 18.9927L47.2381 1.72965L27.7885 16.1105Z" fill="white"/>
<path fill-rule="evenodd" clip-rule="evenodd" d="M47.3408 1.37563C47.4128 1.3961 47.4715 1.44887 47.4997 1.51864L47.518 1.56386C47.5192 1.56672 47.5203 1.5696 47.5214 1.5725L53.822 19.003C53.8491 19.0779 53.8382 19.1614 53.7927 19.2267C53.7472 19.292 53.673 19.3309 53.5937 19.3309H53.5288C53.5198 19.3309 53.5109 19.3304 53.5019 19.3294L27.5403 16.417C27.4392 16.4057 27.3559 16.3322 27.3314 16.2329C27.3069 16.1337 27.3466 16.0296 27.4307 15.9721L27.5152 15.9143L47.1309 1.41389C47.1912 1.36928 47.2687 1.35516 47.3408 1.37563ZM28.4333 15.937L53.1104 18.7063L47.1206 2.11986L28.4333 15.937Z" fill="white"/>
<path d="M27.6637 16.1959L27.6438 16.1557L22.1103 4.96188H22.1685L47.3996 1.62081L27.6637 16.1959ZM22.2318 5.03222L27.6937 16.0854L47.115 1.72464L22.2318 5.03222Z" fill="white"/>
<path fill-rule="evenodd" clip-rule="evenodd" d="M47.625 1.52974C47.6663 1.63325 47.6327 1.75179 47.5433 1.81781L27.8075 16.3929C27.7498 16.4356 27.6763 16.4504 27.6067 16.4335C27.5371 16.4166 27.4784 16.3696 27.4464 16.3052L27.4265 16.265L21.8927 5.07071C21.8553 4.99497 21.8595 4.90514 21.9038 4.83324C21.9481 4.76133 22.0262 4.71758 22.1103 4.71758H22.1526L47.3679 1.3786C47.4778 1.36404 47.5836 1.42623 47.625 1.52974ZM46.2086 2.09163L22.6006 5.2297L27.7826 15.7164L46.2086 2.09163Z" fill="white"/>
<path d="M22.1735 5.03722L22.1635 4.95851L39.1384 1.0631L47.5677 1.68443L22.1735 5.03722ZM39.1301 1.14517L22.8392 4.90827L46.9469 1.70452L39.1301 1.14517Z" fill="white"/>
<path fill-rule="evenodd" clip-rule="evenodd" d="M39.0844 0.824917C39.1079 0.819518 39.1321 0.817675 39.1562 0.819449L47.5854 1.44077C47.7097 1.44993 47.8069 1.55218 47.8105 1.67745C47.814 1.80273 47.7228 1.91042 47.5993 1.92673L22.2051 5.27952C22.1411 5.28798 22.0764 5.27044 22.0252 5.23078C21.9741 5.19113 21.9407 5.13262 21.9325 5.06818L21.9226 4.98947C21.9067 4.86474 21.9876 4.74829 22.1095 4.72032L39.0844 0.824917ZM39.1491 1.39152L27.9072 3.98834L44.5433 1.77752L39.1491 1.39152Z" fill="white"/>
<path d="M66.2567 19.9021L53.5006 19.0647L53.4922 19.0413L47.1682 1.52534L66.2567 19.9021ZM53.5555 18.9961L66.037 19.8083L47.353 1.81507L53.5555 18.9961Z" fill="white"/>
<path fill-rule="evenodd" clip-rule="evenodd" d="M47.0356 1.3207C47.1301 1.25869 47.2547 1.27035 47.3362 1.34886L66.4247 19.7256C66.4984 19.7966 66.5202 19.9065 66.4791 20.0005C66.438 20.0945 66.3428 20.1526 66.2409 20.1459L53.4847 19.3086C53.3881 19.3022 53.3044 19.2387 53.2718 19.1469L53.2639 19.1247L53.2635 19.1235L46.9399 1.60878C46.9014 1.50207 46.941 1.38272 47.0356 1.3207ZM47.9364 2.7152L53.7296 18.7626L65.3876 19.5212L47.9364 2.7152Z" fill="white"/>
<path d="M66.2351 20.0278L47.0701 1.55724L60.3055 7.15417V7.16757L66.2351 20.0278ZM47.4428 1.78333L65.9655 19.6844L60.2506 7.21781L47.4428 1.78333Z" fill="white"/>
<path fill-rule="evenodd" clip-rule="evenodd" d="M46.867 1.42307C46.9313 1.3246 47.0562 1.28628 47.1642 1.33193L60.3996 6.92886C60.4732 6.95997 60.5258 7.02481 60.5426 7.10106L66.4554 19.9249C66.5046 20.0315 66.4713 20.1582 66.3763 20.2265C66.2813 20.2948 66.1513 20.2854 66.067 20.2041L46.902 1.73361C46.8174 1.65211 46.8027 1.52154 46.867 1.42307ZM65.2063 18.6118L60.0694 7.40607L48.557 2.52124L65.2063 18.6118Z" fill="white"/>
<path d="M66.1269 19.9021L60.1207 6.97326L71.2526 17.7401L66.1269 19.9021ZM60.4336 7.39864L66.1635 19.8067L71.1112 17.7099L60.4336 7.39864Z" fill="white"/>
<path fill-rule="evenodd" clip-rule="evenodd" d="M59.9794 6.77446C60.0746 6.70596 60.2048 6.71546 60.2891 6.79705L71.421 17.5638C71.48 17.6209 71.5064 17.7039 71.4914 17.7848C71.4764 17.8656 71.422 17.9335 71.3466 17.9653L66.2208 20.1274C66.1006 20.1781 65.962 20.1243 65.9068 20.0055L59.9007 7.07662C59.8511 6.96997 59.8842 6.84296 59.9794 6.77446ZM61.1994 8.47677L66.2851 19.4899L70.6766 17.6289L61.1994 8.47677Z" fill="white"/>
<path d="M74.4762 23.3805L66.0487 19.8502L71.1978 17.673L74.4762 23.3805ZM66.2417 19.8636L74.2616 23.1812L71.1645 17.7735L66.2417 19.8636Z" fill="white"/>
<path fill-rule="evenodd" clip-rule="evenodd" d="M71.1036 17.4478C71.2164 17.4001 71.3469 17.4443 71.4081 17.5509L74.6866 23.2583C74.7387 23.349 74.7275 23.4631 74.6587 23.5418C74.59 23.6205 74.479 23.6464 74.3828 23.6061L65.9553 20.0758C65.8649 20.0379 65.8059 19.9491 65.8058 19.8506C65.8056 19.7521 65.8643 19.6632 65.9545 19.625L71.1036 17.4478ZM66.8733 19.8607L73.6959 22.683L71.0611 18.0827L66.8733 19.8607Z" fill="white"/>
<path d="M68.0724 42.0084H67.9958L39.6694 41.6383L39.7076 41.5814L53.5355 18.9726L53.5671 19.0245L68.0724 42.0084ZM39.8108 41.5697L67.9259 41.9247L53.5405 19.1116L39.8108 41.5697Z" fill="white"/>
<path fill-rule="evenodd" clip-rule="evenodd" d="M53.5357 18.7282C53.6202 18.7283 53.6985 18.7724 53.7427 18.8449L53.7733 18.8951L68.2775 41.8774C68.3249 41.9526 68.3279 42.0479 68.2852 42.126C68.2426 42.2042 68.161 42.2527 68.0724 42.2527H67.9927L39.6662 41.8825C39.5769 41.8814 39.4954 41.831 39.454 41.7514C39.4127 41.6718 39.4181 41.5758 39.4681 41.5014L39.5034 41.4488L53.3286 18.8445C53.3729 18.7721 53.4513 18.7281 53.5357 18.7282ZM40.242 41.3306L67.4806 41.6746L53.5437 19.5728L40.242 41.3306Z" fill="white"/>
<path d="M51.4486 67.0757L51.4203 67.012L39.6777 41.5562L68.069 41.9381L51.4486 67.0757ZM39.7991 41.6484L51.4603 66.9149L67.9293 42.0084L39.7991 41.6484Z" fill="white"/>
<path fill-rule="evenodd" clip-rule="evenodd" d="M39.4738 41.4233C39.5192 41.3528 39.5975 41.3107 39.681 41.3118L68.0723 41.6937C68.1613 41.6949 68.2425 41.7449 68.284 41.8241C68.3255 41.9033 68.3206 41.999 68.2712 42.0735L51.6509 67.2109C51.6019 67.285 51.5167 67.3265 51.4285 67.3191C51.3402 67.3117 51.263 67.2566 51.2269 67.1753L51.2 67.1148L51.1986 67.1117L39.4573 41.659C39.4222 41.5828 39.4284 41.4938 39.4738 41.4233ZM51.4981 66.4164L67.4798 42.2469L40.1821 41.8975L51.4981 66.4164Z" fill="white"/>
<path d="M26.9615 63.4449L26.9249 63.3896L12.7441 41.4842H12.8124L39.8075 41.5914L39.7742 41.6534L26.9615 63.4449ZM12.8839 41.5579L26.9548 63.2925L39.6727 41.6735L12.8839 41.5579Z" fill="white"/>
<path fill-rule="evenodd" clip-rule="evenodd" d="M12.5306 41.3678C12.573 41.289 12.655 41.2399 12.7441 41.2399H12.8133L39.8084 41.3471C39.8938 41.3474 39.9728 41.3928 40.0164 41.4667C40.06 41.5406 40.0618 41.632 40.0212 41.7076L39.9879 41.7696C39.9864 41.7723 39.9849 41.7751 39.9833 41.7778L27.1705 63.5693C27.128 63.6416 27.0515 63.6869 26.968 63.6892C26.8844 63.6914 26.8056 63.6503 26.7593 63.5804L26.7213 63.523L12.5406 41.6176C12.4919 41.5425 12.4881 41.4466 12.5306 41.3678ZM13.3333 41.8042L26.9449 62.8295L39.2477 41.916L13.3333 41.8042Z" fill="white"/>
<path d="M9.95159 65.1732V65.128L12.7807 41.4056L12.8423 41.501L27.023 63.4047H26.9548L9.95159 65.1732ZM12.844 41.6383L10.0381 65.0845L26.8882 63.3294L12.844 41.6383Z" fill="white"/>
<path fill-rule="evenodd" clip-rule="evenodd" d="M12.7258 41.1675C12.8254 41.1442 12.9288 41.1862 12.9845 41.2725L27.2266 63.2713C27.2752 63.3464 27.279 63.4423 27.2366 63.5211C27.1941 63.5999 27.1121 63.649 27.023 63.649H26.9673L9.97655 65.4162C9.90814 65.4233 9.83994 65.4009 9.78887 65.3546C9.7378 65.3083 9.70865 65.2423 9.70865 65.1732V65.1279C9.70865 65.1182 9.70922 65.1085 9.71037 65.0988L12.5395 41.3764C12.5517 41.2742 12.6262 41.1907 12.7258 41.1675ZM26.4676 63.1274L13.0052 42.3351L10.3156 64.8098L26.4676 63.1274Z" fill="white"/>
<path d="M32.6164 78.3333L9.86667 65.1029H9.99149L26.9847 63.3395L26.9947 63.3646L32.6164 78.3333ZM10.123 65.1649L32.455 78.144L26.9331 63.4065L10.123 65.1649Z" fill="white"/>
<path fill-rule="evenodd" clip-rule="evenodd" d="M26.9598 63.0963C27.0677 63.0851 27.17 63.1473 27.2103 63.2487L27.2203 63.2738L27.222 63.2782L32.8436 78.2468C32.8799 78.3435 32.8519 78.4526 32.7736 78.5195C32.6953 78.5863 32.5837 78.5964 32.4948 78.5447L9.74508 65.3144C9.64992 65.2591 9.60357 65.1463 9.63205 65.0396C9.66053 64.9328 9.75676 64.8585 9.86668 64.8585H9.97899L26.9598 63.0963ZM10.8927 65.33L31.9879 77.5903L26.7719 63.6689L10.8927 65.33Z" fill="white"/>
<path d="M32.8344 78.3734L20.6241 73.8282L9.71525 64.917L32.8344 78.3734ZM20.6707 73.7595L32.2386 78.1038L10.2711 65.3474L20.6707 73.7595Z" fill="white"/>
<path fill-rule="evenodd" clip-rule="evenodd" d="M9.51521 64.7783C9.58712 64.6733 9.7272 64.6416 9.83691 64.7054L32.9561 78.1618C33.0653 78.2254 33.1079 78.3624 33.0542 78.4773C33.0006 78.5921 32.8684 78.6465 32.7501 78.6025L20.5398 74.0573C20.5149 74.048 20.4916 74.0346 20.471 74.0178L9.5621 65.1066C9.46371 65.0262 9.44329 64.8833 9.51521 64.7783ZM12.8815 67.1453L20.7924 73.5443L29.592 76.8489L12.8815 67.1453Z" fill="white"/>
<path d="M10.1546 65.3925L5.52646 58.9616L0.618708 41.5344L0.691933 41.5059L10.1546 65.3925ZM5.59802 58.9231L9.83509 64.865L0.924923 42.2244L5.59802 58.9231Z" fill="white"/>
<path fill-rule="evenodd" clip-rule="evenodd" d="M0.604306 41.2781C0.728533 41.2298 0.868264 41.2911 0.917565 41.4156L10.3802 65.3022C10.4256 65.4167 10.3791 65.5473 10.2717 65.6067C10.1643 65.6661 10.0297 65.6358 9.9578 65.5359L5.32964 59.105C5.31296 59.0818 5.30045 59.0558 5.29269 59.0283L0.384945 41.6011C0.350758 41.4797 0.414082 41.3521 0.531081 41.3066L0.604306 41.2781ZM2.44143 46.7419L5.82025 58.8156L8.88381 63.1119L2.44143 46.7419Z" fill="white"/>
<path d="M39.1302 78.9293L32.1887 78.2293L55.4727 75.3956L55.4827 75.4743L39.1302 78.9293ZM32.891 78.2494L39.1285 78.8523L54.539 75.548L32.891 78.2494Z" fill="white"/>
<path fill-rule="evenodd" clip-rule="evenodd" d="M55.4435 75.1531C55.576 75.137 55.6967 75.2315 55.7136 75.3647L55.7236 75.4435C55.7396 75.5698 55.6565 75.6873 55.5326 75.7135L39.1801 79.1685C39.1557 79.1736 39.1307 79.175 39.1059 79.1725L32.1645 78.4724C32.0413 78.46 31.9471 78.3564 31.9458 78.2318C31.9445 78.1073 32.0366 78.0017 32.1595 77.9867L55.4435 75.1531ZM35.1114 78.2186L39.1144 78.6055L49.0046 76.4849L35.1114 78.2186Z" fill="white"/>
<path d="M32.5166 78.2946L26.8966 63.3209L26.9631 63.331L51.5751 66.9735L51.4753 67.0304L32.5166 78.2946ZM27.0247 63.4181L32.5549 78.1824L51.3388 67.017L27.0247 63.4181Z" fill="white"/>
<path fill-rule="evenodd" clip-rule="evenodd" d="M26.7076 63.1675C26.7617 63.1 26.8474 63.0665 26.9326 63.0793L26.9992 63.0894L51.6105 66.7318C51.7131 66.747 51.7948 66.8261 51.8139 66.9286C51.8329 67.0312 51.7851 67.1346 51.6949 67.1861L51.5969 67.242L32.6401 78.5051C32.5784 78.5418 32.5037 78.5491 32.436 78.5252C32.3683 78.5013 32.3147 78.4485 32.2893 78.381L26.6693 63.4073C26.6388 63.3262 26.6534 63.2349 26.7076 63.1675ZM50.6238 67.1582L27.3975 63.7203L32.6802 77.8241L50.6238 67.1582Z" fill="white"/>
<path d="M32.3635 78.293L32.5166 78.2043L51.4719 66.9418L51.4902 66.9769L55.5376 75.4678H55.4776L32.3635 78.293ZM51.4403 67.0506L32.7096 78.1825L55.4061 75.3974L51.4403 67.0506Z" fill="white"/>
<path fill-rule="evenodd" clip-rule="evenodd" d="M51.5384 66.7067C51.6025 66.725 51.6562 66.769 51.6871 66.8283L51.7054 66.8635C51.7067 66.8661 51.708 66.8686 51.7093 66.8712L55.7566 75.3621C55.7927 75.4378 55.7876 75.5268 55.7431 75.5979C55.6987 75.6689 55.621 75.712 55.5376 75.712H55.4924L32.3928 78.5355C32.2781 78.5495 32.1696 78.4804 32.133 78.3702C32.0965 78.2601 32.1421 78.1392 32.2422 78.0813L32.393 77.9938L32.3953 77.9925L51.3484 66.7313C51.4057 66.6972 51.4744 66.6883 51.5384 66.7067ZM33.8334 77.7984L55.0412 75.196L51.3355 67.3966L33.8334 77.7984Z" fill="white"/>
<path d="M55.4593 75.5029L55.4344 75.456L51.3986 67.0205L51.4452 67.007L71.3908 62.2994L71.2793 62.4083L55.4593 75.5029ZM51.5135 67.0707L55.4793 75.374L71.1228 62.4585L51.5135 67.0707Z" fill="white"/>
<path fill-rule="evenodd" clip-rule="evenodd" d="M71.6039 62.1822C71.6563 62.2786 71.6384 62.3983 71.56 62.4748L71.4485 62.5837C71.4437 62.5883 71.4388 62.5928 71.4337 62.597L55.6137 75.6917C55.5575 75.7382 55.4836 75.7569 55.4122 75.7427C55.3408 75.7285 55.2795 75.6828 55.2452 75.6183L55.2202 75.5714C55.2186 75.5683 55.217 75.5652 55.2155 75.562L51.1798 67.1265C51.1487 67.0615 51.1477 66.9862 51.1771 66.9204C51.2064 66.8547 51.2631 66.8054 51.3319 66.7856L51.3785 66.7722C51.3822 66.7711 51.386 66.7701 51.3898 66.7692L71.3353 62.0616C71.4416 62.0365 71.5515 62.0858 71.6039 62.1822ZM51.8635 67.2394L55.5643 74.9877L70.1624 62.9354L51.8635 67.2394Z" fill="white"/>
<path d="M10.0198 65.2871L0.592115 41.4826H12.8573V41.5262L10.0198 65.2871ZM0.713602 41.5613L9.96826 64.979L12.7675 41.5613H0.713602Z" fill="white"/>
<path fill-rule="evenodd" clip-rule="evenodd" d="M0.391036 41.3455C0.43624 41.2785 0.51155 41.2383 0.592097 41.2383H12.8573C12.9915 41.2383 13.1002 41.3477 13.1002 41.4827V41.5262C13.1002 41.5359 13.0996 41.5457 13.0985 41.5553L10.261 65.3163C10.2478 65.4272 10.1614 65.515 10.0513 65.5295C9.94113 65.5439 9.83526 65.4814 9.79416 65.3776L0.366421 41.5731C0.336612 41.4978 0.345832 41.4126 0.391036 41.3455ZM1.07156 41.8057L9.84109 63.9958L12.4936 41.8057H1.07156Z" fill="white"/>
<path d="M7.41701 21.8314L7.50022 21.7343L22.1802 4.92676L22.2068 4.98035L27.7353 16.1642L7.41701 21.8314ZM22.1619 5.06744L7.64334 21.6874L27.6222 16.1139L22.1619 5.06744Z" fill="white"/>
<path fill-rule="evenodd" clip-rule="evenodd" d="M22.2114 4.68435C22.2915 4.69479 22.3613 4.74469 22.3975 4.81744L22.4243 4.87148L27.9528 16.0553C27.9851 16.1206 27.9867 16.197 27.9572 16.2636C27.9276 16.3302 27.8701 16.38 27.8002 16.3995L7.48191 22.0668C7.3788 22.0956 7.26912 22.0531 7.21183 21.9622C7.15453 21.8713 7.16312 21.7534 7.23296 21.6718L7.3177 21.5729L21.9977 4.76541C22.0511 4.7043 22.1312 4.67392 22.2114 4.68435ZM8.36378 21.2328L27.2736 15.9575L22.1055 5.5021L8.36378 21.2328Z" fill="white"/>
<path d="M12.8656 41.5613H0.598718L0.618688 41.506L7.53513 21.6254L12.8656 41.5613ZM0.708556 41.4826H12.7674L7.52848 21.8883L0.708556 41.4826Z" fill="white"/>
<path fill-rule="evenodd" clip-rule="evenodd" d="M7.54415 21.3813C7.65062 21.3852 7.74209 21.4585 7.76976 21.562L13.1002 41.4979C13.1198 41.5713 13.1044 41.6497 13.0584 41.71C13.0125 41.7703 12.9412 41.8057 12.8656 41.8057H0.598761C0.519522 41.8057 0.445263 41.7668 0.3998 41.7015C0.354336 41.6363 0.343383 41.5528 0.370452 41.4779L0.389442 41.4254L0.390423 41.4226L7.30589 21.5447C7.34108 21.4436 7.43768 21.3773 7.54415 21.3813ZM1.05102 41.2383H12.4506L7.49807 22.7153L1.05102 41.2383Z" fill="white"/>
<path d="M0.690269 41.5345L0.618688 41.506L3.90885 24.5746L7.62502 21.5919L0.690269 41.5345ZM3.97708 24.6198L0.883317 40.7424L7.43031 21.9252L3.97708 24.6198Z" fill="white"/>
<path fill-rule="evenodd" clip-rule="evenodd" d="M7.76556 21.3925C7.85387 21.4555 7.89007 21.5697 7.85433 21.6725L0.919576 41.6151C0.897745 41.6779 0.851416 41.729 0.791282 41.7566C0.731148 41.7843 0.662405 41.7861 0.600919 41.7616L0.529358 41.7332C0.420511 41.6899 0.357848 41.5746 0.380302 41.4591L3.67044 24.5276C3.68149 24.4707 3.71229 24.4197 3.75734 24.3835L7.47351 21.4008C7.55814 21.3329 7.67724 21.3295 7.76556 21.3925ZM4.19827 24.7564L1.75149 37.5073L6.92934 22.6253L4.19827 24.7564Z" fill="white"/>
<path d="M3.79567 24.8191L6.13721 20.2187L22.1436 4.97867L22.2001 5.03058L7.55512 21.7929L3.79567 24.8191ZM6.19879 20.2689L4.08857 24.3837L7.50186 21.7326L21.3331 5.91651L6.19879 20.2689Z" fill="white"/>
<path fill-rule="evenodd" clip-rule="evenodd" d="M21.9766 4.80113C22.069 4.71313 22.2133 4.7118 22.3073 4.79806L22.3639 4.84998C22.4617 4.93973 22.47 5.09175 22.3826 5.19179L7.73759 21.9541C7.72823 21.9648 7.71796 21.9747 7.7069 21.9836L3.94745 25.0098C3.85804 25.0818 3.73079 25.0812 3.64207 25.0083C3.55334 24.9355 3.52724 24.8102 3.57943 24.7077L5.92097 20.1072C5.93354 20.0825 5.95019 20.0602 5.97021 20.0411L21.9766 4.80113ZM17.7169 9.68161L6.39564 20.4179L4.80598 23.5177L7.33489 21.5535L17.7169 9.68161Z" fill="white"/>
<path d="M12.8007 41.6233L12.7774 41.5329L7.48187 21.7326L7.52015 21.7209L27.7619 16.0754L27.712 16.1591L12.8007 41.6233ZM7.5784 21.7862L12.829 41.4206L27.5955 16.2027L7.5784 21.7862Z" fill="white"/>
<path d="M51.5218 67.0455L51.4503 67.0337L26.8982 63.4013L26.9232 63.351L39.7492 41.5445L51.5218 67.0455ZM27.018 63.3393L51.3904 66.9467L39.7409 41.722L27.018 63.3393Z" fill="white"/>
<path fill-rule="evenodd" clip-rule="evenodd" d="M39.7612 41.3005C39.8513 41.3049 39.9315 41.3592 39.9695 41.4415L51.7421 66.9426C51.78 67.0247 51.7697 67.1211 51.7154 67.1931C51.661 67.2652 51.5715 67.3012 51.4828 67.2867L51.4112 67.275L26.8629 63.6431C26.7858 63.6316 26.7188 63.5838 26.6828 63.5143C26.6468 63.4448 26.6461 63.3622 26.6809 63.2921L26.7059 63.2418C26.7084 63.2367 26.7112 63.2316 26.7141 63.2267L39.5401 41.4201C39.5861 41.342 39.6712 41.296 39.7612 41.3005ZM50.9804 66.639L39.7149 42.2458L27.4114 63.1506L50.9804 66.639Z" fill="white"/>
<path d="M51.3637 67.0623L51.4237 66.9735L68.0191 41.9565L68.0308 42.0603L71.2893 62.4032L71.256 62.4133L51.3637 67.0623ZM67.9725 42.1759L51.5435 66.93L71.2044 62.3463L67.9725 42.1759Z" fill="white"/>
<path fill-rule="evenodd" clip-rule="evenodd" d="M68.0764 41.719C68.1755 41.7432 68.2491 41.8271 68.2605 41.929L68.2715 42.0271L71.5291 62.3643C71.5485 62.4852 71.4758 62.6019 71.3591 62.6372L71.3258 62.6472C71.3209 62.6487 71.316 62.65 71.311 62.6512L51.4187 67.3002C51.3213 67.323 51.22 67.2834 51.1634 67.2005C51.1068 67.1175 51.1066 67.0082 51.1627 66.925L51.2216 66.8378L51.2226 66.8362L67.817 41.8208C67.8737 41.7355 67.9773 41.6948 68.0764 41.719ZM52.0859 66.5526L70.9285 62.1597L67.8311 42.829L52.0859 66.5526Z" fill="white"/>
<path d="M71.2327 62.5306L67.9559 41.9315L78.1508 42.2078L78.1641 42.2614L71.2327 62.5306ZM68.0441 42.0085L71.2743 62.2174L78.0693 42.2882L68.0441 42.0085Z" fill="white"/>
<path fill-rule="evenodd" clip-rule="evenodd" d="M67.7732 41.7704C67.8208 41.7157 67.8902 41.6852 67.9625 41.6871L78.1574 41.9635C78.2664 41.9664 78.3601 42.0421 78.3865 42.1485L78.3998 42.2021C78.4112 42.2479 78.4092 42.2961 78.3939 42.3408L71.4625 62.61C71.4262 62.716 71.3228 62.7836 71.2118 62.7739C71.1007 62.7643 71.0105 62.6798 70.9929 62.5691L67.716 41.97C67.7046 41.8982 67.7256 41.825 67.7732 41.7704ZM68.3305 42.2609L71.3599 61.2132L77.7324 42.5231L68.3305 42.2609Z" fill="white"/>
<path d="M68.0507 42.2245L67.9658 42.0871L53.4606 18.996L66.1885 19.8183V19.8518L68.0507 42.2245ZM53.6071 19.0831L67.9475 41.9079L66.1086 19.892L53.6071 19.0831Z" fill="white"/>
<path fill-rule="evenodd" clip-rule="evenodd" d="M53.2518 18.8714C53.2984 18.7924 53.3851 18.7464 53.4762 18.7522L66.2041 19.5745C66.3319 19.5828 66.4314 19.6895 66.4314 19.8184V19.8417L68.2928 42.2041C68.3022 42.3166 68.2337 42.4209 68.1271 42.4564C68.0206 42.4919 67.9037 42.4494 67.8445 42.3535L67.7605 42.2177L67.7596 42.2162L53.2553 19.1266C53.2065 19.0489 53.2051 18.9503 53.2518 18.8714ZM67.6224 40.933L65.8841 20.1224L54.067 19.3578L67.6224 40.933Z" fill="white"/>
<path d="M78.1309 42.2864L67.9625 42.0084L66.092 19.6709L78.1309 42.2864ZM68.0358 41.9314L78.061 42.2077L66.2002 20.0394L68.0358 41.9314Z" fill="white"/>
<path fill-rule="evenodd" clip-rule="evenodd" d="M66.023 19.4367C66.1335 19.4038 66.2517 19.4535 66.3061 19.5557L78.345 42.1711C78.3859 42.2479 78.383 42.3407 78.3375 42.4148C78.292 42.4889 78.2108 42.5331 78.1242 42.5307L67.9559 42.2527C67.8323 42.2493 67.7309 42.153 67.7205 42.029L65.8499 19.6915C65.8402 19.576 65.9125 19.4696 66.023 19.4367ZM66.5405 21.1912L68.2596 41.6932L77.6482 41.9519L66.5405 21.1912Z" fill="white"/>
<path d="M78.1708 42.2613H78.0992L66.0503 19.7614L74.403 23.2515V23.2699L78.1708 42.2613ZM66.2401 19.9489L78.016 41.9565L74.3431 23.3068L66.2401 19.9489Z" fill="white"/>
<path fill-rule="evenodd" clip-rule="evenodd" d="M65.8702 19.5975C65.9391 19.5208 66.0486 19.4961 66.1435 19.5358L74.4962 23.0259C74.585 23.063 74.6435 23.1491 74.6458 23.2454L78.409 42.2135C78.4232 42.2853 78.4047 42.3597 78.3586 42.4163C78.3124 42.4729 78.2435 42.5057 78.1708 42.5057H78.0992C78.0098 42.5057 77.9277 42.4563 77.8853 42.3772L65.8365 19.8773C65.7877 19.7862 65.8012 19.6742 65.8702 19.5975ZM77.4634 40.4083L74.1301 23.4828L66.7762 20.4354L77.4634 40.4083Z" fill="white"/>
<path d="M78.5386 42.2663C78.5386 42.369 78.5083 42.4694 78.4516 42.5548C78.3949 42.6401 78.3143 42.7067 78.2201 42.746C78.1258 42.7853 78.0221 42.7956 77.922 42.7755C77.8219 42.7555 77.73 42.7061 77.6579 42.6334C77.5857 42.5608 77.5366 42.4683 77.5167 42.3676C77.4968 42.2669 77.507 42.1625 77.546 42.0677C77.5851 41.9728 77.6512 41.8917 77.736 41.8347C77.8209 41.7776 77.9206 41.7472 78.0226 41.7472C78.0905 41.747 78.1576 41.7602 78.2203 41.7862C78.283 41.8123 78.34 41.8505 78.3879 41.8987C78.4359 41.947 78.4739 42.0043 78.4997 42.0674C78.5256 42.1305 78.5388 42.1981 78.5386 42.2663Z" fill="white"/>
<path fill-rule="evenodd" clip-rule="evenodd" d="M78.1741 41.8993C78.1262 41.8794 78.0749 41.8693 78.0231 41.8694C77.9451 41.8694 77.8684 41.8927 77.8036 41.9363C77.7387 41.9799 77.6881 42.0419 77.6583 42.1145C77.6284 42.187 77.6206 42.2669 77.6358 42.3439C77.6511 42.4209 77.6886 42.4916 77.7438 42.5472C77.799 42.6027 77.8693 42.6405 77.9458 42.6558C78.0223 42.6711 78.1016 42.6632 78.1736 42.6332C78.2457 42.6032 78.3073 42.5523 78.3507 42.487C78.394 42.4217 78.4171 42.345 78.4171 42.2664C78.4173 42.2143 78.4072 42.1622 78.3875 42.114C78.3677 42.0658 78.3387 42.0221 78.3021 41.9852C78.2655 41.9483 78.2219 41.9191 78.1741 41.8993ZM78.0223 41.6251C78.1061 41.6248 78.1892 41.6412 78.2667 41.6734C78.3442 41.7055 78.4146 41.7528 78.4739 41.8125C78.5332 41.8721 78.5801 41.9429 78.6121 42.0209C78.644 42.0988 78.6603 42.1823 78.6601 42.2666C78.66 42.3934 78.6227 42.5173 78.5527 42.6227C78.4826 42.7282 78.3831 42.8104 78.2666 42.8589C78.1502 42.9075 78.022 42.9202 77.8983 42.8954C77.7747 42.8707 77.6611 42.8096 77.572 42.7199C77.4829 42.6302 77.4222 42.5159 77.3976 42.3915C77.373 42.2671 77.3856 42.1382 77.4338 42.021C77.4821 41.9038 77.5638 41.8037 77.6686 41.7332C77.7734 41.6627 77.8962 41.6251 78.0223 41.6251Z" fill="white"/>
<path d="M68.5883 41.9315C68.588 42.0573 68.5506 42.1801 68.4809 42.2846C68.4112 42.389 68.3123 42.4703 68.1968 42.5182C68.0812 42.5661 67.9541 42.5785 67.8315 42.5538C67.709 42.529 67.5964 42.4683 67.5081 42.3792C67.4199 42.2901 67.3598 42.1767 67.3355 42.0533C67.3113 41.9299 67.3239 41.8021 67.3718 41.6859C67.4197 41.5697 67.5008 41.4704 67.6047 41.4005C67.7087 41.3307 67.8309 41.2934 67.9559 41.2934C68.1238 41.2938 68.2846 41.3613 68.4032 41.4809C68.5217 41.6005 68.5883 41.7625 68.5883 41.9315Z" fill="white"/>
<path fill-rule="evenodd" clip-rule="evenodd" d="M67.9557 41.4155C67.8548 41.4156 67.7561 41.4457 67.6722 41.5021C67.5882 41.5585 67.5227 41.6387 67.484 41.7326C67.4453 41.8265 67.4351 41.9299 67.4547 42.0296C67.4743 42.1293 67.5228 42.2209 67.5941 42.2929C67.6655 42.3649 67.7564 42.4139 67.8554 42.4339C67.9544 42.4539 68.0571 42.4439 68.1505 42.4052C68.2439 42.3665 68.3237 42.3008 68.3801 42.2164C68.4363 42.1321 68.4665 42.0329 68.4668 41.9313C68.4668 41.7947 68.413 41.6638 68.3171 41.5671C68.2213 41.4704 68.0914 41.4159 67.9557 41.4155ZM67.5373 41.2989C67.6612 41.2156 67.8069 41.1712 67.9559 41.1712C68.1559 41.1717 68.3479 41.2521 68.4892 41.3946C68.6304 41.5371 68.7098 41.7302 68.7098 41.9314C68.7094 42.0814 68.6648 42.2281 68.5818 42.3526C68.4987 42.4771 68.3808 42.574 68.243 42.6311C68.1052 42.6883 67.9537 42.703 67.8076 42.6735C67.6615 42.644 67.5273 42.5716 67.4221 42.4654C67.3169 42.3592 67.2453 42.2241 67.2164 42.077C67.1874 41.9299 67.2025 41.7775 67.2596 41.639C67.3167 41.5005 67.4133 41.3822 67.5373 41.2989Z" fill="white"/>
<path d="M51.9961 67.0757C51.9961 67.2015 51.959 67.3246 51.8895 67.4292C51.82 67.5339 51.7213 67.6155 51.6057 67.6636C51.4902 67.7118 51.363 67.7244 51.2403 67.6998C51.1177 67.6753 51.005 67.6147 50.9165 67.5257C50.8281 67.4367 50.7679 67.3233 50.7435 67.1998C50.7191 67.0764 50.7316 66.9484 50.7795 66.8321C50.8273 66.7158 50.9084 66.6165 51.0124 66.5465C51.1164 66.4766 51.2386 66.4393 51.3637 66.4393C51.5314 66.4393 51.6923 66.5063 51.8109 66.6257C51.9295 66.745 51.9961 66.9069 51.9961 67.0757Z" fill="white"/>
<path fill-rule="evenodd" clip-rule="evenodd" d="M51.3637 66.5615C51.2627 66.5615 51.1639 66.5917 51.0799 66.6482C50.9958 66.7047 50.9303 66.785 50.8917 66.8789C50.853 66.9729 50.8429 67.0763 50.8626 67.1761C50.8823 67.2758 50.931 67.3675 51.0024 67.4394C51.0739 67.5113 51.1649 67.5603 51.264 67.5801C51.3631 67.5999 51.4659 67.5897 51.5592 67.5508C51.6526 67.5119 51.7324 67.446 51.7885 67.3615C51.8447 67.2769 51.8746 67.1775 51.8746 67.0757C51.8746 66.9393 51.8208 66.8085 51.725 66.7121C51.6291 66.6157 51.4992 66.5615 51.3637 66.5615ZM50.9449 66.445C51.0688 66.3617 51.2146 66.3172 51.3637 66.3172C51.5637 66.3172 51.7554 66.3971 51.8968 66.5394C52.0382 66.6816 52.1176 66.8746 52.1176 67.0757C52.1176 67.2258 52.0734 67.3724 51.9905 67.4972C51.9077 67.6219 51.79 67.7191 51.6522 67.7766C51.5145 67.834 51.3629 67.849 51.2166 67.8197C51.0704 67.7905 50.9361 67.7182 50.8306 67.6121C50.7252 67.506 50.6534 67.3709 50.6243 67.2237C50.5952 67.0766 50.6102 66.9241 50.6672 66.7855C50.7243 66.6469 50.8209 66.5284 50.9449 66.445Z" fill="white"/>
<path d="M71.7919 61.7886C71.8929 61.914 71.9441 62.0725 71.9359 62.2337C71.9276 62.3948 71.8603 62.5472 71.7471 62.6614C71.6338 62.7756 71.4825 62.8435 71.3224 62.8522C71.1623 62.8608 71.0046 62.8094 70.8799 62.7081C70.8483 62.6862 70.8207 62.659 70.7983 62.6277C70.7001 62.5017 70.6511 62.3439 70.6606 62.1841C70.6701 62.0242 70.7375 61.8735 70.85 61.7602C70.9625 61.647 71.1124 61.5792 71.2712 61.5696C71.43 61.56 71.5868 61.6094 71.712 61.7083C71.7441 61.7289 71.7714 61.7563 71.7919 61.7886Z" fill="white"/>
<path fill-rule="evenodd" clip-rule="evenodd" d="M71.6369 61.8043C71.5352 61.7238 71.4076 61.6837 71.2785 61.6915C71.1493 61.6993 71.0274 61.7545 70.9359 61.8466C70.8444 61.9387 70.7896 62.0613 70.7818 62.1913C70.7741 62.3214 70.8139 62.4498 70.8939 62.5522L70.8955 62.5542L70.897 62.5563C70.9112 62.5762 70.9287 62.5935 70.9488 62.6074L70.9526 62.61L70.9562 62.613C71.0576 62.6954 71.1857 62.7371 71.3159 62.7301C71.446 62.7231 71.569 62.6679 71.6611 62.575C71.7531 62.4822 71.8078 62.3583 71.8146 62.2273C71.8213 62.0963 71.7796 61.9674 71.6975 61.8655L71.6931 61.8601L71.6894 61.8542C71.6785 61.8369 71.6639 61.8223 71.6467 61.8112L71.6416 61.808L71.6369 61.8043ZM71.7826 61.6086C71.6348 61.4936 71.4505 61.4364 71.2639 61.4476C71.0754 61.459 70.8976 61.5395 70.7641 61.6738C70.6306 61.8082 70.5506 61.9871 70.5393 62.1767C70.5281 62.3656 70.5857 62.552 70.7013 62.7011C70.7306 62.7416 70.7663 62.777 70.807 62.8059C70.9546 62.9244 71.1403 62.9843 71.3289 62.9741C71.519 62.9639 71.6986 62.8832 71.833 62.7476C71.9675 62.612 72.0473 62.4312 72.0572 62.2399C72.0669 62.0508 72.0075 61.8648 71.8903 61.7168C71.862 61.6739 71.8253 61.6371 71.7826 61.6086Z" fill="white"/>
<path d="M55.937 75.5029C55.937 75.5947 55.91 75.6844 55.8593 75.7607C55.8087 75.837 55.7367 75.8964 55.6524 75.9315C55.5682 75.9666 55.4755 75.9758 55.3861 75.9579C55.2967 75.94 55.2145 75.8958 55.1501 75.831C55.0856 75.7661 55.0417 75.6834 55.0239 75.5934C55.0061 75.5035 55.0152 75.4102 55.0501 75.3254C55.085 75.2406 55.1441 75.1682 55.2199 75.1172C55.2957 75.0662 55.3848 75.039 55.476 75.039C55.5983 75.039 55.7155 75.0879 55.802 75.1749C55.8884 75.2619 55.937 75.3799 55.937 75.5029Z" fill="white"/>
<path fill-rule="evenodd" clip-rule="evenodd" d="M55.476 75.1612C55.4089 75.1612 55.3432 75.1812 55.2874 75.2187C55.2316 75.2563 55.188 75.3096 55.1623 75.3721C55.1366 75.4345 55.1299 75.5033 55.143 75.5696C55.1561 75.6359 55.1885 75.6968 55.236 75.7445C55.2834 75.7923 55.3439 75.8249 55.4098 75.838C55.4756 75.8512 55.5439 75.8445 55.6059 75.8186C55.668 75.7928 55.721 75.749 55.7583 75.6928C55.7956 75.6366 55.8155 75.5705 55.8155 75.5029C55.8155 75.4122 55.7797 75.3253 55.7161 75.2612C55.6524 75.1972 55.566 75.1612 55.476 75.1612ZM55.1524 75.0156C55.2482 74.9512 55.3608 74.9168 55.476 74.9168C55.6305 74.9168 55.7787 74.9786 55.8879 75.0885C55.9971 75.1984 56.0585 75.3475 56.0585 75.5029C56.0585 75.6188 56.0243 75.7321 55.9603 75.8285C55.8963 75.9248 55.8054 76 55.6989 76.0443C55.5925 76.0887 55.4754 76.1003 55.3624 76.0777C55.2494 76.0551 55.1456 75.9993 55.0641 75.9173C54.9827 75.8353 54.9272 75.7309 54.9048 75.6172C54.8823 75.5035 54.8938 75.3857 54.9379 75.2786C54.982 75.1715 55.0566 75.08 55.1524 75.0156Z" fill="white"/>
<path d="M39.0452 79.2828C39.2392 79.2828 39.3964 79.1246 39.3964 78.9294C39.3964 78.7343 39.2392 78.5761 39.0452 78.5761C38.8513 78.5761 38.6941 78.7343 38.6941 78.9294C38.6941 79.1246 38.8513 79.2828 39.0452 79.2828Z" fill="white"/>
<path fill-rule="evenodd" clip-rule="evenodd" d="M39.0453 78.6983C38.9185 78.6983 38.8156 78.8018 38.8156 78.9295C38.8156 79.0572 38.9185 79.1607 39.0453 79.1607C39.1721 79.1607 39.275 79.0572 39.275 78.9295C39.275 78.8018 39.1721 78.6983 39.0453 78.6983ZM38.5727 78.9295C38.5727 78.6669 38.7842 78.454 39.0453 78.454C39.3064 78.454 39.5179 78.6669 39.5179 78.9295C39.5179 79.1921 39.3064 79.405 39.0453 79.405C38.7842 79.405 38.5727 79.1921 38.5727 78.9295Z" fill="white"/>
<path d="M33.0575 78.293C33.0575 78.4189 33.0204 78.5419 32.9509 78.6466C32.8814 78.7512 32.7826 78.8328 32.6671 78.881C32.5515 78.9291 32.4244 78.9417 32.3017 78.9172C32.179 78.8926 32.0663 78.832 31.9779 78.743C31.8894 78.654 31.8292 78.5406 31.8048 78.4172C31.7804 78.2937 31.7929 78.1658 31.8408 78.0495C31.8887 77.9332 31.9697 77.8338 32.0737 77.7639C32.1777 77.6939 32.3 77.6566 32.4251 77.6566C32.5928 77.6566 32.7536 77.7237 32.8722 77.843C32.9908 77.9624 33.0575 78.1242 33.0575 78.293Z" fill="white"/>
<path fill-rule="evenodd" clip-rule="evenodd" d="M32.425 77.7787C32.324 77.7787 32.2252 77.8089 32.1412 77.8654C32.0572 77.9219 31.9917 78.0022 31.953 78.0962C31.9143 78.1901 31.9042 78.2935 31.9239 78.3933C31.9437 78.4931 31.9923 78.5847 32.0638 78.6566C32.1352 78.7285 32.2263 78.7775 32.3254 78.7973C32.4245 78.8171 32.5272 78.807 32.6206 78.7681C32.7139 78.7291 32.7937 78.6632 32.8499 78.5787C32.906 78.4941 32.936 78.3947 32.936 78.293C32.936 78.1566 32.8821 78.0258 32.7863 77.9293C32.6905 77.8329 32.5605 77.7787 32.425 77.7787ZM32.0062 77.6623C32.1302 77.5789 32.2759 77.5344 32.425 77.5344C32.625 77.5344 32.8168 77.6143 32.9581 77.7566C33.0995 77.8989 33.1789 78.0918 33.1789 78.293C33.1789 78.443 33.1347 78.5896 33.0519 78.7144C32.969 78.8391 32.8513 78.9364 32.7136 78.9938C32.5758 79.0512 32.4242 79.0662 32.278 79.037C32.1317 79.0077 31.9974 78.9354 31.892 78.8293C31.7865 78.7232 31.7148 78.5881 31.6857 78.4409C31.6566 78.2938 31.6715 78.1413 31.7286 78.0027C31.7856 77.8641 31.8822 77.7456 32.0062 77.6623Z" fill="white"/>
<path d="M20.8988 73.8282C20.8988 73.908 20.8752 73.9861 20.8312 74.0524C20.7871 74.1188 20.7245 74.1705 20.6512 74.2011C20.5779 74.2316 20.4973 74.2396 20.4194 74.2241C20.3416 74.2085 20.2702 74.17 20.2141 74.1136C20.158 74.0571 20.1198 73.9852 20.1043 73.9069C20.0889 73.8286 20.0968 73.7475 20.1272 73.6737C20.1575 73.6 20.2089 73.537 20.2749 73.4926C20.3408 73.4483 20.4184 73.4246 20.4977 73.4246C20.6041 73.4246 20.7061 73.4671 20.7813 73.5428C20.8565 73.6185 20.8988 73.7212 20.8988 73.8282Z" fill="white"/>
<path fill-rule="evenodd" clip-rule="evenodd" d="M20.4977 73.5467C20.4424 73.5467 20.3883 73.5632 20.3424 73.5941C20.2964 73.625 20.2605 73.669 20.2394 73.7204C20.2182 73.7719 20.2127 73.8285 20.2234 73.8831C20.2342 73.9377 20.2609 73.9878 20.3 74.0272C20.3391 74.0665 20.3889 74.0933 20.4431 74.1042C20.4974 74.115 20.5536 74.1095 20.6047 74.0882C20.6558 74.0669 20.6994 74.0308 20.7302 73.9845C20.7609 73.9383 20.7773 73.8838 20.7773 73.8282C20.7773 73.7535 20.7478 73.6819 20.6954 73.6291C20.6429 73.5764 20.5718 73.5467 20.4977 73.5467ZM20.2074 73.391C20.2933 73.3332 20.3943 73.3024 20.4977 73.3024C20.6363 73.3024 20.7692 73.3578 20.8672 73.4564C20.9652 73.555 21.0202 73.6887 21.0202 73.8282C21.0202 73.9321 20.9896 74.0338 20.9322 74.1202C20.8748 74.2067 20.7932 74.2741 20.6977 74.3139C20.6022 74.3537 20.4971 74.3641 20.3957 74.3438C20.2944 74.3235 20.2013 74.2735 20.1282 74.1999C20.0551 74.1264 20.0053 74.0327 19.9852 73.9307C19.965 73.8287 19.9754 73.723 20.0149 73.627C20.0545 73.5309 20.1214 73.4488 20.2074 73.391Z" fill="white"/>
<path d="M27.529 63.4449C27.529 63.5708 27.4919 63.6938 27.4224 63.7985C27.3529 63.9031 27.2541 63.9847 27.1386 64.0329C27.023 64.081 26.8959 64.0936 26.7732 64.0691C26.6505 64.0445 26.5378 63.9839 26.4494 63.8949C26.3609 63.8059 26.3007 63.6925 26.2763 63.5691C26.2519 63.4456 26.2644 63.3177 26.3123 63.2014C26.3602 63.0851 26.4412 62.9857 26.5452 62.9158C26.6492 62.8458 26.7715 62.8085 26.8966 62.8085C27.0641 62.809 27.2247 62.8761 27.3432 62.9954C27.4617 63.1146 27.5285 63.2763 27.529 63.4449Z" fill="white"/>
<path fill-rule="evenodd" clip-rule="evenodd" d="M26.8964 62.9306C26.7954 62.9307 26.6967 62.9608 26.6127 63.0173C26.5287 63.0738 26.4632 63.1541 26.4245 63.2481C26.3858 63.342 26.3757 63.4454 26.3954 63.5452C26.4151 63.645 26.4638 63.7366 26.5353 63.8085C26.6067 63.8804 26.6978 63.9294 26.7969 63.9492C26.896 63.969 26.9987 63.9589 27.0921 63.92C27.1854 63.881 27.2652 63.8151 27.3214 63.7306C27.3775 63.646 27.4075 63.5467 27.4075 63.445C27.4071 63.3087 27.3531 63.1781 27.2573 63.0817C27.1616 62.9853 27.0318 62.931 26.8964 62.9306ZM26.4777 62.8142C26.6017 62.7308 26.7474 62.6863 26.8965 62.6863C27.0962 62.6868 27.2879 62.7669 27.4291 62.909C27.5703 63.0511 27.6499 63.2436 27.6504 63.4445C27.6504 63.5946 27.6062 63.7415 27.5234 63.8663C27.4405 63.991 27.3228 64.0883 27.1851 64.1457C27.0473 64.2031 26.8957 64.2181 26.7495 64.1889C26.6032 64.1596 26.4689 64.0873 26.3635 63.9812C26.258 63.8751 26.1862 63.74 26.1572 63.5928C26.1281 63.4457 26.143 63.2932 26.2001 63.1546C26.2571 63.016 26.3537 62.8975 26.4777 62.8142Z" fill="white"/>
<path d="M10.554 65.1732C10.554 65.2991 10.5169 65.4221 10.4474 65.5268C10.3779 65.6314 10.2792 65.713 10.1636 65.7612C10.0481 65.8094 9.92091 65.822 9.79823 65.7974C9.67556 65.7728 9.56288 65.7122 9.47444 65.6232C9.38599 65.5342 9.32576 65.4208 9.30136 65.2974C9.27696 65.1739 9.28949 65.046 9.33735 64.9297C9.38521 64.8134 9.46627 64.714 9.57027 64.6441C9.67427 64.5742 9.79653 64.5368 9.92161 64.5368C10.0892 64.5373 10.2498 64.6045 10.3683 64.7237C10.4868 64.843 10.5536 65.0046 10.554 65.1732Z" fill="white"/>
<path fill-rule="evenodd" clip-rule="evenodd" d="M9.92144 64.659C9.82046 64.659 9.72174 64.6891 9.63776 64.7456C9.55374 64.8021 9.48824 64.8824 9.44956 64.9764C9.41088 65.0704 9.40076 65.1738 9.42048 65.2735C9.4402 65.3733 9.48887 65.4649 9.56033 65.5368C9.63179 65.6087 9.72283 65.6577 9.82193 65.6775C9.92103 65.6974 10.0238 65.6872 10.1171 65.6483C10.2105 65.6094 10.2903 65.5435 10.3464 65.4589C10.4025 65.3744 10.4325 65.275 10.4325 65.1733C10.4321 65.037 10.3781 64.9064 10.2824 64.81C10.1866 64.7137 10.0568 64.6594 9.92144 64.659ZM9.50276 64.5425C9.62673 64.4591 9.77249 64.4146 9.9216 64.4146C10.1213 64.4151 10.313 64.4952 10.4542 64.6373C10.5954 64.7794 10.6749 64.9719 10.6755 65.1729C10.6755 65.3229 10.6313 65.4699 10.5484 65.5946C10.4656 65.7193 10.3479 65.8166 10.2101 65.874C10.0724 65.9314 9.92076 65.9464 9.77452 65.9172C9.62827 65.8879 9.49395 65.8156 9.38852 65.7096C9.2831 65.6035 9.21131 65.4683 9.18222 65.3212C9.15314 65.174 9.16807 65.0215 9.22512 64.8829C9.28217 64.7443 9.37878 64.6258 9.50276 64.5425Z" fill="white"/>
<path d="M6.04234 59.0622C6.04234 59.1384 6.01989 59.2128 5.97783 59.2762C5.93577 59.3395 5.87599 59.3889 5.80605 59.418C5.73611 59.4472 5.65915 59.4548 5.5849 59.44C5.51065 59.4251 5.44244 59.3884 5.38891 59.3345C5.33538 59.2807 5.29893 59.212 5.28416 59.1373C5.26939 59.0626 5.27697 58.9852 5.30594 58.9148C5.33491 58.8444 5.38397 58.7842 5.44692 58.7419C5.50986 58.6996 5.58387 58.677 5.65957 58.677C5.76109 58.677 5.85845 58.7176 5.93023 58.7898C6.00201 58.862 6.04234 58.96 6.04234 59.0622Z" fill="white"/>
<path fill-rule="evenodd" clip-rule="evenodd" d="M5.65956 58.7991C5.6079 58.7991 5.55738 58.8145 5.51441 58.8434C5.47144 58.8723 5.43794 58.9134 5.41815 58.9615C5.39837 59.0095 5.39319 59.0624 5.40328 59.1135C5.41337 59.1645 5.43826 59.2114 5.47481 59.2481C5.51136 59.2849 5.55792 59.31 5.60859 59.3201C5.65927 59.3302 5.7118 59.325 5.75954 59.3051C5.80728 59.2852 5.8481 59.2515 5.87682 59.2083C5.90553 59.165 5.92087 59.1142 5.92087 59.0621C5.92087 58.9924 5.89332 58.9254 5.84431 58.8761C5.79531 58.8268 5.72885 58.7991 5.65956 58.7991ZM5.3794 58.6403C5.46232 58.5845 5.55982 58.5548 5.65956 58.5548C5.79331 58.5548 5.92157 58.6082 6.01613 58.7034C6.11068 58.7985 6.16379 58.9276 6.16379 59.0621C6.16379 59.1625 6.13423 59.2605 6.07883 59.344C6.02343 59.4274 5.94468 59.4925 5.85254 59.5309C5.7604 59.5693 5.659 59.5793 5.56118 59.5597C5.46336 59.5402 5.37351 59.4918 5.303 59.4209C5.23248 59.3499 5.18447 59.2595 5.16502 59.1611C5.14557 59.0627 5.15555 58.9607 5.19371 58.868C5.23186 58.7753 5.29649 58.696 5.3794 58.6403Z" fill="white"/>
<path d="M40.4332 41.5612C40.4332 41.6871 40.3961 41.8101 40.3266 41.9148C40.2572 42.0194 40.1584 42.101 40.0428 42.1491C39.9273 42.1973 39.8001 42.2099 39.6775 42.1854C39.5548 42.1608 39.4421 42.1002 39.3537 42.0112C39.2652 41.9222 39.205 41.8088 39.1806 41.6853C39.1562 41.5619 39.1687 41.4339 39.2166 41.3177C39.2644 41.2014 39.3455 41.102 39.4495 41.032C39.5535 40.9621 39.6757 40.9248 39.8008 40.9248C39.9685 40.9248 40.1294 40.9918 40.248 41.1112C40.3666 41.2305 40.4332 41.3924 40.4332 41.5612Z" fill="white"/>
<path fill-rule="evenodd" clip-rule="evenodd" d="M39.8008 41.047C39.6998 41.047 39.601 41.0772 39.517 41.1337C39.433 41.1902 39.3675 41.2705 39.3288 41.3645C39.2901 41.4584 39.28 41.5618 39.2997 41.6616C39.3194 41.7614 39.3681 41.853 39.4395 41.9249C39.511 41.9968 39.602 42.0458 39.7012 42.0656C39.8003 42.0854 39.903 42.0753 39.9963 42.0364C40.0897 41.9974 40.1695 41.9315 40.2256 41.847C40.2818 41.7624 40.3118 41.663 40.3118 41.5613C40.3118 41.4249 40.2579 41.2941 40.1621 41.1976C40.0663 41.1012 39.9363 41.047 39.8008 41.047ZM39.382 40.9306C39.5059 40.8472 39.6517 40.8027 39.8008 40.8027C40.0008 40.8027 40.1925 40.8826 40.3339 41.0249C40.4753 41.1672 40.5547 41.3601 40.5547 41.5613C40.5547 41.7113 40.5105 41.8579 40.4276 41.9827C40.3448 42.1074 40.2271 42.2047 40.0893 42.2621C39.9516 42.3195 39.8 42.3345 39.6537 42.3053C39.5075 42.276 39.3732 42.2037 39.2677 42.0976C39.1623 41.9915 39.0905 41.8564 39.0614 41.7092C39.0324 41.5621 39.0473 41.4096 39.1043 41.271C39.1614 41.1324 39.258 41.0139 39.382 40.9306Z" fill="white"/>
<path d="M13.498 41.6383C13.498 41.7641 13.4609 41.8872 13.3914 41.9918C13.3219 42.0965 13.2232 42.178 13.1076 42.2262C12.992 42.2744 12.8649 42.287 12.7422 42.2624C12.6195 42.2379 12.5069 42.1773 12.4184 42.0883C12.33 41.9992 12.2697 41.8859 12.2453 41.7624C12.2209 41.639 12.2335 41.511 12.2813 41.3947C12.3292 41.2784 12.4103 41.179 12.5143 41.1091C12.6183 41.0392 12.7405 41.0019 12.8656 41.0019C13.0333 41.0019 13.1942 41.0689 13.3128 41.1883C13.4314 41.3076 13.498 41.4695 13.498 41.6383Z" fill="white"/>
<path fill-rule="evenodd" clip-rule="evenodd" d="M12.8656 41.1241C12.7645 41.1241 12.6658 41.1543 12.5817 41.2108C12.4977 41.2672 12.4322 41.3476 12.3935 41.4415C12.3549 41.5355 12.3447 41.6389 12.3645 41.7387C12.3842 41.8384 12.4329 41.9301 12.5043 42.002C12.5758 42.0739 12.6668 42.1228 12.7659 42.1427C12.865 42.1625 12.9677 42.1523 13.0611 42.1134C13.1544 42.0745 13.2343 42.0086 13.2904 41.924C13.3466 41.8395 13.3765 41.74 13.3765 41.6383C13.3765 41.5019 13.3227 41.3711 13.2269 41.2747C13.131 41.1783 13.0011 41.1241 12.8656 41.1241ZM12.4467 41.0076C12.5707 40.9243 12.7165 40.8798 12.8656 40.8798C13.0655 40.8798 13.2573 40.9597 13.3987 41.102C13.54 41.2442 13.6194 41.4372 13.6194 41.6383C13.6194 41.7884 13.5752 41.935 13.4924 42.0597C13.4096 42.1845 13.2919 42.2817 13.1541 42.3391C13.0163 42.3966 12.8648 42.4116 12.7185 42.3823C12.5723 42.353 12.4379 42.2808 12.3325 42.1747C12.2271 42.0686 12.1553 41.9334 12.1262 41.7863C12.0971 41.6392 12.1121 41.4867 12.1691 41.3481C12.2262 41.2095 12.3228 41.091 12.4467 41.0076Z" fill="white"/>
<path d="M1.08305 41.506C1.08305 41.5816 1.06079 41.6554 1.0191 41.7182C0.977408 41.781 0.918147 41.8299 0.848814 41.8588C0.77948 41.8877 0.703188 41.8953 0.629584 41.8805C0.55598 41.8658 0.48837 41.8294 0.435305 41.776C0.382239 41.7226 0.346101 41.6546 0.33146 41.5805C0.316819 41.5065 0.324334 41.4297 0.353052 41.3599C0.381771 41.2901 0.430405 41.2305 0.492803 41.1885C0.555202 41.1466 0.628563 41.1242 0.703609 41.1242C0.753499 41.124 0.802939 41.1337 0.849074 41.1528C0.895209 41.1719 0.937126 41.2 0.972404 41.2355C1.00768 41.271 1.03562 41.3132 1.05461 41.3596C1.0736 41.4061 1.08327 41.4558 1.08305 41.506Z" fill="white"/>
<path fill-rule="evenodd" clip-rule="evenodd" d="M0.802812 41.2657C0.771512 41.2528 0.737975 41.2462 0.704135 41.2463C0.653124 41.2463 0.602718 41.2615 0.560296 41.2901C0.517872 41.3186 0.484798 41.3591 0.465266 41.4066C0.445733 41.4541 0.440622 41.5063 0.45058 41.5567C0.460539 41.607 0.485119 41.6533 0.521201 41.6896C0.557281 41.7259 0.603244 41.7506 0.65328 41.7607C0.703315 41.7707 0.755175 41.7655 0.802304 41.7459C0.849436 41.7263 0.889731 41.693 0.918085 41.6503C0.946439 41.6076 0.961577 41.5574 0.961577 41.506C0.961726 41.4719 0.955167 41.4376 0.942278 41.4061C0.929389 41.3746 0.910427 41.346 0.886488 41.3219C0.862549 41.2978 0.83411 41.2787 0.802812 41.2657ZM0.703329 41.002C0.76918 41.0017 0.834428 41.0146 0.895316 41.0398C0.956289 41.0651 1.01168 41.1022 1.0583 41.1491C1.10492 41.196 1.14184 41.2518 1.16693 41.3131C1.19199 41.3744 1.20475 41.44 1.2045 41.5063C1.20445 41.6058 1.17508 41.7032 1.1201 41.786C1.06506 41.8689 0.986839 41.9335 0.895304 41.9716C0.803767 42.0098 0.703041 42.0198 0.605867 42.0003C0.508695 41.9809 0.41944 41.9329 0.349388 41.8624C0.279339 41.7919 0.231643 41.7021 0.212321 41.6043C0.192998 41.5065 0.202914 41.4052 0.240819 41.3131C0.278725 41.221 0.342919 41.1423 0.425291 41.0869C0.507591 41.0316 0.604342 41.002 0.703329 41.002Z" fill="white"/>
<path d="M8.22747 21.8315C8.22747 21.9573 8.19038 22.0804 8.12089 22.185C8.0514 22.2897 7.95263 22.3712 7.83708 22.4194C7.72152 22.4676 7.59437 22.4802 7.47169 22.4556C7.34902 22.4311 7.23634 22.3705 7.1479 22.2815C7.05945 22.1925 6.99922 22.0791 6.97482 21.9556C6.95042 21.8322 6.96294 21.7042 7.01081 21.5879C7.05867 21.4716 7.13973 21.3722 7.24373 21.3023C7.34772 21.2324 7.46999 21.1951 7.59507 21.1951C7.76279 21.1951 7.92364 21.2621 8.04224 21.3815C8.16084 21.5008 8.22747 21.6627 8.22747 21.8315Z" fill="white"/>
<path fill-rule="evenodd" clip-rule="evenodd" d="M7.59506 21.3172C7.49402 21.3172 7.39524 21.3473 7.31122 21.4038C7.2272 21.4603 7.1617 21.5406 7.12302 21.6346C7.08434 21.7286 7.07422 21.832 7.09394 21.9317C7.11366 22.0315 7.16233 22.1231 7.23379 22.195C7.30525 22.267 7.39629 22.3159 7.49539 22.3358C7.59449 22.3556 7.69722 22.3454 7.79057 22.3065C7.88392 22.2676 7.96372 22.2017 8.01987 22.1171C8.07602 22.0326 8.106 21.9331 8.106 21.8314C8.106 21.695 8.05215 21.5642 7.95633 21.4678C7.8605 21.3714 7.73055 21.3172 7.59506 21.3172ZM7.17621 21.2007C7.30019 21.1173 7.44595 21.0728 7.59506 21.0728C7.79501 21.0728 7.98677 21.1528 8.12814 21.295C8.26951 21.4373 8.34892 21.6303 8.34892 21.8314C8.34892 21.9814 8.30471 22.1281 8.22189 22.2528C8.13906 22.3776 8.02133 22.4748 7.88357 22.5322C7.74581 22.5897 7.59422 22.6047 7.44798 22.5754C7.30173 22.5461 7.16741 22.4739 7.06198 22.3678C6.95655 22.2617 6.88477 22.1265 6.85568 21.9794C6.8266 21.8323 6.84152 21.6797 6.89858 21.5411C6.95563 21.4025 7.05224 21.2841 7.17621 21.2007Z" fill="white"/>
<path d="M28.3677 16.1959C28.3677 16.3218 28.3306 16.4448 28.2611 16.5495C28.1916 16.6541 28.0929 16.7357 27.9773 16.7839C27.8618 16.832 27.7346 16.8446 27.6119 16.8201C27.4892 16.7955 27.3766 16.7349 27.2881 16.6459C27.1997 16.5569 27.1395 16.4435 27.1151 16.3201C27.0906 16.1966 27.1032 16.0687 27.151 15.9524C27.1989 15.8361 27.28 15.7367 27.384 15.6668C27.488 15.5968 27.6102 15.5595 27.7353 15.5595C27.903 15.5595 28.0639 15.6266 28.1825 15.7459C28.3011 15.8653 28.3677 16.0271 28.3677 16.1959Z" fill="white"/>
<path fill-rule="evenodd" clip-rule="evenodd" d="M27.7353 15.6817C27.6342 15.6817 27.5355 15.7118 27.4514 15.7683C27.3674 15.8248 27.3019 15.9051 27.2633 15.9991C27.2246 16.093 27.2145 16.1964 27.2342 16.2962C27.2539 16.396 27.3026 16.4876 27.374 16.5595C27.4455 16.6314 27.5365 16.6804 27.6356 16.7002C27.7347 16.7201 27.8374 16.7099 27.9308 16.671C28.0242 16.6321 28.104 16.5661 28.1601 16.4816C28.2163 16.397 28.2462 16.2976 28.2462 16.1959C28.2462 16.0595 28.1924 15.9287 28.0966 15.8322C28.0007 15.7358 27.8708 15.6817 27.7353 15.6817ZM27.3164 15.5652C27.4404 15.4818 27.5862 15.4373 27.7353 15.4373C27.9352 15.4373 28.127 15.5172 28.2684 15.6595C28.4097 15.8018 28.4892 15.9947 28.4892 16.1959C28.4892 16.3459 28.4449 16.4925 28.3621 16.6173C28.2793 16.742 28.1616 16.8393 28.0238 16.8967C27.886 16.9541 27.7345 16.9691 27.5882 16.9399C27.442 16.9106 27.3076 16.8383 27.2022 16.7322C27.0968 16.6262 27.025 16.491 26.9959 16.3439C26.9668 16.1967 26.9818 16.0442 27.0388 15.9056C27.0959 15.767 27.1925 15.6485 27.3164 15.5652Z" fill="white"/>
<path d="M22.8325 5.08239C22.8325 5.20826 22.7954 5.3313 22.7259 5.43596C22.6565 5.54061 22.5577 5.62218 22.4421 5.67035C22.3266 5.71851 22.1994 5.73112 22.0768 5.70656C21.9541 5.68201 21.8414 5.62139 21.753 5.53239C21.6645 5.44339 21.6043 5.33 21.5799 5.20655C21.5555 5.0831 21.568 4.95514 21.6159 4.83886C21.6637 4.72257 21.7448 4.62318 21.8488 4.55325C21.9528 4.48332 22.075 4.446 22.2001 4.446C22.3677 4.44644 22.5283 4.51363 22.6468 4.63288C22.7653 4.75213 22.8321 4.91375 22.8325 5.08239Z" fill="white"/>
<path fill-rule="evenodd" clip-rule="evenodd" d="M22.2 4.56825C22.099 4.56828 22.0003 4.59843 21.9163 4.6549C21.8323 4.71139 21.7668 4.7917 21.7281 4.88567C21.6895 4.97964 21.6793 5.08304 21.6991 5.1828C21.7188 5.28256 21.7675 5.37419 21.8389 5.4461C21.9104 5.51801 22.0014 5.56698 22.1005 5.58682C22.1996 5.60665 22.3023 5.59647 22.3957 5.55756C22.489 5.51865 22.5688 5.45275 22.625 5.36818C22.6811 5.28366 22.7111 5.18428 22.7111 5.08262C22.7107 4.94631 22.6567 4.8157 22.561 4.71933C22.4652 4.62296 22.3354 4.56865 22.2 4.56825ZM21.7813 4.45176C21.9053 4.3684 22.0511 4.32391 22.2002 4.32391C22.3999 4.32443 22.5916 4.4045 22.7328 4.54659C22.874 4.68868 22.9535 4.88123 22.954 5.08215C22.954 5.23217 22.9098 5.37914 22.827 5.50389C22.7442 5.62863 22.6264 5.72587 22.4887 5.78329C22.3509 5.84071 22.1993 5.85574 22.0531 5.82646C21.9069 5.79719 21.7725 5.72493 21.6671 5.61884C21.5617 5.51275 21.4899 5.37759 21.4608 5.23045C21.4317 5.08332 21.4466 4.9308 21.5037 4.7922C21.5607 4.6536 21.6574 4.53512 21.7813 4.45176Z" fill="white"/>
<path d="M39.7126 0.992821C39.7129 1.0853 39.686 1.17581 39.6351 1.25286C39.5843 1.32992 39.5119 1.39007 39.4271 1.42569C39.3423 1.46132 39.2489 1.47081 39.1587 1.45297C39.0685 1.43513 38.9856 1.39076 38.9205 1.32548C38.8554 1.2602 38.8111 1.17695 38.793 1.08627C38.775 0.995587 38.7841 0.901553 38.8191 0.816077C38.8542 0.730601 38.9138 0.657528 38.9901 0.606111C39.0665 0.554695 39.1564 0.527249 39.2483 0.527248C39.3092 0.527028 39.3695 0.538907 39.4258 0.562206C39.4822 0.585504 39.5334 0.619763 39.5765 0.663018C39.6196 0.706272 39.6539 0.757671 39.6772 0.814266C39.7006 0.870862 39.7126 0.93154 39.7126 0.992821Z" fill="white"/>
<path fill-rule="evenodd" clip-rule="evenodd" d="M39.3796 0.675152C39.3381 0.657972 39.2936 0.649213 39.2487 0.649375C39.1808 0.649376 39.1141 0.669639 39.0577 0.707604C39.0013 0.74557 38.9573 0.799533 38.9314 0.862666C38.9055 0.9258 38.8988 0.995258 38.9121 1.06224C38.9254 1.12922 38.9582 1.19071 39.0063 1.23892C39.0544 1.28712 39.1156 1.31988 39.1821 1.33305C39.2487 1.34622 39.3177 1.33921 39.3803 1.31291C39.4429 1.28661 39.4964 1.2422 39.5339 1.18529C39.5715 1.12838 39.5914 1.06153 39.5911 0.993215C39.5911 0.948011 39.5822 0.90281 39.565 0.861058C39.5478 0.819307 39.5225 0.781397 39.4907 0.749497C39.4589 0.717597 39.4212 0.692333 39.3796 0.675152ZM39.2478 0.405033C39.3247 0.404755 39.4009 0.419755 39.472 0.449172C39.5431 0.478588 39.6078 0.521842 39.6622 0.576451C39.7167 0.63106 39.7599 0.695947 39.7894 0.767387C39.8188 0.838758 39.834 0.915275 39.834 0.992559C39.8344 1.10914 39.8004 1.22321 39.7364 1.32036C39.6722 1.41756 39.5809 1.49345 39.4739 1.53839C39.3669 1.58333 39.249 1.59531 39.1353 1.5728C39.0215 1.55029 38.9169 1.49431 38.8348 1.41196C38.7527 1.32961 38.6967 1.22459 38.6739 1.11021C38.6511 0.995828 38.6626 0.877218 38.7069 0.7694C38.7511 0.661581 38.8262 0.569397 38.9226 0.504531C39.019 0.439664 39.1319 0.405034 39.2478 0.405033Z" fill="white"/>
<path d="M47.9538 1.81509C47.9541 1.94143 47.9172 2.06503 47.8476 2.17021C47.7781 2.2754 47.6791 2.35744 47.5631 2.40594C47.4472 2.45444 47.3196 2.46722 47.1964 2.44265C47.0733 2.41809 46.9601 2.35728 46.8714 2.26795C46.7826 2.17861 46.7222 2.06476 46.6978 1.94083C46.6733 1.8169 46.686 1.68847 46.7342 1.57181C46.7824 1.45515 46.864 1.35552 46.9685 1.28553C47.073 1.21555 47.1958 1.17836 47.3214 1.1787C47.4891 1.1787 47.65 1.24574 47.7686 1.36509C47.8872 1.48444 47.9538 1.64631 47.9538 1.81509Z" fill="white"/>
<path fill-rule="evenodd" clip-rule="evenodd" d="M47.3211 1.30082C47.2196 1.30056 47.1203 1.33061 47.0358 1.38719C46.9513 1.44377 46.8854 1.52432 46.8464 1.61865C46.8074 1.71298 46.7972 1.81684 46.8169 1.91705C46.8366 2.01726 46.8855 2.10931 46.9573 2.18153C47.029 2.25376 47.1205 2.30291 47.22 2.32277C47.3196 2.34263 47.4228 2.3323 47.5165 2.2931C47.6102 2.25389 47.6902 2.18756 47.7465 2.10251C47.8027 2.01747 47.8326 1.91753 47.8323 1.81537C47.8323 1.67897 47.7785 1.54785 47.6826 1.45142C47.5868 1.35499 47.4565 1.30082 47.3211 1.30082ZM47.3215 1.05648C47.172 1.05612 47.0257 1.10042 46.9012 1.18379C46.7766 1.26718 46.6795 1.3859 46.6221 1.52489C46.5646 1.66387 46.5495 1.81689 46.5786 1.96454C46.6077 2.11218 46.6797 2.24783 46.7855 2.35427C46.8912 2.46072 47.026 2.53317 47.1728 2.56245C47.3195 2.59172 47.4716 2.5765 47.6098 2.5187C47.7479 2.46091 47.8659 2.36315 47.9487 2.23782C48.0315 2.11259 48.0756 1.96545 48.0752 1.81505" fill="white"/>
<path d="M54.1346 18.9675C54.1346 19.0934 54.0975 19.2164 54.028 19.3211C53.9585 19.4257 53.8598 19.5073 53.7442 19.5554C53.6287 19.6036 53.5015 19.6162 53.3788 19.5917C53.2562 19.5671 53.1435 19.5065 53.055 19.4175C52.9666 19.3285 52.9064 19.2151 52.882 19.0916C52.8576 18.9682 52.8701 18.8402 52.9179 18.724C52.9658 18.6077 53.0469 18.5083 53.1509 18.4383C53.2549 18.3684 53.3771 18.3311 53.5022 18.3311C53.6699 18.3311 53.8308 18.3981 53.9494 18.5175C54.068 18.6368 54.1346 18.7987 54.1346 18.9675Z" fill="white"/>
<path fill-rule="evenodd" clip-rule="evenodd" d="M53.5022 18.4533C53.4012 18.4533 53.3024 18.4835 53.2184 18.54C53.1343 18.5965 53.0688 18.6768 53.0302 18.7708C52.9915 18.8647 52.9814 18.9681 53.0011 19.0679C53.0208 19.1677 53.0695 19.2593 53.1409 19.3312C53.2124 19.4031 53.3034 19.4521 53.4025 19.4719C53.5016 19.4918 53.6044 19.4816 53.6977 19.4427C53.7911 19.4037 53.8709 19.3378 53.927 19.2533C53.9832 19.1687 54.0131 19.0693 54.0131 18.9676C54.0131 18.8312 53.9593 18.7004 53.8635 18.6039C53.7676 18.5075 53.6377 18.4533 53.5022 18.4533ZM53.0834 18.3369C53.2073 18.2535 53.3531 18.209 53.5022 18.209C53.7022 18.209 53.8939 18.2889 54.0353 18.4312C54.1767 18.5735 54.2561 18.7664 54.2561 18.9676C54.2561 19.1176 54.2119 19.2642 54.129 19.389C54.0462 19.5137 53.9285 19.611 53.7907 19.6684C53.653 19.7258 53.5014 19.7408 53.3551 19.7116C53.2089 19.6823 53.0746 19.61 52.9691 19.5039C52.8637 19.3978 52.7919 19.2627 52.7628 19.1155C52.7337 18.9684 52.7487 18.8159 52.8057 18.6773C52.8628 18.5387 52.9594 18.4202 53.0834 18.3369Z" fill="white"/>
<path d="M60.6616 6.97322C60.6616 7.08087 60.6299 7.1861 60.5705 7.27561C60.5111 7.36512 60.4266 7.43488 60.3278 7.47607C60.2289 7.51727 60.1202 7.52805 60.0153 7.50705C59.9103 7.48605 59.814 7.43421 59.7383 7.35809C59.6627 7.28197 59.6112 7.18499 59.5903 7.07941C59.5694 6.97382 59.5801 6.86439 59.6211 6.76493C59.662 6.66548 59.7313 6.58047 59.8203 6.52066C59.9092 6.46086 60.0138 6.42894 60.1208 6.42894C60.2642 6.42894 60.4018 6.48628 60.5032 6.58835C60.6047 6.69043 60.6616 6.82887 60.6616 6.97322Z" fill="white"/>
<path fill-rule="evenodd" clip-rule="evenodd" d="M60.1208 6.55106C60.0378 6.55106 59.9567 6.57581 59.8878 6.62219C59.8188 6.66856 59.765 6.73449 59.7333 6.81162C59.7015 6.88876 59.6932 6.97364 59.7094 7.05554C59.7256 7.13743 59.7656 7.21265 59.8242 7.27168C59.8829 7.33071 59.9576 7.3709 60.0389 7.38718C60.1203 7.40346 60.2046 7.39511 60.2812 7.36317C60.3579 7.33122 60.4234 7.27713 60.4695 7.20771C60.5156 7.13829 60.5402 7.05668 60.5402 6.97318C60.5402 6.86121 60.496 6.75384 60.4173 6.67468C60.3386 6.59552 60.232 6.55106 60.1208 6.55106ZM59.7528 6.41905C59.8617 6.34582 59.9898 6.30672 60.1208 6.30672C60.2964 6.30672 60.4649 6.37695 60.5891 6.50194C60.7133 6.62693 60.7831 6.79644 60.7831 6.97318C60.7831 7.10498 60.7443 7.23382 60.6715 7.34342C60.5987 7.45302 60.4953 7.53845 60.3742 7.58889C60.2532 7.63934 60.12 7.65255 59.9915 7.62683C59.863 7.60111 59.745 7.53762 59.6524 7.44441C59.5598 7.3512 59.4967 7.23246 59.4712 7.10319C59.4456 6.97392 59.4587 6.83993 59.5088 6.71815C59.559 6.59638 59.6439 6.49229 59.7528 6.41905Z" fill="white"/>
<path d="M66.7244 19.9021C66.7244 20.028 66.6873 20.1511 66.6178 20.2557C66.5483 20.3604 66.4495 20.4419 66.334 20.4901C66.2184 20.5383 66.0913 20.5509 65.9686 20.5263C65.8459 20.5018 65.7332 20.4411 65.6448 20.3521C65.5563 20.2631 65.4961 20.1497 65.4717 20.0263C65.4473 19.9029 65.4598 19.7749 65.5077 19.6586C65.5556 19.5423 65.6366 19.4429 65.7406 19.373C65.8446 19.3031 65.9669 19.2658 66.092 19.2658C66.175 19.2658 66.2572 19.2822 66.334 19.3142C66.4107 19.3462 66.4804 19.3931 66.5391 19.4521C66.5979 19.5112 66.6444 19.5814 66.6762 19.6586C66.708 19.7358 66.7244 19.8186 66.7244 19.9021Z" fill="white"/>
<path fill-rule="evenodd" clip-rule="evenodd" d="M66.0919 19.3879C65.9909 19.3879 65.8921 19.418 65.8081 19.4745C65.7241 19.531 65.6586 19.6113 65.6199 19.7053C65.5812 19.7993 65.5711 19.9027 65.5908 20.0024C65.6105 20.1022 65.6592 20.1938 65.7307 20.2657C65.8021 20.3376 65.8932 20.3866 65.9923 20.4064C66.0914 20.4263 66.1941 20.4161 66.2875 20.3772C66.3808 20.3383 66.4606 20.2724 66.5168 20.1878C66.5729 20.1032 66.6029 20.0038 66.6029 19.9021C66.6029 19.8346 66.5897 19.7677 66.564 19.7053C66.5383 19.6429 66.5007 19.5862 66.4532 19.5385C66.4058 19.4907 66.3494 19.4529 66.2875 19.427C66.2255 19.4012 66.159 19.3879 66.0919 19.3879ZM65.6731 19.2714C65.7971 19.188 65.9428 19.1435 66.0919 19.1435C66.191 19.1435 66.289 19.1632 66.3805 19.2013C66.4719 19.2394 66.555 19.2953 66.625 19.3657C66.695 19.4362 66.7505 19.5198 66.7884 19.6118C66.8263 19.7039 66.8458 19.8025 66.8458 19.9021C66.8458 20.0521 66.8016 20.1988 66.7188 20.3235C66.6359 20.4483 66.5182 20.5455 66.3805 20.6029C66.2427 20.6603 66.0911 20.6754 65.9449 20.6461C65.7986 20.6168 65.6643 20.5446 65.5589 20.4385C65.4534 20.3324 65.3817 20.1972 65.3526 20.0501C65.3235 19.9029 65.3384 19.7504 65.3955 19.6118C65.4525 19.4732 65.5491 19.3548 65.6731 19.2714Z" fill="white"/>
<path d="M71.2527 18.1904C71.499 18.1904 71.6987 17.9895 71.6987 17.7416C71.6987 17.4937 71.499 17.2928 71.2527 17.2928C71.0064 17.2928 70.8067 17.4937 70.8067 17.7416C70.8067 17.9895 71.0064 18.1904 71.2527 18.1904Z" fill="white"/>
<path fill-rule="evenodd" clip-rule="evenodd" d="M71.2527 17.415C71.0735 17.415 70.9281 17.5612 70.9281 17.7417C70.9281 17.9221 71.0735 18.0683 71.2527 18.0683C71.4319 18.0683 71.5772 17.9221 71.5772 17.7417C71.5772 17.5612 71.4319 17.415 71.2527 17.415ZM70.6852 17.7417C70.6852 17.4264 70.9392 17.1707 71.2527 17.1707C71.5661 17.1707 71.8201 17.4264 71.8201 17.7417C71.8201 18.057 71.5661 18.3127 71.2527 18.3127C70.9392 18.3127 70.6852 18.057 70.6852 17.7417Z" fill="white"/>
<path d="M74.4779 23.9013C74.8272 23.9013 75.1103 23.6164 75.1103 23.2649C75.1103 22.9134 74.8272 22.6285 74.4779 22.6285C74.1286 22.6285 73.8455 22.9134 73.8455 23.2649C73.8455 23.6164 74.1286 23.9013 74.4779 23.9013Z" fill="white"/>
<path fill-rule="evenodd" clip-rule="evenodd" d="M74.4779 22.7506C74.1958 22.7506 73.967 22.9808 73.967 23.2649C73.967 23.5489 74.1958 23.7791 74.4779 23.7791C74.7601 23.7791 74.9889 23.5489 74.9889 23.2649C74.9889 22.9808 74.7601 22.7506 74.4779 22.7506ZM73.7241 23.2649C73.7241 22.846 74.0615 22.5063 74.4779 22.5063C74.8943 22.5063 75.2318 22.846 75.2318 23.2649C75.2318 23.6838 74.8943 24.0234 74.4779 24.0234C74.0615 24.0234 73.7241 23.6838 73.7241 23.2649Z" fill="white"/>
<path d="M6.59821 20.0964C6.59821 20.1828 6.57274 20.2673 6.52501 20.3392C6.47728 20.4111 6.40944 20.4671 6.33007 20.5002C6.25071 20.5333 6.16337 20.5419 6.07911 20.5251C5.99486 20.5082 5.91746 20.4666 5.85671 20.4055C5.79597 20.3443 5.7546 20.2664 5.73784 20.1817C5.72108 20.0969 5.72968 20.009 5.76256 19.9291C5.79543 19.8492 5.85111 19.781 5.92254 19.7329C5.99397 19.6849 6.07794 19.6593 6.16385 19.6593C6.22095 19.6591 6.27754 19.6702 6.33033 19.6921C6.38313 19.714 6.4311 19.7462 6.47148 19.7868C6.51186 19.8274 6.54384 19.8757 6.5656 19.9288C6.58735 19.982 6.59843 20.0389 6.59821 20.0964Z" fill="white"/>
<path fill-rule="evenodd" clip-rule="evenodd" d="M6.28404 19.8051C6.24607 19.7894 6.20538 19.7814 6.16431 19.7815C6.10244 19.7815 6.04148 19.8 5.99003 19.8346C5.93857 19.8692 5.89846 19.9184 5.87477 19.9759C5.85108 20.0335 5.84488 20.0968 5.85696 20.1579C5.86904 20.219 5.89885 20.2751 5.94261 20.3192C5.98637 20.3632 6.04212 20.3932 6.10281 20.4053C6.16349 20.4175 6.2264 20.4113 6.28356 20.3874C6.34073 20.3636 6.3896 20.3232 6.42399 20.2714C6.45838 20.2196 6.47674 20.1588 6.47674 20.0965C6.4769 20.0551 6.46892 20.0137 6.45327 19.9754C6.43762 19.9372 6.41461 19.9025 6.38556 19.8733C6.35652 19.844 6.32201 19.8209 6.28404 19.8051ZM6.16337 19.5372C6.23651 19.5369 6.30898 19.5512 6.37661 19.5792C6.44423 19.6073 6.50567 19.6485 6.55738 19.7005C6.60909 19.7526 6.65005 19.8144 6.6779 19.8824C6.70572 19.9504 6.71991 20.0232 6.71966 20.0967C6.71962 20.2072 6.68703 20.3152 6.626 20.4071C6.56494 20.4991 6.47813 20.5708 6.37656 20.6131C6.27499 20.6555 6.16323 20.6666 6.0554 20.645C5.94757 20.6234 5.84853 20.5701 5.7708 20.4919C5.69307 20.4137 5.64014 20.314 5.6187 20.2056C5.59726 20.0971 5.60826 19.9846 5.65032 19.8824C5.69239 19.7803 5.76362 19.6929 5.85502 19.6315C5.94643 19.57 6.05343 19.5372 6.16337 19.5372Z" fill="white"/>
<path d="M4.17845 24.6734C4.17845 24.7496 4.156 24.8241 4.11395 24.8874C4.07189 24.9508 4.01211 25.0001 3.94216 25.0293C3.87222 25.0585 3.79526 25.0661 3.72101 25.0512C3.64676 25.0364 3.57856 24.9997 3.52503 24.9458C3.4715 24.8919 3.43504 24.8233 3.42027 24.7486C3.4055 24.6739 3.41308 24.5964 3.44205 24.526C3.47102 24.4556 3.52008 24.3955 3.58303 24.3532C3.64598 24.3108 3.71998 24.2883 3.79569 24.2883C3.8972 24.2883 3.99456 24.3288 4.06634 24.4011C4.13813 24.4733 4.17845 24.5713 4.17845 24.6734Z" fill="white"/>
<path fill-rule="evenodd" clip-rule="evenodd" d="M3.79568 24.4104C3.74401 24.4104 3.69349 24.4258 3.65052 24.4547C3.60755 24.4836 3.57405 24.5247 3.55427 24.5727C3.53448 24.6208 3.52931 24.6737 3.53939 24.7247C3.54948 24.7757 3.57438 24.8226 3.61092 24.8594C3.64747 24.8962 3.69403 24.9212 3.74471 24.9314C3.79539 24.9415 3.84792 24.9363 3.89565 24.9164C3.94339 24.8965 3.98421 24.8628 4.01293 24.8195C4.04165 24.7763 4.05698 24.7254 4.05698 24.6734C4.05698 24.6036 4.02944 24.5367 3.98043 24.4874C3.93142 24.4381 3.86496 24.4104 3.79568 24.4104ZM3.51552 24.2516C3.59844 24.1958 3.69594 24.166 3.79568 24.166C3.92942 24.166 4.05768 24.2195 4.15224 24.3147C4.2468 24.4098 4.2999 24.5389 4.2999 24.6734C4.2999 24.7737 4.27034 24.8718 4.21494 24.9552C4.15954 25.0387 4.0808 25.1037 3.98865 25.1421C3.89651 25.1805 3.79512 25.1906 3.69729 25.171C3.59947 25.1514 3.50963 25.1031 3.43911 25.0321C3.3686 24.9612 3.32058 24.8708 3.30113 24.7724C3.28168 24.674 3.29166 24.572 3.32982 24.4793C3.36798 24.3866 3.4326 24.3073 3.51552 24.2516Z" fill="white"/>
</g>
<defs>
<clipPath id="clip0_666_9257">
<rect width="278" height="79" fill="white" transform="translate(0 0.600098)"/>
</clipPath>
</defs>
</svg>
