<svg width="307" height="180" viewBox="0 0 307 180" fill="none" xmlns="http://www.w3.org/2000/svg">
<path d="M41.4139 106.288L41.293 105.547C41.3083 105.545 41.3238 105.543 41.3392 105.541L41.4139 106.288ZM109.397 109.643L110.103 109.897L109.397 109.643ZM150.477 99.1095L150.867 98.4693C150.872 98.4723 150.877 98.4753 150.882 98.4784L150.477 99.1095ZM255.692 51.1116L255.55 51.848C255.544 51.8468 255.538 51.8456 255.533 51.8444L255.692 51.1116ZM303.966 84.9464C303.881 85.3519 303.484 85.6118 303.078 85.5269L296.471 84.1444C296.066 84.0596 295.806 83.6622 295.891 83.2567C295.976 82.8513 296.373 82.5914 296.779 82.6762L302.652 83.9051L303.88 78.0323C303.965 77.6269 304.363 77.367 304.768 77.4518C305.174 77.5367 305.433 77.9341 305.349 78.3395L303.966 84.9464ZM192.002 79.5546L191.262 79.4293L192.002 79.5546ZM204.054 55.1994L204.424 55.8517L204.054 55.1994ZM178.618 104.478L178.396 103.762L178.618 104.478ZM188.073 94.5967L187.37 94.3349L188.073 94.5967ZM64.3296 113.209L63.9101 113.831L64.3296 113.209ZM88.0191 127.219L87.9924 127.968L88.0191 127.219ZM0.149244 139.187C0.176648 138.774 0.533914 138.461 0.94722 138.488C1.36053 138.516 1.67336 138.873 1.64596 139.286L0.149244 139.187ZM2.89588 133.844C2.74642 134.231 2.31209 134.423 1.92578 134.273C1.53948 134.124 1.34747 133.689 1.49694 133.303L2.89588 133.844ZM4.27775 128.005C4.50665 127.66 4.97206 127.566 5.31729 127.795C5.66251 128.024 5.75682 128.489 5.52793 128.834L4.27775 128.005ZM9.06448 124.35C8.78446 124.655 8.31003 124.676 8.00481 124.395C7.69958 124.115 7.67915 123.641 7.95917 123.336L9.06448 124.35ZM12.2308 119.232C12.5459 118.964 13.0193 119.001 13.2882 119.316C13.557 119.631 13.5196 120.105 13.2045 120.373L12.2308 119.232ZM17.7722 116.873C17.4312 117.108 16.9641 117.022 16.729 116.681C16.4938 116.34 16.5795 115.873 16.9205 115.638L17.7722 116.873ZM21.9311 112.519C22.2925 112.316 22.7496 112.445 22.952 112.806C23.1545 113.168 23.0257 113.625 22.6644 113.827L21.9311 112.519ZM27.8159 111.239C27.4377 111.408 26.9941 111.239 26.8252 110.861C26.6562 110.482 26.8258 110.039 27.2039 109.87L27.8159 111.239ZM32.7001 107.715C33.0925 107.582 33.5182 107.793 33.6508 108.185C33.7834 108.578 33.5728 109.003 33.1804 109.136L32.7001 107.715ZM38.7182 107.575C38.3141 107.666 37.9128 107.412 37.822 107.008C37.7312 106.604 37.9852 106.202 38.3893 106.112L38.7182 107.575ZM44.49 105.481C44.9038 105.5 45.2234 105.851 45.2039 106.265C45.1845 106.679 44.8333 106.998 44.4195 106.979L44.49 105.481ZM50.3033 107.829C49.8999 107.735 49.6493 107.331 49.7435 106.928C49.8377 106.525 50.2411 106.274 50.6445 106.368L50.3033 107.829ZM56.5532 108.236C56.9378 108.39 57.1248 108.826 56.9709 109.211C56.817 109.595 56.3804 109.782 55.9959 109.629L56.5532 108.236ZM61.3731 112.244C61.0145 112.037 60.8917 111.578 61.0989 111.219C61.3061 110.861 61.7648 110.738 62.1235 110.945L61.3731 112.244ZM67.6165 114.681C67.9434 114.935 68.0022 115.407 67.7479 115.734C67.4935 116.06 67.0223 116.119 66.6954 115.865L67.6165 114.681ZM72.1009 120.285C71.7804 120.022 71.7333 119.55 71.9957 119.229C72.2581 118.909 72.7307 118.862 73.0512 119.124L72.1009 120.285ZM78.5973 123.235C78.948 123.456 79.0534 123.919 78.8329 124.269C78.6123 124.62 78.1493 124.725 77.7987 124.505L78.5973 123.235ZM84.3762 127.448C83.9747 127.346 83.7316 126.938 83.8333 126.537C83.935 126.135 84.343 125.892 84.7445 125.994L84.3762 127.448ZM91.6258 126.276C92.0355 126.215 92.4171 126.497 92.478 126.907C92.539 127.317 92.2563 127.698 91.8466 127.759L91.6258 126.276ZM99.0834 125.113C98.7314 125.332 98.269 125.223 98.0507 124.871C97.8323 124.519 97.9407 124.057 98.2926 123.839L99.0834 125.113ZM103.578 119.015C103.834 118.69 104.305 118.633 104.631 118.889C104.957 119.145 105.013 119.617 104.757 119.942L103.578 119.015ZM108.672 113.41C108.499 113.787 108.053 113.952 107.677 113.779C107.301 113.606 107.136 113.161 107.308 112.784L108.672 113.41ZM109.897 106.438C110.071 106.062 110.517 105.898 110.893 106.072C111.269 106.245 111.433 106.691 111.259 107.067L109.897 106.438ZM114.349 101.884C114.097 102.213 113.626 102.274 113.298 102.022C112.969 101.769 112.908 101.298 113.16 100.97L114.349 101.884ZM117.739 96.4894C118.075 96.2472 118.544 96.3233 118.786 96.6594C119.028 96.9955 118.952 97.4642 118.616 97.7063L117.739 96.4894ZM123.937 95.0301C123.543 95.1566 123.12 94.9394 122.994 94.545C122.867 94.1506 123.084 93.7283 123.479 93.6018L123.937 95.0301ZM129.786 92.5163C130.2 92.4993 130.549 92.8211 130.566 93.2349C130.583 93.6488 130.261 93.9981 129.847 94.015L129.786 92.5163ZM135.887 94.4193C135.478 94.3513 135.202 93.965 135.27 93.5564C135.338 93.1478 135.724 92.8716 136.133 92.9396L135.887 94.4193ZM142.271 94.4915C142.664 94.6238 142.875 95.0493 142.743 95.4418C142.61 95.8343 142.185 96.0452 141.792 95.9129L142.271 94.4915ZM147.426 98.2731C147.057 98.0861 146.909 97.6349 147.096 97.2653C147.283 96.8957 147.734 96.7476 148.103 96.9346L147.426 98.2731ZM154.016 100.259C154.385 100.446 154.533 100.898 154.346 101.267C154.158 101.637 153.707 101.784 153.337 101.597L154.016 100.259ZM160.264 104.428C159.869 104.302 159.65 103.881 159.775 103.486C159.901 103.091 160.322 102.873 160.717 102.998L160.264 104.428ZM167.765 104.552C168.177 104.601 168.47 104.974 168.421 105.385C168.372 105.797 167.999 106.091 167.588 106.042L167.765 104.552ZM175.129 106.017C174.718 106.075 174.339 105.788 174.282 105.378C174.225 104.968 174.511 104.589 174.921 104.532L175.129 106.017ZM181.39 102.335C181.735 102.106 182.2 102.2 182.429 102.546C182.658 102.891 182.564 103.356 182.219 103.585L181.39 102.335ZM187.206 98.1734C186.996 98.5305 186.536 98.6498 186.179 98.4399C185.822 98.23 185.703 97.7704 185.913 97.4133L187.206 98.1734ZM188.608 90.6906C188.731 90.295 189.151 90.0736 189.547 90.1963C189.942 90.3189 190.164 90.739 190.041 91.1347L188.608 90.6906ZM192.008 83.5337C191.922 83.9389 191.524 84.1979 191.119 84.112C190.714 84.0262 190.455 83.6281 190.54 83.2229L192.008 83.5337ZM191.88 75.9509C191.957 75.5439 192.349 75.2763 192.756 75.3533C193.163 75.4302 193.431 75.8225 193.354 76.2295L191.88 75.9509ZM194.941 69.4545C194.823 69.8516 194.405 70.0779 194.008 69.9599C193.611 69.842 193.385 69.4245 193.503 69.0274L194.941 69.4545ZM196.197 62.3681C196.396 62.0049 196.852 61.8721 197.215 62.0713C197.578 62.2706 197.711 62.7265 197.512 63.0897L196.197 62.3681ZM201.68 57.7954C201.368 58.0677 200.894 58.0354 200.622 57.7233C200.35 57.4112 200.382 56.9374 200.694 56.6651L201.68 57.7954ZM206.673 53.0037C207.048 52.8279 207.495 52.9894 207.671 53.3645C207.847 53.7396 207.685 54.1861 207.31 54.3619L206.673 53.0037ZM213.379 52.018C212.984 52.1415 212.563 51.9211 212.44 51.5258C212.316 51.1304 212.537 50.7098 212.932 50.5863L213.379 52.018ZM219.435 48.9688C219.842 48.8914 220.234 49.1586 220.312 49.5655C220.389 49.9725 220.122 50.365 219.715 50.4424L219.435 48.9688ZM226.19 49.547C225.778 49.584 225.413 49.2796 225.376 48.8671C225.339 48.4545 225.644 48.0901 226.056 48.053L226.19 49.547ZM232.728 47.7455C233.143 47.7435 233.48 48.0778 233.482 48.492C233.484 48.9062 233.15 49.2435 232.735 49.2455L232.728 47.7455ZM239.286 49.461C238.872 49.4326 238.56 49.0745 238.589 48.6613C238.617 48.248 238.975 47.9361 239.389 47.9646L239.286 49.461ZM246.017 48.6396C246.427 48.6944 246.716 49.0717 246.661 49.4823C246.606 49.8928 246.229 50.1812 245.818 50.1264L246.017 48.6396ZM252.304 51.1833C251.897 51.1054 251.631 50.7125 251.709 50.3057C251.786 49.8989 252.179 49.6322 252.586 49.71L252.304 51.1833ZM258.786 51.0699C259.186 51.1788 259.422 51.591 259.313 51.9907C259.204 52.3903 258.792 52.6261 258.392 52.5172L258.786 51.0699ZM263.982 54.3573C263.595 54.2099 263.401 53.7766 263.548 53.3895C263.696 53.0024 264.129 52.808 264.516 52.9554L263.982 54.3573ZM270.057 55.3198C270.432 55.4967 270.592 55.9437 270.415 56.3182C270.239 56.6928 269.792 56.8531 269.417 56.6763L270.057 55.3198ZM274.664 59.3868C274.303 59.1838 274.174 58.7265 274.377 58.3655C274.58 58.0044 275.038 57.8762 275.399 58.0792L274.664 59.3868ZM280.536 61.2078C280.882 61.4354 280.978 61.9005 280.75 62.2465C280.523 62.5926 280.058 62.6886 279.712 62.461L280.536 61.2078ZM284.532 65.8801C284.203 65.6286 284.14 65.158 284.391 64.8288C284.643 64.4996 285.113 64.4365 285.443 64.6879L284.532 65.8801ZM290.092 68.5099C290.402 68.7844 290.431 69.2584 290.156 69.5686C289.882 69.8788 289.408 69.9078 289.098 69.6334L290.092 68.5099ZM293.374 73.7072C293.085 73.4105 293.091 72.9357 293.388 72.6466C293.684 72.3576 294.159 72.3638 294.448 72.6604L293.374 73.7072ZM298.481 77.1268C298.747 77.4446 298.705 77.9176 298.387 78.1833C298.069 78.4489 297.596 78.4066 297.33 78.0888L298.481 77.1268ZM300.939 82.7626C300.699 82.4251 300.778 81.9568 301.115 81.7167C301.453 81.4765 301.921 81.5554 302.161 81.8929L300.939 82.7626ZM0.221091 142.236C0.103422 141.222 0.0818291 140.204 0.149244 139.187L1.64596 139.286C1.58433 140.216 1.60429 141.142 1.7111 142.063L0.221091 142.236ZM1.49694 133.303C2.19355 131.502 3.13443 129.73 4.27775 128.005L5.52793 128.834C4.43614 130.481 3.54837 132.158 2.89588 133.844L1.49694 133.303ZM7.95917 123.336C9.2619 121.916 10.6943 120.544 12.2308 119.232L13.2045 120.373C11.7105 121.648 10.3227 122.978 9.06448 124.35L7.95917 123.336ZM16.9205 115.638C18.5258 114.531 20.2027 113.487 21.9311 112.519L22.6644 113.827C20.9756 114.774 19.3382 115.792 17.7722 116.873L16.9205 115.638ZM27.2039 109.87C29.0102 109.063 30.8489 108.341 32.7001 107.715L33.1804 109.136C31.3752 109.746 29.5804 110.451 27.8159 111.239L27.2039 109.87ZM38.3893 106.112C39.3599 105.894 40.3288 105.705 41.293 105.547L41.5348 107.028C40.6009 107.18 39.6611 107.363 38.7182 107.575L38.3893 106.112ZM41.3392 105.541C42.2327 105.452 43.2945 105.424 44.49 105.481L44.4195 106.979C43.286 106.926 42.2985 106.953 41.4886 107.034L41.3392 105.541ZM50.6445 106.368C52.5008 106.802 54.4899 107.41 56.5532 108.236L55.9959 109.629C54.0052 108.832 52.0884 108.246 50.3033 107.829L50.6445 106.368ZM62.1235 110.945C62.9963 111.449 63.8729 111.996 64.7492 112.587L63.9101 113.831C63.0632 113.259 62.2162 112.731 61.3731 112.244L62.1235 110.945ZM64.7492 112.587C65.7262 113.246 66.6797 113.952 67.6165 114.681L66.6954 115.865C65.777 115.15 64.8516 114.466 63.9101 113.831L64.7492 112.587ZM73.0512 119.124C74.8831 120.624 76.7065 122.046 78.5973 123.235L77.7987 124.505C75.8264 123.264 73.9448 121.794 72.1009 120.285L73.0512 119.124ZM84.7445 125.994C85.8074 126.263 86.9046 126.428 88.0459 126.469L87.9924 127.968C86.7392 127.923 85.5365 127.742 84.3762 127.448L84.7445 125.994ZM88.0459 126.469C89.2292 126.511 90.4277 126.454 91.6258 126.276L91.8466 127.759C90.5508 127.952 89.2601 128.013 87.9924 127.968L88.0459 126.469ZM98.2926 123.839C100.139 122.693 101.924 121.12 103.578 119.015L104.757 119.942C103.002 122.176 101.087 123.87 99.0834 125.113L98.2926 123.839ZM107.308 112.784C107.793 111.728 108.255 110.598 108.691 109.389L110.103 109.897C109.653 111.144 109.175 112.314 108.672 113.41L107.308 112.784ZM108.691 109.389C109.066 108.35 109.469 107.367 109.897 106.438L111.259 107.067C110.85 107.955 110.463 108.897 110.103 109.897L108.691 109.389ZM113.16 100.97C114.556 99.1532 116.096 97.6735 117.739 96.4894L118.616 97.7063C117.095 98.8025 115.66 100.179 114.349 101.884L113.16 100.97ZM123.479 93.6018C125.539 92.941 127.662 92.6034 129.786 92.5163L129.847 94.015C127.841 94.0973 125.853 94.4156 123.937 95.0301L123.479 93.6018ZM136.133 92.9396C138.256 93.2926 140.323 93.8346 142.271 94.4915L141.792 95.9129C139.91 95.2784 137.921 94.7576 135.887 94.4193L136.133 92.9396ZM148.103 96.9346C149.096 97.4369 150.022 97.9538 150.867 98.4693L150.086 99.7498C149.276 99.2557 148.385 98.758 147.426 98.2731L148.103 96.9346ZM150.882 98.4784C151.765 99.0451 152.821 99.6527 154.016 100.259L153.337 101.597C152.101 100.969 151.001 100.337 150.072 99.7407L150.882 98.4784ZM160.717 102.998C162.942 103.703 165.326 104.262 167.765 104.552L167.588 106.042C165.04 105.738 162.563 105.157 160.264 104.428L160.717 102.998ZM174.921 104.532C176.095 104.368 177.256 104.115 178.396 103.762L178.84 105.195C177.618 105.574 176.377 105.843 175.129 106.017L174.921 104.532ZM178.396 103.762C179.474 103.428 180.473 102.943 181.39 102.335L182.219 103.585C181.189 104.268 180.062 104.816 178.84 105.195L178.396 103.762ZM185.913 97.4133C186.485 96.4398 186.972 95.4041 187.37 94.3349L188.775 94.8585C188.349 96.0047 187.825 97.1201 187.206 98.1734L185.913 97.4133ZM187.37 94.3349C187.782 93.2289 188.199 92.0126 188.608 90.6906L190.041 91.1347C189.623 92.4829 189.197 93.7257 188.775 94.8585L187.37 94.3349ZM190.54 83.2229C190.797 82.0097 191.04 80.7446 191.262 79.4293L192.741 79.6798C192.515 81.0154 192.269 82.3007 192.008 83.5337L190.54 83.2229ZM191.262 79.4293C191.457 78.2785 191.66 77.1147 191.88 75.9509L193.354 76.2295C193.136 77.3797 192.936 78.5327 192.741 79.6798L191.262 79.4293ZM193.503 69.0274C194.196 66.6919 195.062 64.4367 196.197 62.3681L197.512 63.0897C196.442 65.0395 195.614 67.1893 194.941 69.4545L193.503 69.0274ZM200.694 56.6651C201.595 55.8787 202.588 55.1684 203.684 54.547L204.424 55.8517C203.417 56.4225 202.507 57.0741 201.68 57.7954L200.694 56.6651ZM203.684 54.547C204.622 54.0148 205.618 53.4983 206.673 53.0037L207.31 54.3619C206.289 54.8402 205.328 55.3388 204.424 55.8517L203.684 54.547ZM212.932 50.5863C214.945 49.9576 217.111 49.4105 219.435 48.9688L219.715 50.4424C217.446 50.8736 215.336 51.4068 213.379 52.018L212.932 50.5863ZM226.056 48.053C228.173 47.8631 230.396 47.7564 232.728 47.7455L232.735 49.2455C230.444 49.2562 228.264 49.361 226.19 49.547L226.056 48.053ZM239.389 47.9646C241.519 48.1112 243.728 48.3337 246.017 48.6396L245.818 50.1264C243.56 49.8246 241.383 49.6054 239.286 49.461L239.389 47.9646ZM252.586 49.71C253.659 49.9153 254.748 50.138 255.852 50.3788L255.533 51.8444C254.44 51.6062 253.364 51.3861 252.304 51.1833L252.586 49.71ZM255.835 50.3752C256.72 50.5461 257.709 50.7766 258.786 51.0699L258.392 52.5172C257.347 52.2325 256.394 52.0109 255.55 51.848L255.835 50.3752ZM264.516 52.9554C266.26 53.6195 268.119 54.4047 270.057 55.3198L269.417 56.6763C267.514 55.7776 265.69 55.0076 263.982 54.3573L264.516 52.9554ZM275.399 58.0792C277.085 59.027 278.804 60.0682 280.536 61.2078L279.712 62.461C278.009 61.3412 276.32 60.3181 274.664 59.3868L275.399 58.0792ZM285.443 64.6879C287.001 65.8779 288.555 67.1507 290.092 68.5099L289.098 69.6334C287.589 68.2989 286.063 67.049 284.532 65.8801L285.443 64.6879ZM294.448 72.6604C295.823 74.0716 297.171 75.5594 298.481 77.1268L297.33 78.0888C296.045 76.5516 294.723 75.0919 293.374 73.7072L294.448 72.6604ZM302.161 81.8929C302.738 82.7044 303.305 83.5341 303.86 84.3824L302.604 85.2033C302.06 84.3717 301.505 83.5582 300.939 82.7626L302.161 81.8929Z" fill="url(#paint0_linear_1063_3662)"/>
<g filter="url(#filter0_d_1063_3662)">
<rect x="226.936" y="100.5" width="40" height="40" rx="20" fill="white"/>
<path d="M256.936 110.5L245.936 121.5M256.936 110.5L249.936 130.5L245.936 121.5M256.936 110.5L236.936 117.5L245.936 121.5" stroke="#06AB58" stroke-linecap="round" stroke-linejoin="round"/>
</g>
<g filter="url(#filter1_d_1063_3662)">
<rect x="34.0996" y="16" width="37" height="41" rx="18.5" fill="white"/>
<path d="M48.4181 35.65L51.873 28C52.5602 28 53.2192 28.2687 53.7051 28.7469C54.1911 29.2251 54.4641 29.8737 54.4641 30.55V33.95H59.3526C59.603 33.9472 59.8511 33.998 60.0795 34.0989C60.308 34.1998 60.5114 34.3484 60.6757 34.5343C60.84 34.7203 60.9613 34.9392 61.0311 35.1759C61.1009 35.4125 61.1176 35.6613 61.08 35.9049L59.8881 43.5549C59.8257 43.9603 59.6164 44.3298 59.299 44.5953C58.9816 44.8608 58.5773 45.0045 58.1607 44.9999H48.4181M48.4181 35.65V44.9999M48.4181 35.65H45.827C45.3689 35.65 44.9295 35.8291 44.6056 36.1479C44.2816 36.4667 44.0996 36.8991 44.0996 37.3499V43.2999C44.0996 43.7508 44.2816 44.1832 44.6056 44.502C44.9295 44.8208 45.3689 44.9999 45.827 44.9999H48.4181" stroke="#7ED957" stroke-width="1.5" stroke-linecap="round" stroke-linejoin="round"/>
</g>
<defs>
<filter id="filter0_d_1063_3662" x="206.936" y="84.5" width="80" height="80" filterUnits="userSpaceOnUse" color-interpolation-filters="sRGB">
<feFlood flood-opacity="0" result="BackgroundImageFix"/>
<feColorMatrix in="SourceAlpha" type="matrix" values="0 0 0 0 0 0 0 0 0 0 0 0 0 0 0 0 0 0 127 0" result="hardAlpha"/>
<feOffset dy="4"/>
<feGaussianBlur stdDeviation="10"/>
<feComposite in2="hardAlpha" operator="out"/>
<feColorMatrix type="matrix" values="0 0 0 0 0 0 0 0 0 0 0 0 0 0 0 0 0 0 0.15 0"/>
<feBlend mode="normal" in2="BackgroundImageFix" result="effect1_dropShadow_1063_3662"/>
<feBlend mode="normal" in="SourceGraphic" in2="effect1_dropShadow_1063_3662" result="shape"/>
</filter>
<filter id="filter1_d_1063_3662" x="14.0996" y="0" width="77" height="81" filterUnits="userSpaceOnUse" color-interpolation-filters="sRGB">
<feFlood flood-opacity="0" result="BackgroundImageFix"/>
<feColorMatrix in="SourceAlpha" type="matrix" values="0 0 0 0 0 0 0 0 0 0 0 0 0 0 0 0 0 0 127 0" result="hardAlpha"/>
<feOffset dy="4"/>
<feGaussianBlur stdDeviation="10"/>
<feComposite in2="hardAlpha" operator="out"/>
<feColorMatrix type="matrix" values="0 0 0 0 0 0 0 0 0 0 0 0 0 0 0 0 0 0 0.15 0"/>
<feBlend mode="normal" in2="BackgroundImageFix" result="effect1_dropShadow_1063_3662"/>
<feBlend mode="normal" in="SourceGraphic" in2="effect1_dropShadow_1063_3662" result="shape"/>
</filter>
<linearGradient id="paint0_linear_1063_3662" x1="149.56" y1="131.113" x2="158.241" y2="64.4561" gradientUnits="userSpaceOnUse">
<stop stop-color="#00D2FF"/>
<stop offset="1" stop-color="#3A7BD5"/>
</linearGradient>
</defs>
</svg>
