<svg width="110" height="49" viewBox="0 0 110 49" fill="none" xmlns="http://www.w3.org/2000/svg">
<g opacity="0.4" filter="url(#filter0_f_1074_3305)">
<path fill-rule="evenodd" clip-rule="evenodd" d="M48.7261 10.4127C53.6081 11.0729 56.8267 16.5653 57.762 21.4849C58.5675 25.7212 55.296 29.3799 53.0352 33.0775C51.422 35.7161 49.3414 37.7022 46.7965 39.4195C43.624 41.5603 40.535 44.6006 36.8051 44.0297C32.6455 43.393 29.3464 40.1599 27.3033 36.4357C25.1071 32.4327 23.1673 27.321 25.425 23.2865C27.5945 19.4097 33.3732 20.8351 37.224 18.7075C41.5135 16.3376 43.9276 9.76376 48.7261 10.4127Z" fill="url(#paint0_linear_1074_3305)"/>
</g>
<g filter="url(#filter1_b_1074_3305)">
<rect width="110" height="36" rx="18" fill="white" fill-opacity="0.3"/>
<rect x="5" y="5" width="26" height="26" rx="13" fill="#E7E7E7"/>
<path d="M12 20L17.9945 16.0037C17.9978 16.0015 18.0022 16.0015 18.0055 16.0037L24 20" stroke="url(#paint1_linear_1074_3305)" stroke-width="5" stroke-linecap="round"/>
<path d="M45.6736 6.952H42.9936V8.544C43.1056 8.39467 43.2709 8.26933 43.4896 8.168C43.7136 8.06667 43.9509 8.016 44.2016 8.016C44.6496 8.016 45.0123 8.112 45.2896 8.304C45.5723 8.496 45.7723 8.73867 45.8896 9.032C46.0123 9.32533 46.0736 9.63467 46.0736 9.96C46.0736 10.3547 45.9963 10.7067 45.8416 11.016C45.6923 11.32 45.4656 11.56 45.1616 11.736C44.8629 11.912 44.4949 12 44.0576 12C43.4763 12 43.0096 11.856 42.6576 11.568C42.3056 11.28 42.0949 10.8987 42.0256 10.424H42.9136C42.9723 10.6747 43.1029 10.8747 43.3056 11.024C43.5083 11.168 43.7616 11.24 44.0656 11.24C44.4443 11.24 44.7269 11.1253 44.9136 10.896C45.1056 10.6667 45.2016 10.3627 45.2016 9.984C45.2016 9.6 45.1056 9.30667 44.9136 9.104C44.7216 8.896 44.4389 8.792 44.0656 8.792C43.8043 8.792 43.5829 8.85867 43.4016 8.992C43.2256 9.12 43.0976 9.296 43.0176 9.52H42.1536V6.152H45.6736V6.952ZM47.511 12.056C47.3456 12.056 47.207 12 47.095 11.888C46.983 11.776 46.927 11.6373 46.927 11.472C46.927 11.3067 46.983 11.168 47.095 11.056C47.207 10.944 47.3456 10.888 47.511 10.888C47.671 10.888 47.807 10.944 47.919 11.056C48.031 11.168 48.087 11.3067 48.087 11.472C48.087 11.6373 48.031 11.776 47.919 11.888C47.807 12 47.671 12.056 47.511 12.056ZM48.9527 9.008C48.9527 8.08533 49.1073 7.36533 49.4167 6.848C49.7313 6.32533 50.27 6.064 51.0327 6.064C51.7953 6.064 52.3313 6.32533 52.6407 6.848C52.9553 7.36533 53.1127 8.08533 53.1127 9.008C53.1127 9.94133 52.9553 10.672 52.6407 11.2C52.3313 11.7227 51.7953 11.984 51.0327 11.984C50.27 11.984 49.7313 11.7227 49.4167 11.2C49.1073 10.672 48.9527 9.94133 48.9527 9.008ZM52.2167 9.008C52.2167 8.576 52.1873 8.21067 52.1287 7.912C52.0753 7.61333 51.9633 7.37067 51.7927 7.184C51.622 6.992 51.3687 6.896 51.0327 6.896C50.6967 6.896 50.4433 6.992 50.2727 7.184C50.102 7.37067 49.9873 7.61333 49.9287 7.912C49.8753 8.21067 49.8487 8.576 49.8487 9.008C49.8487 9.456 49.8753 9.832 49.9287 10.136C49.982 10.44 50.094 10.6853 50.2647 10.872C50.4407 11.0587 50.6967 11.152 51.0327 11.152C51.3687 11.152 51.622 11.0587 51.7927 10.872C51.9687 10.6853 52.0833 10.44 52.1367 10.136C52.19 9.832 52.2167 9.456 52.2167 9.008ZM58.4937 9.496H56.8777V11.152H56.0297V9.496H54.4137V8.728H56.0297V7.072H56.8777V8.728H58.4937V9.496ZM64.8747 12L63.5947 9.776H62.8987V12H61.9867V6.44H63.9067C64.3334 6.44 64.6934 6.51467 64.9867 6.664C65.2854 6.81333 65.5067 7.01333 65.6507 7.264C65.8001 7.51467 65.8747 7.79467 65.8747 8.104C65.8747 8.46667 65.7681 8.79733 65.5547 9.096C65.3467 9.38933 65.0241 9.58933 64.5867 9.696L65.9627 12H64.8747ZM62.8987 9.048H63.9067C64.2481 9.048 64.5041 8.96267 64.6747 8.792C64.8507 8.62133 64.9387 8.392 64.9387 8.104C64.9387 7.816 64.8534 7.592 64.6827 7.432C64.5121 7.26667 64.2534 7.184 63.9067 7.184H62.8987V9.048ZM66.7374 9.776C66.7374 9.33333 66.8281 8.94133 67.0094 8.6C67.1961 8.25867 67.4467 7.99467 67.7614 7.808C68.0814 7.616 68.4334 7.52 68.8174 7.52C69.1641 7.52 69.4654 7.58933 69.7214 7.728C69.9827 7.86133 70.1907 8.02933 70.3454 8.232V7.592H71.2654V12H70.3454V11.344C70.1907 11.552 69.9801 11.7253 69.7134 11.864C69.4467 12.0027 69.1427 12.072 68.8014 12.072C68.4227 12.072 68.0761 11.976 67.7614 11.784C67.4467 11.5867 67.1961 11.3147 67.0094 10.968C66.8281 10.616 66.7374 10.2187 66.7374 9.776ZM70.3454 9.792C70.3454 9.488 70.2814 9.224 70.1534 9C70.0307 8.776 69.8681 8.60533 69.6654 8.488C69.4627 8.37067 69.2441 8.312 69.0094 8.312C68.7747 8.312 68.5561 8.37067 68.3534 8.488C68.1507 8.6 67.9854 8.768 67.8574 8.992C67.7347 9.21067 67.6734 9.472 67.6734 9.776C67.6734 10.08 67.7347 10.3467 67.8574 10.576C67.9854 10.8053 68.1507 10.9813 68.3534 11.104C68.5614 11.2213 68.7801 11.28 69.0094 11.28C69.2441 11.28 69.4627 11.2213 69.6654 11.104C69.8681 10.9867 70.0307 10.816 70.1534 10.592C70.2814 10.3627 70.3454 10.096 70.3454 9.792ZM73.5273 8.336V10.776C73.5273 10.9413 73.5646 11.0613 73.6393 11.136C73.7193 11.2053 73.8526 11.24 74.0393 11.24H74.5993V12H73.8793C73.4686 12 73.1539 11.904 72.9353 11.712C72.7166 11.52 72.6073 11.208 72.6073 10.776V8.336H72.0873V7.592H72.6073V6.496H73.5273V7.592H74.5993V8.336H73.5273ZM75.9038 7.008C75.7385 7.008 75.5998 6.952 75.4878 6.84C75.3758 6.728 75.3198 6.58933 75.3198 6.424C75.3198 6.25867 75.3758 6.12 75.4878 6.008C75.5998 5.896 75.7385 5.84 75.9038 5.84C76.0638 5.84 76.1998 5.896 76.3118 6.008C76.4238 6.12 76.4798 6.25867 76.4798 6.424C76.4798 6.58933 76.4238 6.728 76.3118 6.84C76.1998 6.952 76.0638 7.008 75.9038 7.008ZM76.3518 7.592V12H75.4398V7.592H76.3518ZM79.7732 7.52C80.1199 7.52 80.4292 7.592 80.7012 7.736C80.9786 7.88 81.1946 8.09333 81.3492 8.376C81.5039 8.65867 81.5812 9 81.5812 9.4V12H80.6772V9.536C80.6772 9.14133 80.5786 8.84 80.3812 8.632C80.1839 8.41867 79.9146 8.312 79.5732 8.312C79.2319 8.312 78.9599 8.41867 78.7572 8.632C78.5599 8.84 78.4612 9.14133 78.4612 9.536V12H77.5492V7.592H78.4612V8.096C78.6106 7.91467 78.7999 7.77333 79.0292 7.672C79.2639 7.57067 79.5119 7.52 79.7732 7.52ZM84.5205 7.52C84.8619 7.52 85.1632 7.58933 85.4245 7.728C85.6912 7.86133 85.8992 8.02933 86.0485 8.232V7.592H86.9685V12.072C86.9685 12.4773 86.8832 12.8373 86.7125 13.152C86.5419 13.472 86.2939 13.7227 85.9685 13.904C85.6485 14.0853 85.2645 14.176 84.8165 14.176C84.2192 14.176 83.7232 14.0347 83.3285 13.752C82.9339 13.4747 82.7099 13.096 82.6565 12.616H83.5605C83.6299 12.8453 83.7765 13.0293 84.0005 13.168C84.2299 13.312 84.5019 13.384 84.8165 13.384C85.1845 13.384 85.4805 13.272 85.7045 13.048C85.9339 12.824 86.0485 12.4987 86.0485 12.072V11.336C85.8939 11.544 85.6832 11.72 85.4165 11.864C85.1552 12.0027 84.8565 12.072 84.5205 12.072C84.1365 12.072 83.7845 11.976 83.4645 11.784C83.1499 11.5867 82.8992 11.3147 82.7125 10.968C82.5312 10.616 82.4405 10.2187 82.4405 9.776C82.4405 9.33333 82.5312 8.94133 82.7125 8.6C82.8992 8.25867 83.1499 7.99467 83.4645 7.808C83.7845 7.616 84.1365 7.52 84.5205 7.52ZM86.0485 9.792C86.0485 9.488 85.9845 9.224 85.8565 9C85.7339 8.776 85.5712 8.60533 85.3685 8.488C85.1659 8.37067 84.9472 8.312 84.7125 8.312C84.4779 8.312 84.2592 8.37067 84.0565 8.488C83.8539 8.6 83.6885 8.768 83.5605 8.992C83.4379 9.21067 83.3765 9.472 83.3765 9.776C83.3765 10.08 83.4379 10.3467 83.5605 10.576C83.6885 10.8053 83.8539 10.9813 84.0565 11.104C84.2645 11.2213 84.4832 11.28 84.7125 11.28C84.9472 11.28 85.1659 11.2213 85.3685 11.104C85.5712 10.9867 85.7339 10.816 85.8565 10.592C85.9845 10.3627 86.0485 10.096 86.0485 9.792Z" fill="black"/>
<path d="M45.7284 20.5785C45.8364 20.3485 46.1636 20.3485 46.2716 20.5785L47.4771 23.1465C47.5195 23.237 47.6043 23.3004 47.703 23.3156L50.4233 23.7337C50.6646 23.7707 50.7629 24.0651 50.5924 24.2398L48.6058 26.2744C48.5393 26.3425 48.509 26.4382 48.5244 26.5323L48.9905 29.3902C49.0308 29.6373 48.7684 29.8222 48.5493 29.701L46.1452 28.3716C46.0548 28.3216 45.9452 28.3216 45.8548 28.3716L43.4507 29.701C43.2316 29.8222 42.9692 29.6373 43.0095 29.3902L43.4756 26.5323C43.491 26.4382 43.4607 26.3425 43.3942 26.2744L41.4076 24.2398C41.2371 24.0651 41.3354 23.7707 41.5767 23.7337L44.297 23.3156C44.3957 23.3004 44.4805 23.237 44.5229 23.1465L45.7284 20.5785Z" fill="#FF9922"/>
<path d="M56.7284 20.5785C56.8364 20.3485 57.1636 20.3485 57.2716 20.5785L58.4771 23.1465C58.5195 23.237 58.6043 23.3004 58.703 23.3156L61.4233 23.7337C61.6646 23.7707 61.7629 24.0651 61.5924 24.2398L59.6058 26.2744C59.5393 26.3425 59.509 26.4382 59.5244 26.5323L59.9905 29.3902C60.0308 29.6373 59.7684 29.8222 59.5493 29.701L57.1452 28.3716C57.0548 28.3216 56.9452 28.3216 56.8548 28.3716L54.4507 29.701C54.2316 29.8222 53.9692 29.6373 54.0095 29.3902L54.4756 26.5323C54.491 26.4382 54.4607 26.3425 54.3942 26.2744L52.4076 24.2398C52.2371 24.0651 52.3354 23.7707 52.5767 23.7337L55.297 23.3156C55.3957 23.3004 55.4805 23.237 55.5229 23.1465L56.7284 20.5785Z" fill="#FF9922"/>
<path d="M67.7284 20.5785C67.8364 20.3485 68.1636 20.3485 68.2716 20.5785L69.4771 23.1465C69.5195 23.237 69.6043 23.3004 69.703 23.3156L72.4233 23.7337C72.6646 23.7707 72.7629 24.0651 72.5924 24.2398L70.6058 26.2744C70.5393 26.3425 70.509 26.4382 70.5244 26.5323L70.9905 29.3902C71.0308 29.6373 70.7684 29.8222 70.5493 29.701L68.1452 28.3716C68.0548 28.3216 67.9452 28.3216 67.8548 28.3716L65.4507 29.701C65.2316 29.8222 64.9692 29.6373 65.0095 29.3902L65.4756 26.5323C65.491 26.4382 65.4607 26.3425 65.3942 26.2744L63.4076 24.2398C63.2371 24.0651 63.3354 23.7707 63.5767 23.7337L66.297 23.3156C66.3957 23.3004 66.4805 23.237 66.5229 23.1465L67.7284 20.5785Z" fill="#FF9922"/>
<path d="M78.7284 20.5785C78.8364 20.3485 79.1636 20.3485 79.2716 20.5785L80.4771 23.1465C80.5195 23.237 80.6043 23.3004 80.703 23.3156L83.4233 23.7337C83.6646 23.7707 83.7629 24.0651 83.5924 24.2398L81.6058 26.2744C81.5393 26.3425 81.509 26.4382 81.5244 26.5323L81.9905 29.3902C82.0308 29.6373 81.7684 29.8222 81.5493 29.701L79.1452 28.3716C79.0548 28.3216 78.9452 28.3216 78.8548 28.3716L76.4507 29.701C76.2316 29.8222 75.9692 29.6373 76.0095 29.3902L76.4756 26.5323C76.491 26.4382 76.4607 26.3425 76.3942 26.2744L74.4076 24.2398C74.2371 24.0651 74.3354 23.7707 74.5767 23.7337L77.297 23.3156C77.3957 23.3004 77.4805 23.237 77.5229 23.1465L78.7284 20.5785Z" fill="#FF9922"/>
<path d="M89.7284 20.5785C89.8364 20.3485 90.1636 20.3485 90.2716 20.5785L91.4771 23.1465C91.5195 23.237 91.6043 23.3004 91.703 23.3156L94.4233 23.7337C94.6646 23.7707 94.7629 24.0651 94.5924 24.2398L92.6058 26.2744C92.5393 26.3425 92.509 26.4382 92.5244 26.5323L92.9905 29.3902C93.0308 29.6373 92.7684 29.8222 92.5493 29.701L90.1452 28.3716C90.0548 28.3216 89.9452 28.3216 89.8548 28.3716L87.4507 29.701C87.2316 29.8222 86.9692 29.6373 87.0095 29.3902L87.4756 26.5323C87.491 26.4382 87.4607 26.3425 87.3942 26.2744L85.4076 24.2398C85.2371 24.0651 85.3354 23.7707 85.5767 23.7337L88.297 23.3156C88.3957 23.3004 88.4805 23.237 88.5229 23.1465L89.7284 20.5785Z" fill="#FF9922"/>
</g>
<defs>
<filter id="filter0_f_1074_3305" x="20.4177" y="6.36792" width="41.4691" height="41.7319" filterUnits="userSpaceOnUse" color-interpolation-filters="sRGB">
<feFlood flood-opacity="0" result="BackgroundImageFix"/>
<feBlend mode="normal" in="SourceGraphic" in2="BackgroundImageFix" result="shape"/>
<feGaussianBlur stdDeviation="2" result="effect1_foregroundBlur_1074_3305"/>
</filter>
<filter id="filter1_b_1074_3305" x="-6" y="-6" width="122" height="48" filterUnits="userSpaceOnUse" color-interpolation-filters="sRGB">
<feFlood flood-opacity="0" result="BackgroundImageFix"/>
<feGaussianBlur in="BackgroundImageFix" stdDeviation="3"/>
<feComposite in2="SourceAlpha" operator="in" result="effect1_backgroundBlur_1074_3305"/>
<feBlend mode="normal" in="SourceGraphic" in2="effect1_backgroundBlur_1074_3305" result="shape"/>
</filter>
<linearGradient id="paint0_linear_1074_3305" x1="46.6406" y1="9.50906" x2="34.6086" y2="43.4389" gradientUnits="userSpaceOnUse">
<stop stop-color="#7ED957"/>
<stop offset="1" stop-color="white"/>
</linearGradient>
<linearGradient id="paint1_linear_1074_3305" x1="18" y1="10.7985" x2="18" y2="29.589" gradientUnits="userSpaceOnUse">
<stop stop-color="#7F00FF"/>
<stop offset="1" stop-color="#E100FF"/>
</linearGradient>
</defs>
</svg>
