<svg width="301" height="8" viewBox="0 0 301 8" fill="none" xmlns="http://www.w3.org/2000/svg">
<path d="M0.705156 4.98862C77.5785 5.50573 154.423 5.65782 231.266 6.60079C252.894 6.84413 274.846 6.17494 296.415 7.9392C301.352 8.33463 301.41 -0.364989 296.415 -0.0608067C277.226 1.15592 257.802 0.273791 238.584 0.304209C219.365 0.334627 200.059 0.304215 180.782 0.547561C142.462 0.790907 104.153 1.2776 65.8536 2.00764C44.1374 2.40307 22.4213 3.04185 0.705156 3.74147C0.568091 3.773 0.44551 3.85197 0.357652 3.96534C0.269794 4.07871 0.221924 4.2197 0.221924 4.36504C0.221924 4.51038 0.269794 4.65138 0.357652 4.76475C0.44551 4.87812 0.568091 4.9571 0.705156 4.98862Z" fill="#7ED957"/>
</svg>
